G04 #@! TF.GenerationSoftware,KiCad,Pcbnew,(5.1.5)-3*
G04 #@! TF.CreationDate,2021-12-21T15:30:23+01:00*
G04 #@! TF.ProjectId,NummernstellputOutput,4e756d6d-6572-46e7-9374-656c6c707574,rev?*
G04 #@! TF.SameCoordinates,Original*
G04 #@! TF.FileFunction,Copper,L2,Bot*
G04 #@! TF.FilePolarity,Positive*
%FSLAX46Y46*%
G04 Gerber Fmt 4.6, Leading zero omitted, Abs format (unit mm)*
G04 Created by KiCad (PCBNEW (5.1.5)-3) date 2021-12-21 15:30:23*
%MOMM*%
%LPD*%
G04 APERTURE LIST*
%ADD10C,7.000000*%
%ADD11R,5.000000X10.000000*%
%ADD12R,10.000000X5.000000*%
%ADD13O,1.600000X1.600000*%
%ADD14R,1.600000X1.600000*%
%ADD15C,1.600000*%
%ADD16C,2.100000*%
%ADD17R,2.100000X2.100000*%
%ADD18C,0.100000*%
%ADD19C,2.000000*%
%ADD20C,0.500000*%
G04 APERTURE END LIST*
D10*
X60960000Y-45720000D03*
D11*
X72390000Y-73660000D03*
D12*
X60960000Y-81280000D03*
X48260000Y-81280000D03*
X60960000Y-71120000D03*
D11*
X34290000Y-69850000D03*
D12*
X49530000Y-35560000D03*
X49530000Y-41910000D03*
X69850000Y-60960000D03*
X49530000Y-49530000D03*
D11*
X59690000Y-58420000D03*
D12*
X49530000Y-57150000D03*
X35560000Y-81280000D03*
X22860000Y-81280000D03*
X21590000Y-58420000D03*
D13*
X38100000Y-26670000D03*
X30480000Y-59690000D03*
X38100000Y-29210000D03*
X30480000Y-57150000D03*
X38100000Y-31750000D03*
X30480000Y-54610000D03*
X38100000Y-34290000D03*
X30480000Y-52070000D03*
X38100000Y-36830000D03*
X30480000Y-49530000D03*
X38100000Y-39370000D03*
X30480000Y-46990000D03*
X38100000Y-41910000D03*
X30480000Y-44450000D03*
X38100000Y-44450000D03*
X30480000Y-41910000D03*
X38100000Y-46990000D03*
X30480000Y-39370000D03*
X38100000Y-49530000D03*
X30480000Y-36830000D03*
X38100000Y-52070000D03*
X30480000Y-34290000D03*
X38100000Y-54610000D03*
X30480000Y-31750000D03*
X38100000Y-57150000D03*
X30480000Y-29210000D03*
X38100000Y-59690000D03*
D14*
X30480000Y-26670000D03*
D13*
X53340000Y-19050000D03*
X45720000Y-26670000D03*
X53340000Y-21590000D03*
X45720000Y-24130000D03*
X53340000Y-24130000D03*
X45720000Y-21590000D03*
X53340000Y-26670000D03*
D14*
X45720000Y-19050000D03*
D13*
X52070000Y-63500000D03*
D15*
X52070000Y-73660000D03*
D13*
X48260000Y-64770000D03*
D15*
X48260000Y-74930000D03*
D13*
X44450000Y-64770000D03*
D15*
X44450000Y-74930000D03*
D13*
X40640000Y-64770000D03*
D15*
X40640000Y-74930000D03*
D13*
X27940000Y-64770000D03*
D15*
X27940000Y-74930000D03*
D13*
X24130000Y-64770000D03*
D15*
X24130000Y-74930000D03*
D13*
X20320000Y-64770000D03*
D15*
X20320000Y-74930000D03*
D13*
X26670000Y-52070000D03*
D15*
X16510000Y-52070000D03*
D13*
X66040000Y-26670000D03*
D15*
X55880000Y-26670000D03*
D13*
X66040000Y-19050000D03*
D15*
X55880000Y-19050000D03*
D13*
X55880000Y-22860000D03*
D15*
X66040000Y-22860000D03*
D16*
X71120000Y-33020000D03*
X71120000Y-38100000D03*
X71120000Y-43180000D03*
X71120000Y-48260000D03*
D17*
X71120000Y-53340000D03*
D10*
X72390000Y-85090000D03*
X34290000Y-19050000D03*
G04 #@! TA.AperFunction,SMDPad,CuDef*
D18*
G36*
X26050000Y-46240602D02*
G01*
X26074534Y-46240602D01*
X26123365Y-46245412D01*
X26171490Y-46254984D01*
X26218445Y-46269228D01*
X26263778Y-46288005D01*
X26307051Y-46311136D01*
X26347850Y-46338396D01*
X26385779Y-46369524D01*
X26420476Y-46404221D01*
X26451604Y-46442150D01*
X26478864Y-46482949D01*
X26501995Y-46526222D01*
X26520772Y-46571555D01*
X26535016Y-46618510D01*
X26544588Y-46666635D01*
X26549398Y-46715466D01*
X26549398Y-46740000D01*
X26550000Y-46740000D01*
X26550000Y-47240000D01*
X26549398Y-47240000D01*
X26549398Y-47264534D01*
X26544588Y-47313365D01*
X26535016Y-47361490D01*
X26520772Y-47408445D01*
X26501995Y-47453778D01*
X26478864Y-47497051D01*
X26451604Y-47537850D01*
X26420476Y-47575779D01*
X26385779Y-47610476D01*
X26347850Y-47641604D01*
X26307051Y-47668864D01*
X26263778Y-47691995D01*
X26218445Y-47710772D01*
X26171490Y-47725016D01*
X26123365Y-47734588D01*
X26074534Y-47739398D01*
X26050000Y-47739398D01*
X26050000Y-47740000D01*
X25550000Y-47740000D01*
X25550000Y-46240000D01*
X26050000Y-46240000D01*
X26050000Y-46240602D01*
G37*
G04 #@! TD.AperFunction*
G04 #@! TA.AperFunction,SMDPad,CuDef*
G36*
X25250000Y-47740000D02*
G01*
X24750000Y-47740000D01*
X24750000Y-47739398D01*
X24725466Y-47739398D01*
X24676635Y-47734588D01*
X24628510Y-47725016D01*
X24581555Y-47710772D01*
X24536222Y-47691995D01*
X24492949Y-47668864D01*
X24452150Y-47641604D01*
X24414221Y-47610476D01*
X24379524Y-47575779D01*
X24348396Y-47537850D01*
X24321136Y-47497051D01*
X24298005Y-47453778D01*
X24279228Y-47408445D01*
X24264984Y-47361490D01*
X24255412Y-47313365D01*
X24250602Y-47264534D01*
X24250602Y-47240000D01*
X24250000Y-47240000D01*
X24250000Y-46740000D01*
X24250602Y-46740000D01*
X24250602Y-46715466D01*
X24255412Y-46666635D01*
X24264984Y-46618510D01*
X24279228Y-46571555D01*
X24298005Y-46526222D01*
X24321136Y-46482949D01*
X24348396Y-46442150D01*
X24379524Y-46404221D01*
X24414221Y-46369524D01*
X24452150Y-46338396D01*
X24492949Y-46311136D01*
X24536222Y-46288005D01*
X24581555Y-46269228D01*
X24628510Y-46254984D01*
X24676635Y-46245412D01*
X24725466Y-46240602D01*
X24750000Y-46240602D01*
X24750000Y-46240000D01*
X25250000Y-46240000D01*
X25250000Y-47740000D01*
G37*
G04 #@! TD.AperFunction*
G04 #@! TA.AperFunction,SMDPad,CuDef*
G36*
X24750000Y-43929398D02*
G01*
X24725466Y-43929398D01*
X24676635Y-43924588D01*
X24628510Y-43915016D01*
X24581555Y-43900772D01*
X24536222Y-43881995D01*
X24492949Y-43858864D01*
X24452150Y-43831604D01*
X24414221Y-43800476D01*
X24379524Y-43765779D01*
X24348396Y-43727850D01*
X24321136Y-43687051D01*
X24298005Y-43643778D01*
X24279228Y-43598445D01*
X24264984Y-43551490D01*
X24255412Y-43503365D01*
X24250602Y-43454534D01*
X24250602Y-43430000D01*
X24250000Y-43430000D01*
X24250000Y-42930000D01*
X24250602Y-42930000D01*
X24250602Y-42905466D01*
X24255412Y-42856635D01*
X24264984Y-42808510D01*
X24279228Y-42761555D01*
X24298005Y-42716222D01*
X24321136Y-42672949D01*
X24348396Y-42632150D01*
X24379524Y-42594221D01*
X24414221Y-42559524D01*
X24452150Y-42528396D01*
X24492949Y-42501136D01*
X24536222Y-42478005D01*
X24581555Y-42459228D01*
X24628510Y-42444984D01*
X24676635Y-42435412D01*
X24725466Y-42430602D01*
X24750000Y-42430602D01*
X24750000Y-42430000D01*
X25250000Y-42430000D01*
X25250000Y-43930000D01*
X24750000Y-43930000D01*
X24750000Y-43929398D01*
G37*
G04 #@! TD.AperFunction*
G04 #@! TA.AperFunction,SMDPad,CuDef*
G36*
X25550000Y-42430000D02*
G01*
X26050000Y-42430000D01*
X26050000Y-42430602D01*
X26074534Y-42430602D01*
X26123365Y-42435412D01*
X26171490Y-42444984D01*
X26218445Y-42459228D01*
X26263778Y-42478005D01*
X26307051Y-42501136D01*
X26347850Y-42528396D01*
X26385779Y-42559524D01*
X26420476Y-42594221D01*
X26451604Y-42632150D01*
X26478864Y-42672949D01*
X26501995Y-42716222D01*
X26520772Y-42761555D01*
X26535016Y-42808510D01*
X26544588Y-42856635D01*
X26549398Y-42905466D01*
X26549398Y-42930000D01*
X26550000Y-42930000D01*
X26550000Y-43430000D01*
X26549398Y-43430000D01*
X26549398Y-43454534D01*
X26544588Y-43503365D01*
X26535016Y-43551490D01*
X26520772Y-43598445D01*
X26501995Y-43643778D01*
X26478864Y-43687051D01*
X26451604Y-43727850D01*
X26420476Y-43765779D01*
X26385779Y-43800476D01*
X26347850Y-43831604D01*
X26307051Y-43858864D01*
X26263778Y-43881995D01*
X26218445Y-43900772D01*
X26171490Y-43915016D01*
X26123365Y-43924588D01*
X26074534Y-43929398D01*
X26050000Y-43929398D01*
X26050000Y-43930000D01*
X25550000Y-43930000D01*
X25550000Y-42430000D01*
G37*
G04 #@! TD.AperFunction*
G04 #@! TA.AperFunction,SMDPad,CuDef*
G36*
X26050000Y-38620602D02*
G01*
X26074534Y-38620602D01*
X26123365Y-38625412D01*
X26171490Y-38634984D01*
X26218445Y-38649228D01*
X26263778Y-38668005D01*
X26307051Y-38691136D01*
X26347850Y-38718396D01*
X26385779Y-38749524D01*
X26420476Y-38784221D01*
X26451604Y-38822150D01*
X26478864Y-38862949D01*
X26501995Y-38906222D01*
X26520772Y-38951555D01*
X26535016Y-38998510D01*
X26544588Y-39046635D01*
X26549398Y-39095466D01*
X26549398Y-39120000D01*
X26550000Y-39120000D01*
X26550000Y-39620000D01*
X26549398Y-39620000D01*
X26549398Y-39644534D01*
X26544588Y-39693365D01*
X26535016Y-39741490D01*
X26520772Y-39788445D01*
X26501995Y-39833778D01*
X26478864Y-39877051D01*
X26451604Y-39917850D01*
X26420476Y-39955779D01*
X26385779Y-39990476D01*
X26347850Y-40021604D01*
X26307051Y-40048864D01*
X26263778Y-40071995D01*
X26218445Y-40090772D01*
X26171490Y-40105016D01*
X26123365Y-40114588D01*
X26074534Y-40119398D01*
X26050000Y-40119398D01*
X26050000Y-40120000D01*
X25550000Y-40120000D01*
X25550000Y-38620000D01*
X26050000Y-38620000D01*
X26050000Y-38620602D01*
G37*
G04 #@! TD.AperFunction*
G04 #@! TA.AperFunction,SMDPad,CuDef*
G36*
X25250000Y-40120000D02*
G01*
X24750000Y-40120000D01*
X24750000Y-40119398D01*
X24725466Y-40119398D01*
X24676635Y-40114588D01*
X24628510Y-40105016D01*
X24581555Y-40090772D01*
X24536222Y-40071995D01*
X24492949Y-40048864D01*
X24452150Y-40021604D01*
X24414221Y-39990476D01*
X24379524Y-39955779D01*
X24348396Y-39917850D01*
X24321136Y-39877051D01*
X24298005Y-39833778D01*
X24279228Y-39788445D01*
X24264984Y-39741490D01*
X24255412Y-39693365D01*
X24250602Y-39644534D01*
X24250602Y-39620000D01*
X24250000Y-39620000D01*
X24250000Y-39120000D01*
X24250602Y-39120000D01*
X24250602Y-39095466D01*
X24255412Y-39046635D01*
X24264984Y-38998510D01*
X24279228Y-38951555D01*
X24298005Y-38906222D01*
X24321136Y-38862949D01*
X24348396Y-38822150D01*
X24379524Y-38784221D01*
X24414221Y-38749524D01*
X24452150Y-38718396D01*
X24492949Y-38691136D01*
X24536222Y-38668005D01*
X24581555Y-38649228D01*
X24628510Y-38634984D01*
X24676635Y-38625412D01*
X24725466Y-38620602D01*
X24750000Y-38620602D01*
X24750000Y-38620000D01*
X25250000Y-38620000D01*
X25250000Y-40120000D01*
G37*
G04 #@! TD.AperFunction*
G04 #@! TA.AperFunction,SMDPad,CuDef*
G36*
X26050000Y-34810602D02*
G01*
X26074534Y-34810602D01*
X26123365Y-34815412D01*
X26171490Y-34824984D01*
X26218445Y-34839228D01*
X26263778Y-34858005D01*
X26307051Y-34881136D01*
X26347850Y-34908396D01*
X26385779Y-34939524D01*
X26420476Y-34974221D01*
X26451604Y-35012150D01*
X26478864Y-35052949D01*
X26501995Y-35096222D01*
X26520772Y-35141555D01*
X26535016Y-35188510D01*
X26544588Y-35236635D01*
X26549398Y-35285466D01*
X26549398Y-35310000D01*
X26550000Y-35310000D01*
X26550000Y-35810000D01*
X26549398Y-35810000D01*
X26549398Y-35834534D01*
X26544588Y-35883365D01*
X26535016Y-35931490D01*
X26520772Y-35978445D01*
X26501995Y-36023778D01*
X26478864Y-36067051D01*
X26451604Y-36107850D01*
X26420476Y-36145779D01*
X26385779Y-36180476D01*
X26347850Y-36211604D01*
X26307051Y-36238864D01*
X26263778Y-36261995D01*
X26218445Y-36280772D01*
X26171490Y-36295016D01*
X26123365Y-36304588D01*
X26074534Y-36309398D01*
X26050000Y-36309398D01*
X26050000Y-36310000D01*
X25550000Y-36310000D01*
X25550000Y-34810000D01*
X26050000Y-34810000D01*
X26050000Y-34810602D01*
G37*
G04 #@! TD.AperFunction*
G04 #@! TA.AperFunction,SMDPad,CuDef*
G36*
X25250000Y-36310000D02*
G01*
X24750000Y-36310000D01*
X24750000Y-36309398D01*
X24725466Y-36309398D01*
X24676635Y-36304588D01*
X24628510Y-36295016D01*
X24581555Y-36280772D01*
X24536222Y-36261995D01*
X24492949Y-36238864D01*
X24452150Y-36211604D01*
X24414221Y-36180476D01*
X24379524Y-36145779D01*
X24348396Y-36107850D01*
X24321136Y-36067051D01*
X24298005Y-36023778D01*
X24279228Y-35978445D01*
X24264984Y-35931490D01*
X24255412Y-35883365D01*
X24250602Y-35834534D01*
X24250602Y-35810000D01*
X24250000Y-35810000D01*
X24250000Y-35310000D01*
X24250602Y-35310000D01*
X24250602Y-35285466D01*
X24255412Y-35236635D01*
X24264984Y-35188510D01*
X24279228Y-35141555D01*
X24298005Y-35096222D01*
X24321136Y-35052949D01*
X24348396Y-35012150D01*
X24379524Y-34974221D01*
X24414221Y-34939524D01*
X24452150Y-34908396D01*
X24492949Y-34881136D01*
X24536222Y-34858005D01*
X24581555Y-34839228D01*
X24628510Y-34824984D01*
X24676635Y-34815412D01*
X24725466Y-34810602D01*
X24750000Y-34810602D01*
X24750000Y-34810000D01*
X25250000Y-34810000D01*
X25250000Y-36310000D01*
G37*
G04 #@! TD.AperFunction*
G04 #@! TA.AperFunction,SMDPad,CuDef*
G36*
X26050000Y-31000602D02*
G01*
X26074534Y-31000602D01*
X26123365Y-31005412D01*
X26171490Y-31014984D01*
X26218445Y-31029228D01*
X26263778Y-31048005D01*
X26307051Y-31071136D01*
X26347850Y-31098396D01*
X26385779Y-31129524D01*
X26420476Y-31164221D01*
X26451604Y-31202150D01*
X26478864Y-31242949D01*
X26501995Y-31286222D01*
X26520772Y-31331555D01*
X26535016Y-31378510D01*
X26544588Y-31426635D01*
X26549398Y-31475466D01*
X26549398Y-31500000D01*
X26550000Y-31500000D01*
X26550000Y-32000000D01*
X26549398Y-32000000D01*
X26549398Y-32024534D01*
X26544588Y-32073365D01*
X26535016Y-32121490D01*
X26520772Y-32168445D01*
X26501995Y-32213778D01*
X26478864Y-32257051D01*
X26451604Y-32297850D01*
X26420476Y-32335779D01*
X26385779Y-32370476D01*
X26347850Y-32401604D01*
X26307051Y-32428864D01*
X26263778Y-32451995D01*
X26218445Y-32470772D01*
X26171490Y-32485016D01*
X26123365Y-32494588D01*
X26074534Y-32499398D01*
X26050000Y-32499398D01*
X26050000Y-32500000D01*
X25550000Y-32500000D01*
X25550000Y-31000000D01*
X26050000Y-31000000D01*
X26050000Y-31000602D01*
G37*
G04 #@! TD.AperFunction*
G04 #@! TA.AperFunction,SMDPad,CuDef*
G36*
X25250000Y-32500000D02*
G01*
X24750000Y-32500000D01*
X24750000Y-32499398D01*
X24725466Y-32499398D01*
X24676635Y-32494588D01*
X24628510Y-32485016D01*
X24581555Y-32470772D01*
X24536222Y-32451995D01*
X24492949Y-32428864D01*
X24452150Y-32401604D01*
X24414221Y-32370476D01*
X24379524Y-32335779D01*
X24348396Y-32297850D01*
X24321136Y-32257051D01*
X24298005Y-32213778D01*
X24279228Y-32168445D01*
X24264984Y-32121490D01*
X24255412Y-32073365D01*
X24250602Y-32024534D01*
X24250602Y-32000000D01*
X24250000Y-32000000D01*
X24250000Y-31500000D01*
X24250602Y-31500000D01*
X24250602Y-31475466D01*
X24255412Y-31426635D01*
X24264984Y-31378510D01*
X24279228Y-31331555D01*
X24298005Y-31286222D01*
X24321136Y-31242949D01*
X24348396Y-31202150D01*
X24379524Y-31164221D01*
X24414221Y-31129524D01*
X24452150Y-31098396D01*
X24492949Y-31071136D01*
X24536222Y-31048005D01*
X24581555Y-31029228D01*
X24628510Y-31014984D01*
X24676635Y-31005412D01*
X24725466Y-31000602D01*
X24750000Y-31000602D01*
X24750000Y-31000000D01*
X25250000Y-31000000D01*
X25250000Y-32500000D01*
G37*
G04 #@! TD.AperFunction*
G04 #@! TA.AperFunction,SMDPad,CuDef*
G36*
X26050000Y-27190602D02*
G01*
X26074534Y-27190602D01*
X26123365Y-27195412D01*
X26171490Y-27204984D01*
X26218445Y-27219228D01*
X26263778Y-27238005D01*
X26307051Y-27261136D01*
X26347850Y-27288396D01*
X26385779Y-27319524D01*
X26420476Y-27354221D01*
X26451604Y-27392150D01*
X26478864Y-27432949D01*
X26501995Y-27476222D01*
X26520772Y-27521555D01*
X26535016Y-27568510D01*
X26544588Y-27616635D01*
X26549398Y-27665466D01*
X26549398Y-27690000D01*
X26550000Y-27690000D01*
X26550000Y-28190000D01*
X26549398Y-28190000D01*
X26549398Y-28214534D01*
X26544588Y-28263365D01*
X26535016Y-28311490D01*
X26520772Y-28358445D01*
X26501995Y-28403778D01*
X26478864Y-28447051D01*
X26451604Y-28487850D01*
X26420476Y-28525779D01*
X26385779Y-28560476D01*
X26347850Y-28591604D01*
X26307051Y-28618864D01*
X26263778Y-28641995D01*
X26218445Y-28660772D01*
X26171490Y-28675016D01*
X26123365Y-28684588D01*
X26074534Y-28689398D01*
X26050000Y-28689398D01*
X26050000Y-28690000D01*
X25550000Y-28690000D01*
X25550000Y-27190000D01*
X26050000Y-27190000D01*
X26050000Y-27190602D01*
G37*
G04 #@! TD.AperFunction*
G04 #@! TA.AperFunction,SMDPad,CuDef*
G36*
X25250000Y-28690000D02*
G01*
X24750000Y-28690000D01*
X24750000Y-28689398D01*
X24725466Y-28689398D01*
X24676635Y-28684588D01*
X24628510Y-28675016D01*
X24581555Y-28660772D01*
X24536222Y-28641995D01*
X24492949Y-28618864D01*
X24452150Y-28591604D01*
X24414221Y-28560476D01*
X24379524Y-28525779D01*
X24348396Y-28487850D01*
X24321136Y-28447051D01*
X24298005Y-28403778D01*
X24279228Y-28358445D01*
X24264984Y-28311490D01*
X24255412Y-28263365D01*
X24250602Y-28214534D01*
X24250602Y-28190000D01*
X24250000Y-28190000D01*
X24250000Y-27690000D01*
X24250602Y-27690000D01*
X24250602Y-27665466D01*
X24255412Y-27616635D01*
X24264984Y-27568510D01*
X24279228Y-27521555D01*
X24298005Y-27476222D01*
X24321136Y-27432949D01*
X24348396Y-27392150D01*
X24379524Y-27354221D01*
X24414221Y-27319524D01*
X24452150Y-27288396D01*
X24492949Y-27261136D01*
X24536222Y-27238005D01*
X24581555Y-27219228D01*
X24628510Y-27204984D01*
X24676635Y-27195412D01*
X24725466Y-27190602D01*
X24750000Y-27190602D01*
X24750000Y-27190000D01*
X25250000Y-27190000D01*
X25250000Y-28690000D01*
G37*
G04 #@! TD.AperFunction*
G04 #@! TA.AperFunction,SMDPad,CuDef*
G36*
X26050000Y-23380602D02*
G01*
X26074534Y-23380602D01*
X26123365Y-23385412D01*
X26171490Y-23394984D01*
X26218445Y-23409228D01*
X26263778Y-23428005D01*
X26307051Y-23451136D01*
X26347850Y-23478396D01*
X26385779Y-23509524D01*
X26420476Y-23544221D01*
X26451604Y-23582150D01*
X26478864Y-23622949D01*
X26501995Y-23666222D01*
X26520772Y-23711555D01*
X26535016Y-23758510D01*
X26544588Y-23806635D01*
X26549398Y-23855466D01*
X26549398Y-23880000D01*
X26550000Y-23880000D01*
X26550000Y-24380000D01*
X26549398Y-24380000D01*
X26549398Y-24404534D01*
X26544588Y-24453365D01*
X26535016Y-24501490D01*
X26520772Y-24548445D01*
X26501995Y-24593778D01*
X26478864Y-24637051D01*
X26451604Y-24677850D01*
X26420476Y-24715779D01*
X26385779Y-24750476D01*
X26347850Y-24781604D01*
X26307051Y-24808864D01*
X26263778Y-24831995D01*
X26218445Y-24850772D01*
X26171490Y-24865016D01*
X26123365Y-24874588D01*
X26074534Y-24879398D01*
X26050000Y-24879398D01*
X26050000Y-24880000D01*
X25550000Y-24880000D01*
X25550000Y-23380000D01*
X26050000Y-23380000D01*
X26050000Y-23380602D01*
G37*
G04 #@! TD.AperFunction*
G04 #@! TA.AperFunction,SMDPad,CuDef*
G36*
X25250000Y-24880000D02*
G01*
X24750000Y-24880000D01*
X24750000Y-24879398D01*
X24725466Y-24879398D01*
X24676635Y-24874588D01*
X24628510Y-24865016D01*
X24581555Y-24850772D01*
X24536222Y-24831995D01*
X24492949Y-24808864D01*
X24452150Y-24781604D01*
X24414221Y-24750476D01*
X24379524Y-24715779D01*
X24348396Y-24677850D01*
X24321136Y-24637051D01*
X24298005Y-24593778D01*
X24279228Y-24548445D01*
X24264984Y-24501490D01*
X24255412Y-24453365D01*
X24250602Y-24404534D01*
X24250602Y-24380000D01*
X24250000Y-24380000D01*
X24250000Y-23880000D01*
X24250602Y-23880000D01*
X24250602Y-23855466D01*
X24255412Y-23806635D01*
X24264984Y-23758510D01*
X24279228Y-23711555D01*
X24298005Y-23666222D01*
X24321136Y-23622949D01*
X24348396Y-23582150D01*
X24379524Y-23544221D01*
X24414221Y-23509524D01*
X24452150Y-23478396D01*
X24492949Y-23451136D01*
X24536222Y-23428005D01*
X24581555Y-23409228D01*
X24628510Y-23394984D01*
X24676635Y-23385412D01*
X24725466Y-23380602D01*
X24750000Y-23380602D01*
X24750000Y-23380000D01*
X25250000Y-23380000D01*
X25250000Y-24880000D01*
G37*
G04 #@! TD.AperFunction*
G04 #@! TA.AperFunction,SMDPad,CuDef*
G36*
X26050000Y-20220602D02*
G01*
X26074534Y-20220602D01*
X26123365Y-20225412D01*
X26171490Y-20234984D01*
X26218445Y-20249228D01*
X26263778Y-20268005D01*
X26307051Y-20291136D01*
X26347850Y-20318396D01*
X26385779Y-20349524D01*
X26420476Y-20384221D01*
X26451604Y-20422150D01*
X26478864Y-20462949D01*
X26501995Y-20506222D01*
X26520772Y-20551555D01*
X26535016Y-20598510D01*
X26544588Y-20646635D01*
X26549398Y-20695466D01*
X26549398Y-20720000D01*
X26550000Y-20720000D01*
X26550000Y-21220000D01*
X26549398Y-21220000D01*
X26549398Y-21244534D01*
X26544588Y-21293365D01*
X26535016Y-21341490D01*
X26520772Y-21388445D01*
X26501995Y-21433778D01*
X26478864Y-21477051D01*
X26451604Y-21517850D01*
X26420476Y-21555779D01*
X26385779Y-21590476D01*
X26347850Y-21621604D01*
X26307051Y-21648864D01*
X26263778Y-21671995D01*
X26218445Y-21690772D01*
X26171490Y-21705016D01*
X26123365Y-21714588D01*
X26074534Y-21719398D01*
X26050000Y-21719398D01*
X26050000Y-21720000D01*
X25550000Y-21720000D01*
X25550000Y-20220000D01*
X26050000Y-20220000D01*
X26050000Y-20220602D01*
G37*
G04 #@! TD.AperFunction*
G04 #@! TA.AperFunction,SMDPad,CuDef*
G36*
X25250000Y-21720000D02*
G01*
X24750000Y-21720000D01*
X24750000Y-21719398D01*
X24725466Y-21719398D01*
X24676635Y-21714588D01*
X24628510Y-21705016D01*
X24581555Y-21690772D01*
X24536222Y-21671995D01*
X24492949Y-21648864D01*
X24452150Y-21621604D01*
X24414221Y-21590476D01*
X24379524Y-21555779D01*
X24348396Y-21517850D01*
X24321136Y-21477051D01*
X24298005Y-21433778D01*
X24279228Y-21388445D01*
X24264984Y-21341490D01*
X24255412Y-21293365D01*
X24250602Y-21244534D01*
X24250602Y-21220000D01*
X24250000Y-21220000D01*
X24250000Y-20720000D01*
X24250602Y-20720000D01*
X24250602Y-20695466D01*
X24255412Y-20646635D01*
X24264984Y-20598510D01*
X24279228Y-20551555D01*
X24298005Y-20506222D01*
X24321136Y-20462949D01*
X24348396Y-20422150D01*
X24379524Y-20384221D01*
X24414221Y-20349524D01*
X24452150Y-20318396D01*
X24492949Y-20291136D01*
X24536222Y-20268005D01*
X24581555Y-20249228D01*
X24628510Y-20234984D01*
X24676635Y-20225412D01*
X24725466Y-20220602D01*
X24750000Y-20220602D01*
X24750000Y-20220000D01*
X25250000Y-20220000D01*
X25250000Y-21720000D01*
G37*
G04 #@! TD.AperFunction*
D19*
X72390000Y-20400000D03*
X72390000Y-25400000D03*
D20*
X72390000Y-20400000D02*
X69850000Y-17860000D01*
X69850000Y-17860000D02*
X69850000Y-17780000D01*
X69850000Y-17780000D02*
X68580000Y-16510000D01*
X55880000Y-16510000D02*
X53340000Y-19050000D01*
X68580000Y-16510000D02*
X55880000Y-16510000D01*
X53340000Y-19050000D02*
X52070000Y-19050000D01*
X49530000Y-21590000D02*
X45720000Y-21590000D01*
X52070000Y-19050000D02*
X49530000Y-21590000D01*
X24750000Y-20970000D02*
X24750000Y-24130000D01*
X24750000Y-24130000D02*
X24750000Y-24877592D01*
X26050000Y-43589636D02*
X26050000Y-43180000D01*
X24750000Y-40117592D02*
X24750000Y-39370000D01*
X24750000Y-41132408D02*
X24750000Y-40117592D01*
X26050000Y-42432408D02*
X24750000Y-41132408D01*
X26050000Y-43180000D02*
X26050000Y-42432408D01*
X29210000Y-43180000D02*
X30480000Y-44450000D01*
X26050000Y-43180000D02*
X29210000Y-43180000D01*
X33020000Y-44450000D02*
X38100000Y-49530000D01*
X30480000Y-44450000D02*
X33020000Y-44450000D01*
X24750000Y-35969636D02*
X24750000Y-39370000D01*
X24750000Y-24130000D02*
X24750000Y-35969636D01*
X73715001Y-40584999D02*
X71120000Y-43180000D01*
X72390000Y-20400000D02*
X73840001Y-21850001D01*
X73840001Y-40459999D02*
X73715001Y-40584999D01*
X73840001Y-21850001D02*
X73840001Y-40459999D01*
X24750000Y-20222408D02*
X24750000Y-20970000D01*
X44309999Y-23000001D02*
X31890001Y-23000001D01*
X31890001Y-23000001D02*
X27940000Y-19050000D01*
X45720000Y-21590000D02*
X44309999Y-23000001D01*
X27940000Y-19050000D02*
X25922408Y-19050000D01*
X25922408Y-19050000D02*
X24750000Y-20222408D01*
X26050000Y-43180000D02*
X26050000Y-44450000D01*
X24750000Y-45750000D02*
X24750000Y-46990000D01*
X26050000Y-44450000D02*
X24750000Y-45750000D01*
X71120000Y-26670000D02*
X72390000Y-25400000D01*
X66040000Y-26670000D02*
X71120000Y-26670000D01*
X66040000Y-26670000D02*
X66040000Y-22860000D01*
X66040000Y-22860000D02*
X66040000Y-19050000D01*
X30480000Y-29210000D02*
X31750000Y-29210000D01*
X31750000Y-29210000D02*
X33020000Y-27940000D01*
X33020000Y-27940000D02*
X33020000Y-26670000D01*
X27320000Y-20970000D02*
X26050000Y-20970000D01*
X33020000Y-26670000D02*
X27320000Y-20970000D01*
X26050000Y-24130000D02*
X27940000Y-26020000D01*
X27940000Y-29210000D02*
X30480000Y-31750000D01*
X27940000Y-26020000D02*
X27940000Y-29210000D01*
X30480000Y-34290000D02*
X27940000Y-31750000D01*
X27940000Y-31750000D02*
X27940000Y-30480000D01*
X26050000Y-28687592D02*
X26050000Y-27940000D01*
X27842408Y-30480000D02*
X26050000Y-28687592D01*
X27940000Y-30480000D02*
X27842408Y-30480000D01*
X26050000Y-32400000D02*
X26050000Y-31750000D01*
X30480000Y-36830000D02*
X26050000Y-32400000D01*
X26670000Y-35560000D02*
X26050000Y-35560000D01*
X30480000Y-39370000D02*
X26670000Y-35560000D01*
X28590000Y-41910000D02*
X26050000Y-39370000D01*
X30480000Y-41910000D02*
X28590000Y-41910000D01*
X24750000Y-43180000D02*
X22860000Y-45070000D01*
X22860000Y-45070000D02*
X22860000Y-48260000D01*
X24130000Y-49530000D02*
X30480000Y-49530000D01*
X22860000Y-48260000D02*
X24130000Y-49530000D01*
X30480000Y-46990000D02*
X26050000Y-46990000D01*
X54610000Y-22860000D02*
X53340000Y-24130000D01*
X55880000Y-22860000D02*
X54610000Y-22860000D01*
X66040000Y-33020000D02*
X55880000Y-22860000D01*
X71120000Y-33020000D02*
X66040000Y-33020000D01*
X55880000Y-19050000D02*
X53340000Y-21590000D01*
X50800000Y-24130000D02*
X53340000Y-21590000D01*
X68580000Y-38100000D02*
X59690000Y-29210000D01*
X71120000Y-38100000D02*
X68580000Y-38100000D01*
X59690000Y-29210000D02*
X53340000Y-29210000D01*
X53340000Y-29210000D02*
X50800000Y-26670000D01*
X50800000Y-26670000D02*
X50800000Y-24130000D01*
X35560000Y-44450000D02*
X38100000Y-46990000D01*
X35560000Y-31750000D02*
X35560000Y-44450000D01*
X38100000Y-24130000D02*
X45720000Y-24130000D01*
X35560000Y-31750000D02*
X35560000Y-26670000D01*
X35560000Y-26670000D02*
X38100000Y-24130000D01*
X66040000Y-43180000D02*
X71120000Y-48260000D01*
X66040000Y-41910000D02*
X66040000Y-43180000D01*
X36830000Y-30480000D02*
X49530000Y-30480000D01*
X50800000Y-31750000D02*
X55880000Y-31750000D01*
X35560000Y-31750000D02*
X36830000Y-30480000D01*
X55880000Y-31750000D02*
X66040000Y-41910000D01*
X49530000Y-30480000D02*
X50800000Y-31750000D01*
X55880000Y-26670000D02*
X53340000Y-26670000D01*
X30480000Y-52070000D02*
X26670000Y-52070000D01*
X30480000Y-54610000D02*
X29210000Y-54610000D01*
X29210000Y-54610000D02*
X27940000Y-55880000D01*
X22860000Y-62230000D02*
X20320000Y-64770000D01*
X25865002Y-62230000D02*
X22860000Y-62230000D01*
X27940000Y-60060000D02*
X27940000Y-61060000D01*
X27940000Y-60060000D02*
X27940000Y-60155002D01*
X27940000Y-55880000D02*
X27940000Y-60060000D01*
X26770000Y-62230000D02*
X25865002Y-62230000D01*
X27940000Y-61060000D02*
X26770000Y-62230000D01*
X24130000Y-64770000D02*
X26670000Y-67310000D01*
X26670000Y-67310000D02*
X29210000Y-67310000D01*
X29210000Y-67310000D02*
X30480000Y-66040000D01*
X30480000Y-66040000D02*
X30480000Y-64770000D01*
X30480000Y-64770000D02*
X33020000Y-62230000D01*
X33020000Y-59690000D02*
X30480000Y-57150000D01*
X33020000Y-62230000D02*
X33020000Y-59690000D01*
X30480000Y-62230000D02*
X27940000Y-64770000D01*
X30480000Y-59690000D02*
X30480000Y-62230000D01*
X38100000Y-62230000D02*
X40640000Y-64770000D01*
X38100000Y-59690000D02*
X38100000Y-62230000D01*
X38100000Y-57150000D02*
X40640000Y-59690000D01*
X40640000Y-60960000D02*
X44450000Y-64770000D01*
X40640000Y-59690000D02*
X40640000Y-60960000D01*
X41910000Y-58420000D02*
X38100000Y-54610000D01*
X41910000Y-60960000D02*
X41910000Y-58420000D01*
X43180000Y-62230000D02*
X41910000Y-60960000D01*
X48260000Y-64770000D02*
X45720000Y-62230000D01*
X45720000Y-62230000D02*
X43180000Y-62230000D01*
X49530000Y-60960000D02*
X52070000Y-63500000D01*
X43180000Y-60960000D02*
X49530000Y-60960000D01*
X38100000Y-52070000D02*
X43180000Y-57150000D01*
X43180000Y-57150000D02*
X43180000Y-60960000D01*
X45720000Y-26670000D02*
X38100000Y-26670000D01*
X48480000Y-15240000D02*
X45720000Y-18000000D01*
X67310000Y-39370000D02*
X67310000Y-43180000D01*
X69850000Y-45720000D02*
X70800002Y-45720000D01*
X52070000Y-30480000D02*
X58420000Y-30480000D01*
X50800000Y-29210000D02*
X52070000Y-30480000D01*
X45720000Y-18000000D02*
X45720000Y-19050000D01*
X38100000Y-29210000D02*
X50800000Y-29210000D01*
X74930000Y-41590002D02*
X74930000Y-20793998D01*
X74930000Y-20793998D02*
X69376002Y-15240000D01*
X58420000Y-30480000D02*
X67310000Y-39370000D01*
X67310000Y-43180000D02*
X69850000Y-45720000D01*
X70800002Y-45720000D02*
X74930000Y-41590002D01*
X69376002Y-15240000D02*
X48480000Y-15240000D01*
X17641370Y-52070000D02*
X16510000Y-52070000D01*
X17990000Y-52070000D02*
X17641370Y-52070000D01*
X21590000Y-55670000D02*
X17990000Y-52070000D01*
X21590000Y-58420000D02*
X21590000Y-55670000D01*
X20320000Y-78740000D02*
X22860000Y-81280000D01*
X20320000Y-74930000D02*
X20320000Y-78740000D01*
X25261370Y-74930000D02*
X27801370Y-77470000D01*
X24130000Y-74930000D02*
X25261370Y-74930000D01*
X27801370Y-77470000D02*
X31750000Y-77470000D01*
X31750000Y-77470000D02*
X35560000Y-81280000D01*
X49530000Y-57150000D02*
X45720000Y-57150000D01*
X45720000Y-57150000D02*
X40640000Y-52070000D01*
X40640000Y-46990000D02*
X38100000Y-44450000D01*
X40640000Y-52070000D02*
X40640000Y-46990000D01*
X41910000Y-45720000D02*
X38100000Y-41910000D01*
X41910000Y-50800000D02*
X41910000Y-45720000D01*
X59690000Y-58420000D02*
X56940000Y-58420000D01*
X56940000Y-58420000D02*
X55880000Y-57360000D01*
X55880000Y-53340000D02*
X44450000Y-53340000D01*
X55880000Y-57360000D02*
X55880000Y-53340000D01*
X44450000Y-53340000D02*
X41910000Y-50800000D01*
X44280000Y-49530000D02*
X43180000Y-48430000D01*
X49530000Y-49530000D02*
X44280000Y-49530000D01*
X42360010Y-43630010D02*
X38100000Y-39370000D01*
X43180000Y-48430000D02*
X43180000Y-45720000D01*
X43180000Y-45720000D02*
X42360010Y-44900010D01*
X42360010Y-44900010D02*
X42360010Y-43630010D01*
X43180000Y-44450000D02*
X43180000Y-41910000D01*
X44450000Y-45720000D02*
X43180000Y-44450000D01*
X55880000Y-45720000D02*
X44450000Y-45720000D01*
X69850000Y-60960000D02*
X69850000Y-58210000D01*
X55880000Y-48260000D02*
X55880000Y-45720000D01*
X43180000Y-41910000D02*
X38100000Y-36830000D01*
X63710000Y-52070000D02*
X59690000Y-52070000D01*
X69850000Y-58210000D02*
X63710000Y-52070000D01*
X59690000Y-52070000D02*
X55880000Y-48260000D01*
X45720000Y-41910000D02*
X49530000Y-41910000D01*
X38100000Y-34290000D02*
X45720000Y-41910000D01*
X46990000Y-31750000D02*
X49530000Y-34290000D01*
X38100000Y-31750000D02*
X46990000Y-31750000D01*
X27940000Y-73798630D02*
X27940000Y-74930000D01*
X27940000Y-73450000D02*
X27940000Y-73798630D01*
X31540000Y-69850000D02*
X27940000Y-73450000D01*
X34290000Y-69850000D02*
X31540000Y-69850000D01*
X52070000Y-73660000D02*
X52070000Y-72390000D01*
X53340000Y-71120000D02*
X60960000Y-71120000D01*
X52070000Y-72390000D02*
X53340000Y-71120000D01*
X45720000Y-81280000D02*
X48260000Y-81280000D01*
X40640000Y-74930000D02*
X40640000Y-76200000D01*
X40640000Y-76200000D02*
X45720000Y-81280000D01*
X44450000Y-74930000D02*
X44450000Y-76200000D01*
X44450000Y-76200000D02*
X45720000Y-77470000D01*
X59900000Y-77470000D02*
X60960000Y-78530000D01*
X60960000Y-78530000D02*
X60960000Y-81280000D01*
X45720000Y-77470000D02*
X59900000Y-77470000D01*
X48260000Y-74930000D02*
X49530000Y-74930000D01*
X50800000Y-76200000D02*
X67100000Y-76200000D01*
X67100000Y-76200000D02*
X69640000Y-73660000D01*
X69640000Y-73660000D02*
X72390000Y-73660000D01*
X49530000Y-74930000D02*
X50800000Y-76200000D01*
M02*
