M48
; DRILL file {KiCad (5.1.5)-3} date 21.12.2021 15:24:29
; FORMAT={-:-/ absolute / metric / decimal}
; #@! TF.CreationDate,2021-12-21T15:24:29+01:00
; #@! TF.GenerationSoftware,Kicad,Pcbnew,(5.1.5)-3
FMAT,2
METRIC
T1C0.800
T2C1.000
T3C1.100
T4C3.500
%
G90
G05
T1
X45.72Y-19.05
X45.72Y-21.59
X45.72Y-24.13
X45.72Y-26.67
X53.34Y-19.05
X53.34Y-21.59
X53.34Y-24.13
X53.34Y-26.67
X40.64Y-64.77
X40.64Y-74.93
X48.26Y-64.77
X48.26Y-74.93
X16.51Y-52.07
X26.67Y-52.07
X55.88Y-26.67
X66.04Y-26.67
X55.88Y-19.05
X66.04Y-19.05
X52.07Y-63.5
X52.07Y-73.66
X30.48Y-26.67
X30.48Y-29.21
X30.48Y-31.75
X30.48Y-34.29
X30.48Y-36.83
X30.48Y-39.37
X30.48Y-41.91
X30.48Y-44.45
X30.48Y-46.99
X30.48Y-49.53
X30.48Y-52.07
X30.48Y-54.61
X30.48Y-57.15
X30.48Y-59.69
X38.1Y-26.67
X38.1Y-29.21
X38.1Y-31.75
X38.1Y-34.29
X38.1Y-36.83
X38.1Y-39.37
X38.1Y-41.91
X38.1Y-44.45
X38.1Y-46.99
X38.1Y-49.53
X38.1Y-52.07
X38.1Y-54.61
X38.1Y-57.15
X38.1Y-59.69
X20.32Y-64.77
X20.32Y-74.93
X27.94Y-64.77
X27.94Y-74.93
X44.45Y-64.77
X44.45Y-74.93
X55.88Y-22.86
X66.04Y-22.86
X24.13Y-64.77
X24.13Y-74.93
T2
X72.39Y-20.4
X72.39Y-25.4
T3
X71.12Y-33.02
X71.12Y-38.1
X71.12Y-43.18
X71.12Y-48.26
X71.12Y-53.34
T4
X60.96Y-45.72
X34.29Y-19.05
X72.39Y-85.09
T0
M30
