G04 #@! TF.GenerationSoftware,KiCad,Pcbnew,(5.1.5)-3*
G04 #@! TF.CreationDate,2020-06-02T00:14:10+02:00*
G04 #@! TF.ProjectId,Multiplex,4d756c74-6970-46c6-9578-2e6b69636164,rev?*
G04 #@! TF.SameCoordinates,Original*
G04 #@! TF.FileFunction,Copper,L1,Top*
G04 #@! TF.FilePolarity,Positive*
%FSLAX46Y46*%
G04 Gerber Fmt 4.6, Leading zero omitted, Abs format (unit mm)*
G04 Created by KiCad (PCBNEW (5.1.5)-3) date 2020-06-02 00:14:10*
%MOMM*%
%LPD*%
G04 APERTURE LIST*
%ADD10O,1.600000X1.600000*%
%ADD11R,1.600000X1.600000*%
%ADD12C,1.600000*%
%ADD13O,1.700000X1.700000*%
%ADD14R,1.700000X1.700000*%
%ADD15C,0.100000*%
%ADD16O,1.350000X1.350000*%
%ADD17R,1.350000X1.350000*%
%ADD18C,0.250000*%
G04 APERTURE END LIST*
D10*
X149860000Y-99060000D03*
X165100000Y-106680000D03*
X152400000Y-99060000D03*
X162560000Y-106680000D03*
X154940000Y-99060000D03*
X160020000Y-106680000D03*
X157480000Y-99060000D03*
X157480000Y-106680000D03*
X160020000Y-99060000D03*
X154940000Y-106680000D03*
X162560000Y-99060000D03*
X152400000Y-106680000D03*
X165100000Y-99060000D03*
D11*
X149860000Y-106680000D03*
D10*
X182880000Y-105410000D03*
D12*
X172720000Y-105410000D03*
D13*
X175260000Y-120650000D03*
D14*
X177800000Y-120650000D03*
D10*
X179070000Y-116840000D03*
X173990000Y-109220000D03*
X176530000Y-116840000D03*
X176530000Y-109220000D03*
X173990000Y-116840000D03*
D11*
X179070000Y-109220000D03*
D10*
X148590000Y-110490000D03*
D12*
X148590000Y-120650000D03*
D10*
X153670000Y-110490000D03*
D12*
X153670000Y-120650000D03*
D10*
X163830000Y-110490000D03*
D12*
X163830000Y-120650000D03*
D10*
X168910000Y-99060000D03*
D12*
X168910000Y-109220000D03*
G04 #@! TA.AperFunction,SMDPad,CuDef*
D15*
G36*
X151879398Y-95250000D02*
G01*
X151879398Y-95274534D01*
X151874588Y-95323365D01*
X151865016Y-95371490D01*
X151850772Y-95418445D01*
X151831995Y-95463778D01*
X151808864Y-95507051D01*
X151781604Y-95547850D01*
X151750476Y-95585779D01*
X151715779Y-95620476D01*
X151677850Y-95651604D01*
X151637051Y-95678864D01*
X151593778Y-95701995D01*
X151548445Y-95720772D01*
X151501490Y-95735016D01*
X151453365Y-95744588D01*
X151404534Y-95749398D01*
X151380000Y-95749398D01*
X151380000Y-95750000D01*
X150880000Y-95750000D01*
X150880000Y-95749398D01*
X150855466Y-95749398D01*
X150806635Y-95744588D01*
X150758510Y-95735016D01*
X150711555Y-95720772D01*
X150666222Y-95701995D01*
X150622949Y-95678864D01*
X150582150Y-95651604D01*
X150544221Y-95620476D01*
X150509524Y-95585779D01*
X150478396Y-95547850D01*
X150451136Y-95507051D01*
X150428005Y-95463778D01*
X150409228Y-95418445D01*
X150394984Y-95371490D01*
X150385412Y-95323365D01*
X150380602Y-95274534D01*
X150380602Y-95250000D01*
X150380000Y-95250000D01*
X150380000Y-94750000D01*
X151880000Y-94750000D01*
X151880000Y-95250000D01*
X151879398Y-95250000D01*
G37*
G04 #@! TD.AperFunction*
G04 #@! TA.AperFunction,SMDPad,CuDef*
G36*
X150380000Y-94450000D02*
G01*
X150380000Y-93950000D01*
X150380602Y-93950000D01*
X150380602Y-93925466D01*
X150385412Y-93876635D01*
X150394984Y-93828510D01*
X150409228Y-93781555D01*
X150428005Y-93736222D01*
X150451136Y-93692949D01*
X150478396Y-93652150D01*
X150509524Y-93614221D01*
X150544221Y-93579524D01*
X150582150Y-93548396D01*
X150622949Y-93521136D01*
X150666222Y-93498005D01*
X150711555Y-93479228D01*
X150758510Y-93464984D01*
X150806635Y-93455412D01*
X150855466Y-93450602D01*
X150880000Y-93450602D01*
X150880000Y-93450000D01*
X151380000Y-93450000D01*
X151380000Y-93450602D01*
X151404534Y-93450602D01*
X151453365Y-93455412D01*
X151501490Y-93464984D01*
X151548445Y-93479228D01*
X151593778Y-93498005D01*
X151637051Y-93521136D01*
X151677850Y-93548396D01*
X151715779Y-93579524D01*
X151750476Y-93614221D01*
X151781604Y-93652150D01*
X151808864Y-93692949D01*
X151831995Y-93736222D01*
X151850772Y-93781555D01*
X151865016Y-93828510D01*
X151874588Y-93876635D01*
X151879398Y-93925466D01*
X151879398Y-93950000D01*
X151880000Y-93950000D01*
X151880000Y-94450000D01*
X150380000Y-94450000D01*
G37*
G04 #@! TD.AperFunction*
G04 #@! TA.AperFunction,SMDPad,CuDef*
G36*
X155689398Y-95250000D02*
G01*
X155689398Y-95274534D01*
X155684588Y-95323365D01*
X155675016Y-95371490D01*
X155660772Y-95418445D01*
X155641995Y-95463778D01*
X155618864Y-95507051D01*
X155591604Y-95547850D01*
X155560476Y-95585779D01*
X155525779Y-95620476D01*
X155487850Y-95651604D01*
X155447051Y-95678864D01*
X155403778Y-95701995D01*
X155358445Y-95720772D01*
X155311490Y-95735016D01*
X155263365Y-95744588D01*
X155214534Y-95749398D01*
X155190000Y-95749398D01*
X155190000Y-95750000D01*
X154690000Y-95750000D01*
X154690000Y-95749398D01*
X154665466Y-95749398D01*
X154616635Y-95744588D01*
X154568510Y-95735016D01*
X154521555Y-95720772D01*
X154476222Y-95701995D01*
X154432949Y-95678864D01*
X154392150Y-95651604D01*
X154354221Y-95620476D01*
X154319524Y-95585779D01*
X154288396Y-95547850D01*
X154261136Y-95507051D01*
X154238005Y-95463778D01*
X154219228Y-95418445D01*
X154204984Y-95371490D01*
X154195412Y-95323365D01*
X154190602Y-95274534D01*
X154190602Y-95250000D01*
X154190000Y-95250000D01*
X154190000Y-94750000D01*
X155690000Y-94750000D01*
X155690000Y-95250000D01*
X155689398Y-95250000D01*
G37*
G04 #@! TD.AperFunction*
G04 #@! TA.AperFunction,SMDPad,CuDef*
G36*
X154190000Y-94450000D02*
G01*
X154190000Y-93950000D01*
X154190602Y-93950000D01*
X154190602Y-93925466D01*
X154195412Y-93876635D01*
X154204984Y-93828510D01*
X154219228Y-93781555D01*
X154238005Y-93736222D01*
X154261136Y-93692949D01*
X154288396Y-93652150D01*
X154319524Y-93614221D01*
X154354221Y-93579524D01*
X154392150Y-93548396D01*
X154432949Y-93521136D01*
X154476222Y-93498005D01*
X154521555Y-93479228D01*
X154568510Y-93464984D01*
X154616635Y-93455412D01*
X154665466Y-93450602D01*
X154690000Y-93450602D01*
X154690000Y-93450000D01*
X155190000Y-93450000D01*
X155190000Y-93450602D01*
X155214534Y-93450602D01*
X155263365Y-93455412D01*
X155311490Y-93464984D01*
X155358445Y-93479228D01*
X155403778Y-93498005D01*
X155447051Y-93521136D01*
X155487850Y-93548396D01*
X155525779Y-93579524D01*
X155560476Y-93614221D01*
X155591604Y-93652150D01*
X155618864Y-93692949D01*
X155641995Y-93736222D01*
X155660772Y-93781555D01*
X155675016Y-93828510D01*
X155684588Y-93876635D01*
X155689398Y-93925466D01*
X155689398Y-93950000D01*
X155690000Y-93950000D01*
X155690000Y-94450000D01*
X154190000Y-94450000D01*
G37*
G04 #@! TD.AperFunction*
G04 #@! TA.AperFunction,SMDPad,CuDef*
G36*
X159499398Y-95250000D02*
G01*
X159499398Y-95274534D01*
X159494588Y-95323365D01*
X159485016Y-95371490D01*
X159470772Y-95418445D01*
X159451995Y-95463778D01*
X159428864Y-95507051D01*
X159401604Y-95547850D01*
X159370476Y-95585779D01*
X159335779Y-95620476D01*
X159297850Y-95651604D01*
X159257051Y-95678864D01*
X159213778Y-95701995D01*
X159168445Y-95720772D01*
X159121490Y-95735016D01*
X159073365Y-95744588D01*
X159024534Y-95749398D01*
X159000000Y-95749398D01*
X159000000Y-95750000D01*
X158500000Y-95750000D01*
X158500000Y-95749398D01*
X158475466Y-95749398D01*
X158426635Y-95744588D01*
X158378510Y-95735016D01*
X158331555Y-95720772D01*
X158286222Y-95701995D01*
X158242949Y-95678864D01*
X158202150Y-95651604D01*
X158164221Y-95620476D01*
X158129524Y-95585779D01*
X158098396Y-95547850D01*
X158071136Y-95507051D01*
X158048005Y-95463778D01*
X158029228Y-95418445D01*
X158014984Y-95371490D01*
X158005412Y-95323365D01*
X158000602Y-95274534D01*
X158000602Y-95250000D01*
X158000000Y-95250000D01*
X158000000Y-94750000D01*
X159500000Y-94750000D01*
X159500000Y-95250000D01*
X159499398Y-95250000D01*
G37*
G04 #@! TD.AperFunction*
G04 #@! TA.AperFunction,SMDPad,CuDef*
G36*
X158000000Y-94450000D02*
G01*
X158000000Y-93950000D01*
X158000602Y-93950000D01*
X158000602Y-93925466D01*
X158005412Y-93876635D01*
X158014984Y-93828510D01*
X158029228Y-93781555D01*
X158048005Y-93736222D01*
X158071136Y-93692949D01*
X158098396Y-93652150D01*
X158129524Y-93614221D01*
X158164221Y-93579524D01*
X158202150Y-93548396D01*
X158242949Y-93521136D01*
X158286222Y-93498005D01*
X158331555Y-93479228D01*
X158378510Y-93464984D01*
X158426635Y-93455412D01*
X158475466Y-93450602D01*
X158500000Y-93450602D01*
X158500000Y-93450000D01*
X159000000Y-93450000D01*
X159000000Y-93450602D01*
X159024534Y-93450602D01*
X159073365Y-93455412D01*
X159121490Y-93464984D01*
X159168445Y-93479228D01*
X159213778Y-93498005D01*
X159257051Y-93521136D01*
X159297850Y-93548396D01*
X159335779Y-93579524D01*
X159370476Y-93614221D01*
X159401604Y-93652150D01*
X159428864Y-93692949D01*
X159451995Y-93736222D01*
X159470772Y-93781555D01*
X159485016Y-93828510D01*
X159494588Y-93876635D01*
X159499398Y-93925466D01*
X159499398Y-93950000D01*
X159500000Y-93950000D01*
X159500000Y-94450000D01*
X158000000Y-94450000D01*
G37*
G04 #@! TD.AperFunction*
D13*
X177800000Y-101600000D03*
D14*
X177800000Y-99060000D03*
D13*
X181610000Y-101600000D03*
D14*
X181610000Y-99060000D03*
D13*
X140970000Y-99060000D03*
D14*
X140970000Y-101600000D03*
D13*
X144780000Y-99060000D03*
D14*
X144780000Y-101600000D03*
D16*
X158020000Y-122650000D03*
X158020000Y-120650000D03*
X160020000Y-122650000D03*
D17*
X160020000Y-120650000D03*
D18*
X150590000Y-122650000D02*
X148590000Y-120650000D01*
X158020000Y-122650000D02*
X150590000Y-122650000D01*
X156750000Y-120650000D02*
X153670000Y-120650000D01*
X158020000Y-120650000D02*
X156750000Y-120650000D01*
X163030001Y-121449999D02*
X163830000Y-120650000D01*
X161830000Y-122650000D02*
X163030001Y-121449999D01*
X160020000Y-122650000D02*
X161830000Y-122650000D01*
X160020000Y-118110000D02*
X168910000Y-109220000D01*
X160020000Y-120650000D02*
X160020000Y-118110000D01*
X173990000Y-119380000D02*
X175260000Y-120650000D01*
X173990000Y-116840000D02*
X173990000Y-119380000D01*
X178900000Y-120650000D02*
X177800000Y-120650000D01*
X179070000Y-120480000D02*
X178900000Y-120650000D01*
X179070000Y-116840000D02*
X179070000Y-120480000D01*
X176530000Y-109220000D02*
X176530000Y-108088630D01*
X150659999Y-99859999D02*
X149860000Y-99060000D01*
X152000011Y-101200011D02*
X150659999Y-99859999D01*
X171297013Y-101200011D02*
X152000011Y-101200011D01*
X176530000Y-106432998D02*
X171297013Y-101200011D01*
X176530000Y-109220000D02*
X176530000Y-106432998D01*
X140970000Y-99060000D02*
X144780000Y-99060000D01*
X158750000Y-93950000D02*
X154940000Y-93950000D01*
X154940000Y-93950000D02*
X151130000Y-93950000D01*
X149860000Y-94472408D02*
X149860000Y-97928630D01*
X149860000Y-97928630D02*
X149860000Y-99060000D01*
X150382408Y-93950000D02*
X149860000Y-94472408D01*
X151130000Y-93950000D02*
X150382408Y-93950000D01*
X149860000Y-99060000D02*
X144780000Y-99060000D01*
X140970000Y-101600000D02*
X144780000Y-101600000D01*
X144780000Y-101600000D02*
X149860000Y-106680000D01*
X181610000Y-101600000D02*
X177800000Y-101600000D01*
X161710001Y-100750001D02*
X160819999Y-99859999D01*
X160819999Y-99859999D02*
X160020000Y-99060000D01*
X176950001Y-100750001D02*
X161710001Y-100750001D01*
X177800000Y-101600000D02*
X176950001Y-100750001D01*
X181610000Y-99060000D02*
X177800000Y-99060000D01*
X163359999Y-98260001D02*
X162560000Y-99060000D01*
X163685001Y-97934999D02*
X163359999Y-98260001D01*
X175574999Y-97934999D02*
X163685001Y-97934999D01*
X176700000Y-99060000D02*
X175574999Y-97934999D01*
X177800000Y-99060000D02*
X176700000Y-99060000D01*
X157480000Y-96520000D02*
X158750000Y-95250000D01*
X157480000Y-99060000D02*
X157480000Y-96520000D01*
X154940000Y-99060000D02*
X154940000Y-95250000D01*
X152400000Y-96520000D02*
X151130000Y-95250000D01*
X152400000Y-99060000D02*
X152400000Y-96520000D01*
X168910000Y-99060000D02*
X165100000Y-99060000D01*
X163830000Y-107950000D02*
X165100000Y-106680000D01*
X163830000Y-110490000D02*
X163830000Y-107950000D01*
X158750000Y-110490000D02*
X162560000Y-106680000D01*
X158750000Y-110490000D02*
X153670000Y-110490000D01*
X149389999Y-109690001D02*
X148590000Y-110490000D01*
X149715001Y-109364999D02*
X149389999Y-109690001D01*
X157335001Y-109364999D02*
X149715001Y-109364999D01*
X160020000Y-106680000D02*
X157335001Y-109364999D01*
X182880000Y-105410000D02*
X179070000Y-109220000D01*
X153670000Y-105410000D02*
X152400000Y-106680000D01*
X172720000Y-105410000D02*
X153670000Y-105410000D01*
M02*
