M48
; DRILL file {KiCad 8.0.4} date 2024-08-24T14:34:33+0200
; FORMAT={-:-/ absolute / metric / decimal}
; #@! TF.CreationDate,2024-08-24T14:34:33+02:00
; #@! TF.GenerationSoftware,Kicad,Pcbnew,8.0.4
; #@! TF.FileFunction,Plated,1,2,PTH
FMAT,2
METRIC
; #@! TA.AperFunction,Plated,PTH,ComponentDrill
T1C0.800
; #@! TA.AperFunction,Plated,PTH,ComponentDrill
T2C1.000
; #@! TA.AperFunction,Plated,PTH,ComponentDrill
T3C1.100
%
G90
G05
T1
X146.685Y-106.125
X146.685Y-111.125
X149.86Y-99.06
X149.86Y-106.68
X152.4Y-99.06
X152.4Y-106.68
X154.94Y-99.06
X154.94Y-106.68
X157.48Y-99.06
X157.48Y-106.68
X158.02Y-120.65
X158.02Y-122.65
X160.02Y-99.06
X160.02Y-106.68
X160.02Y-120.65
X160.02Y-122.65
X162.56Y-99.06
X162.56Y-106.68
X165.1Y-99.06
X165.1Y-106.68
T2
X140.97Y-99.06
X140.97Y-101.6
X144.78Y-99.06
X144.78Y-101.6
X175.26Y-120.65
X177.8Y-99.06
X177.8Y-101.6
X177.8Y-120.65
X181.61Y-99.06
X181.61Y-101.6
T3
X168.91Y-113.665
X168.91Y-121.285
M30
