G04 #@! TF.GenerationSoftware,KiCad,Pcbnew,(5.1.5)-3*
G04 #@! TF.CreationDate,2020-04-21T00:00:34+02:00*
G04 #@! TF.ProjectId,Multiplex,4d756c74-6970-46c6-9578-2e6b69636164,rev?*
G04 #@! TF.SameCoordinates,Original*
G04 #@! TF.FileFunction,Legend,Top*
G04 #@! TF.FilePolarity,Positive*
%FSLAX46Y46*%
G04 Gerber Fmt 4.6, Leading zero omitted, Abs format (unit mm)*
G04 Created by KiCad (PCBNEW (5.1.5)-3) date 2020-04-21 00:00:34*
%MOMM*%
%LPD*%
G04 APERTURE LIST*
%ADD10C,0.100000*%
%ADD11C,0.150000*%
%ADD12C,0.120000*%
G04 APERTURE END LIST*
D10*
G36*
X162560000Y-130175000D02*
G01*
X161925000Y-130175000D01*
X161925000Y-123190000D01*
X162560000Y-123190000D01*
X162560000Y-130175000D01*
G37*
X162560000Y-130175000D02*
X161925000Y-130175000D01*
X161925000Y-123190000D01*
X162560000Y-123190000D01*
X162560000Y-130175000D01*
D11*
X165435595Y-93607380D02*
X165435595Y-92607380D01*
X165768928Y-93321666D01*
X166102261Y-92607380D01*
X166102261Y-93607380D01*
X167007023Y-92940714D02*
X167007023Y-93607380D01*
X166578452Y-92940714D02*
X166578452Y-93464523D01*
X166626071Y-93559761D01*
X166721309Y-93607380D01*
X166864166Y-93607380D01*
X166959404Y-93559761D01*
X167007023Y-93512142D01*
X167626071Y-93607380D02*
X167530833Y-93559761D01*
X167483214Y-93464523D01*
X167483214Y-92607380D01*
X167864166Y-92940714D02*
X168245119Y-92940714D01*
X168007023Y-92607380D02*
X168007023Y-93464523D01*
X168054642Y-93559761D01*
X168149880Y-93607380D01*
X168245119Y-93607380D01*
X168578452Y-93607380D02*
X168578452Y-92940714D01*
X168578452Y-92607380D02*
X168530833Y-92655000D01*
X168578452Y-92702619D01*
X168626071Y-92655000D01*
X168578452Y-92607380D01*
X168578452Y-92702619D01*
X169054642Y-92940714D02*
X169054642Y-93940714D01*
X169054642Y-92988333D02*
X169149880Y-92940714D01*
X169340357Y-92940714D01*
X169435595Y-92988333D01*
X169483214Y-93035952D01*
X169530833Y-93131190D01*
X169530833Y-93416904D01*
X169483214Y-93512142D01*
X169435595Y-93559761D01*
X169340357Y-93607380D01*
X169149880Y-93607380D01*
X169054642Y-93559761D01*
X170102261Y-93607380D02*
X170007023Y-93559761D01*
X169959404Y-93464523D01*
X169959404Y-92607380D01*
X170864166Y-93559761D02*
X170768928Y-93607380D01*
X170578452Y-93607380D01*
X170483214Y-93559761D01*
X170435595Y-93464523D01*
X170435595Y-93083571D01*
X170483214Y-92988333D01*
X170578452Y-92940714D01*
X170768928Y-92940714D01*
X170864166Y-92988333D01*
X170911785Y-93083571D01*
X170911785Y-93178809D01*
X170435595Y-93274047D01*
X171245119Y-93607380D02*
X171768928Y-92940714D01*
X171245119Y-92940714D02*
X171768928Y-93607380D01*
X172864166Y-93321666D02*
X173340357Y-93321666D01*
X172768928Y-93607380D02*
X173102261Y-92607380D01*
X173435595Y-93607380D01*
X174197500Y-93607380D02*
X174197500Y-92607380D01*
X174197500Y-93559761D02*
X174102261Y-93607380D01*
X173911785Y-93607380D01*
X173816547Y-93559761D01*
X173768928Y-93512142D01*
X173721309Y-93416904D01*
X173721309Y-93131190D01*
X173768928Y-93035952D01*
X173816547Y-92988333D01*
X173911785Y-92940714D01*
X174102261Y-92940714D01*
X174197500Y-92988333D01*
X175102261Y-93607380D02*
X175102261Y-93083571D01*
X175054642Y-92988333D01*
X174959404Y-92940714D01*
X174768928Y-92940714D01*
X174673690Y-92988333D01*
X175102261Y-93559761D02*
X175007023Y-93607380D01*
X174768928Y-93607380D01*
X174673690Y-93559761D01*
X174626071Y-93464523D01*
X174626071Y-93369285D01*
X174673690Y-93274047D01*
X174768928Y-93226428D01*
X175007023Y-93226428D01*
X175102261Y-93178809D01*
X175578452Y-92940714D02*
X175578452Y-93940714D01*
X175578452Y-92988333D02*
X175673690Y-92940714D01*
X175864166Y-92940714D01*
X175959404Y-92988333D01*
X176007023Y-93035952D01*
X176054642Y-93131190D01*
X176054642Y-93416904D01*
X176007023Y-93512142D01*
X175959404Y-93559761D01*
X175864166Y-93607380D01*
X175673690Y-93607380D01*
X175578452Y-93559761D01*
X176340357Y-92940714D02*
X176721309Y-92940714D01*
X176483214Y-92607380D02*
X176483214Y-93464523D01*
X176530833Y-93559761D01*
X176626071Y-93607380D01*
X176721309Y-93607380D01*
X177435595Y-93559761D02*
X177340357Y-93607380D01*
X177149880Y-93607380D01*
X177054642Y-93559761D01*
X177007023Y-93464523D01*
X177007023Y-93083571D01*
X177054642Y-92988333D01*
X177149880Y-92940714D01*
X177340357Y-92940714D01*
X177435595Y-92988333D01*
X177483214Y-93083571D01*
X177483214Y-93178809D01*
X177007023Y-93274047D01*
X177911785Y-93607380D02*
X177911785Y-92940714D01*
X177911785Y-93131190D02*
X177959404Y-93035952D01*
X178007023Y-92988333D01*
X178102261Y-92940714D01*
X178197500Y-92940714D01*
X166245119Y-94495476D02*
X166149880Y-94447857D01*
X165959404Y-94447857D01*
X165864166Y-94495476D01*
X165768928Y-94590714D01*
X165721309Y-94685952D01*
X165721309Y-94876428D01*
X165768928Y-94971666D01*
X165864166Y-95066904D01*
X165959404Y-95114523D01*
X166149880Y-95114523D01*
X166245119Y-95066904D01*
X166054642Y-94114523D02*
X165816547Y-94162142D01*
X165578452Y-94305000D01*
X165435595Y-94543095D01*
X165387976Y-94781190D01*
X165435595Y-95019285D01*
X165578452Y-95257380D01*
X165816547Y-95400238D01*
X166054642Y-95447857D01*
X166292738Y-95400238D01*
X166530833Y-95257380D01*
X166673690Y-95019285D01*
X166721309Y-94781190D01*
X166673690Y-94543095D01*
X166530833Y-94305000D01*
X166292738Y-94162142D01*
X166054642Y-94114523D01*
X167102261Y-94352619D02*
X167149880Y-94305000D01*
X167245119Y-94257380D01*
X167483214Y-94257380D01*
X167578452Y-94305000D01*
X167626071Y-94352619D01*
X167673690Y-94447857D01*
X167673690Y-94543095D01*
X167626071Y-94685952D01*
X167054642Y-95257380D01*
X167673690Y-95257380D01*
X168292738Y-94257380D02*
X168387976Y-94257380D01*
X168483214Y-94305000D01*
X168530833Y-94352619D01*
X168578452Y-94447857D01*
X168626071Y-94638333D01*
X168626071Y-94876428D01*
X168578452Y-95066904D01*
X168530833Y-95162142D01*
X168483214Y-95209761D01*
X168387976Y-95257380D01*
X168292738Y-95257380D01*
X168197500Y-95209761D01*
X168149880Y-95162142D01*
X168102261Y-95066904D01*
X168054642Y-94876428D01*
X168054642Y-94638333D01*
X168102261Y-94447857D01*
X168149880Y-94352619D01*
X168197500Y-94305000D01*
X168292738Y-94257380D01*
X169007023Y-94352619D02*
X169054642Y-94305000D01*
X169149880Y-94257380D01*
X169387976Y-94257380D01*
X169483214Y-94305000D01*
X169530833Y-94352619D01*
X169578452Y-94447857D01*
X169578452Y-94543095D01*
X169530833Y-94685952D01*
X168959404Y-95257380D01*
X169578452Y-95257380D01*
X170197500Y-94257380D02*
X170292738Y-94257380D01*
X170387976Y-94305000D01*
X170435595Y-94352619D01*
X170483214Y-94447857D01*
X170530833Y-94638333D01*
X170530833Y-94876428D01*
X170483214Y-95066904D01*
X170435595Y-95162142D01*
X170387976Y-95209761D01*
X170292738Y-95257380D01*
X170197500Y-95257380D01*
X170102261Y-95209761D01*
X170054642Y-95162142D01*
X170007023Y-95066904D01*
X169959404Y-94876428D01*
X169959404Y-94638333D01*
X170007023Y-94447857D01*
X170054642Y-94352619D01*
X170102261Y-94305000D01*
X170197500Y-94257380D01*
X171721309Y-95257380D02*
X171721309Y-94257380D01*
X171959404Y-94257380D01*
X172102261Y-94305000D01*
X172197500Y-94400238D01*
X172245119Y-94495476D01*
X172292738Y-94685952D01*
X172292738Y-94828809D01*
X172245119Y-95019285D01*
X172197500Y-95114523D01*
X172102261Y-95209761D01*
X171959404Y-95257380D01*
X171721309Y-95257380D01*
X172864166Y-95257380D02*
X172768928Y-95209761D01*
X172721309Y-95162142D01*
X172673690Y-95066904D01*
X172673690Y-94781190D01*
X172721309Y-94685952D01*
X172768928Y-94638333D01*
X172864166Y-94590714D01*
X173007023Y-94590714D01*
X173102261Y-94638333D01*
X173149880Y-94685952D01*
X173197500Y-94781190D01*
X173197500Y-95066904D01*
X173149880Y-95162142D01*
X173102261Y-95209761D01*
X173007023Y-95257380D01*
X172864166Y-95257380D01*
X173626071Y-95257380D02*
X173626071Y-94590714D01*
X173626071Y-94685952D02*
X173673690Y-94638333D01*
X173768928Y-94590714D01*
X173911785Y-94590714D01*
X174007023Y-94638333D01*
X174054642Y-94733571D01*
X174054642Y-95257380D01*
X174054642Y-94733571D02*
X174102261Y-94638333D01*
X174197500Y-94590714D01*
X174340357Y-94590714D01*
X174435595Y-94638333D01*
X174483214Y-94733571D01*
X174483214Y-95257380D01*
X174959404Y-95257380D02*
X174959404Y-94590714D01*
X174959404Y-94257380D02*
X174911785Y-94305000D01*
X174959404Y-94352619D01*
X175007023Y-94305000D01*
X174959404Y-94257380D01*
X174959404Y-94352619D01*
X175435595Y-94590714D02*
X175435595Y-95257380D01*
X175435595Y-94685952D02*
X175483214Y-94638333D01*
X175578452Y-94590714D01*
X175721309Y-94590714D01*
X175816547Y-94638333D01*
X175864166Y-94733571D01*
X175864166Y-95257380D01*
X176340357Y-95257380D02*
X176340357Y-94590714D01*
X176340357Y-94257380D02*
X176292738Y-94305000D01*
X176340357Y-94352619D01*
X176387976Y-94305000D01*
X176340357Y-94257380D01*
X176340357Y-94352619D01*
X176816547Y-95257380D02*
X176816547Y-94257380D01*
X176911785Y-94876428D02*
X177197500Y-95257380D01*
X177197500Y-94590714D02*
X176816547Y-94971666D01*
X178721309Y-94733571D02*
X178387976Y-94733571D01*
X178387976Y-95257380D02*
X178387976Y-94257380D01*
X178864166Y-94257380D01*
X179387976Y-95257380D02*
X179292738Y-95209761D01*
X179245119Y-95162142D01*
X179197500Y-95066904D01*
X179197500Y-94781190D01*
X179245119Y-94685952D01*
X179292738Y-94638333D01*
X179387976Y-94590714D01*
X179530833Y-94590714D01*
X179626071Y-94638333D01*
X179673690Y-94685952D01*
X179721309Y-94781190D01*
X179721309Y-95066904D01*
X179673690Y-95162142D01*
X179626071Y-95209761D01*
X179530833Y-95257380D01*
X179387976Y-95257380D01*
X179292738Y-94257380D02*
X179340357Y-94305000D01*
X179292738Y-94352619D01*
X179245119Y-94305000D01*
X179292738Y-94257380D01*
X179292738Y-94352619D01*
X179673690Y-94257380D02*
X179721309Y-94305000D01*
X179673690Y-94352619D01*
X179626071Y-94305000D01*
X179673690Y-94257380D01*
X179673690Y-94352619D01*
X180149880Y-95257380D02*
X180149880Y-94257380D01*
X180578452Y-95257380D02*
X180578452Y-94733571D01*
X180530833Y-94638333D01*
X180435595Y-94590714D01*
X180292738Y-94590714D01*
X180197500Y-94638333D01*
X180149880Y-94685952D01*
X181197500Y-95257380D02*
X181102261Y-95209761D01*
X181054642Y-95114523D01*
X181054642Y-94257380D01*
D12*
X180400000Y-115680000D02*
X180400000Y-114030000D01*
X172660000Y-115680000D02*
X180400000Y-115680000D01*
X172660000Y-110380000D02*
X172660000Y-115680000D01*
X180400000Y-110380000D02*
X172660000Y-110380000D01*
X180400000Y-112030000D02*
X180400000Y-110380000D01*
X180400000Y-114030000D02*
G75*
G02X180400000Y-112030000I0J1000000D01*
G01*
X148530000Y-100220000D02*
X148530000Y-101870000D01*
X166430000Y-100220000D02*
X148530000Y-100220000D01*
X166430000Y-105520000D02*
X166430000Y-100220000D01*
X148530000Y-105520000D02*
X166430000Y-105520000D01*
X148530000Y-103870000D02*
X148530000Y-105520000D01*
X148530000Y-101870000D02*
G75*
G02X148530000Y-103870000I0J-1000000D01*
G01*
X180670000Y-105410000D02*
X179720000Y-105410000D01*
X174930000Y-105410000D02*
X175880000Y-105410000D01*
X179720000Y-104490000D02*
X175880000Y-104490000D01*
X179720000Y-106330000D02*
X179720000Y-104490000D01*
X175880000Y-106330000D02*
X179720000Y-106330000D01*
X175880000Y-104490000D02*
X175880000Y-106330000D01*
X148590000Y-111530000D02*
X148590000Y-112300000D01*
X148590000Y-119610000D02*
X148590000Y-118840000D01*
X147220000Y-112300000D02*
X147220000Y-118840000D01*
X149960000Y-112300000D02*
X147220000Y-112300000D01*
X149960000Y-118840000D02*
X149960000Y-112300000D01*
X147220000Y-118840000D02*
X149960000Y-118840000D01*
X153670000Y-111530000D02*
X153670000Y-112300000D01*
X153670000Y-119610000D02*
X153670000Y-118840000D01*
X152300000Y-112300000D02*
X152300000Y-118840000D01*
X155040000Y-112300000D02*
X152300000Y-112300000D01*
X155040000Y-118840000D02*
X155040000Y-112300000D01*
X152300000Y-118840000D02*
X155040000Y-118840000D01*
X166370000Y-111530000D02*
X166370000Y-112300000D01*
X166370000Y-119610000D02*
X166370000Y-118840000D01*
X165000000Y-112300000D02*
X165000000Y-118840000D01*
X167740000Y-112300000D02*
X165000000Y-112300000D01*
X167740000Y-118840000D02*
X167740000Y-112300000D01*
X165000000Y-118840000D02*
X167740000Y-118840000D01*
X170180000Y-100100000D02*
X170180000Y-100870000D01*
X170180000Y-108180000D02*
X170180000Y-107410000D01*
X168810000Y-100870000D02*
X168810000Y-107410000D01*
X171550000Y-100870000D02*
X168810000Y-100870000D01*
X171550000Y-107410000D02*
X171550000Y-100870000D01*
X168810000Y-107410000D02*
X171550000Y-107410000D01*
X152130000Y-93900000D02*
X152130000Y-95300000D01*
X151430000Y-96000000D02*
X150830000Y-96000000D01*
X150130000Y-95300000D02*
X150130000Y-93900000D01*
X150830000Y-93200000D02*
X151430000Y-93200000D01*
X151430000Y-93200000D02*
G75*
G02X152130000Y-93900000I0J-700000D01*
G01*
X150130000Y-93900000D02*
G75*
G02X150830000Y-93200000I700000J0D01*
G01*
X150830000Y-96000000D02*
G75*
G02X150130000Y-95300000I0J700000D01*
G01*
X152130000Y-95300000D02*
G75*
G02X151430000Y-96000000I-700000J0D01*
G01*
X155940000Y-93900000D02*
X155940000Y-95300000D01*
X155240000Y-96000000D02*
X154640000Y-96000000D01*
X153940000Y-95300000D02*
X153940000Y-93900000D01*
X154640000Y-93200000D02*
X155240000Y-93200000D01*
X155240000Y-93200000D02*
G75*
G02X155940000Y-93900000I0J-700000D01*
G01*
X153940000Y-93900000D02*
G75*
G02X154640000Y-93200000I700000J0D01*
G01*
X154640000Y-96000000D02*
G75*
G02X153940000Y-95300000I0J700000D01*
G01*
X155940000Y-95300000D02*
G75*
G02X155240000Y-96000000I-700000J0D01*
G01*
X159750000Y-93900000D02*
X159750000Y-95300000D01*
X159050000Y-96000000D02*
X158450000Y-96000000D01*
X157750000Y-95300000D02*
X157750000Y-93900000D01*
X158450000Y-93200000D02*
X159050000Y-93200000D01*
X159050000Y-93200000D02*
G75*
G02X159750000Y-93900000I0J-700000D01*
G01*
X157750000Y-93900000D02*
G75*
G02X158450000Y-93200000I700000J0D01*
G01*
X158450000Y-96000000D02*
G75*
G02X157750000Y-95300000I0J700000D01*
G01*
X159750000Y-95300000D02*
G75*
G02X159050000Y-96000000I-700000J0D01*
G01*
X177800000Y-97730000D02*
X179130000Y-97730000D01*
X179130000Y-97730000D02*
X179130000Y-99060000D01*
X179130000Y-100330000D02*
X179130000Y-102930000D01*
X176470000Y-102930000D02*
X179130000Y-102930000D01*
X176470000Y-100330000D02*
X176470000Y-102930000D01*
X176470000Y-100330000D02*
X179130000Y-100330000D01*
X140970000Y-105470000D02*
X139640000Y-105470000D01*
X139640000Y-105470000D02*
X139640000Y-104140000D01*
X139640000Y-102870000D02*
X139640000Y-100270000D01*
X142300000Y-100270000D02*
X139640000Y-100270000D01*
X142300000Y-102870000D02*
X142300000Y-100270000D01*
X142300000Y-102870000D02*
X139640000Y-102870000D01*
X173930000Y-120650000D02*
X173930000Y-119540000D01*
X173930000Y-119540000D02*
X175260000Y-119540000D01*
X173930000Y-130740000D02*
X179130000Y-130740000D01*
X179130000Y-130740000D02*
X179130000Y-122110000D01*
X173930000Y-122110000D02*
X179130000Y-122110000D01*
X173930000Y-130740000D02*
X173930000Y-122110000D01*
X176530000Y-130740000D02*
X176530000Y-122110000D01*
X178160000Y-122110000D02*
X178160000Y-121700000D01*
X177440000Y-122110000D02*
X177440000Y-121700000D01*
X175620000Y-122110000D02*
X175620000Y-121760000D01*
X174900000Y-122110000D02*
X174900000Y-121760000D01*
X176411900Y-130740000D02*
X176411900Y-122110000D01*
X176293805Y-130740000D02*
X176293805Y-122110000D01*
X176175710Y-130740000D02*
X176175710Y-122110000D01*
X176057615Y-130740000D02*
X176057615Y-122110000D01*
X175939520Y-130740000D02*
X175939520Y-122110000D01*
X175821425Y-130740000D02*
X175821425Y-122110000D01*
X175703330Y-130740000D02*
X175703330Y-122110000D01*
X175585235Y-130740000D02*
X175585235Y-122110000D01*
X175467140Y-130740000D02*
X175467140Y-122110000D01*
X175349045Y-130740000D02*
X175349045Y-122110000D01*
X175230950Y-130740000D02*
X175230950Y-122110000D01*
X175112855Y-130740000D02*
X175112855Y-122110000D01*
X174994760Y-130740000D02*
X174994760Y-122110000D01*
X174876665Y-130740000D02*
X174876665Y-122110000D01*
X174758570Y-130740000D02*
X174758570Y-122110000D01*
X174640475Y-130740000D02*
X174640475Y-122110000D01*
X174522380Y-130740000D02*
X174522380Y-122110000D01*
X174404285Y-130740000D02*
X174404285Y-122110000D01*
X174286190Y-130740000D02*
X174286190Y-122110000D01*
X174168095Y-130740000D02*
X174168095Y-122110000D01*
X174050000Y-130740000D02*
X174050000Y-122110000D01*
X159750000Y-119650000D02*
X159750000Y-120650000D01*
X158750000Y-119650000D02*
X159750000Y-119650000D01*
X156440000Y-121532114D02*
X156440000Y-121767886D01*
X157060000Y-121532114D02*
X157060000Y-121767886D01*
X156440000Y-123532114D02*
X156440000Y-124090000D01*
X157060000Y-123532114D02*
X157060000Y-124090000D01*
X156440000Y-129910000D02*
X156440000Y-125710000D01*
X157060000Y-129910000D02*
X156440000Y-129910000D01*
X157060000Y-125710000D02*
X157060000Y-129910000D01*
X157750000Y-124090000D02*
X157750000Y-125710000D01*
X158440000Y-121585000D02*
X158440000Y-121767886D01*
X159060000Y-121585000D02*
X159060000Y-121767886D01*
X158440000Y-123532114D02*
X158440000Y-124090000D01*
X159060000Y-123532114D02*
X159060000Y-124090000D01*
X158520000Y-125710000D02*
X158520000Y-129910000D01*
X158640000Y-125710000D02*
X158640000Y-129910000D01*
X158760000Y-125710000D02*
X158760000Y-129910000D01*
X158880000Y-125710000D02*
X158880000Y-129910000D01*
X159000000Y-125710000D02*
X159000000Y-129910000D01*
X158440000Y-129910000D02*
X158440000Y-125710000D01*
X159060000Y-129910000D02*
X158440000Y-129910000D01*
X159060000Y-125710000D02*
X159060000Y-129910000D01*
X159810000Y-125710000D02*
X159810000Y-124090000D01*
X155690000Y-125710000D02*
X159810000Y-125710000D01*
X155690000Y-124090000D02*
X155690000Y-125710000D01*
X159810000Y-124090000D02*
X155690000Y-124090000D01*
D11*
X180852380Y-113791904D02*
X181661904Y-113791904D01*
X181757142Y-113744285D01*
X181804761Y-113696666D01*
X181852380Y-113601428D01*
X181852380Y-113410952D01*
X181804761Y-113315714D01*
X181757142Y-113268095D01*
X181661904Y-113220476D01*
X180852380Y-113220476D01*
X180947619Y-112791904D02*
X180900000Y-112744285D01*
X180852380Y-112649047D01*
X180852380Y-112410952D01*
X180900000Y-112315714D01*
X180947619Y-112268095D01*
X181042857Y-112220476D01*
X181138095Y-112220476D01*
X181280952Y-112268095D01*
X181852380Y-112839523D01*
X181852380Y-112220476D01*
X146982380Y-103631904D02*
X147791904Y-103631904D01*
X147887142Y-103584285D01*
X147934761Y-103536666D01*
X147982380Y-103441428D01*
X147982380Y-103250952D01*
X147934761Y-103155714D01*
X147887142Y-103108095D01*
X147791904Y-103060476D01*
X146982380Y-103060476D01*
X147982380Y-102060476D02*
X147982380Y-102631904D01*
X147982380Y-102346190D02*
X146982380Y-102346190D01*
X147125238Y-102441428D01*
X147220476Y-102536666D01*
X147268095Y-102631904D01*
X177633333Y-103942380D02*
X177300000Y-103466190D01*
X177061904Y-103942380D02*
X177061904Y-102942380D01*
X177442857Y-102942380D01*
X177538095Y-102990000D01*
X177585714Y-103037619D01*
X177633333Y-103132857D01*
X177633333Y-103275714D01*
X177585714Y-103370952D01*
X177538095Y-103418571D01*
X177442857Y-103466190D01*
X177061904Y-103466190D01*
X178538095Y-102942380D02*
X178061904Y-102942380D01*
X178014285Y-103418571D01*
X178061904Y-103370952D01*
X178157142Y-103323333D01*
X178395238Y-103323333D01*
X178490476Y-103370952D01*
X178538095Y-103418571D01*
X178585714Y-103513809D01*
X178585714Y-103751904D01*
X178538095Y-103847142D01*
X178490476Y-103894761D01*
X178395238Y-103942380D01*
X178157142Y-103942380D01*
X178061904Y-103894761D01*
X178014285Y-103847142D01*
X146672380Y-115736666D02*
X146196190Y-116070000D01*
X146672380Y-116308095D02*
X145672380Y-116308095D01*
X145672380Y-115927142D01*
X145720000Y-115831904D01*
X145767619Y-115784285D01*
X145862857Y-115736666D01*
X146005714Y-115736666D01*
X146100952Y-115784285D01*
X146148571Y-115831904D01*
X146196190Y-115927142D01*
X146196190Y-116308095D01*
X146005714Y-114879523D02*
X146672380Y-114879523D01*
X145624761Y-115117619D02*
X146339047Y-115355714D01*
X146339047Y-114736666D01*
X151752380Y-115736666D02*
X151276190Y-116070000D01*
X151752380Y-116308095D02*
X150752380Y-116308095D01*
X150752380Y-115927142D01*
X150800000Y-115831904D01*
X150847619Y-115784285D01*
X150942857Y-115736666D01*
X151085714Y-115736666D01*
X151180952Y-115784285D01*
X151228571Y-115831904D01*
X151276190Y-115927142D01*
X151276190Y-116308095D01*
X150752380Y-115403333D02*
X150752380Y-114784285D01*
X151133333Y-115117619D01*
X151133333Y-114974761D01*
X151180952Y-114879523D01*
X151228571Y-114831904D01*
X151323809Y-114784285D01*
X151561904Y-114784285D01*
X151657142Y-114831904D01*
X151704761Y-114879523D01*
X151752380Y-114974761D01*
X151752380Y-115260476D01*
X151704761Y-115355714D01*
X151657142Y-115403333D01*
X164452380Y-115736666D02*
X163976190Y-116070000D01*
X164452380Y-116308095D02*
X163452380Y-116308095D01*
X163452380Y-115927142D01*
X163500000Y-115831904D01*
X163547619Y-115784285D01*
X163642857Y-115736666D01*
X163785714Y-115736666D01*
X163880952Y-115784285D01*
X163928571Y-115831904D01*
X163976190Y-115927142D01*
X163976190Y-116308095D01*
X163547619Y-115355714D02*
X163500000Y-115308095D01*
X163452380Y-115212857D01*
X163452380Y-114974761D01*
X163500000Y-114879523D01*
X163547619Y-114831904D01*
X163642857Y-114784285D01*
X163738095Y-114784285D01*
X163880952Y-114831904D01*
X164452380Y-115403333D01*
X164452380Y-114784285D01*
X168262380Y-104306666D02*
X167786190Y-104640000D01*
X168262380Y-104878095D02*
X167262380Y-104878095D01*
X167262380Y-104497142D01*
X167310000Y-104401904D01*
X167357619Y-104354285D01*
X167452857Y-104306666D01*
X167595714Y-104306666D01*
X167690952Y-104354285D01*
X167738571Y-104401904D01*
X167786190Y-104497142D01*
X167786190Y-104878095D01*
X168262380Y-103354285D02*
X168262380Y-103925714D01*
X168262380Y-103640000D02*
X167262380Y-103640000D01*
X167405238Y-103735238D01*
X167500476Y-103830476D01*
X167548095Y-103925714D01*
X152382380Y-95433333D02*
X153096666Y-95433333D01*
X153239523Y-95480952D01*
X153334761Y-95576190D01*
X153382380Y-95719047D01*
X153382380Y-95814285D01*
X153382380Y-94957142D02*
X152382380Y-94957142D01*
X152382380Y-94576190D01*
X152430000Y-94480952D01*
X152477619Y-94433333D01*
X152572857Y-94385714D01*
X152715714Y-94385714D01*
X152810952Y-94433333D01*
X152858571Y-94480952D01*
X152906190Y-94576190D01*
X152906190Y-94957142D01*
X152382380Y-94052380D02*
X152382380Y-93433333D01*
X152763333Y-93766666D01*
X152763333Y-93623809D01*
X152810952Y-93528571D01*
X152858571Y-93480952D01*
X152953809Y-93433333D01*
X153191904Y-93433333D01*
X153287142Y-93480952D01*
X153334761Y-93528571D01*
X153382380Y-93623809D01*
X153382380Y-93909523D01*
X153334761Y-94004761D01*
X153287142Y-94052380D01*
X156192380Y-95433333D02*
X156906666Y-95433333D01*
X157049523Y-95480952D01*
X157144761Y-95576190D01*
X157192380Y-95719047D01*
X157192380Y-95814285D01*
X157192380Y-94957142D02*
X156192380Y-94957142D01*
X156192380Y-94576190D01*
X156240000Y-94480952D01*
X156287619Y-94433333D01*
X156382857Y-94385714D01*
X156525714Y-94385714D01*
X156620952Y-94433333D01*
X156668571Y-94480952D01*
X156716190Y-94576190D01*
X156716190Y-94957142D01*
X156287619Y-94004761D02*
X156240000Y-93957142D01*
X156192380Y-93861904D01*
X156192380Y-93623809D01*
X156240000Y-93528571D01*
X156287619Y-93480952D01*
X156382857Y-93433333D01*
X156478095Y-93433333D01*
X156620952Y-93480952D01*
X157192380Y-94052380D01*
X157192380Y-93433333D01*
X160002380Y-95433333D02*
X160716666Y-95433333D01*
X160859523Y-95480952D01*
X160954761Y-95576190D01*
X161002380Y-95719047D01*
X161002380Y-95814285D01*
X161002380Y-94957142D02*
X160002380Y-94957142D01*
X160002380Y-94576190D01*
X160050000Y-94480952D01*
X160097619Y-94433333D01*
X160192857Y-94385714D01*
X160335714Y-94385714D01*
X160430952Y-94433333D01*
X160478571Y-94480952D01*
X160526190Y-94576190D01*
X160526190Y-94957142D01*
X161002380Y-93433333D02*
X161002380Y-94004761D01*
X161002380Y-93719047D02*
X160002380Y-93719047D01*
X160145238Y-93814285D01*
X160240476Y-93909523D01*
X160288095Y-94004761D01*
X176371428Y-95742380D02*
X176371428Y-96456666D01*
X176323809Y-96599523D01*
X176228571Y-96694761D01*
X176085714Y-96742380D01*
X175990476Y-96742380D01*
X176800000Y-95837619D02*
X176847619Y-95790000D01*
X176942857Y-95742380D01*
X177180952Y-95742380D01*
X177276190Y-95790000D01*
X177323809Y-95837619D01*
X177371428Y-95932857D01*
X177371428Y-96028095D01*
X177323809Y-96170952D01*
X176752380Y-96742380D01*
X177371428Y-96742380D01*
X177800000Y-96361428D02*
X178561904Y-96361428D01*
X179561904Y-96742380D02*
X178990476Y-96742380D01*
X179276190Y-96742380D02*
X179276190Y-95742380D01*
X179180952Y-95885238D01*
X179085714Y-95980476D01*
X178990476Y-96028095D01*
X139541428Y-106362380D02*
X139541428Y-107076666D01*
X139493809Y-107219523D01*
X139398571Y-107314761D01*
X139255714Y-107362380D01*
X139160476Y-107362380D01*
X140541428Y-107362380D02*
X139970000Y-107362380D01*
X140255714Y-107362380D02*
X140255714Y-106362380D01*
X140160476Y-106505238D01*
X140065238Y-106600476D01*
X139970000Y-106648095D01*
X140970000Y-106981428D02*
X141731904Y-106981428D01*
X142731904Y-107362380D02*
X142160476Y-107362380D01*
X142446190Y-107362380D02*
X142446190Y-106362380D01*
X142350952Y-106505238D01*
X142255714Y-106600476D01*
X142160476Y-106648095D01*
X171942380Y-125363333D02*
X172656666Y-125363333D01*
X172799523Y-125410952D01*
X172894761Y-125506190D01*
X172942380Y-125649047D01*
X172942380Y-125744285D01*
X172275714Y-124458571D02*
X172942380Y-124458571D01*
X171894761Y-124696666D02*
X172609047Y-124934761D01*
X172609047Y-124315714D01*
X160202380Y-125083333D02*
X160916666Y-125083333D01*
X161059523Y-125130952D01*
X161154761Y-125226190D01*
X161202380Y-125369047D01*
X161202380Y-125464285D01*
X160202380Y-124702380D02*
X160202380Y-124083333D01*
X160583333Y-124416666D01*
X160583333Y-124273809D01*
X160630952Y-124178571D01*
X160678571Y-124130952D01*
X160773809Y-124083333D01*
X161011904Y-124083333D01*
X161107142Y-124130952D01*
X161154761Y-124178571D01*
X161202380Y-124273809D01*
X161202380Y-124559523D01*
X161154761Y-124654761D01*
X161107142Y-124702380D01*
M02*
