G04 #@! TF.GenerationSoftware,KiCad,Pcbnew,(5.1.5)-3*
G04 #@! TF.CreationDate,2020-06-02T00:14:10+02:00*
G04 #@! TF.ProjectId,Multiplex,4d756c74-6970-46c6-9578-2e6b69636164,rev?*
G04 #@! TF.SameCoordinates,Original*
G04 #@! TF.FileFunction,Soldermask,Bot*
G04 #@! TF.FilePolarity,Negative*
%FSLAX46Y46*%
G04 Gerber Fmt 4.6, Leading zero omitted, Abs format (unit mm)*
G04 Created by KiCad (PCBNEW (5.1.5)-3) date 2020-06-02 00:14:10*
%MOMM*%
%LPD*%
G04 APERTURE LIST*
%ADD10C,0.100000*%
G04 APERTURE END LIST*
D10*
G36*
X160231766Y-121951899D02*
G01*
X160363888Y-122006626D01*
X160363890Y-122006627D01*
X160482798Y-122086079D01*
X160583921Y-122187202D01*
X160583922Y-122187204D01*
X160663374Y-122306112D01*
X160718101Y-122438234D01*
X160746000Y-122578494D01*
X160746000Y-122721506D01*
X160718101Y-122861766D01*
X160663374Y-122993888D01*
X160663373Y-122993890D01*
X160583921Y-123112798D01*
X160482798Y-123213921D01*
X160363890Y-123293373D01*
X160363889Y-123293374D01*
X160363888Y-123293374D01*
X160231766Y-123348101D01*
X160091506Y-123376000D01*
X159948494Y-123376000D01*
X159808234Y-123348101D01*
X159676112Y-123293374D01*
X159676111Y-123293374D01*
X159676110Y-123293373D01*
X159557202Y-123213921D01*
X159456079Y-123112798D01*
X159376627Y-122993890D01*
X159376626Y-122993888D01*
X159321899Y-122861766D01*
X159294000Y-122721506D01*
X159294000Y-122578494D01*
X159321899Y-122438234D01*
X159376626Y-122306112D01*
X159456078Y-122187204D01*
X159456079Y-122187202D01*
X159557202Y-122086079D01*
X159676110Y-122006627D01*
X159676112Y-122006626D01*
X159808234Y-121951899D01*
X159948494Y-121924000D01*
X160091506Y-121924000D01*
X160231766Y-121951899D01*
G37*
G36*
X158231766Y-121951899D02*
G01*
X158363888Y-122006626D01*
X158363890Y-122006627D01*
X158482798Y-122086079D01*
X158583921Y-122187202D01*
X158583922Y-122187204D01*
X158663374Y-122306112D01*
X158718101Y-122438234D01*
X158746000Y-122578494D01*
X158746000Y-122721506D01*
X158718101Y-122861766D01*
X158663374Y-122993888D01*
X158663373Y-122993890D01*
X158583921Y-123112798D01*
X158482798Y-123213921D01*
X158363890Y-123293373D01*
X158363889Y-123293374D01*
X158363888Y-123293374D01*
X158231766Y-123348101D01*
X158091506Y-123376000D01*
X157948494Y-123376000D01*
X157808234Y-123348101D01*
X157676112Y-123293374D01*
X157676111Y-123293374D01*
X157676110Y-123293373D01*
X157557202Y-123213921D01*
X157456079Y-123112798D01*
X157376627Y-122993890D01*
X157376626Y-122993888D01*
X157321899Y-122861766D01*
X157294000Y-122721506D01*
X157294000Y-122578494D01*
X157321899Y-122438234D01*
X157376626Y-122306112D01*
X157456078Y-122187204D01*
X157456079Y-122187202D01*
X157557202Y-122086079D01*
X157676110Y-122006627D01*
X157676112Y-122006626D01*
X157808234Y-121951899D01*
X157948494Y-121924000D01*
X158091506Y-121924000D01*
X158231766Y-121951899D01*
G37*
G36*
X175373512Y-119753927D02*
G01*
X175522812Y-119783624D01*
X175686784Y-119851544D01*
X175834354Y-119950147D01*
X175959853Y-120075646D01*
X176058456Y-120223216D01*
X176126376Y-120387188D01*
X176161000Y-120561259D01*
X176161000Y-120738741D01*
X176126376Y-120912812D01*
X176058456Y-121076784D01*
X175959853Y-121224354D01*
X175834354Y-121349853D01*
X175686784Y-121448456D01*
X175522812Y-121516376D01*
X175373512Y-121546073D01*
X175348742Y-121551000D01*
X175171258Y-121551000D01*
X175146488Y-121546073D01*
X174997188Y-121516376D01*
X174833216Y-121448456D01*
X174685646Y-121349853D01*
X174560147Y-121224354D01*
X174461544Y-121076784D01*
X174393624Y-120912812D01*
X174359000Y-120738741D01*
X174359000Y-120561259D01*
X174393624Y-120387188D01*
X174461544Y-120223216D01*
X174560147Y-120075646D01*
X174685646Y-119950147D01*
X174833216Y-119851544D01*
X174997188Y-119783624D01*
X175146488Y-119753927D01*
X175171258Y-119749000D01*
X175348742Y-119749000D01*
X175373512Y-119753927D01*
G37*
G36*
X178701000Y-121551000D02*
G01*
X176899000Y-121551000D01*
X176899000Y-119749000D01*
X178701000Y-119749000D01*
X178701000Y-121551000D01*
G37*
G36*
X164078228Y-119831703D02*
G01*
X164233100Y-119895853D01*
X164372481Y-119988985D01*
X164491015Y-120107519D01*
X164584147Y-120246900D01*
X164648297Y-120401772D01*
X164681000Y-120566184D01*
X164681000Y-120733816D01*
X164648297Y-120898228D01*
X164584147Y-121053100D01*
X164491015Y-121192481D01*
X164372481Y-121311015D01*
X164233100Y-121404147D01*
X164078228Y-121468297D01*
X163913816Y-121501000D01*
X163746184Y-121501000D01*
X163581772Y-121468297D01*
X163426900Y-121404147D01*
X163287519Y-121311015D01*
X163168985Y-121192481D01*
X163075853Y-121053100D01*
X163011703Y-120898228D01*
X162979000Y-120733816D01*
X162979000Y-120566184D01*
X163011703Y-120401772D01*
X163075853Y-120246900D01*
X163168985Y-120107519D01*
X163287519Y-119988985D01*
X163426900Y-119895853D01*
X163581772Y-119831703D01*
X163746184Y-119799000D01*
X163913816Y-119799000D01*
X164078228Y-119831703D01*
G37*
G36*
X153918228Y-119831703D02*
G01*
X154073100Y-119895853D01*
X154212481Y-119988985D01*
X154331015Y-120107519D01*
X154424147Y-120246900D01*
X154488297Y-120401772D01*
X154521000Y-120566184D01*
X154521000Y-120733816D01*
X154488297Y-120898228D01*
X154424147Y-121053100D01*
X154331015Y-121192481D01*
X154212481Y-121311015D01*
X154073100Y-121404147D01*
X153918228Y-121468297D01*
X153753816Y-121501000D01*
X153586184Y-121501000D01*
X153421772Y-121468297D01*
X153266900Y-121404147D01*
X153127519Y-121311015D01*
X153008985Y-121192481D01*
X152915853Y-121053100D01*
X152851703Y-120898228D01*
X152819000Y-120733816D01*
X152819000Y-120566184D01*
X152851703Y-120401772D01*
X152915853Y-120246900D01*
X153008985Y-120107519D01*
X153127519Y-119988985D01*
X153266900Y-119895853D01*
X153421772Y-119831703D01*
X153586184Y-119799000D01*
X153753816Y-119799000D01*
X153918228Y-119831703D01*
G37*
G36*
X148838228Y-119831703D02*
G01*
X148993100Y-119895853D01*
X149132481Y-119988985D01*
X149251015Y-120107519D01*
X149344147Y-120246900D01*
X149408297Y-120401772D01*
X149441000Y-120566184D01*
X149441000Y-120733816D01*
X149408297Y-120898228D01*
X149344147Y-121053100D01*
X149251015Y-121192481D01*
X149132481Y-121311015D01*
X148993100Y-121404147D01*
X148838228Y-121468297D01*
X148673816Y-121501000D01*
X148506184Y-121501000D01*
X148341772Y-121468297D01*
X148186900Y-121404147D01*
X148047519Y-121311015D01*
X147928985Y-121192481D01*
X147835853Y-121053100D01*
X147771703Y-120898228D01*
X147739000Y-120733816D01*
X147739000Y-120566184D01*
X147771703Y-120401772D01*
X147835853Y-120246900D01*
X147928985Y-120107519D01*
X148047519Y-119988985D01*
X148186900Y-119895853D01*
X148341772Y-119831703D01*
X148506184Y-119799000D01*
X148673816Y-119799000D01*
X148838228Y-119831703D01*
G37*
G36*
X160746000Y-121376000D02*
G01*
X159294000Y-121376000D01*
X159294000Y-119924000D01*
X160746000Y-119924000D01*
X160746000Y-121376000D01*
G37*
G36*
X158231766Y-119951899D02*
G01*
X158363888Y-120006626D01*
X158363890Y-120006627D01*
X158482798Y-120086079D01*
X158583921Y-120187202D01*
X158663373Y-120306110D01*
X158663374Y-120306112D01*
X158718101Y-120438234D01*
X158746000Y-120578494D01*
X158746000Y-120721506D01*
X158718101Y-120861766D01*
X158663374Y-120993888D01*
X158663373Y-120993890D01*
X158583921Y-121112798D01*
X158482798Y-121213921D01*
X158363890Y-121293373D01*
X158363889Y-121293374D01*
X158363888Y-121293374D01*
X158231766Y-121348101D01*
X158091506Y-121376000D01*
X157948494Y-121376000D01*
X157808234Y-121348101D01*
X157676112Y-121293374D01*
X157676111Y-121293374D01*
X157676110Y-121293373D01*
X157557202Y-121213921D01*
X157456079Y-121112798D01*
X157376627Y-120993890D01*
X157376626Y-120993888D01*
X157321899Y-120861766D01*
X157294000Y-120721506D01*
X157294000Y-120578494D01*
X157321899Y-120438234D01*
X157376626Y-120306112D01*
X157376627Y-120306110D01*
X157456079Y-120187202D01*
X157557202Y-120086079D01*
X157676110Y-120006627D01*
X157676112Y-120006626D01*
X157808234Y-119951899D01*
X157948494Y-119924000D01*
X158091506Y-119924000D01*
X158231766Y-119951899D01*
G37*
G36*
X179318228Y-116021703D02*
G01*
X179473100Y-116085853D01*
X179612481Y-116178985D01*
X179731015Y-116297519D01*
X179824147Y-116436900D01*
X179888297Y-116591772D01*
X179921000Y-116756184D01*
X179921000Y-116923816D01*
X179888297Y-117088228D01*
X179824147Y-117243100D01*
X179731015Y-117382481D01*
X179612481Y-117501015D01*
X179473100Y-117594147D01*
X179318228Y-117658297D01*
X179153816Y-117691000D01*
X178986184Y-117691000D01*
X178821772Y-117658297D01*
X178666900Y-117594147D01*
X178527519Y-117501015D01*
X178408985Y-117382481D01*
X178315853Y-117243100D01*
X178251703Y-117088228D01*
X178219000Y-116923816D01*
X178219000Y-116756184D01*
X178251703Y-116591772D01*
X178315853Y-116436900D01*
X178408985Y-116297519D01*
X178527519Y-116178985D01*
X178666900Y-116085853D01*
X178821772Y-116021703D01*
X178986184Y-115989000D01*
X179153816Y-115989000D01*
X179318228Y-116021703D01*
G37*
G36*
X176778228Y-116021703D02*
G01*
X176933100Y-116085853D01*
X177072481Y-116178985D01*
X177191015Y-116297519D01*
X177284147Y-116436900D01*
X177348297Y-116591772D01*
X177381000Y-116756184D01*
X177381000Y-116923816D01*
X177348297Y-117088228D01*
X177284147Y-117243100D01*
X177191015Y-117382481D01*
X177072481Y-117501015D01*
X176933100Y-117594147D01*
X176778228Y-117658297D01*
X176613816Y-117691000D01*
X176446184Y-117691000D01*
X176281772Y-117658297D01*
X176126900Y-117594147D01*
X175987519Y-117501015D01*
X175868985Y-117382481D01*
X175775853Y-117243100D01*
X175711703Y-117088228D01*
X175679000Y-116923816D01*
X175679000Y-116756184D01*
X175711703Y-116591772D01*
X175775853Y-116436900D01*
X175868985Y-116297519D01*
X175987519Y-116178985D01*
X176126900Y-116085853D01*
X176281772Y-116021703D01*
X176446184Y-115989000D01*
X176613816Y-115989000D01*
X176778228Y-116021703D01*
G37*
G36*
X174238228Y-116021703D02*
G01*
X174393100Y-116085853D01*
X174532481Y-116178985D01*
X174651015Y-116297519D01*
X174744147Y-116436900D01*
X174808297Y-116591772D01*
X174841000Y-116756184D01*
X174841000Y-116923816D01*
X174808297Y-117088228D01*
X174744147Y-117243100D01*
X174651015Y-117382481D01*
X174532481Y-117501015D01*
X174393100Y-117594147D01*
X174238228Y-117658297D01*
X174073816Y-117691000D01*
X173906184Y-117691000D01*
X173741772Y-117658297D01*
X173586900Y-117594147D01*
X173447519Y-117501015D01*
X173328985Y-117382481D01*
X173235853Y-117243100D01*
X173171703Y-117088228D01*
X173139000Y-116923816D01*
X173139000Y-116756184D01*
X173171703Y-116591772D01*
X173235853Y-116436900D01*
X173328985Y-116297519D01*
X173447519Y-116178985D01*
X173586900Y-116085853D01*
X173741772Y-116021703D01*
X173906184Y-115989000D01*
X174073816Y-115989000D01*
X174238228Y-116021703D01*
G37*
G36*
X153918228Y-109671703D02*
G01*
X154073100Y-109735853D01*
X154212481Y-109828985D01*
X154331015Y-109947519D01*
X154424147Y-110086900D01*
X154488297Y-110241772D01*
X154521000Y-110406184D01*
X154521000Y-110573816D01*
X154488297Y-110738228D01*
X154424147Y-110893100D01*
X154331015Y-111032481D01*
X154212481Y-111151015D01*
X154073100Y-111244147D01*
X153918228Y-111308297D01*
X153753816Y-111341000D01*
X153586184Y-111341000D01*
X153421772Y-111308297D01*
X153266900Y-111244147D01*
X153127519Y-111151015D01*
X153008985Y-111032481D01*
X152915853Y-110893100D01*
X152851703Y-110738228D01*
X152819000Y-110573816D01*
X152819000Y-110406184D01*
X152851703Y-110241772D01*
X152915853Y-110086900D01*
X153008985Y-109947519D01*
X153127519Y-109828985D01*
X153266900Y-109735853D01*
X153421772Y-109671703D01*
X153586184Y-109639000D01*
X153753816Y-109639000D01*
X153918228Y-109671703D01*
G37*
G36*
X164078228Y-109671703D02*
G01*
X164233100Y-109735853D01*
X164372481Y-109828985D01*
X164491015Y-109947519D01*
X164584147Y-110086900D01*
X164648297Y-110241772D01*
X164681000Y-110406184D01*
X164681000Y-110573816D01*
X164648297Y-110738228D01*
X164584147Y-110893100D01*
X164491015Y-111032481D01*
X164372481Y-111151015D01*
X164233100Y-111244147D01*
X164078228Y-111308297D01*
X163913816Y-111341000D01*
X163746184Y-111341000D01*
X163581772Y-111308297D01*
X163426900Y-111244147D01*
X163287519Y-111151015D01*
X163168985Y-111032481D01*
X163075853Y-110893100D01*
X163011703Y-110738228D01*
X162979000Y-110573816D01*
X162979000Y-110406184D01*
X163011703Y-110241772D01*
X163075853Y-110086900D01*
X163168985Y-109947519D01*
X163287519Y-109828985D01*
X163426900Y-109735853D01*
X163581772Y-109671703D01*
X163746184Y-109639000D01*
X163913816Y-109639000D01*
X164078228Y-109671703D01*
G37*
G36*
X148838228Y-109671703D02*
G01*
X148993100Y-109735853D01*
X149132481Y-109828985D01*
X149251015Y-109947519D01*
X149344147Y-110086900D01*
X149408297Y-110241772D01*
X149441000Y-110406184D01*
X149441000Y-110573816D01*
X149408297Y-110738228D01*
X149344147Y-110893100D01*
X149251015Y-111032481D01*
X149132481Y-111151015D01*
X148993100Y-111244147D01*
X148838228Y-111308297D01*
X148673816Y-111341000D01*
X148506184Y-111341000D01*
X148341772Y-111308297D01*
X148186900Y-111244147D01*
X148047519Y-111151015D01*
X147928985Y-111032481D01*
X147835853Y-110893100D01*
X147771703Y-110738228D01*
X147739000Y-110573816D01*
X147739000Y-110406184D01*
X147771703Y-110241772D01*
X147835853Y-110086900D01*
X147928985Y-109947519D01*
X148047519Y-109828985D01*
X148186900Y-109735853D01*
X148341772Y-109671703D01*
X148506184Y-109639000D01*
X148673816Y-109639000D01*
X148838228Y-109671703D01*
G37*
G36*
X174238228Y-108401703D02*
G01*
X174393100Y-108465853D01*
X174532481Y-108558985D01*
X174651015Y-108677519D01*
X174744147Y-108816900D01*
X174808297Y-108971772D01*
X174841000Y-109136184D01*
X174841000Y-109303816D01*
X174808297Y-109468228D01*
X174744147Y-109623100D01*
X174651015Y-109762481D01*
X174532481Y-109881015D01*
X174393100Y-109974147D01*
X174238228Y-110038297D01*
X174073816Y-110071000D01*
X173906184Y-110071000D01*
X173741772Y-110038297D01*
X173586900Y-109974147D01*
X173447519Y-109881015D01*
X173328985Y-109762481D01*
X173235853Y-109623100D01*
X173171703Y-109468228D01*
X173139000Y-109303816D01*
X173139000Y-109136184D01*
X173171703Y-108971772D01*
X173235853Y-108816900D01*
X173328985Y-108677519D01*
X173447519Y-108558985D01*
X173586900Y-108465853D01*
X173741772Y-108401703D01*
X173906184Y-108369000D01*
X174073816Y-108369000D01*
X174238228Y-108401703D01*
G37*
G36*
X179921000Y-110071000D02*
G01*
X178219000Y-110071000D01*
X178219000Y-108369000D01*
X179921000Y-108369000D01*
X179921000Y-110071000D01*
G37*
G36*
X176778228Y-108401703D02*
G01*
X176933100Y-108465853D01*
X177072481Y-108558985D01*
X177191015Y-108677519D01*
X177284147Y-108816900D01*
X177348297Y-108971772D01*
X177381000Y-109136184D01*
X177381000Y-109303816D01*
X177348297Y-109468228D01*
X177284147Y-109623100D01*
X177191015Y-109762481D01*
X177072481Y-109881015D01*
X176933100Y-109974147D01*
X176778228Y-110038297D01*
X176613816Y-110071000D01*
X176446184Y-110071000D01*
X176281772Y-110038297D01*
X176126900Y-109974147D01*
X175987519Y-109881015D01*
X175868985Y-109762481D01*
X175775853Y-109623100D01*
X175711703Y-109468228D01*
X175679000Y-109303816D01*
X175679000Y-109136184D01*
X175711703Y-108971772D01*
X175775853Y-108816900D01*
X175868985Y-108677519D01*
X175987519Y-108558985D01*
X176126900Y-108465853D01*
X176281772Y-108401703D01*
X176446184Y-108369000D01*
X176613816Y-108369000D01*
X176778228Y-108401703D01*
G37*
G36*
X169158228Y-108401703D02*
G01*
X169313100Y-108465853D01*
X169452481Y-108558985D01*
X169571015Y-108677519D01*
X169664147Y-108816900D01*
X169728297Y-108971772D01*
X169761000Y-109136184D01*
X169761000Y-109303816D01*
X169728297Y-109468228D01*
X169664147Y-109623100D01*
X169571015Y-109762481D01*
X169452481Y-109881015D01*
X169313100Y-109974147D01*
X169158228Y-110038297D01*
X168993816Y-110071000D01*
X168826184Y-110071000D01*
X168661772Y-110038297D01*
X168506900Y-109974147D01*
X168367519Y-109881015D01*
X168248985Y-109762481D01*
X168155853Y-109623100D01*
X168091703Y-109468228D01*
X168059000Y-109303816D01*
X168059000Y-109136184D01*
X168091703Y-108971772D01*
X168155853Y-108816900D01*
X168248985Y-108677519D01*
X168367519Y-108558985D01*
X168506900Y-108465853D01*
X168661772Y-108401703D01*
X168826184Y-108369000D01*
X168993816Y-108369000D01*
X169158228Y-108401703D01*
G37*
G36*
X165348228Y-105861703D02*
G01*
X165503100Y-105925853D01*
X165642481Y-106018985D01*
X165761015Y-106137519D01*
X165854147Y-106276900D01*
X165918297Y-106431772D01*
X165951000Y-106596184D01*
X165951000Y-106763816D01*
X165918297Y-106928228D01*
X165854147Y-107083100D01*
X165761015Y-107222481D01*
X165642481Y-107341015D01*
X165503100Y-107434147D01*
X165348228Y-107498297D01*
X165183816Y-107531000D01*
X165016184Y-107531000D01*
X164851772Y-107498297D01*
X164696900Y-107434147D01*
X164557519Y-107341015D01*
X164438985Y-107222481D01*
X164345853Y-107083100D01*
X164281703Y-106928228D01*
X164249000Y-106763816D01*
X164249000Y-106596184D01*
X164281703Y-106431772D01*
X164345853Y-106276900D01*
X164438985Y-106137519D01*
X164557519Y-106018985D01*
X164696900Y-105925853D01*
X164851772Y-105861703D01*
X165016184Y-105829000D01*
X165183816Y-105829000D01*
X165348228Y-105861703D01*
G37*
G36*
X162808228Y-105861703D02*
G01*
X162963100Y-105925853D01*
X163102481Y-106018985D01*
X163221015Y-106137519D01*
X163314147Y-106276900D01*
X163378297Y-106431772D01*
X163411000Y-106596184D01*
X163411000Y-106763816D01*
X163378297Y-106928228D01*
X163314147Y-107083100D01*
X163221015Y-107222481D01*
X163102481Y-107341015D01*
X162963100Y-107434147D01*
X162808228Y-107498297D01*
X162643816Y-107531000D01*
X162476184Y-107531000D01*
X162311772Y-107498297D01*
X162156900Y-107434147D01*
X162017519Y-107341015D01*
X161898985Y-107222481D01*
X161805853Y-107083100D01*
X161741703Y-106928228D01*
X161709000Y-106763816D01*
X161709000Y-106596184D01*
X161741703Y-106431772D01*
X161805853Y-106276900D01*
X161898985Y-106137519D01*
X162017519Y-106018985D01*
X162156900Y-105925853D01*
X162311772Y-105861703D01*
X162476184Y-105829000D01*
X162643816Y-105829000D01*
X162808228Y-105861703D01*
G37*
G36*
X150711000Y-107531000D02*
G01*
X149009000Y-107531000D01*
X149009000Y-105829000D01*
X150711000Y-105829000D01*
X150711000Y-107531000D01*
G37*
G36*
X157728228Y-105861703D02*
G01*
X157883100Y-105925853D01*
X158022481Y-106018985D01*
X158141015Y-106137519D01*
X158234147Y-106276900D01*
X158298297Y-106431772D01*
X158331000Y-106596184D01*
X158331000Y-106763816D01*
X158298297Y-106928228D01*
X158234147Y-107083100D01*
X158141015Y-107222481D01*
X158022481Y-107341015D01*
X157883100Y-107434147D01*
X157728228Y-107498297D01*
X157563816Y-107531000D01*
X157396184Y-107531000D01*
X157231772Y-107498297D01*
X157076900Y-107434147D01*
X156937519Y-107341015D01*
X156818985Y-107222481D01*
X156725853Y-107083100D01*
X156661703Y-106928228D01*
X156629000Y-106763816D01*
X156629000Y-106596184D01*
X156661703Y-106431772D01*
X156725853Y-106276900D01*
X156818985Y-106137519D01*
X156937519Y-106018985D01*
X157076900Y-105925853D01*
X157231772Y-105861703D01*
X157396184Y-105829000D01*
X157563816Y-105829000D01*
X157728228Y-105861703D01*
G37*
G36*
X160268228Y-105861703D02*
G01*
X160423100Y-105925853D01*
X160562481Y-106018985D01*
X160681015Y-106137519D01*
X160774147Y-106276900D01*
X160838297Y-106431772D01*
X160871000Y-106596184D01*
X160871000Y-106763816D01*
X160838297Y-106928228D01*
X160774147Y-107083100D01*
X160681015Y-107222481D01*
X160562481Y-107341015D01*
X160423100Y-107434147D01*
X160268228Y-107498297D01*
X160103816Y-107531000D01*
X159936184Y-107531000D01*
X159771772Y-107498297D01*
X159616900Y-107434147D01*
X159477519Y-107341015D01*
X159358985Y-107222481D01*
X159265853Y-107083100D01*
X159201703Y-106928228D01*
X159169000Y-106763816D01*
X159169000Y-106596184D01*
X159201703Y-106431772D01*
X159265853Y-106276900D01*
X159358985Y-106137519D01*
X159477519Y-106018985D01*
X159616900Y-105925853D01*
X159771772Y-105861703D01*
X159936184Y-105829000D01*
X160103816Y-105829000D01*
X160268228Y-105861703D01*
G37*
G36*
X152648228Y-105861703D02*
G01*
X152803100Y-105925853D01*
X152942481Y-106018985D01*
X153061015Y-106137519D01*
X153154147Y-106276900D01*
X153218297Y-106431772D01*
X153251000Y-106596184D01*
X153251000Y-106763816D01*
X153218297Y-106928228D01*
X153154147Y-107083100D01*
X153061015Y-107222481D01*
X152942481Y-107341015D01*
X152803100Y-107434147D01*
X152648228Y-107498297D01*
X152483816Y-107531000D01*
X152316184Y-107531000D01*
X152151772Y-107498297D01*
X151996900Y-107434147D01*
X151857519Y-107341015D01*
X151738985Y-107222481D01*
X151645853Y-107083100D01*
X151581703Y-106928228D01*
X151549000Y-106763816D01*
X151549000Y-106596184D01*
X151581703Y-106431772D01*
X151645853Y-106276900D01*
X151738985Y-106137519D01*
X151857519Y-106018985D01*
X151996900Y-105925853D01*
X152151772Y-105861703D01*
X152316184Y-105829000D01*
X152483816Y-105829000D01*
X152648228Y-105861703D01*
G37*
G36*
X155188228Y-105861703D02*
G01*
X155343100Y-105925853D01*
X155482481Y-106018985D01*
X155601015Y-106137519D01*
X155694147Y-106276900D01*
X155758297Y-106431772D01*
X155791000Y-106596184D01*
X155791000Y-106763816D01*
X155758297Y-106928228D01*
X155694147Y-107083100D01*
X155601015Y-107222481D01*
X155482481Y-107341015D01*
X155343100Y-107434147D01*
X155188228Y-107498297D01*
X155023816Y-107531000D01*
X154856184Y-107531000D01*
X154691772Y-107498297D01*
X154536900Y-107434147D01*
X154397519Y-107341015D01*
X154278985Y-107222481D01*
X154185853Y-107083100D01*
X154121703Y-106928228D01*
X154089000Y-106763816D01*
X154089000Y-106596184D01*
X154121703Y-106431772D01*
X154185853Y-106276900D01*
X154278985Y-106137519D01*
X154397519Y-106018985D01*
X154536900Y-105925853D01*
X154691772Y-105861703D01*
X154856184Y-105829000D01*
X155023816Y-105829000D01*
X155188228Y-105861703D01*
G37*
G36*
X172968228Y-104591703D02*
G01*
X173123100Y-104655853D01*
X173262481Y-104748985D01*
X173381015Y-104867519D01*
X173474147Y-105006900D01*
X173538297Y-105161772D01*
X173571000Y-105326184D01*
X173571000Y-105493816D01*
X173538297Y-105658228D01*
X173474147Y-105813100D01*
X173381015Y-105952481D01*
X173262481Y-106071015D01*
X173123100Y-106164147D01*
X172968228Y-106228297D01*
X172803816Y-106261000D01*
X172636184Y-106261000D01*
X172471772Y-106228297D01*
X172316900Y-106164147D01*
X172177519Y-106071015D01*
X172058985Y-105952481D01*
X171965853Y-105813100D01*
X171901703Y-105658228D01*
X171869000Y-105493816D01*
X171869000Y-105326184D01*
X171901703Y-105161772D01*
X171965853Y-105006900D01*
X172058985Y-104867519D01*
X172177519Y-104748985D01*
X172316900Y-104655853D01*
X172471772Y-104591703D01*
X172636184Y-104559000D01*
X172803816Y-104559000D01*
X172968228Y-104591703D01*
G37*
G36*
X183128228Y-104591703D02*
G01*
X183283100Y-104655853D01*
X183422481Y-104748985D01*
X183541015Y-104867519D01*
X183634147Y-105006900D01*
X183698297Y-105161772D01*
X183731000Y-105326184D01*
X183731000Y-105493816D01*
X183698297Y-105658228D01*
X183634147Y-105813100D01*
X183541015Y-105952481D01*
X183422481Y-106071015D01*
X183283100Y-106164147D01*
X183128228Y-106228297D01*
X182963816Y-106261000D01*
X182796184Y-106261000D01*
X182631772Y-106228297D01*
X182476900Y-106164147D01*
X182337519Y-106071015D01*
X182218985Y-105952481D01*
X182125853Y-105813100D01*
X182061703Y-105658228D01*
X182029000Y-105493816D01*
X182029000Y-105326184D01*
X182061703Y-105161772D01*
X182125853Y-105006900D01*
X182218985Y-104867519D01*
X182337519Y-104748985D01*
X182476900Y-104655853D01*
X182631772Y-104591703D01*
X182796184Y-104559000D01*
X182963816Y-104559000D01*
X183128228Y-104591703D01*
G37*
G36*
X177913512Y-100703927D02*
G01*
X178062812Y-100733624D01*
X178226784Y-100801544D01*
X178374354Y-100900147D01*
X178499853Y-101025646D01*
X178598456Y-101173216D01*
X178666376Y-101337188D01*
X178701000Y-101511259D01*
X178701000Y-101688741D01*
X178666376Y-101862812D01*
X178598456Y-102026784D01*
X178499853Y-102174354D01*
X178374354Y-102299853D01*
X178226784Y-102398456D01*
X178062812Y-102466376D01*
X177913512Y-102496073D01*
X177888742Y-102501000D01*
X177711258Y-102501000D01*
X177686488Y-102496073D01*
X177537188Y-102466376D01*
X177373216Y-102398456D01*
X177225646Y-102299853D01*
X177100147Y-102174354D01*
X177001544Y-102026784D01*
X176933624Y-101862812D01*
X176899000Y-101688741D01*
X176899000Y-101511259D01*
X176933624Y-101337188D01*
X177001544Y-101173216D01*
X177100147Y-101025646D01*
X177225646Y-100900147D01*
X177373216Y-100801544D01*
X177537188Y-100733624D01*
X177686488Y-100703927D01*
X177711258Y-100699000D01*
X177888742Y-100699000D01*
X177913512Y-100703927D01*
G37*
G36*
X181723512Y-100703927D02*
G01*
X181872812Y-100733624D01*
X182036784Y-100801544D01*
X182184354Y-100900147D01*
X182309853Y-101025646D01*
X182408456Y-101173216D01*
X182476376Y-101337188D01*
X182511000Y-101511259D01*
X182511000Y-101688741D01*
X182476376Y-101862812D01*
X182408456Y-102026784D01*
X182309853Y-102174354D01*
X182184354Y-102299853D01*
X182036784Y-102398456D01*
X181872812Y-102466376D01*
X181723512Y-102496073D01*
X181698742Y-102501000D01*
X181521258Y-102501000D01*
X181496488Y-102496073D01*
X181347188Y-102466376D01*
X181183216Y-102398456D01*
X181035646Y-102299853D01*
X180910147Y-102174354D01*
X180811544Y-102026784D01*
X180743624Y-101862812D01*
X180709000Y-101688741D01*
X180709000Y-101511259D01*
X180743624Y-101337188D01*
X180811544Y-101173216D01*
X180910147Y-101025646D01*
X181035646Y-100900147D01*
X181183216Y-100801544D01*
X181347188Y-100733624D01*
X181496488Y-100703927D01*
X181521258Y-100699000D01*
X181698742Y-100699000D01*
X181723512Y-100703927D01*
G37*
G36*
X141871000Y-102501000D02*
G01*
X140069000Y-102501000D01*
X140069000Y-100699000D01*
X141871000Y-100699000D01*
X141871000Y-102501000D01*
G37*
G36*
X145681000Y-102501000D02*
G01*
X143879000Y-102501000D01*
X143879000Y-100699000D01*
X145681000Y-100699000D01*
X145681000Y-102501000D01*
G37*
G36*
X182511000Y-99961000D02*
G01*
X180709000Y-99961000D01*
X180709000Y-98159000D01*
X182511000Y-98159000D01*
X182511000Y-99961000D01*
G37*
G36*
X144893512Y-98163927D02*
G01*
X145042812Y-98193624D01*
X145206784Y-98261544D01*
X145354354Y-98360147D01*
X145479853Y-98485646D01*
X145578456Y-98633216D01*
X145646376Y-98797188D01*
X145681000Y-98971259D01*
X145681000Y-99148741D01*
X145646376Y-99322812D01*
X145578456Y-99486784D01*
X145479853Y-99634354D01*
X145354354Y-99759853D01*
X145206784Y-99858456D01*
X145042812Y-99926376D01*
X144893512Y-99956073D01*
X144868742Y-99961000D01*
X144691258Y-99961000D01*
X144666488Y-99956073D01*
X144517188Y-99926376D01*
X144353216Y-99858456D01*
X144205646Y-99759853D01*
X144080147Y-99634354D01*
X143981544Y-99486784D01*
X143913624Y-99322812D01*
X143879000Y-99148741D01*
X143879000Y-98971259D01*
X143913624Y-98797188D01*
X143981544Y-98633216D01*
X144080147Y-98485646D01*
X144205646Y-98360147D01*
X144353216Y-98261544D01*
X144517188Y-98193624D01*
X144666488Y-98163927D01*
X144691258Y-98159000D01*
X144868742Y-98159000D01*
X144893512Y-98163927D01*
G37*
G36*
X141083512Y-98163927D02*
G01*
X141232812Y-98193624D01*
X141396784Y-98261544D01*
X141544354Y-98360147D01*
X141669853Y-98485646D01*
X141768456Y-98633216D01*
X141836376Y-98797188D01*
X141871000Y-98971259D01*
X141871000Y-99148741D01*
X141836376Y-99322812D01*
X141768456Y-99486784D01*
X141669853Y-99634354D01*
X141544354Y-99759853D01*
X141396784Y-99858456D01*
X141232812Y-99926376D01*
X141083512Y-99956073D01*
X141058742Y-99961000D01*
X140881258Y-99961000D01*
X140856488Y-99956073D01*
X140707188Y-99926376D01*
X140543216Y-99858456D01*
X140395646Y-99759853D01*
X140270147Y-99634354D01*
X140171544Y-99486784D01*
X140103624Y-99322812D01*
X140069000Y-99148741D01*
X140069000Y-98971259D01*
X140103624Y-98797188D01*
X140171544Y-98633216D01*
X140270147Y-98485646D01*
X140395646Y-98360147D01*
X140543216Y-98261544D01*
X140707188Y-98193624D01*
X140856488Y-98163927D01*
X140881258Y-98159000D01*
X141058742Y-98159000D01*
X141083512Y-98163927D01*
G37*
G36*
X178701000Y-99961000D02*
G01*
X176899000Y-99961000D01*
X176899000Y-98159000D01*
X178701000Y-98159000D01*
X178701000Y-99961000D01*
G37*
G36*
X155188228Y-98241703D02*
G01*
X155343100Y-98305853D01*
X155482481Y-98398985D01*
X155601015Y-98517519D01*
X155694147Y-98656900D01*
X155758297Y-98811772D01*
X155791000Y-98976184D01*
X155791000Y-99143816D01*
X155758297Y-99308228D01*
X155694147Y-99463100D01*
X155601015Y-99602481D01*
X155482481Y-99721015D01*
X155343100Y-99814147D01*
X155188228Y-99878297D01*
X155023816Y-99911000D01*
X154856184Y-99911000D01*
X154691772Y-99878297D01*
X154536900Y-99814147D01*
X154397519Y-99721015D01*
X154278985Y-99602481D01*
X154185853Y-99463100D01*
X154121703Y-99308228D01*
X154089000Y-99143816D01*
X154089000Y-98976184D01*
X154121703Y-98811772D01*
X154185853Y-98656900D01*
X154278985Y-98517519D01*
X154397519Y-98398985D01*
X154536900Y-98305853D01*
X154691772Y-98241703D01*
X154856184Y-98209000D01*
X155023816Y-98209000D01*
X155188228Y-98241703D01*
G37*
G36*
X165348228Y-98241703D02*
G01*
X165503100Y-98305853D01*
X165642481Y-98398985D01*
X165761015Y-98517519D01*
X165854147Y-98656900D01*
X165918297Y-98811772D01*
X165951000Y-98976184D01*
X165951000Y-99143816D01*
X165918297Y-99308228D01*
X165854147Y-99463100D01*
X165761015Y-99602481D01*
X165642481Y-99721015D01*
X165503100Y-99814147D01*
X165348228Y-99878297D01*
X165183816Y-99911000D01*
X165016184Y-99911000D01*
X164851772Y-99878297D01*
X164696900Y-99814147D01*
X164557519Y-99721015D01*
X164438985Y-99602481D01*
X164345853Y-99463100D01*
X164281703Y-99308228D01*
X164249000Y-99143816D01*
X164249000Y-98976184D01*
X164281703Y-98811772D01*
X164345853Y-98656900D01*
X164438985Y-98517519D01*
X164557519Y-98398985D01*
X164696900Y-98305853D01*
X164851772Y-98241703D01*
X165016184Y-98209000D01*
X165183816Y-98209000D01*
X165348228Y-98241703D01*
G37*
G36*
X162808228Y-98241703D02*
G01*
X162963100Y-98305853D01*
X163102481Y-98398985D01*
X163221015Y-98517519D01*
X163314147Y-98656900D01*
X163378297Y-98811772D01*
X163411000Y-98976184D01*
X163411000Y-99143816D01*
X163378297Y-99308228D01*
X163314147Y-99463100D01*
X163221015Y-99602481D01*
X163102481Y-99721015D01*
X162963100Y-99814147D01*
X162808228Y-99878297D01*
X162643816Y-99911000D01*
X162476184Y-99911000D01*
X162311772Y-99878297D01*
X162156900Y-99814147D01*
X162017519Y-99721015D01*
X161898985Y-99602481D01*
X161805853Y-99463100D01*
X161741703Y-99308228D01*
X161709000Y-99143816D01*
X161709000Y-98976184D01*
X161741703Y-98811772D01*
X161805853Y-98656900D01*
X161898985Y-98517519D01*
X162017519Y-98398985D01*
X162156900Y-98305853D01*
X162311772Y-98241703D01*
X162476184Y-98209000D01*
X162643816Y-98209000D01*
X162808228Y-98241703D01*
G37*
G36*
X160268228Y-98241703D02*
G01*
X160423100Y-98305853D01*
X160562481Y-98398985D01*
X160681015Y-98517519D01*
X160774147Y-98656900D01*
X160838297Y-98811772D01*
X160871000Y-98976184D01*
X160871000Y-99143816D01*
X160838297Y-99308228D01*
X160774147Y-99463100D01*
X160681015Y-99602481D01*
X160562481Y-99721015D01*
X160423100Y-99814147D01*
X160268228Y-99878297D01*
X160103816Y-99911000D01*
X159936184Y-99911000D01*
X159771772Y-99878297D01*
X159616900Y-99814147D01*
X159477519Y-99721015D01*
X159358985Y-99602481D01*
X159265853Y-99463100D01*
X159201703Y-99308228D01*
X159169000Y-99143816D01*
X159169000Y-98976184D01*
X159201703Y-98811772D01*
X159265853Y-98656900D01*
X159358985Y-98517519D01*
X159477519Y-98398985D01*
X159616900Y-98305853D01*
X159771772Y-98241703D01*
X159936184Y-98209000D01*
X160103816Y-98209000D01*
X160268228Y-98241703D01*
G37*
G36*
X157728228Y-98241703D02*
G01*
X157883100Y-98305853D01*
X158022481Y-98398985D01*
X158141015Y-98517519D01*
X158234147Y-98656900D01*
X158298297Y-98811772D01*
X158331000Y-98976184D01*
X158331000Y-99143816D01*
X158298297Y-99308228D01*
X158234147Y-99463100D01*
X158141015Y-99602481D01*
X158022481Y-99721015D01*
X157883100Y-99814147D01*
X157728228Y-99878297D01*
X157563816Y-99911000D01*
X157396184Y-99911000D01*
X157231772Y-99878297D01*
X157076900Y-99814147D01*
X156937519Y-99721015D01*
X156818985Y-99602481D01*
X156725853Y-99463100D01*
X156661703Y-99308228D01*
X156629000Y-99143816D01*
X156629000Y-98976184D01*
X156661703Y-98811772D01*
X156725853Y-98656900D01*
X156818985Y-98517519D01*
X156937519Y-98398985D01*
X157076900Y-98305853D01*
X157231772Y-98241703D01*
X157396184Y-98209000D01*
X157563816Y-98209000D01*
X157728228Y-98241703D01*
G37*
G36*
X152648228Y-98241703D02*
G01*
X152803100Y-98305853D01*
X152942481Y-98398985D01*
X153061015Y-98517519D01*
X153154147Y-98656900D01*
X153218297Y-98811772D01*
X153251000Y-98976184D01*
X153251000Y-99143816D01*
X153218297Y-99308228D01*
X153154147Y-99463100D01*
X153061015Y-99602481D01*
X152942481Y-99721015D01*
X152803100Y-99814147D01*
X152648228Y-99878297D01*
X152483816Y-99911000D01*
X152316184Y-99911000D01*
X152151772Y-99878297D01*
X151996900Y-99814147D01*
X151857519Y-99721015D01*
X151738985Y-99602481D01*
X151645853Y-99463100D01*
X151581703Y-99308228D01*
X151549000Y-99143816D01*
X151549000Y-98976184D01*
X151581703Y-98811772D01*
X151645853Y-98656900D01*
X151738985Y-98517519D01*
X151857519Y-98398985D01*
X151996900Y-98305853D01*
X152151772Y-98241703D01*
X152316184Y-98209000D01*
X152483816Y-98209000D01*
X152648228Y-98241703D01*
G37*
G36*
X150108228Y-98241703D02*
G01*
X150263100Y-98305853D01*
X150402481Y-98398985D01*
X150521015Y-98517519D01*
X150614147Y-98656900D01*
X150678297Y-98811772D01*
X150711000Y-98976184D01*
X150711000Y-99143816D01*
X150678297Y-99308228D01*
X150614147Y-99463100D01*
X150521015Y-99602481D01*
X150402481Y-99721015D01*
X150263100Y-99814147D01*
X150108228Y-99878297D01*
X149943816Y-99911000D01*
X149776184Y-99911000D01*
X149611772Y-99878297D01*
X149456900Y-99814147D01*
X149317519Y-99721015D01*
X149198985Y-99602481D01*
X149105853Y-99463100D01*
X149041703Y-99308228D01*
X149009000Y-99143816D01*
X149009000Y-98976184D01*
X149041703Y-98811772D01*
X149105853Y-98656900D01*
X149198985Y-98517519D01*
X149317519Y-98398985D01*
X149456900Y-98305853D01*
X149611772Y-98241703D01*
X149776184Y-98209000D01*
X149943816Y-98209000D01*
X150108228Y-98241703D01*
G37*
G36*
X169158228Y-98241703D02*
G01*
X169313100Y-98305853D01*
X169452481Y-98398985D01*
X169571015Y-98517519D01*
X169664147Y-98656900D01*
X169728297Y-98811772D01*
X169761000Y-98976184D01*
X169761000Y-99143816D01*
X169728297Y-99308228D01*
X169664147Y-99463100D01*
X169571015Y-99602481D01*
X169452481Y-99721015D01*
X169313100Y-99814147D01*
X169158228Y-99878297D01*
X168993816Y-99911000D01*
X168826184Y-99911000D01*
X168661772Y-99878297D01*
X168506900Y-99814147D01*
X168367519Y-99721015D01*
X168248985Y-99602481D01*
X168155853Y-99463100D01*
X168091703Y-99308228D01*
X168059000Y-99143816D01*
X168059000Y-98976184D01*
X168091703Y-98811772D01*
X168155853Y-98656900D01*
X168248985Y-98517519D01*
X168367519Y-98398985D01*
X168506900Y-98305853D01*
X168661772Y-98241703D01*
X168826184Y-98209000D01*
X168993816Y-98209000D01*
X169158228Y-98241703D01*
G37*
M02*
