G04 #@! TF.GenerationSoftware,KiCad,Pcbnew,(5.1.5)-3*
G04 #@! TF.CreationDate,2020-04-21T00:00:34+02:00*
G04 #@! TF.ProjectId,Multiplex,4d756c74-6970-46c6-9578-2e6b69636164,rev?*
G04 #@! TF.SameCoordinates,Original*
G04 #@! TF.FileFunction,Copper,L2,Bot*
G04 #@! TF.FilePolarity,Positive*
%FSLAX46Y46*%
G04 Gerber Fmt 4.6, Leading zero omitted, Abs format (unit mm)*
G04 Created by KiCad (PCBNEW (5.1.5)-3) date 2020-04-21 00:00:34*
%MOMM*%
%LPD*%
G04 APERTURE LIST*
%ADD10O,1.600000X1.600000*%
%ADD11R,1.600000X1.600000*%
%ADD12O,1.400000X1.400000*%
%ADD13C,1.400000*%
%ADD14C,1.600000*%
%ADD15O,1.700000X1.700000*%
%ADD16R,1.700000X1.700000*%
%ADD17O,1.350000X1.350000*%
%ADD18R,1.350000X1.350000*%
G04 APERTURE END LIST*
D10*
X179070000Y-116840000D03*
X173990000Y-109220000D03*
X176530000Y-116840000D03*
X176530000Y-109220000D03*
X173990000Y-116840000D03*
D11*
X179070000Y-109220000D03*
D10*
X149860000Y-99060000D03*
X165100000Y-106680000D03*
X152400000Y-99060000D03*
X162560000Y-106680000D03*
X154940000Y-99060000D03*
X160020000Y-106680000D03*
X157480000Y-99060000D03*
X157480000Y-106680000D03*
X160020000Y-99060000D03*
X154940000Y-106680000D03*
X162560000Y-99060000D03*
X152400000Y-106680000D03*
X165100000Y-99060000D03*
D11*
X149860000Y-106680000D03*
D12*
X181610000Y-105410000D03*
D13*
X173990000Y-105410000D03*
D10*
X148590000Y-110490000D03*
D14*
X148590000Y-120650000D03*
D10*
X153670000Y-110490000D03*
D14*
X153670000Y-120650000D03*
D10*
X166370000Y-110490000D03*
D14*
X166370000Y-120650000D03*
D10*
X170180000Y-99060000D03*
D14*
X170180000Y-109220000D03*
D15*
X177800000Y-101600000D03*
D16*
X177800000Y-99060000D03*
D15*
X181610000Y-101600000D03*
D16*
X181610000Y-99060000D03*
D15*
X140970000Y-101600000D03*
D16*
X140970000Y-104140000D03*
D15*
X144780000Y-101600000D03*
D16*
X144780000Y-104140000D03*
D15*
X177800000Y-120650000D03*
D16*
X175260000Y-120650000D03*
D17*
X156750000Y-122650000D03*
X156750000Y-120650000D03*
X158750000Y-122650000D03*
D18*
X158750000Y-120650000D03*
M02*
