M48
; DRILL file {KiCad (5.1.5)-3} date 02.06.2020 00:10:20
; FORMAT={-:-/ absolute / inch / decimal}
; #@! TF.CreationDate,2020-06-02T00:10:20+02:00
; #@! TF.GenerationSoftware,Kicad,Pcbnew,(5.1.5)-3
; #@! TF.FileFunction,Plated,1,2,PTH
FMAT,2
INCH
T1C0.0315
T2C0.0394
%
G90
G05
T1
X6.45Y-4.35
X6.45Y-4.75
X6.05Y-4.35
X6.05Y-4.75
X6.8Y-4.15
X7.2Y-4.15
X6.85Y-4.3
X6.85Y-4.6
X6.95Y-4.3
X6.95Y-4.6
X7.05Y-4.3
X7.05Y-4.6
X6.2213Y-4.75
X6.2213Y-4.8287
X6.3Y-4.75
X6.3Y-4.8287
X5.9Y-3.9
X5.9Y-4.2
X6.0Y-3.9
X6.0Y-4.2
X6.1Y-3.9
X6.1Y-4.2
X6.2Y-3.9
X6.2Y-4.2
X6.3Y-3.9
X6.3Y-4.2
X6.4Y-3.9
X6.4Y-4.2
X6.5Y-3.9
X6.5Y-4.2
X5.85Y-4.35
X5.85Y-4.75
X6.65Y-3.9
X6.65Y-4.3
T2
X7.0Y-3.9
X7.0Y-4.0
X7.15Y-3.9
X7.15Y-4.0
X6.9Y-4.75
X7.0Y-4.75
X5.55Y-3.9
X5.55Y-4.0
X5.7Y-3.9
X5.7Y-4.0
T0
M30
