G04 #@! TF.GenerationSoftware,KiCad,Pcbnew,(5.1.5)-3*
G04 #@! TF.CreationDate,2020-04-21T00:00:34+02:00*
G04 #@! TF.ProjectId,Multiplex,4d756c74-6970-46c6-9578-2e6b69636164,rev?*
G04 #@! TF.SameCoordinates,Original*
G04 #@! TF.FileFunction,Legend,Bot*
G04 #@! TF.FilePolarity,Positive*
%FSLAX46Y46*%
G04 Gerber Fmt 4.6, Leading zero omitted, Abs format (unit mm)*
G04 Created by KiCad (PCBNEW (5.1.5)-3) date 2020-04-21 00:00:34*
%MOMM*%
%LPD*%
G04 APERTURE LIST*
%ADD10C,0.120000*%
%ADD11C,0.150000*%
G04 APERTURE END LIST*
D10*
X182940000Y-97730000D02*
X181610000Y-97730000D01*
X182940000Y-99060000D02*
X182940000Y-97730000D01*
X182940000Y-100330000D02*
X180280000Y-100330000D01*
X180280000Y-100330000D02*
X180280000Y-102930000D01*
X182940000Y-100330000D02*
X182940000Y-102930000D01*
X182940000Y-102930000D02*
X180280000Y-102930000D01*
X143450000Y-105470000D02*
X144780000Y-105470000D01*
X143450000Y-104140000D02*
X143450000Y-105470000D01*
X143450000Y-102870000D02*
X146110000Y-102870000D01*
X146110000Y-102870000D02*
X146110000Y-100270000D01*
X143450000Y-102870000D02*
X143450000Y-100270000D01*
X143450000Y-100270000D02*
X146110000Y-100270000D01*
D11*
X183038571Y-96182380D02*
X183038571Y-96896666D01*
X183086190Y-97039523D01*
X183181428Y-97134761D01*
X183324285Y-97182380D01*
X183419523Y-97182380D01*
X182610000Y-96277619D02*
X182562380Y-96230000D01*
X182467142Y-96182380D01*
X182229047Y-96182380D01*
X182133809Y-96230000D01*
X182086190Y-96277619D01*
X182038571Y-96372857D01*
X182038571Y-96468095D01*
X182086190Y-96610952D01*
X182657619Y-97182380D01*
X182038571Y-97182380D01*
X181610000Y-96801428D02*
X180848095Y-96801428D01*
X181229047Y-97182380D02*
X181229047Y-96420476D01*
X179848095Y-97182380D02*
X180419523Y-97182380D01*
X180133809Y-97182380D02*
X180133809Y-96182380D01*
X180229047Y-96325238D01*
X180324285Y-96420476D01*
X180419523Y-96468095D01*
X146208571Y-105922380D02*
X146208571Y-106636666D01*
X146256190Y-106779523D01*
X146351428Y-106874761D01*
X146494285Y-106922380D01*
X146589523Y-106922380D01*
X145208571Y-106922380D02*
X145780000Y-106922380D01*
X145494285Y-106922380D02*
X145494285Y-105922380D01*
X145589523Y-106065238D01*
X145684761Y-106160476D01*
X145780000Y-106208095D01*
X144780000Y-106541428D02*
X144018095Y-106541428D01*
X144399047Y-106922380D02*
X144399047Y-106160476D01*
X143018095Y-106922380D02*
X143589523Y-106922380D01*
X143303809Y-106922380D02*
X143303809Y-105922380D01*
X143399047Y-106065238D01*
X143494285Y-106160476D01*
X143589523Y-106208095D01*
M02*
