M48
; DRILL file {KiCad (5.1.5)-3} date 21.12.2021 20:53:12
; FORMAT={-:-/ absolute / metric / decimal}
; #@! TF.CreationDate,2021-12-21T20:53:12+01:00
; #@! TF.GenerationSoftware,Kicad,Pcbnew,(5.1.5)-3
FMAT,2
METRIC
T1C0.800
T2C1.000
T3C1.100
T4C1.500
T5C3.500
T6C4.000
%
G90
G05
T1
X175.37Y-81.45
X185.53Y-81.45
X175.37Y-85.26
X185.53Y-85.26
X175.37Y-89.07
X185.53Y-89.07
X172.72Y-107.95
X172.72Y-115.57
X175.26Y-107.95
X175.26Y-115.57
X177.8Y-107.95
X177.8Y-115.57
X180.34Y-107.95
X180.34Y-115.57
X182.88Y-107.95
X182.88Y-115.57
X185.42Y-107.95
X185.42Y-115.57
X187.96Y-107.95
X187.96Y-115.57
X190.5Y-107.95
X190.5Y-115.57
X193.04Y-107.95
X193.04Y-115.57
X195.58Y-107.95
X195.58Y-115.57
X198.12Y-107.95
X198.12Y-115.57
X200.66Y-107.95
X200.66Y-115.57
X203.2Y-107.95
X203.2Y-115.57
X205.74Y-107.95
X205.74Y-115.57
X168.91Y-92.71
X168.91Y-100.33
X171.45Y-92.71
X171.45Y-100.33
X173.99Y-92.71
X173.99Y-100.33
X176.53Y-92.71
X176.53Y-100.33
T2
X179.0Y-76.5
X184.0Y-76.5
T3
X178.0Y-44.84
X178.0Y-49.92
X178.0Y-55.0
X178.0Y-60.08
X178.0Y-65.16
T4
X217.17Y-67.31
X223.52Y-64.77
X217.17Y-46.99
X223.52Y-44.45
X237.49Y-46.99
X243.84Y-44.45
X237.49Y-87.63
X243.84Y-85.09
X196.85Y-67.31
X203.2Y-64.77
X196.85Y-87.63
X203.2Y-85.09
X237.49Y-67.31
X243.84Y-64.77
X217.17Y-107.95
X223.52Y-105.41
X217.17Y-87.63
X223.52Y-85.09
X196.85Y-46.99
X203.2Y-44.45
T5
X248.0Y-34.5
X186.0Y-34.5
X248.0Y-110.49
T6
X220.98Y-90.17
X200.66Y-49.53
X220.98Y-69.85
X220.98Y-49.53
X241.3Y-49.53
X241.3Y-90.17
X200.66Y-69.85
X200.66Y-90.17
X241.3Y-69.85
X220.98Y-110.49
T0
M30
