G04 #@! TF.GenerationSoftware,KiCad,Pcbnew,(5.1.5)-3*
G04 #@! TF.CreationDate,2021-12-21T20:53:09+01:00*
G04 #@! TF.ProjectId,NummernstellpultInput,4e756d6d-6572-46e7-9374-656c6c70756c,rev?*
G04 #@! TF.SameCoordinates,Original*
G04 #@! TF.FileFunction,Copper,L2,Bot*
G04 #@! TF.FilePolarity,Positive*
%FSLAX46Y46*%
G04 Gerber Fmt 4.6, Leading zero omitted, Abs format (unit mm)*
G04 Created by KiCad (PCBNEW (5.1.5)-3) date 2021-12-21 20:53:09*
%MOMM*%
%LPD*%
G04 APERTURE LIST*
%ADD10R,2.300000X3.500000*%
%ADD11C,0.100000*%
%ADD12C,2.200000*%
%ADD13O,1.600000X1.600000*%
%ADD14R,1.600000X1.600000*%
%ADD15C,1.600000*%
%ADD16R,5.000000X10.000000*%
%ADD17R,10.000000X5.000000*%
%ADD18C,2.100000*%
%ADD19R,2.100000X2.100000*%
%ADD20C,7.000000*%
%ADD21C,2.000000*%
%ADD22C,0.500000*%
G04 APERTURE END LIST*
D10*
X237000000Y-97900000D03*
X237000000Y-92500000D03*
X247000000Y-73500000D03*
X247000000Y-68100000D03*
X233000000Y-67500000D03*
X233000000Y-62100000D03*
X213868000Y-99568000D03*
X213868000Y-104968000D03*
X217170000Y-99314000D03*
X217170000Y-93914000D03*
X217000000Y-76700000D03*
X217000000Y-71300000D03*
X213000000Y-67200000D03*
X213000000Y-61800000D03*
X195500000Y-100400000D03*
X195500000Y-95000000D03*
X193500000Y-62100000D03*
X193500000Y-67500000D03*
X195000000Y-56700000D03*
X195000000Y-51300000D03*
G04 #@! TA.AperFunction,SMDPad,CuDef*
D11*
G36*
X198640602Y-120620000D02*
G01*
X198640602Y-120595466D01*
X198645412Y-120546635D01*
X198654984Y-120498510D01*
X198669228Y-120451555D01*
X198688005Y-120406222D01*
X198711136Y-120362949D01*
X198738396Y-120322150D01*
X198769524Y-120284221D01*
X198804221Y-120249524D01*
X198842150Y-120218396D01*
X198882949Y-120191136D01*
X198926222Y-120168005D01*
X198971555Y-120149228D01*
X199018510Y-120134984D01*
X199066635Y-120125412D01*
X199115466Y-120120602D01*
X199140000Y-120120602D01*
X199140000Y-120120000D01*
X199640000Y-120120000D01*
X199640000Y-120120602D01*
X199664534Y-120120602D01*
X199713365Y-120125412D01*
X199761490Y-120134984D01*
X199808445Y-120149228D01*
X199853778Y-120168005D01*
X199897051Y-120191136D01*
X199937850Y-120218396D01*
X199975779Y-120249524D01*
X200010476Y-120284221D01*
X200041604Y-120322150D01*
X200068864Y-120362949D01*
X200091995Y-120406222D01*
X200110772Y-120451555D01*
X200125016Y-120498510D01*
X200134588Y-120546635D01*
X200139398Y-120595466D01*
X200139398Y-120620000D01*
X200140000Y-120620000D01*
X200140000Y-121120000D01*
X198640000Y-121120000D01*
X198640000Y-120620000D01*
X198640602Y-120620000D01*
G37*
G04 #@! TD.AperFunction*
G04 #@! TA.AperFunction,SMDPad,CuDef*
G36*
X200140000Y-121420000D02*
G01*
X200140000Y-121920000D01*
X200139398Y-121920000D01*
X200139398Y-121944534D01*
X200134588Y-121993365D01*
X200125016Y-122041490D01*
X200110772Y-122088445D01*
X200091995Y-122133778D01*
X200068864Y-122177051D01*
X200041604Y-122217850D01*
X200010476Y-122255779D01*
X199975779Y-122290476D01*
X199937850Y-122321604D01*
X199897051Y-122348864D01*
X199853778Y-122371995D01*
X199808445Y-122390772D01*
X199761490Y-122405016D01*
X199713365Y-122414588D01*
X199664534Y-122419398D01*
X199640000Y-122419398D01*
X199640000Y-122420000D01*
X199140000Y-122420000D01*
X199140000Y-122419398D01*
X199115466Y-122419398D01*
X199066635Y-122414588D01*
X199018510Y-122405016D01*
X198971555Y-122390772D01*
X198926222Y-122371995D01*
X198882949Y-122348864D01*
X198842150Y-122321604D01*
X198804221Y-122290476D01*
X198769524Y-122255779D01*
X198738396Y-122217850D01*
X198711136Y-122177051D01*
X198688005Y-122133778D01*
X198669228Y-122088445D01*
X198654984Y-122041490D01*
X198645412Y-121993365D01*
X198640602Y-121944534D01*
X198640602Y-121920000D01*
X198640000Y-121920000D01*
X198640000Y-121420000D01*
X200140000Y-121420000D01*
G37*
G04 #@! TD.AperFunction*
G04 #@! TA.AperFunction,SMDPad,CuDef*
G36*
X196249398Y-121950000D02*
G01*
X196249398Y-121974534D01*
X196244588Y-122023365D01*
X196235016Y-122071490D01*
X196220772Y-122118445D01*
X196201995Y-122163778D01*
X196178864Y-122207051D01*
X196151604Y-122247850D01*
X196120476Y-122285779D01*
X196085779Y-122320476D01*
X196047850Y-122351604D01*
X196007051Y-122378864D01*
X195963778Y-122401995D01*
X195918445Y-122420772D01*
X195871490Y-122435016D01*
X195823365Y-122444588D01*
X195774534Y-122449398D01*
X195750000Y-122449398D01*
X195750000Y-122450000D01*
X195250000Y-122450000D01*
X195250000Y-122449398D01*
X195225466Y-122449398D01*
X195176635Y-122444588D01*
X195128510Y-122435016D01*
X195081555Y-122420772D01*
X195036222Y-122401995D01*
X194992949Y-122378864D01*
X194952150Y-122351604D01*
X194914221Y-122320476D01*
X194879524Y-122285779D01*
X194848396Y-122247850D01*
X194821136Y-122207051D01*
X194798005Y-122163778D01*
X194779228Y-122118445D01*
X194764984Y-122071490D01*
X194755412Y-122023365D01*
X194750602Y-121974534D01*
X194750602Y-121950000D01*
X194750000Y-121950000D01*
X194750000Y-121450000D01*
X196250000Y-121450000D01*
X196250000Y-121950000D01*
X196249398Y-121950000D01*
G37*
G04 #@! TD.AperFunction*
G04 #@! TA.AperFunction,SMDPad,CuDef*
G36*
X194750000Y-121150000D02*
G01*
X194750000Y-120650000D01*
X194750602Y-120650000D01*
X194750602Y-120625466D01*
X194755412Y-120576635D01*
X194764984Y-120528510D01*
X194779228Y-120481555D01*
X194798005Y-120436222D01*
X194821136Y-120392949D01*
X194848396Y-120352150D01*
X194879524Y-120314221D01*
X194914221Y-120279524D01*
X194952150Y-120248396D01*
X194992949Y-120221136D01*
X195036222Y-120198005D01*
X195081555Y-120179228D01*
X195128510Y-120164984D01*
X195176635Y-120155412D01*
X195225466Y-120150602D01*
X195250000Y-120150602D01*
X195250000Y-120150000D01*
X195750000Y-120150000D01*
X195750000Y-120150602D01*
X195774534Y-120150602D01*
X195823365Y-120155412D01*
X195871490Y-120164984D01*
X195918445Y-120179228D01*
X195963778Y-120198005D01*
X196007051Y-120221136D01*
X196047850Y-120248396D01*
X196085779Y-120279524D01*
X196120476Y-120314221D01*
X196151604Y-120352150D01*
X196178864Y-120392949D01*
X196201995Y-120436222D01*
X196220772Y-120481555D01*
X196235016Y-120528510D01*
X196244588Y-120576635D01*
X196249398Y-120625466D01*
X196249398Y-120650000D01*
X196250000Y-120650000D01*
X196250000Y-121150000D01*
X194750000Y-121150000D01*
G37*
G04 #@! TD.AperFunction*
G04 #@! TA.AperFunction,SMDPad,CuDef*
G36*
X191020602Y-120620000D02*
G01*
X191020602Y-120595466D01*
X191025412Y-120546635D01*
X191034984Y-120498510D01*
X191049228Y-120451555D01*
X191068005Y-120406222D01*
X191091136Y-120362949D01*
X191118396Y-120322150D01*
X191149524Y-120284221D01*
X191184221Y-120249524D01*
X191222150Y-120218396D01*
X191262949Y-120191136D01*
X191306222Y-120168005D01*
X191351555Y-120149228D01*
X191398510Y-120134984D01*
X191446635Y-120125412D01*
X191495466Y-120120602D01*
X191520000Y-120120602D01*
X191520000Y-120120000D01*
X192020000Y-120120000D01*
X192020000Y-120120602D01*
X192044534Y-120120602D01*
X192093365Y-120125412D01*
X192141490Y-120134984D01*
X192188445Y-120149228D01*
X192233778Y-120168005D01*
X192277051Y-120191136D01*
X192317850Y-120218396D01*
X192355779Y-120249524D01*
X192390476Y-120284221D01*
X192421604Y-120322150D01*
X192448864Y-120362949D01*
X192471995Y-120406222D01*
X192490772Y-120451555D01*
X192505016Y-120498510D01*
X192514588Y-120546635D01*
X192519398Y-120595466D01*
X192519398Y-120620000D01*
X192520000Y-120620000D01*
X192520000Y-121120000D01*
X191020000Y-121120000D01*
X191020000Y-120620000D01*
X191020602Y-120620000D01*
G37*
G04 #@! TD.AperFunction*
G04 #@! TA.AperFunction,SMDPad,CuDef*
G36*
X192520000Y-121420000D02*
G01*
X192520000Y-121920000D01*
X192519398Y-121920000D01*
X192519398Y-121944534D01*
X192514588Y-121993365D01*
X192505016Y-122041490D01*
X192490772Y-122088445D01*
X192471995Y-122133778D01*
X192448864Y-122177051D01*
X192421604Y-122217850D01*
X192390476Y-122255779D01*
X192355779Y-122290476D01*
X192317850Y-122321604D01*
X192277051Y-122348864D01*
X192233778Y-122371995D01*
X192188445Y-122390772D01*
X192141490Y-122405016D01*
X192093365Y-122414588D01*
X192044534Y-122419398D01*
X192020000Y-122419398D01*
X192020000Y-122420000D01*
X191520000Y-122420000D01*
X191520000Y-122419398D01*
X191495466Y-122419398D01*
X191446635Y-122414588D01*
X191398510Y-122405016D01*
X191351555Y-122390772D01*
X191306222Y-122371995D01*
X191262949Y-122348864D01*
X191222150Y-122321604D01*
X191184221Y-122290476D01*
X191149524Y-122255779D01*
X191118396Y-122217850D01*
X191091136Y-122177051D01*
X191068005Y-122133778D01*
X191049228Y-122088445D01*
X191034984Y-122041490D01*
X191025412Y-121993365D01*
X191020602Y-121944534D01*
X191020602Y-121920000D01*
X191020000Y-121920000D01*
X191020000Y-121420000D01*
X192520000Y-121420000D01*
G37*
G04 #@! TD.AperFunction*
G04 #@! TA.AperFunction,SMDPad,CuDef*
G36*
X187210602Y-120650000D02*
G01*
X187210602Y-120625466D01*
X187215412Y-120576635D01*
X187224984Y-120528510D01*
X187239228Y-120481555D01*
X187258005Y-120436222D01*
X187281136Y-120392949D01*
X187308396Y-120352150D01*
X187339524Y-120314221D01*
X187374221Y-120279524D01*
X187412150Y-120248396D01*
X187452949Y-120221136D01*
X187496222Y-120198005D01*
X187541555Y-120179228D01*
X187588510Y-120164984D01*
X187636635Y-120155412D01*
X187685466Y-120150602D01*
X187710000Y-120150602D01*
X187710000Y-120150000D01*
X188210000Y-120150000D01*
X188210000Y-120150602D01*
X188234534Y-120150602D01*
X188283365Y-120155412D01*
X188331490Y-120164984D01*
X188378445Y-120179228D01*
X188423778Y-120198005D01*
X188467051Y-120221136D01*
X188507850Y-120248396D01*
X188545779Y-120279524D01*
X188580476Y-120314221D01*
X188611604Y-120352150D01*
X188638864Y-120392949D01*
X188661995Y-120436222D01*
X188680772Y-120481555D01*
X188695016Y-120528510D01*
X188704588Y-120576635D01*
X188709398Y-120625466D01*
X188709398Y-120650000D01*
X188710000Y-120650000D01*
X188710000Y-121150000D01*
X187210000Y-121150000D01*
X187210000Y-120650000D01*
X187210602Y-120650000D01*
G37*
G04 #@! TD.AperFunction*
G04 #@! TA.AperFunction,SMDPad,CuDef*
G36*
X188710000Y-121450000D02*
G01*
X188710000Y-121950000D01*
X188709398Y-121950000D01*
X188709398Y-121974534D01*
X188704588Y-122023365D01*
X188695016Y-122071490D01*
X188680772Y-122118445D01*
X188661995Y-122163778D01*
X188638864Y-122207051D01*
X188611604Y-122247850D01*
X188580476Y-122285779D01*
X188545779Y-122320476D01*
X188507850Y-122351604D01*
X188467051Y-122378864D01*
X188423778Y-122401995D01*
X188378445Y-122420772D01*
X188331490Y-122435016D01*
X188283365Y-122444588D01*
X188234534Y-122449398D01*
X188210000Y-122449398D01*
X188210000Y-122450000D01*
X187710000Y-122450000D01*
X187710000Y-122449398D01*
X187685466Y-122449398D01*
X187636635Y-122444588D01*
X187588510Y-122435016D01*
X187541555Y-122420772D01*
X187496222Y-122401995D01*
X187452949Y-122378864D01*
X187412150Y-122351604D01*
X187374221Y-122320476D01*
X187339524Y-122285779D01*
X187308396Y-122247850D01*
X187281136Y-122207051D01*
X187258005Y-122163778D01*
X187239228Y-122118445D01*
X187224984Y-122071490D01*
X187215412Y-122023365D01*
X187210602Y-121974534D01*
X187210602Y-121950000D01*
X187210000Y-121950000D01*
X187210000Y-121450000D01*
X188710000Y-121450000D01*
G37*
G04 #@! TD.AperFunction*
G04 #@! TA.AperFunction,SMDPad,CuDef*
G36*
X183400602Y-120620000D02*
G01*
X183400602Y-120595466D01*
X183405412Y-120546635D01*
X183414984Y-120498510D01*
X183429228Y-120451555D01*
X183448005Y-120406222D01*
X183471136Y-120362949D01*
X183498396Y-120322150D01*
X183529524Y-120284221D01*
X183564221Y-120249524D01*
X183602150Y-120218396D01*
X183642949Y-120191136D01*
X183686222Y-120168005D01*
X183731555Y-120149228D01*
X183778510Y-120134984D01*
X183826635Y-120125412D01*
X183875466Y-120120602D01*
X183900000Y-120120602D01*
X183900000Y-120120000D01*
X184400000Y-120120000D01*
X184400000Y-120120602D01*
X184424534Y-120120602D01*
X184473365Y-120125412D01*
X184521490Y-120134984D01*
X184568445Y-120149228D01*
X184613778Y-120168005D01*
X184657051Y-120191136D01*
X184697850Y-120218396D01*
X184735779Y-120249524D01*
X184770476Y-120284221D01*
X184801604Y-120322150D01*
X184828864Y-120362949D01*
X184851995Y-120406222D01*
X184870772Y-120451555D01*
X184885016Y-120498510D01*
X184894588Y-120546635D01*
X184899398Y-120595466D01*
X184899398Y-120620000D01*
X184900000Y-120620000D01*
X184900000Y-121120000D01*
X183400000Y-121120000D01*
X183400000Y-120620000D01*
X183400602Y-120620000D01*
G37*
G04 #@! TD.AperFunction*
G04 #@! TA.AperFunction,SMDPad,CuDef*
G36*
X184900000Y-121420000D02*
G01*
X184900000Y-121920000D01*
X184899398Y-121920000D01*
X184899398Y-121944534D01*
X184894588Y-121993365D01*
X184885016Y-122041490D01*
X184870772Y-122088445D01*
X184851995Y-122133778D01*
X184828864Y-122177051D01*
X184801604Y-122217850D01*
X184770476Y-122255779D01*
X184735779Y-122290476D01*
X184697850Y-122321604D01*
X184657051Y-122348864D01*
X184613778Y-122371995D01*
X184568445Y-122390772D01*
X184521490Y-122405016D01*
X184473365Y-122414588D01*
X184424534Y-122419398D01*
X184400000Y-122419398D01*
X184400000Y-122420000D01*
X183900000Y-122420000D01*
X183900000Y-122419398D01*
X183875466Y-122419398D01*
X183826635Y-122414588D01*
X183778510Y-122405016D01*
X183731555Y-122390772D01*
X183686222Y-122371995D01*
X183642949Y-122348864D01*
X183602150Y-122321604D01*
X183564221Y-122290476D01*
X183529524Y-122255779D01*
X183498396Y-122217850D01*
X183471136Y-122177051D01*
X183448005Y-122133778D01*
X183429228Y-122088445D01*
X183414984Y-122041490D01*
X183405412Y-121993365D01*
X183400602Y-121944534D01*
X183400602Y-121920000D01*
X183400000Y-121920000D01*
X183400000Y-121420000D01*
X184900000Y-121420000D01*
G37*
G04 #@! TD.AperFunction*
G04 #@! TA.AperFunction,SMDPad,CuDef*
G36*
X179590602Y-120620000D02*
G01*
X179590602Y-120595466D01*
X179595412Y-120546635D01*
X179604984Y-120498510D01*
X179619228Y-120451555D01*
X179638005Y-120406222D01*
X179661136Y-120362949D01*
X179688396Y-120322150D01*
X179719524Y-120284221D01*
X179754221Y-120249524D01*
X179792150Y-120218396D01*
X179832949Y-120191136D01*
X179876222Y-120168005D01*
X179921555Y-120149228D01*
X179968510Y-120134984D01*
X180016635Y-120125412D01*
X180065466Y-120120602D01*
X180090000Y-120120602D01*
X180090000Y-120120000D01*
X180590000Y-120120000D01*
X180590000Y-120120602D01*
X180614534Y-120120602D01*
X180663365Y-120125412D01*
X180711490Y-120134984D01*
X180758445Y-120149228D01*
X180803778Y-120168005D01*
X180847051Y-120191136D01*
X180887850Y-120218396D01*
X180925779Y-120249524D01*
X180960476Y-120284221D01*
X180991604Y-120322150D01*
X181018864Y-120362949D01*
X181041995Y-120406222D01*
X181060772Y-120451555D01*
X181075016Y-120498510D01*
X181084588Y-120546635D01*
X181089398Y-120595466D01*
X181089398Y-120620000D01*
X181090000Y-120620000D01*
X181090000Y-121120000D01*
X179590000Y-121120000D01*
X179590000Y-120620000D01*
X179590602Y-120620000D01*
G37*
G04 #@! TD.AperFunction*
G04 #@! TA.AperFunction,SMDPad,CuDef*
G36*
X181090000Y-121420000D02*
G01*
X181090000Y-121920000D01*
X181089398Y-121920000D01*
X181089398Y-121944534D01*
X181084588Y-121993365D01*
X181075016Y-122041490D01*
X181060772Y-122088445D01*
X181041995Y-122133778D01*
X181018864Y-122177051D01*
X180991604Y-122217850D01*
X180960476Y-122255779D01*
X180925779Y-122290476D01*
X180887850Y-122321604D01*
X180847051Y-122348864D01*
X180803778Y-122371995D01*
X180758445Y-122390772D01*
X180711490Y-122405016D01*
X180663365Y-122414588D01*
X180614534Y-122419398D01*
X180590000Y-122419398D01*
X180590000Y-122420000D01*
X180090000Y-122420000D01*
X180090000Y-122419398D01*
X180065466Y-122419398D01*
X180016635Y-122414588D01*
X179968510Y-122405016D01*
X179921555Y-122390772D01*
X179876222Y-122371995D01*
X179832949Y-122348864D01*
X179792150Y-122321604D01*
X179754221Y-122290476D01*
X179719524Y-122255779D01*
X179688396Y-122217850D01*
X179661136Y-122177051D01*
X179638005Y-122133778D01*
X179619228Y-122088445D01*
X179604984Y-122041490D01*
X179595412Y-121993365D01*
X179590602Y-121944534D01*
X179590602Y-121920000D01*
X179590000Y-121920000D01*
X179590000Y-121420000D01*
X181090000Y-121420000D01*
G37*
G04 #@! TD.AperFunction*
G04 #@! TA.AperFunction,SMDPad,CuDef*
G36*
X175780602Y-120650000D02*
G01*
X175780602Y-120625466D01*
X175785412Y-120576635D01*
X175794984Y-120528510D01*
X175809228Y-120481555D01*
X175828005Y-120436222D01*
X175851136Y-120392949D01*
X175878396Y-120352150D01*
X175909524Y-120314221D01*
X175944221Y-120279524D01*
X175982150Y-120248396D01*
X176022949Y-120221136D01*
X176066222Y-120198005D01*
X176111555Y-120179228D01*
X176158510Y-120164984D01*
X176206635Y-120155412D01*
X176255466Y-120150602D01*
X176280000Y-120150602D01*
X176280000Y-120150000D01*
X176780000Y-120150000D01*
X176780000Y-120150602D01*
X176804534Y-120150602D01*
X176853365Y-120155412D01*
X176901490Y-120164984D01*
X176948445Y-120179228D01*
X176993778Y-120198005D01*
X177037051Y-120221136D01*
X177077850Y-120248396D01*
X177115779Y-120279524D01*
X177150476Y-120314221D01*
X177181604Y-120352150D01*
X177208864Y-120392949D01*
X177231995Y-120436222D01*
X177250772Y-120481555D01*
X177265016Y-120528510D01*
X177274588Y-120576635D01*
X177279398Y-120625466D01*
X177279398Y-120650000D01*
X177280000Y-120650000D01*
X177280000Y-121150000D01*
X175780000Y-121150000D01*
X175780000Y-120650000D01*
X175780602Y-120650000D01*
G37*
G04 #@! TD.AperFunction*
G04 #@! TA.AperFunction,SMDPad,CuDef*
G36*
X177280000Y-121450000D02*
G01*
X177280000Y-121950000D01*
X177279398Y-121950000D01*
X177279398Y-121974534D01*
X177274588Y-122023365D01*
X177265016Y-122071490D01*
X177250772Y-122118445D01*
X177231995Y-122163778D01*
X177208864Y-122207051D01*
X177181604Y-122247850D01*
X177150476Y-122285779D01*
X177115779Y-122320476D01*
X177077850Y-122351604D01*
X177037051Y-122378864D01*
X176993778Y-122401995D01*
X176948445Y-122420772D01*
X176901490Y-122435016D01*
X176853365Y-122444588D01*
X176804534Y-122449398D01*
X176780000Y-122449398D01*
X176780000Y-122450000D01*
X176280000Y-122450000D01*
X176280000Y-122449398D01*
X176255466Y-122449398D01*
X176206635Y-122444588D01*
X176158510Y-122435016D01*
X176111555Y-122420772D01*
X176066222Y-122401995D01*
X176022949Y-122378864D01*
X175982150Y-122351604D01*
X175944221Y-122320476D01*
X175909524Y-122285779D01*
X175878396Y-122247850D01*
X175851136Y-122207051D01*
X175828005Y-122163778D01*
X175809228Y-122118445D01*
X175794984Y-122071490D01*
X175785412Y-122023365D01*
X175780602Y-121974534D01*
X175780602Y-121950000D01*
X175780000Y-121950000D01*
X175780000Y-121450000D01*
X177280000Y-121450000D01*
G37*
G04 #@! TD.AperFunction*
G04 #@! TA.AperFunction,SMDPad,CuDef*
G36*
X171970602Y-120650000D02*
G01*
X171970602Y-120625466D01*
X171975412Y-120576635D01*
X171984984Y-120528510D01*
X171999228Y-120481555D01*
X172018005Y-120436222D01*
X172041136Y-120392949D01*
X172068396Y-120352150D01*
X172099524Y-120314221D01*
X172134221Y-120279524D01*
X172172150Y-120248396D01*
X172212949Y-120221136D01*
X172256222Y-120198005D01*
X172301555Y-120179228D01*
X172348510Y-120164984D01*
X172396635Y-120155412D01*
X172445466Y-120150602D01*
X172470000Y-120150602D01*
X172470000Y-120150000D01*
X172970000Y-120150000D01*
X172970000Y-120150602D01*
X172994534Y-120150602D01*
X173043365Y-120155412D01*
X173091490Y-120164984D01*
X173138445Y-120179228D01*
X173183778Y-120198005D01*
X173227051Y-120221136D01*
X173267850Y-120248396D01*
X173305779Y-120279524D01*
X173340476Y-120314221D01*
X173371604Y-120352150D01*
X173398864Y-120392949D01*
X173421995Y-120436222D01*
X173440772Y-120481555D01*
X173455016Y-120528510D01*
X173464588Y-120576635D01*
X173469398Y-120625466D01*
X173469398Y-120650000D01*
X173470000Y-120650000D01*
X173470000Y-121150000D01*
X171970000Y-121150000D01*
X171970000Y-120650000D01*
X171970602Y-120650000D01*
G37*
G04 #@! TD.AperFunction*
G04 #@! TA.AperFunction,SMDPad,CuDef*
G36*
X173470000Y-121450000D02*
G01*
X173470000Y-121950000D01*
X173469398Y-121950000D01*
X173469398Y-121974534D01*
X173464588Y-122023365D01*
X173455016Y-122071490D01*
X173440772Y-122118445D01*
X173421995Y-122163778D01*
X173398864Y-122207051D01*
X173371604Y-122247850D01*
X173340476Y-122285779D01*
X173305779Y-122320476D01*
X173267850Y-122351604D01*
X173227051Y-122378864D01*
X173183778Y-122401995D01*
X173138445Y-122420772D01*
X173091490Y-122435016D01*
X173043365Y-122444588D01*
X172994534Y-122449398D01*
X172970000Y-122449398D01*
X172970000Y-122450000D01*
X172470000Y-122450000D01*
X172470000Y-122449398D01*
X172445466Y-122449398D01*
X172396635Y-122444588D01*
X172348510Y-122435016D01*
X172301555Y-122420772D01*
X172256222Y-122401995D01*
X172212949Y-122378864D01*
X172172150Y-122351604D01*
X172134221Y-122320476D01*
X172099524Y-122285779D01*
X172068396Y-122247850D01*
X172041136Y-122207051D01*
X172018005Y-122163778D01*
X171999228Y-122118445D01*
X171984984Y-122071490D01*
X171975412Y-122023365D01*
X171970602Y-121974534D01*
X171970602Y-121950000D01*
X171970000Y-121950000D01*
X171970000Y-121450000D01*
X173470000Y-121450000D01*
G37*
G04 #@! TD.AperFunction*
D12*
X237490000Y-87630000D03*
X243840000Y-85090000D03*
X217170000Y-87630000D03*
X223520000Y-85090000D03*
X196850000Y-87630000D03*
X203200000Y-85090000D03*
X237490000Y-67310000D03*
X243840000Y-64770000D03*
X217170000Y-67310000D03*
X223520000Y-64770000D03*
X196850000Y-67310000D03*
X203200000Y-64770000D03*
X237490000Y-46990000D03*
X243840000Y-44450000D03*
X217170000Y-46990000D03*
X223520000Y-44450000D03*
X196850000Y-46990000D03*
X203200000Y-44450000D03*
X217170000Y-107950000D03*
X223520000Y-105410000D03*
D13*
X172720000Y-107950000D03*
X205740000Y-115570000D03*
X175260000Y-107950000D03*
X203200000Y-115570000D03*
X177800000Y-107950000D03*
X200660000Y-115570000D03*
X180340000Y-107950000D03*
X198120000Y-115570000D03*
X182880000Y-107950000D03*
X195580000Y-115570000D03*
X185420000Y-107950000D03*
X193040000Y-115570000D03*
X187960000Y-107950000D03*
X190500000Y-115570000D03*
X190500000Y-107950000D03*
X187960000Y-115570000D03*
X193040000Y-107950000D03*
X185420000Y-115570000D03*
X195580000Y-107950000D03*
X182880000Y-115570000D03*
X198120000Y-107950000D03*
X180340000Y-115570000D03*
X200660000Y-107950000D03*
X177800000Y-115570000D03*
X203200000Y-107950000D03*
X175260000Y-115570000D03*
X205740000Y-107950000D03*
D14*
X172720000Y-115570000D03*
D13*
X168910000Y-92710000D03*
X176530000Y-100330000D03*
X171450000Y-92710000D03*
X173990000Y-100330000D03*
X173990000Y-92710000D03*
X171450000Y-100330000D03*
X176530000Y-92710000D03*
D14*
X168910000Y-100330000D03*
D13*
X175370000Y-89070000D03*
D15*
X185530000Y-89070000D03*
D13*
X185530000Y-81450000D03*
D15*
X175370000Y-81450000D03*
D13*
X175370000Y-85260000D03*
D15*
X185530000Y-85260000D03*
D16*
X182880000Y-99060000D03*
X228600000Y-106680000D03*
X248500000Y-90500000D03*
D17*
X245110000Y-59690000D03*
X232410000Y-41910000D03*
D18*
X178000000Y-44840000D03*
X178000000Y-49920000D03*
X178000000Y-55000000D03*
X178000000Y-60080000D03*
D19*
X178000000Y-65160000D03*
D20*
X186000000Y-34500000D03*
X248000000Y-34500000D03*
X248000000Y-110490000D03*
D17*
X204470000Y-97790000D03*
X214630000Y-116840000D03*
D16*
X229500000Y-93000000D03*
X211000000Y-76500000D03*
D17*
X196850000Y-80010000D03*
D21*
X184000000Y-76500000D03*
X179000000Y-76500000D03*
D22*
X185530000Y-89070000D02*
X185530000Y-81450000D01*
X185530000Y-80318630D02*
X185530000Y-81450000D01*
X185530000Y-76615787D02*
X185530000Y-80318630D01*
X185414213Y-76500000D02*
X185530000Y-76615787D01*
X184000000Y-76500000D02*
X185414213Y-76500000D01*
X199360000Y-121950000D02*
X199390000Y-121920000D01*
X172720000Y-121950000D02*
X193450000Y-121950000D01*
X179999999Y-75500001D02*
X179000000Y-76500000D01*
X179999999Y-56999999D02*
X179999999Y-75500001D01*
X178000000Y-55000000D02*
X179999999Y-56999999D01*
X195580000Y-110490000D02*
X195580000Y-107950000D01*
X190500000Y-115570000D02*
X195580000Y-110490000D01*
X194750000Y-120650000D02*
X195500000Y-120650000D01*
X193450000Y-121950000D02*
X194750000Y-120650000D01*
X195500000Y-120650000D02*
X196596000Y-120650000D01*
X197866000Y-121920000D02*
X199390000Y-121920000D01*
X196596000Y-120650000D02*
X197866000Y-121920000D01*
X195500000Y-120650000D02*
X194448630Y-120650000D01*
X190500000Y-116701370D02*
X190500000Y-115570000D01*
X194448630Y-120650000D02*
X190500000Y-116701370D01*
X168910000Y-92710000D02*
X168910000Y-94996000D01*
X171450000Y-97536000D02*
X171450000Y-100330000D01*
X168910000Y-94996000D02*
X171450000Y-97536000D01*
X169702000Y-121950000D02*
X172720000Y-121950000D01*
X167386000Y-119634000D02*
X169702000Y-121950000D01*
X168910000Y-94996000D02*
X167386000Y-96520000D01*
X167386000Y-96520000D02*
X167386000Y-119634000D01*
X168910000Y-83312000D02*
X168910000Y-85175787D01*
X168910000Y-85175787D02*
X168910000Y-92710000D01*
X179000000Y-76500000D02*
X175722000Y-76500000D01*
X175722000Y-76500000D02*
X168910000Y-83312000D01*
X175260000Y-118110000D02*
X175260000Y-115570000D01*
X172720000Y-120650000D02*
X175260000Y-118110000D01*
X176530000Y-116840000D02*
X177800000Y-115570000D01*
X176530000Y-120650000D02*
X176530000Y-116840000D01*
X180340000Y-120620000D02*
X180340000Y-115570000D01*
X184150000Y-116840000D02*
X182880000Y-115570000D01*
X184150000Y-120620000D02*
X184150000Y-116840000D01*
X187960000Y-118110000D02*
X185420000Y-115570000D01*
X187960000Y-120650000D02*
X187960000Y-118110000D01*
X191770000Y-119380000D02*
X187960000Y-115570000D01*
X191770000Y-120620000D02*
X191770000Y-119380000D01*
X198120000Y-118110000D02*
X195580000Y-115570000D01*
X199644000Y-118110000D02*
X198120000Y-118110000D01*
X196874980Y-123324980D02*
X200779020Y-123324980D01*
X195500000Y-121950000D02*
X196874980Y-123324980D01*
X200779020Y-123324980D02*
X201168000Y-122936000D01*
X201168000Y-122936000D02*
X201168000Y-119634000D01*
X201168000Y-119634000D02*
X199644000Y-118110000D01*
X193040000Y-117602000D02*
X193040000Y-115570000D01*
X194564000Y-119126000D02*
X193040000Y-117602000D01*
X199390000Y-120620000D02*
X197896000Y-119126000D01*
X197896000Y-119126000D02*
X194564000Y-119126000D01*
X195000000Y-60600000D02*
X193500000Y-62100000D01*
X195000000Y-56700000D02*
X195000000Y-60600000D01*
X199370001Y-102620001D02*
X197150000Y-100400000D01*
X199370001Y-113188629D02*
X199370001Y-102620001D01*
X198120000Y-114438630D02*
X199370001Y-113188629D01*
X197150000Y-100400000D02*
X195500000Y-100400000D01*
X198120000Y-115570000D02*
X198120000Y-114438630D01*
X193500000Y-62700000D02*
X191516000Y-64684000D01*
X193500000Y-62100000D02*
X193500000Y-62700000D01*
X196850000Y-77010000D02*
X196850000Y-80010000D01*
X191516000Y-71676000D02*
X196850000Y-77010000D01*
X191516000Y-64684000D02*
X191516000Y-71676000D01*
X198374000Y-99176000D02*
X197150000Y-100400000D01*
X199390000Y-93726000D02*
X198374000Y-94742000D01*
X201930000Y-93726000D02*
X199390000Y-93726000D01*
X209865990Y-85790010D02*
X201930000Y-93726000D01*
X219456000Y-86868000D02*
X218378010Y-85790010D01*
X224790000Y-86868000D02*
X219456000Y-86868000D01*
X225806000Y-85852000D02*
X224790000Y-86868000D01*
X205398000Y-83058000D02*
X251460000Y-83058000D01*
X218378010Y-85790010D02*
X209865990Y-85790010D01*
X196850000Y-80010000D02*
X202350000Y-80010000D01*
X251303943Y-96520000D02*
X245872000Y-96520000D01*
X202350000Y-80010000D02*
X205398000Y-83058000D01*
X198374000Y-94742000D02*
X198374000Y-99176000D01*
X251968000Y-95855943D02*
X251303943Y-96520000D01*
X251460000Y-83058000D02*
X251968000Y-83566000D01*
X245872000Y-96520000D02*
X244602000Y-95250000D01*
X251968000Y-83566000D02*
X251968000Y-95855943D01*
X244602000Y-95250000D02*
X244602000Y-89845998D01*
X244602000Y-89845998D02*
X240608002Y-85852000D01*
X240608002Y-85852000D02*
X225806000Y-85852000D01*
X213000000Y-74500000D02*
X211000000Y-76500000D01*
X213000000Y-67200000D02*
X213000000Y-74500000D01*
X211200000Y-76700000D02*
X211000000Y-76500000D01*
X217000000Y-76700000D02*
X211200000Y-76700000D01*
X200660000Y-114438630D02*
X201306630Y-113792000D01*
X200660000Y-115570000D02*
X200660000Y-114438630D01*
X201306630Y-113792000D02*
X202692000Y-113792000D01*
X202692000Y-113792000D02*
X209296000Y-107188000D01*
X212218000Y-99568000D02*
X213868000Y-99568000D01*
X209296000Y-102490000D02*
X212218000Y-99568000D01*
X209296000Y-107188000D02*
X209296000Y-102490000D01*
X216916000Y-99568000D02*
X217170000Y-99314000D01*
X213868000Y-99568000D02*
X216916000Y-99568000D01*
X217000000Y-78950000D02*
X217000000Y-76700000D01*
X219838000Y-81788000D02*
X217000000Y-78950000D01*
X251460000Y-81788000D02*
X219838000Y-81788000D01*
X252730000Y-83058000D02*
X251460000Y-81788000D01*
X251714000Y-97282000D02*
X252730000Y-96266000D01*
X224790000Y-93344000D02*
X224790000Y-88138000D01*
X252730000Y-96266000D02*
X252730000Y-83058000D01*
X224790000Y-88138000D02*
X225806000Y-87122000D01*
X217170000Y-99314000D02*
X218820000Y-99314000D01*
X225806000Y-87122000D02*
X232918000Y-87122000D01*
X244094000Y-97282000D02*
X251714000Y-97282000D01*
X232918000Y-87122000D02*
X233680000Y-87884000D01*
X233680000Y-87884000D02*
X233680000Y-93980000D01*
X233680000Y-93980000D02*
X234950000Y-95250000D01*
X218820000Y-99314000D02*
X224790000Y-93344000D01*
X234950000Y-95250000D02*
X242062000Y-95250000D01*
X242062000Y-95250000D02*
X244094000Y-97282000D01*
X229500000Y-93500000D02*
X229500000Y-93000000D01*
X237000000Y-97900000D02*
X233900000Y-97900000D01*
X233900000Y-97900000D02*
X229500000Y-93500000D01*
X233000000Y-69750000D02*
X233000000Y-67500000D01*
X236750000Y-73500000D02*
X233000000Y-69750000D01*
X247000000Y-73500000D02*
X236750000Y-73500000D01*
X203200000Y-115570000D02*
X211074000Y-107696000D01*
X211074000Y-107696000D02*
X211074000Y-104051998D01*
X229500000Y-95500000D02*
X229500000Y-93000000D01*
X222638000Y-102362000D02*
X229500000Y-95500000D01*
X211074000Y-104051998D02*
X212763998Y-102362000D01*
X212763998Y-102362000D02*
X222638000Y-102362000D01*
X248650000Y-73500000D02*
X247000000Y-73500000D01*
X253524990Y-78374990D02*
X248650000Y-73500000D01*
X253524990Y-82797047D02*
X253524990Y-78374990D01*
X253492000Y-82830037D02*
X253524990Y-82797047D01*
X238650000Y-97900000D02*
X239556000Y-98806000D01*
X239556000Y-98806000D02*
X251714000Y-98806000D01*
X251714000Y-98806000D02*
X253492000Y-97028000D01*
X237000000Y-97900000D02*
X238650000Y-97900000D01*
X253492000Y-97028000D02*
X253492000Y-82830037D01*
X213360000Y-115570000D02*
X214630000Y-116840000D01*
X205740000Y-115570000D02*
X213360000Y-115570000D01*
X205740000Y-99060000D02*
X204470000Y-97790000D01*
X205740000Y-107950000D02*
X205740000Y-99060000D01*
X174570001Y-86059999D02*
X175370000Y-85260000D01*
X173190001Y-87439999D02*
X174570001Y-86059999D01*
X173190001Y-91910001D02*
X173190001Y-87439999D01*
X173990000Y-92710000D02*
X173190001Y-91910001D01*
X179049999Y-45889999D02*
X178000000Y-44840000D01*
X182502020Y-49342020D02*
X179049999Y-45889999D01*
X176501370Y-85260000D02*
X182502020Y-79259350D01*
X182502020Y-79259350D02*
X182502020Y-49342020D01*
X175370000Y-85260000D02*
X176501370Y-85260000D01*
X171450000Y-85370000D02*
X175370000Y-81450000D01*
X171450000Y-92710000D02*
X171450000Y-85370000D01*
X175370000Y-81450000D02*
X178138000Y-81450000D01*
X178138000Y-81450000D02*
X181802010Y-77785990D01*
X181802010Y-53722010D02*
X178000000Y-49920000D01*
X181802010Y-77785990D02*
X181802010Y-53722010D01*
X173990000Y-97790000D02*
X173990000Y-100330000D01*
X178816000Y-52578000D02*
X181102000Y-54864000D01*
X178000000Y-60080000D02*
X175260000Y-57340000D01*
X177038000Y-52578000D02*
X178816000Y-52578000D01*
X180086000Y-78232000D02*
X176022000Y-78232000D01*
X175260000Y-54356000D02*
X177038000Y-52578000D01*
X175260000Y-57340000D02*
X175260000Y-54356000D01*
X181102000Y-54864000D02*
X181102000Y-77216000D01*
X170180000Y-93980000D02*
X173990000Y-97790000D01*
X181102000Y-77216000D02*
X180086000Y-78232000D01*
X176022000Y-78232000D02*
X170180000Y-84074000D01*
X170180000Y-84074000D02*
X170180000Y-93980000D01*
X193040000Y-107950000D02*
X190754000Y-110236000D01*
X190754000Y-110236000D02*
X180594000Y-110236000D01*
X179089999Y-108731999D02*
X179089999Y-99841999D01*
X180594000Y-110236000D02*
X179089999Y-108731999D01*
X177038000Y-97790000D02*
X173990000Y-97790000D01*
X179089999Y-99841999D02*
X177038000Y-97790000D01*
X243840000Y-44450000D02*
X241300000Y-41910000D01*
X226060000Y-41910000D02*
X223520000Y-44450000D01*
X241300000Y-41910000D02*
X232410000Y-41910000D01*
X189230000Y-50457771D02*
X196337770Y-43350001D01*
X189230000Y-102870000D02*
X189230000Y-50457771D01*
X185420000Y-107950000D02*
X185420000Y-106680000D01*
X203200000Y-44450000D02*
X223520000Y-44450000D01*
X202100001Y-43350001D02*
X203200000Y-44450000D01*
X196337770Y-43350001D02*
X202100001Y-43350001D01*
X232410000Y-41910000D02*
X226060000Y-41910000D01*
X185420000Y-106680000D02*
X189230000Y-102870000D01*
X245110000Y-63500000D02*
X243840000Y-64770000D01*
X245110000Y-59690000D02*
X245110000Y-63500000D01*
X243840000Y-64770000D02*
X223520000Y-64770000D01*
X187960000Y-106680000D02*
X190500000Y-104140000D01*
X200340001Y-45139999D02*
X195961999Y-45139999D01*
X190500000Y-50601998D02*
X190500000Y-102870000D01*
X204299999Y-49099997D02*
X200340001Y-45139999D01*
X195961999Y-45139999D02*
X190500000Y-50601998D01*
X190500000Y-102870000D02*
X190500000Y-104140000D01*
X203200000Y-64770000D02*
X204299999Y-63670001D01*
X187960000Y-107950000D02*
X187960000Y-106680000D01*
X204299999Y-63670001D02*
X204299999Y-49099997D01*
X205399998Y-64770000D02*
X204299999Y-63670001D01*
X223520000Y-64770000D02*
X205399998Y-64770000D01*
X243840000Y-85090000D02*
X223520000Y-85090000D01*
X248500000Y-89750000D02*
X248500000Y-90500000D01*
X243840000Y-85090000D02*
X248500000Y-89750000D01*
X190500000Y-107950000D02*
X191299999Y-107150001D01*
X221964366Y-85090000D02*
X203200000Y-85090000D01*
X223520000Y-85090000D02*
X221964366Y-85090000D01*
X191262000Y-88646000D02*
X191262000Y-101092000D01*
X194818000Y-85090000D02*
X191262000Y-88646000D01*
X203200000Y-85090000D02*
X194818000Y-85090000D01*
X191299999Y-107150001D02*
X191262000Y-101092000D01*
X191262000Y-101092000D02*
X191299999Y-100889999D01*
X224790000Y-106680000D02*
X223520000Y-105410000D01*
X228600000Y-106680000D02*
X224790000Y-106680000D01*
X224790000Y-117348000D02*
X224790000Y-106680000D01*
X166116000Y-120650000D02*
X169490990Y-124024990D01*
X166116000Y-50292000D02*
X166116000Y-120650000D01*
X169490990Y-124024990D02*
X218113010Y-124024990D01*
X187960000Y-102870000D02*
X187960000Y-49022000D01*
X218113010Y-124024990D02*
X224790000Y-117348000D01*
X182880000Y-107950000D02*
X187960000Y-102870000D01*
X180594000Y-41656000D02*
X174752000Y-41656000D01*
X187960000Y-49022000D02*
X180594000Y-41656000D01*
X174752000Y-41656000D02*
X166116000Y-50292000D01*
X182880000Y-105410000D02*
X180340000Y-107950000D01*
X182880000Y-99060000D02*
X182880000Y-105410000D01*
X176530000Y-90230000D02*
X175370000Y-89070000D01*
X176530000Y-92710000D02*
X176530000Y-90230000D01*
X176530000Y-104140000D02*
X176530000Y-100330000D01*
X172720000Y-107950000D02*
X176530000Y-104140000D01*
X168910000Y-101630000D02*
X168910000Y-100330000D01*
X168910000Y-106434002D02*
X168910000Y-101630000D01*
X173709999Y-109500001D02*
X171975999Y-109500001D01*
X171975999Y-109500001D02*
X168910000Y-106434002D01*
X175260000Y-107950000D02*
X173709999Y-109500001D01*
X195500000Y-48340000D02*
X196850000Y-46990000D01*
X195000000Y-51300000D02*
X195000000Y-48840000D01*
X195000000Y-48840000D02*
X195500000Y-48340000D01*
X196660000Y-67500000D02*
X196850000Y-67310000D01*
X193500000Y-67500000D02*
X196660000Y-67500000D01*
X195500000Y-88980000D02*
X195500000Y-95000000D01*
X196850000Y-87630000D02*
X195500000Y-88980000D01*
X213000000Y-51160000D02*
X217170000Y-46990000D01*
X213000000Y-61800000D02*
X213000000Y-51160000D01*
X217000000Y-67480000D02*
X217170000Y-67310000D01*
X217000000Y-71300000D02*
X217000000Y-67480000D01*
X217170000Y-93830000D02*
X217000000Y-94000000D01*
X217170000Y-87630000D02*
X217170000Y-93830000D01*
X215614366Y-107950000D02*
X217170000Y-107950000D01*
X214600000Y-107950000D02*
X215614366Y-107950000D01*
X213868000Y-107218000D02*
X214600000Y-107950000D01*
X213868000Y-104968000D02*
X213868000Y-107218000D01*
X233000000Y-51480000D02*
X237490000Y-46990000D01*
X233000000Y-62100000D02*
X233000000Y-51480000D01*
X243940000Y-67310000D02*
X237490000Y-67310000D01*
X247000000Y-68100000D02*
X244730000Y-68100000D01*
X244730000Y-68100000D02*
X243940000Y-67310000D01*
X237000000Y-88120000D02*
X237490000Y-87630000D01*
X237000000Y-92500000D02*
X237000000Y-88120000D01*
M02*
