G04 #@! TF.GenerationSoftware,KiCad,Pcbnew,(5.1.5)-3*
G04 #@! TF.CreationDate,2020-06-02T00:14:17+02:00*
G04 #@! TF.ProjectId,I2CMaster,4932434d-6173-4746-9572-2e6b69636164,rev?*
G04 #@! TF.SameCoordinates,Original*
G04 #@! TF.FileFunction,Soldermask,Bot*
G04 #@! TF.FilePolarity,Negative*
%FSLAX46Y46*%
G04 Gerber Fmt 4.6, Leading zero omitted, Abs format (unit mm)*
G04 Created by KiCad (PCBNEW (5.1.5)-3) date 2020-06-02 00:14:17*
%MOMM*%
%LPD*%
G04 APERTURE LIST*
%ADD10C,0.100000*%
G04 APERTURE END LIST*
D10*
G36*
X365525787Y-259475462D02*
G01*
X365525790Y-259475463D01*
X365525789Y-259475463D01*
X366172029Y-259743144D01*
X366753631Y-260131758D01*
X367248242Y-260626369D01*
X367636856Y-261207971D01*
X367680541Y-261313436D01*
X367904538Y-261854213D01*
X368041000Y-262540256D01*
X368041000Y-263239744D01*
X367904538Y-263925787D01*
X367904537Y-263925789D01*
X367636856Y-264572029D01*
X367248242Y-265153631D01*
X366753631Y-265648242D01*
X366172029Y-266036856D01*
X365715068Y-266226135D01*
X365525787Y-266304538D01*
X364839744Y-266441000D01*
X364140256Y-266441000D01*
X363454213Y-266304538D01*
X363264932Y-266226135D01*
X362807971Y-266036856D01*
X362226369Y-265648242D01*
X361731758Y-265153631D01*
X361343144Y-264572029D01*
X361075463Y-263925789D01*
X361075462Y-263925787D01*
X360939000Y-263239744D01*
X360939000Y-262540256D01*
X361075462Y-261854213D01*
X361299459Y-261313436D01*
X361343144Y-261207971D01*
X361731758Y-260626369D01*
X362226369Y-260131758D01*
X362807971Y-259743144D01*
X363454211Y-259475463D01*
X363454210Y-259475463D01*
X363454213Y-259475462D01*
X364140256Y-259339000D01*
X364839744Y-259339000D01*
X365525787Y-259475462D01*
G37*
G36*
X329965787Y-259475462D02*
G01*
X329965790Y-259475463D01*
X329965789Y-259475463D01*
X330612029Y-259743144D01*
X331193631Y-260131758D01*
X331688242Y-260626369D01*
X332076856Y-261207971D01*
X332120541Y-261313436D01*
X332344538Y-261854213D01*
X332481000Y-262540256D01*
X332481000Y-263239744D01*
X332344538Y-263925787D01*
X332344537Y-263925789D01*
X332076856Y-264572029D01*
X331688242Y-265153631D01*
X331193631Y-265648242D01*
X330612029Y-266036856D01*
X330155068Y-266226135D01*
X329965787Y-266304538D01*
X329279744Y-266441000D01*
X328580256Y-266441000D01*
X327894213Y-266304538D01*
X327704932Y-266226135D01*
X327247971Y-266036856D01*
X326666369Y-265648242D01*
X326171758Y-265153631D01*
X325783144Y-264572029D01*
X325515463Y-263925789D01*
X325515462Y-263925787D01*
X325379000Y-263239744D01*
X325379000Y-262540256D01*
X325515462Y-261854213D01*
X325739459Y-261313436D01*
X325783144Y-261207971D01*
X326171758Y-260626369D01*
X326666369Y-260131758D01*
X327247971Y-259743144D01*
X327894211Y-259475463D01*
X327894210Y-259475463D01*
X327894213Y-259475462D01*
X328580256Y-259339000D01*
X329279744Y-259339000D01*
X329965787Y-259475462D01*
G37*
G36*
X358253512Y-261993927D02*
G01*
X358402812Y-262023624D01*
X358566784Y-262091544D01*
X358714354Y-262190147D01*
X358839853Y-262315646D01*
X358938456Y-262463216D01*
X359006376Y-262627188D01*
X359041000Y-262801259D01*
X359041000Y-262978741D01*
X359006376Y-263152812D01*
X358938456Y-263316784D01*
X358839853Y-263464354D01*
X358714354Y-263589853D01*
X358566784Y-263688456D01*
X358402812Y-263756376D01*
X358253512Y-263786073D01*
X358228742Y-263791000D01*
X358051258Y-263791000D01*
X358026488Y-263786073D01*
X357877188Y-263756376D01*
X357713216Y-263688456D01*
X357565646Y-263589853D01*
X357440147Y-263464354D01*
X357341544Y-263316784D01*
X357273624Y-263152812D01*
X357239000Y-262978741D01*
X357239000Y-262801259D01*
X357273624Y-262627188D01*
X357341544Y-262463216D01*
X357440147Y-262315646D01*
X357565646Y-262190147D01*
X357713216Y-262091544D01*
X357877188Y-262023624D01*
X358026488Y-261993927D01*
X358051258Y-261989000D01*
X358228742Y-261989000D01*
X358253512Y-261993927D01*
G37*
G36*
X321423512Y-261993927D02*
G01*
X321572812Y-262023624D01*
X321736784Y-262091544D01*
X321884354Y-262190147D01*
X322009853Y-262315646D01*
X322108456Y-262463216D01*
X322176376Y-262627188D01*
X322211000Y-262801259D01*
X322211000Y-262978741D01*
X322176376Y-263152812D01*
X322108456Y-263316784D01*
X322009853Y-263464354D01*
X321884354Y-263589853D01*
X321736784Y-263688456D01*
X321572812Y-263756376D01*
X321423512Y-263786073D01*
X321398742Y-263791000D01*
X321221258Y-263791000D01*
X321196488Y-263786073D01*
X321047188Y-263756376D01*
X320883216Y-263688456D01*
X320735646Y-263589853D01*
X320610147Y-263464354D01*
X320511544Y-263316784D01*
X320443624Y-263152812D01*
X320409000Y-262978741D01*
X320409000Y-262801259D01*
X320443624Y-262627188D01*
X320511544Y-262463216D01*
X320610147Y-262315646D01*
X320735646Y-262190147D01*
X320883216Y-262091544D01*
X321047188Y-262023624D01*
X321196488Y-261993927D01*
X321221258Y-261989000D01*
X321398742Y-261989000D01*
X321423512Y-261993927D01*
G37*
G36*
X341936564Y-260609389D02*
G01*
X342127833Y-260688615D01*
X342127835Y-260688616D01*
X342299973Y-260803635D01*
X342446365Y-260950027D01*
X342561385Y-261122167D01*
X342640611Y-261313436D01*
X342681000Y-261516484D01*
X342681000Y-261723516D01*
X342640611Y-261926564D01*
X342600407Y-262023625D01*
X342561384Y-262117835D01*
X342446365Y-262289973D01*
X342299973Y-262436365D01*
X342127835Y-262551384D01*
X342127834Y-262551385D01*
X342127833Y-262551385D01*
X341936564Y-262630611D01*
X341733516Y-262671000D01*
X341526484Y-262671000D01*
X341323436Y-262630611D01*
X341132167Y-262551385D01*
X341132166Y-262551385D01*
X341132165Y-262551384D01*
X340960027Y-262436365D01*
X340813635Y-262289973D01*
X340698616Y-262117835D01*
X340659593Y-262023625D01*
X340619389Y-261926564D01*
X340579000Y-261723516D01*
X340579000Y-261516484D01*
X340619389Y-261313436D01*
X340698615Y-261122167D01*
X340813635Y-260950027D01*
X340960027Y-260803635D01*
X341132165Y-260688616D01*
X341132167Y-260688615D01*
X341323436Y-260609389D01*
X341526484Y-260569000D01*
X341733516Y-260569000D01*
X341936564Y-260609389D01*
G37*
G36*
X336936564Y-260609389D02*
G01*
X337127833Y-260688615D01*
X337127835Y-260688616D01*
X337299973Y-260803635D01*
X337446365Y-260950027D01*
X337561385Y-261122167D01*
X337640611Y-261313436D01*
X337681000Y-261516484D01*
X337681000Y-261723516D01*
X337640611Y-261926564D01*
X337600407Y-262023625D01*
X337561384Y-262117835D01*
X337446365Y-262289973D01*
X337299973Y-262436365D01*
X337127835Y-262551384D01*
X337127834Y-262551385D01*
X337127833Y-262551385D01*
X336936564Y-262630611D01*
X336733516Y-262671000D01*
X336526484Y-262671000D01*
X336323436Y-262630611D01*
X336132167Y-262551385D01*
X336132166Y-262551385D01*
X336132165Y-262551384D01*
X335960027Y-262436365D01*
X335813635Y-262289973D01*
X335698616Y-262117835D01*
X335659593Y-262023625D01*
X335619389Y-261926564D01*
X335579000Y-261723516D01*
X335579000Y-261516484D01*
X335619389Y-261313436D01*
X335698615Y-261122167D01*
X335813635Y-260950027D01*
X335960027Y-260803635D01*
X336132165Y-260688616D01*
X336132167Y-260688615D01*
X336323436Y-260609389D01*
X336526484Y-260569000D01*
X336733516Y-260569000D01*
X336936564Y-260609389D01*
G37*
G36*
X322211000Y-261251000D02*
G01*
X320409000Y-261251000D01*
X320409000Y-259449000D01*
X322211000Y-259449000D01*
X322211000Y-261251000D01*
G37*
G36*
X359041000Y-261251000D02*
G01*
X357239000Y-261251000D01*
X357239000Y-259449000D01*
X359041000Y-259449000D01*
X359041000Y-261251000D01*
G37*
G36*
X334258228Y-255721703D02*
G01*
X334413100Y-255785853D01*
X334552481Y-255878985D01*
X334671015Y-255997519D01*
X334764147Y-256136900D01*
X334828297Y-256291772D01*
X334861000Y-256456184D01*
X334861000Y-256623816D01*
X334828297Y-256788228D01*
X334764147Y-256943100D01*
X334671015Y-257082481D01*
X334552481Y-257201015D01*
X334413100Y-257294147D01*
X334258228Y-257358297D01*
X334093816Y-257391000D01*
X333926184Y-257391000D01*
X333761772Y-257358297D01*
X333606900Y-257294147D01*
X333467519Y-257201015D01*
X333348985Y-257082481D01*
X333255853Y-256943100D01*
X333191703Y-256788228D01*
X333159000Y-256623816D01*
X333159000Y-256456184D01*
X333191703Y-256291772D01*
X333255853Y-256136900D01*
X333348985Y-255997519D01*
X333467519Y-255878985D01*
X333606900Y-255785853D01*
X333761772Y-255721703D01*
X333926184Y-255689000D01*
X334093816Y-255689000D01*
X334258228Y-255721703D01*
G37*
G36*
X321558228Y-255721703D02*
G01*
X321713100Y-255785853D01*
X321852481Y-255878985D01*
X321971015Y-255997519D01*
X322064147Y-256136900D01*
X322128297Y-256291772D01*
X322161000Y-256456184D01*
X322161000Y-256623816D01*
X322128297Y-256788228D01*
X322064147Y-256943100D01*
X321971015Y-257082481D01*
X321852481Y-257201015D01*
X321713100Y-257294147D01*
X321558228Y-257358297D01*
X321393816Y-257391000D01*
X321226184Y-257391000D01*
X321061772Y-257358297D01*
X320906900Y-257294147D01*
X320767519Y-257201015D01*
X320648985Y-257082481D01*
X320555853Y-256943100D01*
X320491703Y-256788228D01*
X320459000Y-256623816D01*
X320459000Y-256456184D01*
X320491703Y-256291772D01*
X320555853Y-256136900D01*
X320648985Y-255997519D01*
X320767519Y-255878985D01*
X320906900Y-255785853D01*
X321061772Y-255721703D01*
X321226184Y-255689000D01*
X321393816Y-255689000D01*
X321558228Y-255721703D01*
G37*
G36*
X324098228Y-255721703D02*
G01*
X324253100Y-255785853D01*
X324392481Y-255878985D01*
X324511015Y-255997519D01*
X324604147Y-256136900D01*
X324668297Y-256291772D01*
X324701000Y-256456184D01*
X324701000Y-256623816D01*
X324668297Y-256788228D01*
X324604147Y-256943100D01*
X324511015Y-257082481D01*
X324392481Y-257201015D01*
X324253100Y-257294147D01*
X324098228Y-257358297D01*
X323933816Y-257391000D01*
X323766184Y-257391000D01*
X323601772Y-257358297D01*
X323446900Y-257294147D01*
X323307519Y-257201015D01*
X323188985Y-257082481D01*
X323095853Y-256943100D01*
X323031703Y-256788228D01*
X322999000Y-256623816D01*
X322999000Y-256456184D01*
X323031703Y-256291772D01*
X323095853Y-256136900D01*
X323188985Y-255997519D01*
X323307519Y-255878985D01*
X323446900Y-255785853D01*
X323601772Y-255721703D01*
X323766184Y-255689000D01*
X323933816Y-255689000D01*
X324098228Y-255721703D01*
G37*
G36*
X326638228Y-255721703D02*
G01*
X326793100Y-255785853D01*
X326932481Y-255878985D01*
X327051015Y-255997519D01*
X327144147Y-256136900D01*
X327208297Y-256291772D01*
X327241000Y-256456184D01*
X327241000Y-256623816D01*
X327208297Y-256788228D01*
X327144147Y-256943100D01*
X327051015Y-257082481D01*
X326932481Y-257201015D01*
X326793100Y-257294147D01*
X326638228Y-257358297D01*
X326473816Y-257391000D01*
X326306184Y-257391000D01*
X326141772Y-257358297D01*
X325986900Y-257294147D01*
X325847519Y-257201015D01*
X325728985Y-257082481D01*
X325635853Y-256943100D01*
X325571703Y-256788228D01*
X325539000Y-256623816D01*
X325539000Y-256456184D01*
X325571703Y-256291772D01*
X325635853Y-256136900D01*
X325728985Y-255997519D01*
X325847519Y-255878985D01*
X325986900Y-255785853D01*
X326141772Y-255721703D01*
X326306184Y-255689000D01*
X326473816Y-255689000D01*
X326638228Y-255721703D01*
G37*
G36*
X329178228Y-255721703D02*
G01*
X329333100Y-255785853D01*
X329472481Y-255878985D01*
X329591015Y-255997519D01*
X329684147Y-256136900D01*
X329748297Y-256291772D01*
X329781000Y-256456184D01*
X329781000Y-256623816D01*
X329748297Y-256788228D01*
X329684147Y-256943100D01*
X329591015Y-257082481D01*
X329472481Y-257201015D01*
X329333100Y-257294147D01*
X329178228Y-257358297D01*
X329013816Y-257391000D01*
X328846184Y-257391000D01*
X328681772Y-257358297D01*
X328526900Y-257294147D01*
X328387519Y-257201015D01*
X328268985Y-257082481D01*
X328175853Y-256943100D01*
X328111703Y-256788228D01*
X328079000Y-256623816D01*
X328079000Y-256456184D01*
X328111703Y-256291772D01*
X328175853Y-256136900D01*
X328268985Y-255997519D01*
X328387519Y-255878985D01*
X328526900Y-255785853D01*
X328681772Y-255721703D01*
X328846184Y-255689000D01*
X329013816Y-255689000D01*
X329178228Y-255721703D01*
G37*
G36*
X331718228Y-255721703D02*
G01*
X331873100Y-255785853D01*
X332012481Y-255878985D01*
X332131015Y-255997519D01*
X332224147Y-256136900D01*
X332288297Y-256291772D01*
X332321000Y-256456184D01*
X332321000Y-256623816D01*
X332288297Y-256788228D01*
X332224147Y-256943100D01*
X332131015Y-257082481D01*
X332012481Y-257201015D01*
X331873100Y-257294147D01*
X331718228Y-257358297D01*
X331553816Y-257391000D01*
X331386184Y-257391000D01*
X331221772Y-257358297D01*
X331066900Y-257294147D01*
X330927519Y-257201015D01*
X330808985Y-257082481D01*
X330715853Y-256943100D01*
X330651703Y-256788228D01*
X330619000Y-256623816D01*
X330619000Y-256456184D01*
X330651703Y-256291772D01*
X330715853Y-256136900D01*
X330808985Y-255997519D01*
X330927519Y-255878985D01*
X331066900Y-255785853D01*
X331221772Y-255721703D01*
X331386184Y-255689000D01*
X331553816Y-255689000D01*
X331718228Y-255721703D01*
G37*
G36*
X336798228Y-255721703D02*
G01*
X336953100Y-255785853D01*
X337092481Y-255878985D01*
X337211015Y-255997519D01*
X337304147Y-256136900D01*
X337368297Y-256291772D01*
X337401000Y-256456184D01*
X337401000Y-256623816D01*
X337368297Y-256788228D01*
X337304147Y-256943100D01*
X337211015Y-257082481D01*
X337092481Y-257201015D01*
X336953100Y-257294147D01*
X336798228Y-257358297D01*
X336633816Y-257391000D01*
X336466184Y-257391000D01*
X336301772Y-257358297D01*
X336146900Y-257294147D01*
X336007519Y-257201015D01*
X335888985Y-257082481D01*
X335795853Y-256943100D01*
X335731703Y-256788228D01*
X335699000Y-256623816D01*
X335699000Y-256456184D01*
X335731703Y-256291772D01*
X335795853Y-256136900D01*
X335888985Y-255997519D01*
X336007519Y-255878985D01*
X336146900Y-255785853D01*
X336301772Y-255721703D01*
X336466184Y-255689000D01*
X336633816Y-255689000D01*
X336798228Y-255721703D01*
G37*
G36*
X339338228Y-255721703D02*
G01*
X339493100Y-255785853D01*
X339632481Y-255878985D01*
X339751015Y-255997519D01*
X339844147Y-256136900D01*
X339908297Y-256291772D01*
X339941000Y-256456184D01*
X339941000Y-256623816D01*
X339908297Y-256788228D01*
X339844147Y-256943100D01*
X339751015Y-257082481D01*
X339632481Y-257201015D01*
X339493100Y-257294147D01*
X339338228Y-257358297D01*
X339173816Y-257391000D01*
X339006184Y-257391000D01*
X338841772Y-257358297D01*
X338686900Y-257294147D01*
X338547519Y-257201015D01*
X338428985Y-257082481D01*
X338335853Y-256943100D01*
X338271703Y-256788228D01*
X338239000Y-256623816D01*
X338239000Y-256456184D01*
X338271703Y-256291772D01*
X338335853Y-256136900D01*
X338428985Y-255997519D01*
X338547519Y-255878985D01*
X338686900Y-255785853D01*
X338841772Y-255721703D01*
X339006184Y-255689000D01*
X339173816Y-255689000D01*
X339338228Y-255721703D01*
G37*
G36*
X352038228Y-255721703D02*
G01*
X352193100Y-255785853D01*
X352332481Y-255878985D01*
X352451015Y-255997519D01*
X352544147Y-256136900D01*
X352608297Y-256291772D01*
X352641000Y-256456184D01*
X352641000Y-256623816D01*
X352608297Y-256788228D01*
X352544147Y-256943100D01*
X352451015Y-257082481D01*
X352332481Y-257201015D01*
X352193100Y-257294147D01*
X352038228Y-257358297D01*
X351873816Y-257391000D01*
X351706184Y-257391000D01*
X351541772Y-257358297D01*
X351386900Y-257294147D01*
X351247519Y-257201015D01*
X351128985Y-257082481D01*
X351035853Y-256943100D01*
X350971703Y-256788228D01*
X350939000Y-256623816D01*
X350939000Y-256456184D01*
X350971703Y-256291772D01*
X351035853Y-256136900D01*
X351128985Y-255997519D01*
X351247519Y-255878985D01*
X351386900Y-255785853D01*
X351541772Y-255721703D01*
X351706184Y-255689000D01*
X351873816Y-255689000D01*
X352038228Y-255721703D01*
G37*
G36*
X349498228Y-255721703D02*
G01*
X349653100Y-255785853D01*
X349792481Y-255878985D01*
X349911015Y-255997519D01*
X350004147Y-256136900D01*
X350068297Y-256291772D01*
X350101000Y-256456184D01*
X350101000Y-256623816D01*
X350068297Y-256788228D01*
X350004147Y-256943100D01*
X349911015Y-257082481D01*
X349792481Y-257201015D01*
X349653100Y-257294147D01*
X349498228Y-257358297D01*
X349333816Y-257391000D01*
X349166184Y-257391000D01*
X349001772Y-257358297D01*
X348846900Y-257294147D01*
X348707519Y-257201015D01*
X348588985Y-257082481D01*
X348495853Y-256943100D01*
X348431703Y-256788228D01*
X348399000Y-256623816D01*
X348399000Y-256456184D01*
X348431703Y-256291772D01*
X348495853Y-256136900D01*
X348588985Y-255997519D01*
X348707519Y-255878985D01*
X348846900Y-255785853D01*
X349001772Y-255721703D01*
X349166184Y-255689000D01*
X349333816Y-255689000D01*
X349498228Y-255721703D01*
G37*
G36*
X346958228Y-255721703D02*
G01*
X347113100Y-255785853D01*
X347252481Y-255878985D01*
X347371015Y-255997519D01*
X347464147Y-256136900D01*
X347528297Y-256291772D01*
X347561000Y-256456184D01*
X347561000Y-256623816D01*
X347528297Y-256788228D01*
X347464147Y-256943100D01*
X347371015Y-257082481D01*
X347252481Y-257201015D01*
X347113100Y-257294147D01*
X346958228Y-257358297D01*
X346793816Y-257391000D01*
X346626184Y-257391000D01*
X346461772Y-257358297D01*
X346306900Y-257294147D01*
X346167519Y-257201015D01*
X346048985Y-257082481D01*
X345955853Y-256943100D01*
X345891703Y-256788228D01*
X345859000Y-256623816D01*
X345859000Y-256456184D01*
X345891703Y-256291772D01*
X345955853Y-256136900D01*
X346048985Y-255997519D01*
X346167519Y-255878985D01*
X346306900Y-255785853D01*
X346461772Y-255721703D01*
X346626184Y-255689000D01*
X346793816Y-255689000D01*
X346958228Y-255721703D01*
G37*
G36*
X344418228Y-255721703D02*
G01*
X344573100Y-255785853D01*
X344712481Y-255878985D01*
X344831015Y-255997519D01*
X344924147Y-256136900D01*
X344988297Y-256291772D01*
X345021000Y-256456184D01*
X345021000Y-256623816D01*
X344988297Y-256788228D01*
X344924147Y-256943100D01*
X344831015Y-257082481D01*
X344712481Y-257201015D01*
X344573100Y-257294147D01*
X344418228Y-257358297D01*
X344253816Y-257391000D01*
X344086184Y-257391000D01*
X343921772Y-257358297D01*
X343766900Y-257294147D01*
X343627519Y-257201015D01*
X343508985Y-257082481D01*
X343415853Y-256943100D01*
X343351703Y-256788228D01*
X343319000Y-256623816D01*
X343319000Y-256456184D01*
X343351703Y-256291772D01*
X343415853Y-256136900D01*
X343508985Y-255997519D01*
X343627519Y-255878985D01*
X343766900Y-255785853D01*
X343921772Y-255721703D01*
X344086184Y-255689000D01*
X344253816Y-255689000D01*
X344418228Y-255721703D01*
G37*
G36*
X354578228Y-255721703D02*
G01*
X354733100Y-255785853D01*
X354872481Y-255878985D01*
X354991015Y-255997519D01*
X355084147Y-256136900D01*
X355148297Y-256291772D01*
X355181000Y-256456184D01*
X355181000Y-256623816D01*
X355148297Y-256788228D01*
X355084147Y-256943100D01*
X354991015Y-257082481D01*
X354872481Y-257201015D01*
X354733100Y-257294147D01*
X354578228Y-257358297D01*
X354413816Y-257391000D01*
X354246184Y-257391000D01*
X354081772Y-257358297D01*
X353926900Y-257294147D01*
X353787519Y-257201015D01*
X353668985Y-257082481D01*
X353575853Y-256943100D01*
X353511703Y-256788228D01*
X353479000Y-256623816D01*
X353479000Y-256456184D01*
X353511703Y-256291772D01*
X353575853Y-256136900D01*
X353668985Y-255997519D01*
X353787519Y-255878985D01*
X353926900Y-255785853D01*
X354081772Y-255721703D01*
X354246184Y-255689000D01*
X354413816Y-255689000D01*
X354578228Y-255721703D01*
G37*
G36*
X341878228Y-255721703D02*
G01*
X342033100Y-255785853D01*
X342172481Y-255878985D01*
X342291015Y-255997519D01*
X342384147Y-256136900D01*
X342448297Y-256291772D01*
X342481000Y-256456184D01*
X342481000Y-256623816D01*
X342448297Y-256788228D01*
X342384147Y-256943100D01*
X342291015Y-257082481D01*
X342172481Y-257201015D01*
X342033100Y-257294147D01*
X341878228Y-257358297D01*
X341713816Y-257391000D01*
X341546184Y-257391000D01*
X341381772Y-257358297D01*
X341226900Y-257294147D01*
X341087519Y-257201015D01*
X340968985Y-257082481D01*
X340875853Y-256943100D01*
X340811703Y-256788228D01*
X340779000Y-256623816D01*
X340779000Y-256456184D01*
X340811703Y-256291772D01*
X340875853Y-256136900D01*
X340968985Y-255997519D01*
X341087519Y-255878985D01*
X341226900Y-255785853D01*
X341381772Y-255721703D01*
X341546184Y-255689000D01*
X341713816Y-255689000D01*
X341878228Y-255721703D01*
G37*
G36*
X366008228Y-251911703D02*
G01*
X366163100Y-251975853D01*
X366302481Y-252068985D01*
X366421015Y-252187519D01*
X366514147Y-252326900D01*
X366578297Y-252481772D01*
X366611000Y-252646184D01*
X366611000Y-252813816D01*
X366578297Y-252978228D01*
X366514147Y-253133100D01*
X366421015Y-253272481D01*
X366302481Y-253391015D01*
X366163100Y-253484147D01*
X366008228Y-253548297D01*
X365843816Y-253581000D01*
X365676184Y-253581000D01*
X365511772Y-253548297D01*
X365356900Y-253484147D01*
X365217519Y-253391015D01*
X365098985Y-253272481D01*
X365005853Y-253133100D01*
X364941703Y-252978228D01*
X364909000Y-252813816D01*
X364909000Y-252646184D01*
X364941703Y-252481772D01*
X365005853Y-252326900D01*
X365098985Y-252187519D01*
X365217519Y-252068985D01*
X365356900Y-251975853D01*
X365511772Y-251911703D01*
X365676184Y-251879000D01*
X365843816Y-251879000D01*
X366008228Y-251911703D01*
G37*
G36*
X358388228Y-251911703D02*
G01*
X358543100Y-251975853D01*
X358682481Y-252068985D01*
X358801015Y-252187519D01*
X358894147Y-252326900D01*
X358958297Y-252481772D01*
X358991000Y-252646184D01*
X358991000Y-252813816D01*
X358958297Y-252978228D01*
X358894147Y-253133100D01*
X358801015Y-253272481D01*
X358682481Y-253391015D01*
X358543100Y-253484147D01*
X358388228Y-253548297D01*
X358223816Y-253581000D01*
X358056184Y-253581000D01*
X357891772Y-253548297D01*
X357736900Y-253484147D01*
X357597519Y-253391015D01*
X357478985Y-253272481D01*
X357385853Y-253133100D01*
X357321703Y-252978228D01*
X357289000Y-252813816D01*
X357289000Y-252646184D01*
X357321703Y-252481772D01*
X357385853Y-252326900D01*
X357478985Y-252187519D01*
X357597519Y-252068985D01*
X357736900Y-251975853D01*
X357891772Y-251911703D01*
X358056184Y-251879000D01*
X358223816Y-251879000D01*
X358388228Y-251911703D01*
G37*
G36*
X366008228Y-249371703D02*
G01*
X366163100Y-249435853D01*
X366302481Y-249528985D01*
X366421015Y-249647519D01*
X366514147Y-249786900D01*
X366578297Y-249941772D01*
X366611000Y-250106184D01*
X366611000Y-250273816D01*
X366578297Y-250438228D01*
X366514147Y-250593100D01*
X366421015Y-250732481D01*
X366302481Y-250851015D01*
X366163100Y-250944147D01*
X366008228Y-251008297D01*
X365843816Y-251041000D01*
X365676184Y-251041000D01*
X365511772Y-251008297D01*
X365356900Y-250944147D01*
X365217519Y-250851015D01*
X365098985Y-250732481D01*
X365005853Y-250593100D01*
X364941703Y-250438228D01*
X364909000Y-250273816D01*
X364909000Y-250106184D01*
X364941703Y-249941772D01*
X365005853Y-249786900D01*
X365098985Y-249647519D01*
X365217519Y-249528985D01*
X365356900Y-249435853D01*
X365511772Y-249371703D01*
X365676184Y-249339000D01*
X365843816Y-249339000D01*
X366008228Y-249371703D01*
G37*
G36*
X358388228Y-249371703D02*
G01*
X358543100Y-249435853D01*
X358682481Y-249528985D01*
X358801015Y-249647519D01*
X358894147Y-249786900D01*
X358958297Y-249941772D01*
X358991000Y-250106184D01*
X358991000Y-250273816D01*
X358958297Y-250438228D01*
X358894147Y-250593100D01*
X358801015Y-250732481D01*
X358682481Y-250851015D01*
X358543100Y-250944147D01*
X358388228Y-251008297D01*
X358223816Y-251041000D01*
X358056184Y-251041000D01*
X357891772Y-251008297D01*
X357736900Y-250944147D01*
X357597519Y-250851015D01*
X357478985Y-250732481D01*
X357385853Y-250593100D01*
X357321703Y-250438228D01*
X357289000Y-250273816D01*
X357289000Y-250106184D01*
X357321703Y-249941772D01*
X357385853Y-249786900D01*
X357478985Y-249647519D01*
X357597519Y-249528985D01*
X357736900Y-249435853D01*
X357891772Y-249371703D01*
X358056184Y-249339000D01*
X358223816Y-249339000D01*
X358388228Y-249371703D01*
G37*
G36*
X352038228Y-248101703D02*
G01*
X352193100Y-248165853D01*
X352332481Y-248258985D01*
X352451015Y-248377519D01*
X352544147Y-248516900D01*
X352608297Y-248671772D01*
X352641000Y-248836184D01*
X352641000Y-249003816D01*
X352608297Y-249168228D01*
X352544147Y-249323100D01*
X352451015Y-249462481D01*
X352332481Y-249581015D01*
X352193100Y-249674147D01*
X352038228Y-249738297D01*
X351873816Y-249771000D01*
X351706184Y-249771000D01*
X351541772Y-249738297D01*
X351386900Y-249674147D01*
X351247519Y-249581015D01*
X351128985Y-249462481D01*
X351035853Y-249323100D01*
X350971703Y-249168228D01*
X350939000Y-249003816D01*
X350939000Y-248836184D01*
X350971703Y-248671772D01*
X351035853Y-248516900D01*
X351128985Y-248377519D01*
X351247519Y-248258985D01*
X351386900Y-248165853D01*
X351541772Y-248101703D01*
X351706184Y-248069000D01*
X351873816Y-248069000D01*
X352038228Y-248101703D01*
G37*
G36*
X331718228Y-248101703D02*
G01*
X331873100Y-248165853D01*
X332012481Y-248258985D01*
X332131015Y-248377519D01*
X332224147Y-248516900D01*
X332288297Y-248671772D01*
X332321000Y-248836184D01*
X332321000Y-249003816D01*
X332288297Y-249168228D01*
X332224147Y-249323100D01*
X332131015Y-249462481D01*
X332012481Y-249581015D01*
X331873100Y-249674147D01*
X331718228Y-249738297D01*
X331553816Y-249771000D01*
X331386184Y-249771000D01*
X331221772Y-249738297D01*
X331066900Y-249674147D01*
X330927519Y-249581015D01*
X330808985Y-249462481D01*
X330715853Y-249323100D01*
X330651703Y-249168228D01*
X330619000Y-249003816D01*
X330619000Y-248836184D01*
X330651703Y-248671772D01*
X330715853Y-248516900D01*
X330808985Y-248377519D01*
X330927519Y-248258985D01*
X331066900Y-248165853D01*
X331221772Y-248101703D01*
X331386184Y-248069000D01*
X331553816Y-248069000D01*
X331718228Y-248101703D01*
G37*
G36*
X334258228Y-248101703D02*
G01*
X334413100Y-248165853D01*
X334552481Y-248258985D01*
X334671015Y-248377519D01*
X334764147Y-248516900D01*
X334828297Y-248671772D01*
X334861000Y-248836184D01*
X334861000Y-249003816D01*
X334828297Y-249168228D01*
X334764147Y-249323100D01*
X334671015Y-249462481D01*
X334552481Y-249581015D01*
X334413100Y-249674147D01*
X334258228Y-249738297D01*
X334093816Y-249771000D01*
X333926184Y-249771000D01*
X333761772Y-249738297D01*
X333606900Y-249674147D01*
X333467519Y-249581015D01*
X333348985Y-249462481D01*
X333255853Y-249323100D01*
X333191703Y-249168228D01*
X333159000Y-249003816D01*
X333159000Y-248836184D01*
X333191703Y-248671772D01*
X333255853Y-248516900D01*
X333348985Y-248377519D01*
X333467519Y-248258985D01*
X333606900Y-248165853D01*
X333761772Y-248101703D01*
X333926184Y-248069000D01*
X334093816Y-248069000D01*
X334258228Y-248101703D01*
G37*
G36*
X336798228Y-248101703D02*
G01*
X336953100Y-248165853D01*
X337092481Y-248258985D01*
X337211015Y-248377519D01*
X337304147Y-248516900D01*
X337368297Y-248671772D01*
X337401000Y-248836184D01*
X337401000Y-249003816D01*
X337368297Y-249168228D01*
X337304147Y-249323100D01*
X337211015Y-249462481D01*
X337092481Y-249581015D01*
X336953100Y-249674147D01*
X336798228Y-249738297D01*
X336633816Y-249771000D01*
X336466184Y-249771000D01*
X336301772Y-249738297D01*
X336146900Y-249674147D01*
X336007519Y-249581015D01*
X335888985Y-249462481D01*
X335795853Y-249323100D01*
X335731703Y-249168228D01*
X335699000Y-249003816D01*
X335699000Y-248836184D01*
X335731703Y-248671772D01*
X335795853Y-248516900D01*
X335888985Y-248377519D01*
X336007519Y-248258985D01*
X336146900Y-248165853D01*
X336301772Y-248101703D01*
X336466184Y-248069000D01*
X336633816Y-248069000D01*
X336798228Y-248101703D01*
G37*
G36*
X339338228Y-248101703D02*
G01*
X339493100Y-248165853D01*
X339632481Y-248258985D01*
X339751015Y-248377519D01*
X339844147Y-248516900D01*
X339908297Y-248671772D01*
X339941000Y-248836184D01*
X339941000Y-249003816D01*
X339908297Y-249168228D01*
X339844147Y-249323100D01*
X339751015Y-249462481D01*
X339632481Y-249581015D01*
X339493100Y-249674147D01*
X339338228Y-249738297D01*
X339173816Y-249771000D01*
X339006184Y-249771000D01*
X338841772Y-249738297D01*
X338686900Y-249674147D01*
X338547519Y-249581015D01*
X338428985Y-249462481D01*
X338335853Y-249323100D01*
X338271703Y-249168228D01*
X338239000Y-249003816D01*
X338239000Y-248836184D01*
X338271703Y-248671772D01*
X338335853Y-248516900D01*
X338428985Y-248377519D01*
X338547519Y-248258985D01*
X338686900Y-248165853D01*
X338841772Y-248101703D01*
X339006184Y-248069000D01*
X339173816Y-248069000D01*
X339338228Y-248101703D01*
G37*
G36*
X341878228Y-248101703D02*
G01*
X342033100Y-248165853D01*
X342172481Y-248258985D01*
X342291015Y-248377519D01*
X342384147Y-248516900D01*
X342448297Y-248671772D01*
X342481000Y-248836184D01*
X342481000Y-249003816D01*
X342448297Y-249168228D01*
X342384147Y-249323100D01*
X342291015Y-249462481D01*
X342172481Y-249581015D01*
X342033100Y-249674147D01*
X341878228Y-249738297D01*
X341713816Y-249771000D01*
X341546184Y-249771000D01*
X341381772Y-249738297D01*
X341226900Y-249674147D01*
X341087519Y-249581015D01*
X340968985Y-249462481D01*
X340875853Y-249323100D01*
X340811703Y-249168228D01*
X340779000Y-249003816D01*
X340779000Y-248836184D01*
X340811703Y-248671772D01*
X340875853Y-248516900D01*
X340968985Y-248377519D01*
X341087519Y-248258985D01*
X341226900Y-248165853D01*
X341381772Y-248101703D01*
X341546184Y-248069000D01*
X341713816Y-248069000D01*
X341878228Y-248101703D01*
G37*
G36*
X344418228Y-248101703D02*
G01*
X344573100Y-248165853D01*
X344712481Y-248258985D01*
X344831015Y-248377519D01*
X344924147Y-248516900D01*
X344988297Y-248671772D01*
X345021000Y-248836184D01*
X345021000Y-249003816D01*
X344988297Y-249168228D01*
X344924147Y-249323100D01*
X344831015Y-249462481D01*
X344712481Y-249581015D01*
X344573100Y-249674147D01*
X344418228Y-249738297D01*
X344253816Y-249771000D01*
X344086184Y-249771000D01*
X343921772Y-249738297D01*
X343766900Y-249674147D01*
X343627519Y-249581015D01*
X343508985Y-249462481D01*
X343415853Y-249323100D01*
X343351703Y-249168228D01*
X343319000Y-249003816D01*
X343319000Y-248836184D01*
X343351703Y-248671772D01*
X343415853Y-248516900D01*
X343508985Y-248377519D01*
X343627519Y-248258985D01*
X343766900Y-248165853D01*
X343921772Y-248101703D01*
X344086184Y-248069000D01*
X344253816Y-248069000D01*
X344418228Y-248101703D01*
G37*
G36*
X324098228Y-248101703D02*
G01*
X324253100Y-248165853D01*
X324392481Y-248258985D01*
X324511015Y-248377519D01*
X324604147Y-248516900D01*
X324668297Y-248671772D01*
X324701000Y-248836184D01*
X324701000Y-249003816D01*
X324668297Y-249168228D01*
X324604147Y-249323100D01*
X324511015Y-249462481D01*
X324392481Y-249581015D01*
X324253100Y-249674147D01*
X324098228Y-249738297D01*
X323933816Y-249771000D01*
X323766184Y-249771000D01*
X323601772Y-249738297D01*
X323446900Y-249674147D01*
X323307519Y-249581015D01*
X323188985Y-249462481D01*
X323095853Y-249323100D01*
X323031703Y-249168228D01*
X322999000Y-249003816D01*
X322999000Y-248836184D01*
X323031703Y-248671772D01*
X323095853Y-248516900D01*
X323188985Y-248377519D01*
X323307519Y-248258985D01*
X323446900Y-248165853D01*
X323601772Y-248101703D01*
X323766184Y-248069000D01*
X323933816Y-248069000D01*
X324098228Y-248101703D01*
G37*
G36*
X346958228Y-248101703D02*
G01*
X347113100Y-248165853D01*
X347252481Y-248258985D01*
X347371015Y-248377519D01*
X347464147Y-248516900D01*
X347528297Y-248671772D01*
X347561000Y-248836184D01*
X347561000Y-249003816D01*
X347528297Y-249168228D01*
X347464147Y-249323100D01*
X347371015Y-249462481D01*
X347252481Y-249581015D01*
X347113100Y-249674147D01*
X346958228Y-249738297D01*
X346793816Y-249771000D01*
X346626184Y-249771000D01*
X346461772Y-249738297D01*
X346306900Y-249674147D01*
X346167519Y-249581015D01*
X346048985Y-249462481D01*
X345955853Y-249323100D01*
X345891703Y-249168228D01*
X345859000Y-249003816D01*
X345859000Y-248836184D01*
X345891703Y-248671772D01*
X345955853Y-248516900D01*
X346048985Y-248377519D01*
X346167519Y-248258985D01*
X346306900Y-248165853D01*
X346461772Y-248101703D01*
X346626184Y-248069000D01*
X346793816Y-248069000D01*
X346958228Y-248101703D01*
G37*
G36*
X355181000Y-249771000D02*
G01*
X353479000Y-249771000D01*
X353479000Y-248069000D01*
X355181000Y-248069000D01*
X355181000Y-249771000D01*
G37*
G36*
X326638228Y-248101703D02*
G01*
X326793100Y-248165853D01*
X326932481Y-248258985D01*
X327051015Y-248377519D01*
X327144147Y-248516900D01*
X327208297Y-248671772D01*
X327241000Y-248836184D01*
X327241000Y-249003816D01*
X327208297Y-249168228D01*
X327144147Y-249323100D01*
X327051015Y-249462481D01*
X326932481Y-249581015D01*
X326793100Y-249674147D01*
X326638228Y-249738297D01*
X326473816Y-249771000D01*
X326306184Y-249771000D01*
X326141772Y-249738297D01*
X325986900Y-249674147D01*
X325847519Y-249581015D01*
X325728985Y-249462481D01*
X325635853Y-249323100D01*
X325571703Y-249168228D01*
X325539000Y-249003816D01*
X325539000Y-248836184D01*
X325571703Y-248671772D01*
X325635853Y-248516900D01*
X325728985Y-248377519D01*
X325847519Y-248258985D01*
X325986900Y-248165853D01*
X326141772Y-248101703D01*
X326306184Y-248069000D01*
X326473816Y-248069000D01*
X326638228Y-248101703D01*
G37*
G36*
X321558228Y-248101703D02*
G01*
X321713100Y-248165853D01*
X321852481Y-248258985D01*
X321971015Y-248377519D01*
X322064147Y-248516900D01*
X322128297Y-248671772D01*
X322161000Y-248836184D01*
X322161000Y-249003816D01*
X322128297Y-249168228D01*
X322064147Y-249323100D01*
X321971015Y-249462481D01*
X321852481Y-249581015D01*
X321713100Y-249674147D01*
X321558228Y-249738297D01*
X321393816Y-249771000D01*
X321226184Y-249771000D01*
X321061772Y-249738297D01*
X320906900Y-249674147D01*
X320767519Y-249581015D01*
X320648985Y-249462481D01*
X320555853Y-249323100D01*
X320491703Y-249168228D01*
X320459000Y-249003816D01*
X320459000Y-248836184D01*
X320491703Y-248671772D01*
X320555853Y-248516900D01*
X320648985Y-248377519D01*
X320767519Y-248258985D01*
X320906900Y-248165853D01*
X321061772Y-248101703D01*
X321226184Y-248069000D01*
X321393816Y-248069000D01*
X321558228Y-248101703D01*
G37*
G36*
X329178228Y-248101703D02*
G01*
X329333100Y-248165853D01*
X329472481Y-248258985D01*
X329591015Y-248377519D01*
X329684147Y-248516900D01*
X329748297Y-248671772D01*
X329781000Y-248836184D01*
X329781000Y-249003816D01*
X329748297Y-249168228D01*
X329684147Y-249323100D01*
X329591015Y-249462481D01*
X329472481Y-249581015D01*
X329333100Y-249674147D01*
X329178228Y-249738297D01*
X329013816Y-249771000D01*
X328846184Y-249771000D01*
X328681772Y-249738297D01*
X328526900Y-249674147D01*
X328387519Y-249581015D01*
X328268985Y-249462481D01*
X328175853Y-249323100D01*
X328111703Y-249168228D01*
X328079000Y-249003816D01*
X328079000Y-248836184D01*
X328111703Y-248671772D01*
X328175853Y-248516900D01*
X328268985Y-248377519D01*
X328387519Y-248258985D01*
X328526900Y-248165853D01*
X328681772Y-248101703D01*
X328846184Y-248069000D01*
X329013816Y-248069000D01*
X329178228Y-248101703D01*
G37*
G36*
X349498228Y-248101703D02*
G01*
X349653100Y-248165853D01*
X349792481Y-248258985D01*
X349911015Y-248377519D01*
X350004147Y-248516900D01*
X350068297Y-248671772D01*
X350101000Y-248836184D01*
X350101000Y-249003816D01*
X350068297Y-249168228D01*
X350004147Y-249323100D01*
X349911015Y-249462481D01*
X349792481Y-249581015D01*
X349653100Y-249674147D01*
X349498228Y-249738297D01*
X349333816Y-249771000D01*
X349166184Y-249771000D01*
X349001772Y-249738297D01*
X348846900Y-249674147D01*
X348707519Y-249581015D01*
X348588985Y-249462481D01*
X348495853Y-249323100D01*
X348431703Y-249168228D01*
X348399000Y-249003816D01*
X348399000Y-248836184D01*
X348431703Y-248671772D01*
X348495853Y-248516900D01*
X348588985Y-248377519D01*
X348707519Y-248258985D01*
X348846900Y-248165853D01*
X349001772Y-248101703D01*
X349166184Y-248069000D01*
X349333816Y-248069000D01*
X349498228Y-248101703D01*
G37*
G36*
X358388228Y-246831703D02*
G01*
X358543100Y-246895853D01*
X358682481Y-246988985D01*
X358801015Y-247107519D01*
X358894147Y-247246900D01*
X358958297Y-247401772D01*
X358991000Y-247566184D01*
X358991000Y-247733816D01*
X358958297Y-247898228D01*
X358894147Y-248053100D01*
X358801015Y-248192481D01*
X358682481Y-248311015D01*
X358543100Y-248404147D01*
X358388228Y-248468297D01*
X358223816Y-248501000D01*
X358056184Y-248501000D01*
X357891772Y-248468297D01*
X357736900Y-248404147D01*
X357597519Y-248311015D01*
X357478985Y-248192481D01*
X357385853Y-248053100D01*
X357321703Y-247898228D01*
X357289000Y-247733816D01*
X357289000Y-247566184D01*
X357321703Y-247401772D01*
X357385853Y-247246900D01*
X357478985Y-247107519D01*
X357597519Y-246988985D01*
X357736900Y-246895853D01*
X357891772Y-246831703D01*
X358056184Y-246799000D01*
X358223816Y-246799000D01*
X358388228Y-246831703D01*
G37*
G36*
X366008228Y-246831703D02*
G01*
X366163100Y-246895853D01*
X366302481Y-246988985D01*
X366421015Y-247107519D01*
X366514147Y-247246900D01*
X366578297Y-247401772D01*
X366611000Y-247566184D01*
X366611000Y-247733816D01*
X366578297Y-247898228D01*
X366514147Y-248053100D01*
X366421015Y-248192481D01*
X366302481Y-248311015D01*
X366163100Y-248404147D01*
X366008228Y-248468297D01*
X365843816Y-248501000D01*
X365676184Y-248501000D01*
X365511772Y-248468297D01*
X365356900Y-248404147D01*
X365217519Y-248311015D01*
X365098985Y-248192481D01*
X365005853Y-248053100D01*
X364941703Y-247898228D01*
X364909000Y-247733816D01*
X364909000Y-247566184D01*
X364941703Y-247401772D01*
X365005853Y-247246900D01*
X365098985Y-247107519D01*
X365217519Y-246988985D01*
X365356900Y-246895853D01*
X365511772Y-246831703D01*
X365676184Y-246799000D01*
X365843816Y-246799000D01*
X366008228Y-246831703D01*
G37*
G36*
X358991000Y-245961000D02*
G01*
X357289000Y-245961000D01*
X357289000Y-244259000D01*
X358991000Y-244259000D01*
X358991000Y-245961000D01*
G37*
G36*
X366008228Y-244291703D02*
G01*
X366163100Y-244355853D01*
X366302481Y-244448985D01*
X366421015Y-244567519D01*
X366514147Y-244706900D01*
X366578297Y-244861772D01*
X366611000Y-245026184D01*
X366611000Y-245193816D01*
X366578297Y-245358228D01*
X366514147Y-245513100D01*
X366421015Y-245652481D01*
X366302481Y-245771015D01*
X366163100Y-245864147D01*
X366008228Y-245928297D01*
X365843816Y-245961000D01*
X365676184Y-245961000D01*
X365511772Y-245928297D01*
X365356900Y-245864147D01*
X365217519Y-245771015D01*
X365098985Y-245652481D01*
X365005853Y-245513100D01*
X364941703Y-245358228D01*
X364909000Y-245193816D01*
X364909000Y-245026184D01*
X364941703Y-244861772D01*
X365005853Y-244706900D01*
X365098985Y-244567519D01*
X365217519Y-244448985D01*
X365356900Y-244355853D01*
X365511772Y-244291703D01*
X365676184Y-244259000D01*
X365843816Y-244259000D01*
X366008228Y-244291703D01*
G37*
G36*
X367278228Y-240481703D02*
G01*
X367433100Y-240545853D01*
X367572481Y-240638985D01*
X367691015Y-240757519D01*
X367784147Y-240896900D01*
X367848297Y-241051772D01*
X367881000Y-241216184D01*
X367881000Y-241383816D01*
X367848297Y-241548228D01*
X367784147Y-241703100D01*
X367691015Y-241842481D01*
X367572481Y-241961015D01*
X367433100Y-242054147D01*
X367278228Y-242118297D01*
X367113816Y-242151000D01*
X366946184Y-242151000D01*
X366781772Y-242118297D01*
X366626900Y-242054147D01*
X366487519Y-241961015D01*
X366368985Y-241842481D01*
X366275853Y-241703100D01*
X366211703Y-241548228D01*
X366179000Y-241383816D01*
X366179000Y-241216184D01*
X366211703Y-241051772D01*
X366275853Y-240896900D01*
X366368985Y-240757519D01*
X366487519Y-240638985D01*
X366626900Y-240545853D01*
X366781772Y-240481703D01*
X366946184Y-240449000D01*
X367113816Y-240449000D01*
X367278228Y-240481703D01*
G37*
G36*
X357118228Y-240481703D02*
G01*
X357273100Y-240545853D01*
X357412481Y-240638985D01*
X357531015Y-240757519D01*
X357624147Y-240896900D01*
X357688297Y-241051772D01*
X357721000Y-241216184D01*
X357721000Y-241383816D01*
X357688297Y-241548228D01*
X357624147Y-241703100D01*
X357531015Y-241842481D01*
X357412481Y-241961015D01*
X357273100Y-242054147D01*
X357118228Y-242118297D01*
X356953816Y-242151000D01*
X356786184Y-242151000D01*
X356621772Y-242118297D01*
X356466900Y-242054147D01*
X356327519Y-241961015D01*
X356208985Y-241842481D01*
X356115853Y-241703100D01*
X356051703Y-241548228D01*
X356019000Y-241383816D01*
X356019000Y-241216184D01*
X356051703Y-241051772D01*
X356115853Y-240896900D01*
X356208985Y-240757519D01*
X356327519Y-240638985D01*
X356466900Y-240545853D01*
X356621772Y-240481703D01*
X356786184Y-240449000D01*
X356953816Y-240449000D01*
X357118228Y-240481703D01*
G37*
G36*
X365525787Y-231535462D02*
G01*
X365525790Y-231535463D01*
X365525789Y-231535463D01*
X366172029Y-231803144D01*
X366753631Y-232191758D01*
X367248242Y-232686369D01*
X367636856Y-233267971D01*
X367826135Y-233724932D01*
X367904538Y-233914213D01*
X368041000Y-234600256D01*
X368041000Y-235299744D01*
X367904538Y-235985787D01*
X367904537Y-235985789D01*
X367636856Y-236632029D01*
X367248242Y-237213631D01*
X366753631Y-237708242D01*
X366172029Y-238096856D01*
X365816434Y-238244148D01*
X365525787Y-238364538D01*
X364839744Y-238501000D01*
X364140256Y-238501000D01*
X363454213Y-238364538D01*
X363163566Y-238244148D01*
X362807971Y-238096856D01*
X362226369Y-237708242D01*
X361731758Y-237213631D01*
X361343144Y-236632029D01*
X361075463Y-235985789D01*
X361075462Y-235985787D01*
X360939000Y-235299744D01*
X360939000Y-234600256D01*
X361075462Y-233914213D01*
X361153865Y-233724932D01*
X361343144Y-233267971D01*
X361731758Y-232686369D01*
X362226369Y-232191758D01*
X362807971Y-231803144D01*
X363454211Y-231535463D01*
X363454210Y-231535463D01*
X363454213Y-231535462D01*
X364140256Y-231399000D01*
X364839744Y-231399000D01*
X365525787Y-231535462D01*
G37*
G36*
X348228228Y-236671703D02*
G01*
X348383100Y-236735853D01*
X348522481Y-236828985D01*
X348641015Y-236947519D01*
X348734147Y-237086900D01*
X348798297Y-237241772D01*
X348831000Y-237406184D01*
X348831000Y-237573816D01*
X348798297Y-237738228D01*
X348734147Y-237893100D01*
X348641015Y-238032481D01*
X348522481Y-238151015D01*
X348383100Y-238244147D01*
X348228228Y-238308297D01*
X348063816Y-238341000D01*
X347896184Y-238341000D01*
X347731772Y-238308297D01*
X347576900Y-238244147D01*
X347437519Y-238151015D01*
X347318985Y-238032481D01*
X347225853Y-237893100D01*
X347161703Y-237738228D01*
X347129000Y-237573816D01*
X347129000Y-237406184D01*
X347161703Y-237241772D01*
X347225853Y-237086900D01*
X347318985Y-236947519D01*
X347437519Y-236828985D01*
X347576900Y-236735853D01*
X347731772Y-236671703D01*
X347896184Y-236639000D01*
X348063816Y-236639000D01*
X348228228Y-236671703D01*
G37*
G36*
X358388228Y-236671703D02*
G01*
X358543100Y-236735853D01*
X358682481Y-236828985D01*
X358801015Y-236947519D01*
X358894147Y-237086900D01*
X358958297Y-237241772D01*
X358991000Y-237406184D01*
X358991000Y-237573816D01*
X358958297Y-237738228D01*
X358894147Y-237893100D01*
X358801015Y-238032481D01*
X358682481Y-238151015D01*
X358543100Y-238244147D01*
X358388228Y-238308297D01*
X358223816Y-238341000D01*
X358056184Y-238341000D01*
X357891772Y-238308297D01*
X357736900Y-238244147D01*
X357597519Y-238151015D01*
X357478985Y-238032481D01*
X357385853Y-237893100D01*
X357321703Y-237738228D01*
X357289000Y-237573816D01*
X357289000Y-237406184D01*
X357321703Y-237241772D01*
X357385853Y-237086900D01*
X357478985Y-236947519D01*
X357597519Y-236828985D01*
X357736900Y-236735853D01*
X357891772Y-236671703D01*
X358056184Y-236639000D01*
X358223816Y-236639000D01*
X358388228Y-236671703D01*
G37*
G36*
X332954794Y-235140155D02*
G01*
X333061150Y-235161311D01*
X333261520Y-235244307D01*
X333441844Y-235364795D01*
X333595205Y-235518156D01*
X333715693Y-235698480D01*
X333798689Y-235898851D01*
X333841000Y-236111560D01*
X333841000Y-236328440D01*
X333798689Y-236541149D01*
X333715693Y-236741520D01*
X333595205Y-236921844D01*
X333441844Y-237075205D01*
X333261520Y-237195693D01*
X333161334Y-237237191D01*
X333061150Y-237278689D01*
X332954795Y-237299844D01*
X332848440Y-237321000D01*
X332631560Y-237321000D01*
X332525205Y-237299844D01*
X332418850Y-237278689D01*
X332318666Y-237237191D01*
X332218480Y-237195693D01*
X332038156Y-237075205D01*
X331884795Y-236921844D01*
X331764307Y-236741520D01*
X331681311Y-236541149D01*
X331639000Y-236328440D01*
X331639000Y-236111560D01*
X331681311Y-235898851D01*
X331764307Y-235698480D01*
X331884795Y-235518156D01*
X332038156Y-235364795D01*
X332218480Y-235244307D01*
X332418850Y-235161311D01*
X332525206Y-235140155D01*
X332631560Y-235119000D01*
X332848440Y-235119000D01*
X332954794Y-235140155D01*
G37*
G36*
X323681000Y-237321000D02*
G01*
X321479000Y-237321000D01*
X321479000Y-235119000D01*
X323681000Y-235119000D01*
X323681000Y-237321000D01*
G37*
G36*
X327874794Y-235140155D02*
G01*
X327981150Y-235161311D01*
X328181520Y-235244307D01*
X328361844Y-235364795D01*
X328515205Y-235518156D01*
X328635693Y-235698480D01*
X328718689Y-235898851D01*
X328761000Y-236111560D01*
X328761000Y-236328440D01*
X328718689Y-236541149D01*
X328635693Y-236741520D01*
X328515205Y-236921844D01*
X328361844Y-237075205D01*
X328181520Y-237195693D01*
X328081334Y-237237191D01*
X327981150Y-237278689D01*
X327874795Y-237299844D01*
X327768440Y-237321000D01*
X327551560Y-237321000D01*
X327445205Y-237299844D01*
X327338850Y-237278689D01*
X327238666Y-237237191D01*
X327138480Y-237195693D01*
X326958156Y-237075205D01*
X326804795Y-236921844D01*
X326684307Y-236741520D01*
X326601311Y-236541149D01*
X326559000Y-236328440D01*
X326559000Y-236111560D01*
X326601311Y-235898851D01*
X326684307Y-235698480D01*
X326804795Y-235518156D01*
X326958156Y-235364795D01*
X327138480Y-235244307D01*
X327338850Y-235161311D01*
X327445206Y-235140155D01*
X327551560Y-235119000D01*
X327768440Y-235119000D01*
X327874794Y-235140155D01*
G37*
G36*
X338034794Y-235140155D02*
G01*
X338141150Y-235161311D01*
X338341520Y-235244307D01*
X338521844Y-235364795D01*
X338675205Y-235518156D01*
X338795693Y-235698480D01*
X338878689Y-235898851D01*
X338921000Y-236111560D01*
X338921000Y-236328440D01*
X338878689Y-236541149D01*
X338795693Y-236741520D01*
X338675205Y-236921844D01*
X338521844Y-237075205D01*
X338341520Y-237195693D01*
X338241334Y-237237191D01*
X338141150Y-237278689D01*
X338034795Y-237299844D01*
X337928440Y-237321000D01*
X337711560Y-237321000D01*
X337605205Y-237299844D01*
X337498850Y-237278689D01*
X337398666Y-237237191D01*
X337298480Y-237195693D01*
X337118156Y-237075205D01*
X336964795Y-236921844D01*
X336844307Y-236741520D01*
X336761311Y-236541149D01*
X336719000Y-236328440D01*
X336719000Y-236111560D01*
X336761311Y-235898851D01*
X336844307Y-235698480D01*
X336964795Y-235518156D01*
X337118156Y-235364795D01*
X337298480Y-235244307D01*
X337498850Y-235161311D01*
X337605206Y-235140155D01*
X337711560Y-235119000D01*
X337928440Y-235119000D01*
X338034794Y-235140155D01*
G37*
G36*
X343114794Y-235140155D02*
G01*
X343221150Y-235161311D01*
X343421520Y-235244307D01*
X343601844Y-235364795D01*
X343755205Y-235518156D01*
X343875693Y-235698480D01*
X343958689Y-235898851D01*
X344001000Y-236111560D01*
X344001000Y-236328440D01*
X343958689Y-236541149D01*
X343875693Y-236741520D01*
X343755205Y-236921844D01*
X343601844Y-237075205D01*
X343421520Y-237195693D01*
X343321334Y-237237191D01*
X343221150Y-237278689D01*
X343114795Y-237299844D01*
X343008440Y-237321000D01*
X342791560Y-237321000D01*
X342685205Y-237299844D01*
X342578850Y-237278689D01*
X342478666Y-237237191D01*
X342378480Y-237195693D01*
X342198156Y-237075205D01*
X342044795Y-236921844D01*
X341924307Y-236741520D01*
X341841311Y-236541149D01*
X341799000Y-236328440D01*
X341799000Y-236111560D01*
X341841311Y-235898851D01*
X341924307Y-235698480D01*
X342044795Y-235518156D01*
X342198156Y-235364795D01*
X342378480Y-235244307D01*
X342578850Y-235161311D01*
X342685206Y-235140155D01*
X342791560Y-235119000D01*
X343008440Y-235119000D01*
X343114794Y-235140155D01*
G37*
G36*
X358388228Y-232861703D02*
G01*
X358543100Y-232925853D01*
X358682481Y-233018985D01*
X358801015Y-233137519D01*
X358894147Y-233276900D01*
X358958297Y-233431772D01*
X358991000Y-233596184D01*
X358991000Y-233763816D01*
X358958297Y-233928228D01*
X358894147Y-234083100D01*
X358801015Y-234222481D01*
X358682481Y-234341015D01*
X358543100Y-234434147D01*
X358388228Y-234498297D01*
X358223816Y-234531000D01*
X358056184Y-234531000D01*
X357891772Y-234498297D01*
X357736900Y-234434147D01*
X357597519Y-234341015D01*
X357478985Y-234222481D01*
X357385853Y-234083100D01*
X357321703Y-233928228D01*
X357289000Y-233763816D01*
X357289000Y-233596184D01*
X357321703Y-233431772D01*
X357385853Y-233276900D01*
X357478985Y-233137519D01*
X357597519Y-233018985D01*
X357736900Y-232925853D01*
X357891772Y-232861703D01*
X358056184Y-232829000D01*
X358223816Y-232829000D01*
X358388228Y-232861703D01*
G37*
G36*
X348228228Y-232861703D02*
G01*
X348383100Y-232925853D01*
X348522481Y-233018985D01*
X348641015Y-233137519D01*
X348734147Y-233276900D01*
X348798297Y-233431772D01*
X348831000Y-233596184D01*
X348831000Y-233763816D01*
X348798297Y-233928228D01*
X348734147Y-234083100D01*
X348641015Y-234222481D01*
X348522481Y-234341015D01*
X348383100Y-234434147D01*
X348228228Y-234498297D01*
X348063816Y-234531000D01*
X347896184Y-234531000D01*
X347731772Y-234498297D01*
X347576900Y-234434147D01*
X347437519Y-234341015D01*
X347318985Y-234222481D01*
X347225853Y-234083100D01*
X347161703Y-233928228D01*
X347129000Y-233763816D01*
X347129000Y-233596184D01*
X347161703Y-233431772D01*
X347225853Y-233276900D01*
X347318985Y-233137519D01*
X347437519Y-233018985D01*
X347576900Y-232925853D01*
X347731772Y-232861703D01*
X347896184Y-232829000D01*
X348063816Y-232829000D01*
X348228228Y-232861703D01*
G37*
M02*
