G04 #@! TF.GenerationSoftware,KiCad,Pcbnew,(5.1.5)-3*
G04 #@! TF.CreationDate,2020-06-02T00:14:17+02:00*
G04 #@! TF.ProjectId,I2CMaster,4932434d-6173-4746-9572-2e6b69636164,rev?*
G04 #@! TF.SameCoordinates,Original*
G04 #@! TF.FileFunction,Legend,Bot*
G04 #@! TF.FilePolarity,Positive*
%FSLAX46Y46*%
G04 Gerber Fmt 4.6, Leading zero omitted, Abs format (unit mm)*
G04 Created by KiCad (PCBNEW (5.1.5)-3) date 2020-06-02 00:14:17*
%MOMM*%
%LPD*%
G04 APERTURE LIST*
%ADD10C,0.150000*%
G04 APERTURE END LIST*
D10*
X344867619Y-252262142D02*
X344915238Y-252309761D01*
X345058095Y-252357380D01*
X345153333Y-252357380D01*
X345296190Y-252309761D01*
X345391428Y-252214523D01*
X345439047Y-252119285D01*
X345486666Y-251928809D01*
X345486666Y-251785952D01*
X345439047Y-251595476D01*
X345391428Y-251500238D01*
X345296190Y-251405000D01*
X345153333Y-251357380D01*
X345058095Y-251357380D01*
X344915238Y-251405000D01*
X344867619Y-251452619D01*
X344486666Y-252071666D02*
X344010476Y-252071666D01*
X344581904Y-252357380D02*
X344248571Y-251357380D01*
X343915238Y-252357380D01*
X343581904Y-252357380D02*
X343581904Y-251357380D01*
X343010476Y-252357380D01*
X343010476Y-251357380D01*
X341915238Y-251690714D02*
X341534285Y-251690714D01*
X341772380Y-251357380D02*
X341772380Y-252214523D01*
X341724761Y-252309761D01*
X341629523Y-252357380D01*
X341534285Y-252357380D01*
X341058095Y-252357380D02*
X341153333Y-252309761D01*
X341200952Y-252262142D01*
X341248571Y-252166904D01*
X341248571Y-251881190D01*
X341200952Y-251785952D01*
X341153333Y-251738333D01*
X341058095Y-251690714D01*
X340915238Y-251690714D01*
X340820000Y-251738333D01*
X340772380Y-251785952D01*
X340724761Y-251881190D01*
X340724761Y-252166904D01*
X340772380Y-252262142D01*
X340820000Y-252309761D01*
X340915238Y-252357380D01*
X341058095Y-252357380D01*
X339534285Y-252357380D02*
X339534285Y-251357380D01*
X339105714Y-251452619D02*
X339058095Y-251405000D01*
X338962857Y-251357380D01*
X338724761Y-251357380D01*
X338629523Y-251405000D01*
X338581904Y-251452619D01*
X338534285Y-251547857D01*
X338534285Y-251643095D01*
X338581904Y-251785952D01*
X339153333Y-252357380D01*
X338534285Y-252357380D01*
X337534285Y-252262142D02*
X337581904Y-252309761D01*
X337724761Y-252357380D01*
X337820000Y-252357380D01*
X337962857Y-252309761D01*
X338058095Y-252214523D01*
X338105714Y-252119285D01*
X338153333Y-251928809D01*
X338153333Y-251785952D01*
X338105714Y-251595476D01*
X338058095Y-251500238D01*
X337962857Y-251405000D01*
X337820000Y-251357380D01*
X337724761Y-251357380D01*
X337581904Y-251405000D01*
X337534285Y-251452619D01*
X336343809Y-252357380D02*
X336343809Y-251357380D01*
X335867619Y-251690714D02*
X335867619Y-252357380D01*
X335867619Y-251785952D02*
X335820000Y-251738333D01*
X335724761Y-251690714D01*
X335581904Y-251690714D01*
X335486666Y-251738333D01*
X335439047Y-251833571D01*
X335439047Y-252357380D01*
X335105714Y-251690714D02*
X334724761Y-251690714D01*
X334962857Y-251357380D02*
X334962857Y-252214523D01*
X334915238Y-252309761D01*
X334820000Y-252357380D01*
X334724761Y-252357380D01*
X334010476Y-252309761D02*
X334105714Y-252357380D01*
X334296190Y-252357380D01*
X334391428Y-252309761D01*
X334439047Y-252214523D01*
X334439047Y-251833571D01*
X334391428Y-251738333D01*
X334296190Y-251690714D01*
X334105714Y-251690714D01*
X334010476Y-251738333D01*
X333962857Y-251833571D01*
X333962857Y-251928809D01*
X334439047Y-252024047D01*
X333534285Y-252357380D02*
X333534285Y-251690714D01*
X333534285Y-251881190D02*
X333486666Y-251785952D01*
X333439047Y-251738333D01*
X333343809Y-251690714D01*
X333248571Y-251690714D01*
X333058095Y-251690714D02*
X332677142Y-251690714D01*
X332915238Y-252357380D02*
X332915238Y-251500238D01*
X332867619Y-251405000D01*
X332772380Y-251357380D01*
X332677142Y-251357380D01*
X331915238Y-252357380D02*
X331915238Y-251833571D01*
X331962857Y-251738333D01*
X332058095Y-251690714D01*
X332248571Y-251690714D01*
X332343809Y-251738333D01*
X331915238Y-252309761D02*
X332010476Y-252357380D01*
X332248571Y-252357380D01*
X332343809Y-252309761D01*
X332391428Y-252214523D01*
X332391428Y-252119285D01*
X332343809Y-252024047D01*
X332248571Y-251976428D01*
X332010476Y-251976428D01*
X331915238Y-251928809D01*
X331010476Y-252309761D02*
X331105714Y-252357380D01*
X331296190Y-252357380D01*
X331391428Y-252309761D01*
X331439047Y-252262142D01*
X331486666Y-252166904D01*
X331486666Y-251881190D01*
X331439047Y-251785952D01*
X331391428Y-251738333D01*
X331296190Y-251690714D01*
X331105714Y-251690714D01*
X331010476Y-251738333D01*
X330200952Y-252309761D02*
X330296190Y-252357380D01*
X330486666Y-252357380D01*
X330581904Y-252309761D01*
X330629523Y-252214523D01*
X330629523Y-251833571D01*
X330581904Y-251738333D01*
X330486666Y-251690714D01*
X330296190Y-251690714D01*
X330200952Y-251738333D01*
X330153333Y-251833571D01*
X330153333Y-251928809D01*
X330629523Y-252024047D01*
X344843809Y-253245476D02*
X344939047Y-253197857D01*
X345129523Y-253197857D01*
X345224761Y-253245476D01*
X345320000Y-253340714D01*
X345367619Y-253435952D01*
X345367619Y-253626428D01*
X345320000Y-253721666D01*
X345224761Y-253816904D01*
X345129523Y-253864523D01*
X344939047Y-253864523D01*
X344843809Y-253816904D01*
X345034285Y-252864523D02*
X345272380Y-252912142D01*
X345510476Y-253055000D01*
X345653333Y-253293095D01*
X345700952Y-253531190D01*
X345653333Y-253769285D01*
X345510476Y-254007380D01*
X345272380Y-254150238D01*
X345034285Y-254197857D01*
X344796190Y-254150238D01*
X344558095Y-254007380D01*
X344415238Y-253769285D01*
X344367619Y-253531190D01*
X344415238Y-253293095D01*
X344558095Y-253055000D01*
X344796190Y-252912142D01*
X345034285Y-252864523D01*
X343986666Y-253102619D02*
X343939047Y-253055000D01*
X343843809Y-253007380D01*
X343605714Y-253007380D01*
X343510476Y-253055000D01*
X343462857Y-253102619D01*
X343415238Y-253197857D01*
X343415238Y-253293095D01*
X343462857Y-253435952D01*
X344034285Y-254007380D01*
X343415238Y-254007380D01*
X342796190Y-253007380D02*
X342700952Y-253007380D01*
X342605714Y-253055000D01*
X342558095Y-253102619D01*
X342510476Y-253197857D01*
X342462857Y-253388333D01*
X342462857Y-253626428D01*
X342510476Y-253816904D01*
X342558095Y-253912142D01*
X342605714Y-253959761D01*
X342700952Y-254007380D01*
X342796190Y-254007380D01*
X342891428Y-253959761D01*
X342939047Y-253912142D01*
X342986666Y-253816904D01*
X343034285Y-253626428D01*
X343034285Y-253388333D01*
X342986666Y-253197857D01*
X342939047Y-253102619D01*
X342891428Y-253055000D01*
X342796190Y-253007380D01*
X342081904Y-253102619D02*
X342034285Y-253055000D01*
X341939047Y-253007380D01*
X341700952Y-253007380D01*
X341605714Y-253055000D01*
X341558095Y-253102619D01*
X341510476Y-253197857D01*
X341510476Y-253293095D01*
X341558095Y-253435952D01*
X342129523Y-254007380D01*
X341510476Y-254007380D01*
X340891428Y-253007380D02*
X340796190Y-253007380D01*
X340700952Y-253055000D01*
X340653333Y-253102619D01*
X340605714Y-253197857D01*
X340558095Y-253388333D01*
X340558095Y-253626428D01*
X340605714Y-253816904D01*
X340653333Y-253912142D01*
X340700952Y-253959761D01*
X340796190Y-254007380D01*
X340891428Y-254007380D01*
X340986666Y-253959761D01*
X341034285Y-253912142D01*
X341081904Y-253816904D01*
X341129523Y-253626428D01*
X341129523Y-253388333D01*
X341081904Y-253197857D01*
X341034285Y-253102619D01*
X340986666Y-253055000D01*
X340891428Y-253007380D01*
X339367619Y-254007380D02*
X339367619Y-253007380D01*
X339129523Y-253007380D01*
X338986666Y-253055000D01*
X338891428Y-253150238D01*
X338843809Y-253245476D01*
X338796190Y-253435952D01*
X338796190Y-253578809D01*
X338843809Y-253769285D01*
X338891428Y-253864523D01*
X338986666Y-253959761D01*
X339129523Y-254007380D01*
X339367619Y-254007380D01*
X338224761Y-254007380D02*
X338320000Y-253959761D01*
X338367619Y-253912142D01*
X338415238Y-253816904D01*
X338415238Y-253531190D01*
X338367619Y-253435952D01*
X338320000Y-253388333D01*
X338224761Y-253340714D01*
X338081904Y-253340714D01*
X337986666Y-253388333D01*
X337939047Y-253435952D01*
X337891428Y-253531190D01*
X337891428Y-253816904D01*
X337939047Y-253912142D01*
X337986666Y-253959761D01*
X338081904Y-254007380D01*
X338224761Y-254007380D01*
X337462857Y-254007380D02*
X337462857Y-253340714D01*
X337462857Y-253435952D02*
X337415238Y-253388333D01*
X337320000Y-253340714D01*
X337177142Y-253340714D01*
X337081904Y-253388333D01*
X337034285Y-253483571D01*
X337034285Y-254007380D01*
X337034285Y-253483571D02*
X336986666Y-253388333D01*
X336891428Y-253340714D01*
X336748571Y-253340714D01*
X336653333Y-253388333D01*
X336605714Y-253483571D01*
X336605714Y-254007380D01*
X336129523Y-254007380D02*
X336129523Y-253340714D01*
X336129523Y-253007380D02*
X336177142Y-253055000D01*
X336129523Y-253102619D01*
X336081904Y-253055000D01*
X336129523Y-253007380D01*
X336129523Y-253102619D01*
X335653333Y-253340714D02*
X335653333Y-254007380D01*
X335653333Y-253435952D02*
X335605714Y-253388333D01*
X335510476Y-253340714D01*
X335367619Y-253340714D01*
X335272380Y-253388333D01*
X335224761Y-253483571D01*
X335224761Y-254007380D01*
X334748571Y-254007380D02*
X334748571Y-253340714D01*
X334748571Y-253007380D02*
X334796190Y-253055000D01*
X334748571Y-253102619D01*
X334700952Y-253055000D01*
X334748571Y-253007380D01*
X334748571Y-253102619D01*
X334272380Y-254007380D02*
X334272380Y-253007380D01*
X334177142Y-253626428D02*
X333891428Y-254007380D01*
X333891428Y-253340714D02*
X334272380Y-253721666D01*
X332367619Y-253483571D02*
X332700952Y-253483571D01*
X332700952Y-254007380D02*
X332700952Y-253007380D01*
X332224761Y-253007380D01*
X331700952Y-254007380D02*
X331796190Y-253959761D01*
X331843809Y-253912142D01*
X331891428Y-253816904D01*
X331891428Y-253531190D01*
X331843809Y-253435952D01*
X331796190Y-253388333D01*
X331700952Y-253340714D01*
X331558095Y-253340714D01*
X331462857Y-253388333D01*
X331415238Y-253435952D01*
X331367619Y-253531190D01*
X331367619Y-253816904D01*
X331415238Y-253912142D01*
X331462857Y-253959761D01*
X331558095Y-254007380D01*
X331700952Y-254007380D01*
X331796190Y-253007380D02*
X331748571Y-253055000D01*
X331796190Y-253102619D01*
X331843809Y-253055000D01*
X331796190Y-253007380D01*
X331796190Y-253102619D01*
X331415238Y-253007380D02*
X331367619Y-253055000D01*
X331415238Y-253102619D01*
X331462857Y-253055000D01*
X331415238Y-253007380D01*
X331415238Y-253102619D01*
X330939047Y-254007380D02*
X330939047Y-253007380D01*
X330510476Y-254007380D02*
X330510476Y-253483571D01*
X330558095Y-253388333D01*
X330653333Y-253340714D01*
X330796190Y-253340714D01*
X330891428Y-253388333D01*
X330939047Y-253435952D01*
X329891428Y-254007380D02*
X329986666Y-253959761D01*
X330034285Y-253864523D01*
X330034285Y-253007380D01*
M02*
