G04 #@! TF.GenerationSoftware,KiCad,Pcbnew,(5.1.5)-3*
G04 #@! TF.CreationDate,2020-06-02T00:14:17+02:00*
G04 #@! TF.ProjectId,I2CMaster,4932434d-6173-4746-9572-2e6b69636164,rev?*
G04 #@! TF.SameCoordinates,Original*
G04 #@! TF.FileFunction,Legend,Top*
G04 #@! TF.FilePolarity,Positive*
%FSLAX46Y46*%
G04 Gerber Fmt 4.6, Leading zero omitted, Abs format (unit mm)*
G04 Created by KiCad (PCBNEW (5.1.5)-3) date 2020-06-02 00:14:17*
%MOMM*%
%LPD*%
G04 APERTURE LIST*
%ADD10C,0.150000*%
%ADD11C,0.120000*%
G04 APERTURE END LIST*
D10*
X330772380Y-252262142D02*
X330724761Y-252309761D01*
X330581904Y-252357380D01*
X330486666Y-252357380D01*
X330343809Y-252309761D01*
X330248571Y-252214523D01*
X330200952Y-252119285D01*
X330153333Y-251928809D01*
X330153333Y-251785952D01*
X330200952Y-251595476D01*
X330248571Y-251500238D01*
X330343809Y-251405000D01*
X330486666Y-251357380D01*
X330581904Y-251357380D01*
X330724761Y-251405000D01*
X330772380Y-251452619D01*
X331153333Y-252071666D02*
X331629523Y-252071666D01*
X331058095Y-252357380D02*
X331391428Y-251357380D01*
X331724761Y-252357380D01*
X332058095Y-252357380D02*
X332058095Y-251357380D01*
X332629523Y-252357380D01*
X332629523Y-251357380D01*
X333724761Y-251690714D02*
X334105714Y-251690714D01*
X333867619Y-251357380D02*
X333867619Y-252214523D01*
X333915238Y-252309761D01*
X334010476Y-252357380D01*
X334105714Y-252357380D01*
X334581904Y-252357380D02*
X334486666Y-252309761D01*
X334439047Y-252262142D01*
X334391428Y-252166904D01*
X334391428Y-251881190D01*
X334439047Y-251785952D01*
X334486666Y-251738333D01*
X334581904Y-251690714D01*
X334724761Y-251690714D01*
X334820000Y-251738333D01*
X334867619Y-251785952D01*
X334915238Y-251881190D01*
X334915238Y-252166904D01*
X334867619Y-252262142D01*
X334820000Y-252309761D01*
X334724761Y-252357380D01*
X334581904Y-252357380D01*
X336105714Y-252357380D02*
X336105714Y-251357380D01*
X336534285Y-251452619D02*
X336581904Y-251405000D01*
X336677142Y-251357380D01*
X336915238Y-251357380D01*
X337010476Y-251405000D01*
X337058095Y-251452619D01*
X337105714Y-251547857D01*
X337105714Y-251643095D01*
X337058095Y-251785952D01*
X336486666Y-252357380D01*
X337105714Y-252357380D01*
X338105714Y-252262142D02*
X338058095Y-252309761D01*
X337915238Y-252357380D01*
X337820000Y-252357380D01*
X337677142Y-252309761D01*
X337581904Y-252214523D01*
X337534285Y-252119285D01*
X337486666Y-251928809D01*
X337486666Y-251785952D01*
X337534285Y-251595476D01*
X337581904Y-251500238D01*
X337677142Y-251405000D01*
X337820000Y-251357380D01*
X337915238Y-251357380D01*
X338058095Y-251405000D01*
X338105714Y-251452619D01*
X339296190Y-252357380D02*
X339296190Y-251357380D01*
X339772380Y-251690714D02*
X339772380Y-252357380D01*
X339772380Y-251785952D02*
X339820000Y-251738333D01*
X339915238Y-251690714D01*
X340058095Y-251690714D01*
X340153333Y-251738333D01*
X340200952Y-251833571D01*
X340200952Y-252357380D01*
X340534285Y-251690714D02*
X340915238Y-251690714D01*
X340677142Y-251357380D02*
X340677142Y-252214523D01*
X340724761Y-252309761D01*
X340820000Y-252357380D01*
X340915238Y-252357380D01*
X341629523Y-252309761D02*
X341534285Y-252357380D01*
X341343809Y-252357380D01*
X341248571Y-252309761D01*
X341200952Y-252214523D01*
X341200952Y-251833571D01*
X341248571Y-251738333D01*
X341343809Y-251690714D01*
X341534285Y-251690714D01*
X341629523Y-251738333D01*
X341677142Y-251833571D01*
X341677142Y-251928809D01*
X341200952Y-252024047D01*
X342105714Y-252357380D02*
X342105714Y-251690714D01*
X342105714Y-251881190D02*
X342153333Y-251785952D01*
X342200952Y-251738333D01*
X342296190Y-251690714D01*
X342391428Y-251690714D01*
X342581904Y-251690714D02*
X342962857Y-251690714D01*
X342724761Y-252357380D02*
X342724761Y-251500238D01*
X342772380Y-251405000D01*
X342867619Y-251357380D01*
X342962857Y-251357380D01*
X343724761Y-252357380D02*
X343724761Y-251833571D01*
X343677142Y-251738333D01*
X343581904Y-251690714D01*
X343391428Y-251690714D01*
X343296190Y-251738333D01*
X343724761Y-252309761D02*
X343629523Y-252357380D01*
X343391428Y-252357380D01*
X343296190Y-252309761D01*
X343248571Y-252214523D01*
X343248571Y-252119285D01*
X343296190Y-252024047D01*
X343391428Y-251976428D01*
X343629523Y-251976428D01*
X343724761Y-251928809D01*
X344629523Y-252309761D02*
X344534285Y-252357380D01*
X344343809Y-252357380D01*
X344248571Y-252309761D01*
X344200952Y-252262142D01*
X344153333Y-252166904D01*
X344153333Y-251881190D01*
X344200952Y-251785952D01*
X344248571Y-251738333D01*
X344343809Y-251690714D01*
X344534285Y-251690714D01*
X344629523Y-251738333D01*
X345439047Y-252309761D02*
X345343809Y-252357380D01*
X345153333Y-252357380D01*
X345058095Y-252309761D01*
X345010476Y-252214523D01*
X345010476Y-251833571D01*
X345058095Y-251738333D01*
X345153333Y-251690714D01*
X345343809Y-251690714D01*
X345439047Y-251738333D01*
X345486666Y-251833571D01*
X345486666Y-251928809D01*
X345010476Y-252024047D01*
X330796190Y-253245476D02*
X330700952Y-253197857D01*
X330510476Y-253197857D01*
X330415238Y-253245476D01*
X330320000Y-253340714D01*
X330272380Y-253435952D01*
X330272380Y-253626428D01*
X330320000Y-253721666D01*
X330415238Y-253816904D01*
X330510476Y-253864523D01*
X330700952Y-253864523D01*
X330796190Y-253816904D01*
X330605714Y-252864523D02*
X330367619Y-252912142D01*
X330129523Y-253055000D01*
X329986666Y-253293095D01*
X329939047Y-253531190D01*
X329986666Y-253769285D01*
X330129523Y-254007380D01*
X330367619Y-254150238D01*
X330605714Y-254197857D01*
X330843809Y-254150238D01*
X331081904Y-254007380D01*
X331224761Y-253769285D01*
X331272380Y-253531190D01*
X331224761Y-253293095D01*
X331081904Y-253055000D01*
X330843809Y-252912142D01*
X330605714Y-252864523D01*
X331653333Y-253102619D02*
X331700952Y-253055000D01*
X331796190Y-253007380D01*
X332034285Y-253007380D01*
X332129523Y-253055000D01*
X332177142Y-253102619D01*
X332224761Y-253197857D01*
X332224761Y-253293095D01*
X332177142Y-253435952D01*
X331605714Y-254007380D01*
X332224761Y-254007380D01*
X332843809Y-253007380D02*
X332939047Y-253007380D01*
X333034285Y-253055000D01*
X333081904Y-253102619D01*
X333129523Y-253197857D01*
X333177142Y-253388333D01*
X333177142Y-253626428D01*
X333129523Y-253816904D01*
X333081904Y-253912142D01*
X333034285Y-253959761D01*
X332939047Y-254007380D01*
X332843809Y-254007380D01*
X332748571Y-253959761D01*
X332700952Y-253912142D01*
X332653333Y-253816904D01*
X332605714Y-253626428D01*
X332605714Y-253388333D01*
X332653333Y-253197857D01*
X332700952Y-253102619D01*
X332748571Y-253055000D01*
X332843809Y-253007380D01*
X333558095Y-253102619D02*
X333605714Y-253055000D01*
X333700952Y-253007380D01*
X333939047Y-253007380D01*
X334034285Y-253055000D01*
X334081904Y-253102619D01*
X334129523Y-253197857D01*
X334129523Y-253293095D01*
X334081904Y-253435952D01*
X333510476Y-254007380D01*
X334129523Y-254007380D01*
X334748571Y-253007380D02*
X334843809Y-253007380D01*
X334939047Y-253055000D01*
X334986666Y-253102619D01*
X335034285Y-253197857D01*
X335081904Y-253388333D01*
X335081904Y-253626428D01*
X335034285Y-253816904D01*
X334986666Y-253912142D01*
X334939047Y-253959761D01*
X334843809Y-254007380D01*
X334748571Y-254007380D01*
X334653333Y-253959761D01*
X334605714Y-253912142D01*
X334558095Y-253816904D01*
X334510476Y-253626428D01*
X334510476Y-253388333D01*
X334558095Y-253197857D01*
X334605714Y-253102619D01*
X334653333Y-253055000D01*
X334748571Y-253007380D01*
X336272380Y-254007380D02*
X336272380Y-253007380D01*
X336510476Y-253007380D01*
X336653333Y-253055000D01*
X336748571Y-253150238D01*
X336796190Y-253245476D01*
X336843809Y-253435952D01*
X336843809Y-253578809D01*
X336796190Y-253769285D01*
X336748571Y-253864523D01*
X336653333Y-253959761D01*
X336510476Y-254007380D01*
X336272380Y-254007380D01*
X337415238Y-254007380D02*
X337320000Y-253959761D01*
X337272380Y-253912142D01*
X337224761Y-253816904D01*
X337224761Y-253531190D01*
X337272380Y-253435952D01*
X337320000Y-253388333D01*
X337415238Y-253340714D01*
X337558095Y-253340714D01*
X337653333Y-253388333D01*
X337700952Y-253435952D01*
X337748571Y-253531190D01*
X337748571Y-253816904D01*
X337700952Y-253912142D01*
X337653333Y-253959761D01*
X337558095Y-254007380D01*
X337415238Y-254007380D01*
X338177142Y-254007380D02*
X338177142Y-253340714D01*
X338177142Y-253435952D02*
X338224761Y-253388333D01*
X338320000Y-253340714D01*
X338462857Y-253340714D01*
X338558095Y-253388333D01*
X338605714Y-253483571D01*
X338605714Y-254007380D01*
X338605714Y-253483571D02*
X338653333Y-253388333D01*
X338748571Y-253340714D01*
X338891428Y-253340714D01*
X338986666Y-253388333D01*
X339034285Y-253483571D01*
X339034285Y-254007380D01*
X339510476Y-254007380D02*
X339510476Y-253340714D01*
X339510476Y-253007380D02*
X339462857Y-253055000D01*
X339510476Y-253102619D01*
X339558095Y-253055000D01*
X339510476Y-253007380D01*
X339510476Y-253102619D01*
X339986666Y-253340714D02*
X339986666Y-254007380D01*
X339986666Y-253435952D02*
X340034285Y-253388333D01*
X340129523Y-253340714D01*
X340272380Y-253340714D01*
X340367619Y-253388333D01*
X340415238Y-253483571D01*
X340415238Y-254007380D01*
X340891428Y-254007380D02*
X340891428Y-253340714D01*
X340891428Y-253007380D02*
X340843809Y-253055000D01*
X340891428Y-253102619D01*
X340939047Y-253055000D01*
X340891428Y-253007380D01*
X340891428Y-253102619D01*
X341367619Y-254007380D02*
X341367619Y-253007380D01*
X341462857Y-253626428D02*
X341748571Y-254007380D01*
X341748571Y-253340714D02*
X341367619Y-253721666D01*
X343272380Y-253483571D02*
X342939047Y-253483571D01*
X342939047Y-254007380D02*
X342939047Y-253007380D01*
X343415238Y-253007380D01*
X343939047Y-254007380D02*
X343843809Y-253959761D01*
X343796190Y-253912142D01*
X343748571Y-253816904D01*
X343748571Y-253531190D01*
X343796190Y-253435952D01*
X343843809Y-253388333D01*
X343939047Y-253340714D01*
X344081904Y-253340714D01*
X344177142Y-253388333D01*
X344224761Y-253435952D01*
X344272380Y-253531190D01*
X344272380Y-253816904D01*
X344224761Y-253912142D01*
X344177142Y-253959761D01*
X344081904Y-254007380D01*
X343939047Y-254007380D01*
X343843809Y-253007380D02*
X343891428Y-253055000D01*
X343843809Y-253102619D01*
X343796190Y-253055000D01*
X343843809Y-253007380D01*
X343843809Y-253102619D01*
X344224761Y-253007380D02*
X344272380Y-253055000D01*
X344224761Y-253102619D01*
X344177142Y-253055000D01*
X344224761Y-253007380D01*
X344224761Y-253102619D01*
X344700952Y-254007380D02*
X344700952Y-253007380D01*
X345129523Y-254007380D02*
X345129523Y-253483571D01*
X345081904Y-253388333D01*
X344986666Y-253340714D01*
X344843809Y-253340714D01*
X344748571Y-253388333D01*
X344700952Y-253435952D01*
X345748571Y-254007380D02*
X345653333Y-253959761D01*
X345605714Y-253864523D01*
X345605714Y-253007380D01*
D11*
X365990000Y-241300000D02*
X365220000Y-241300000D01*
X357910000Y-241300000D02*
X358680000Y-241300000D01*
X365220000Y-239930000D02*
X358680000Y-239930000D01*
X365220000Y-242670000D02*
X365220000Y-239930000D01*
X358680000Y-242670000D02*
X365220000Y-242670000D01*
X358680000Y-239930000D02*
X358680000Y-242670000D01*
X359410000Y-259080000D02*
X359410000Y-260350000D01*
X358140000Y-259080000D02*
X359410000Y-259080000D01*
X357760000Y-261460000D02*
X357760000Y-261847071D01*
X358520000Y-261460000D02*
X358520000Y-261847071D01*
X357760000Y-263932929D02*
X357760000Y-264330000D01*
X358520000Y-263932929D02*
X358520000Y-264330000D01*
X357860000Y-266990000D02*
X357860000Y-272990000D01*
X357980000Y-266990000D02*
X357980000Y-272990000D01*
X358100000Y-266990000D02*
X358100000Y-272990000D01*
X358220000Y-266990000D02*
X358220000Y-272990000D01*
X358340000Y-266990000D02*
X358340000Y-272990000D01*
X358460000Y-266990000D02*
X358460000Y-272990000D01*
X357760000Y-272990000D02*
X357760000Y-266990000D01*
X358520000Y-272990000D02*
X357760000Y-272990000D01*
X358520000Y-266990000D02*
X358520000Y-272990000D01*
X359470000Y-266990000D02*
X359470000Y-264330000D01*
X356810000Y-266990000D02*
X359470000Y-266990000D01*
X356810000Y-264330000D02*
X356810000Y-266990000D01*
X359470000Y-264330000D02*
X356810000Y-264330000D01*
X333510000Y-264240000D02*
X333510000Y-259000000D01*
X344750000Y-264240000D02*
X344750000Y-259000000D01*
X344750000Y-259000000D02*
X333510000Y-259000000D01*
X344750000Y-264240000D02*
X333510000Y-264240000D01*
X364600000Y-243780000D02*
X362950000Y-243780000D01*
X364600000Y-254060000D02*
X364600000Y-243780000D01*
X359300000Y-254060000D02*
X364600000Y-254060000D01*
X359300000Y-243780000D02*
X359300000Y-254060000D01*
X360950000Y-243780000D02*
X359300000Y-243780000D01*
X362950000Y-243780000D02*
G75*
G02X360950000Y-243780000I-1000000J0D01*
G01*
X355660000Y-255380000D02*
X355660000Y-253730000D01*
X319980000Y-255380000D02*
X355660000Y-255380000D01*
X319980000Y-250080000D02*
X319980000Y-255380000D01*
X355660000Y-250080000D02*
X319980000Y-250080000D01*
X355660000Y-251730000D02*
X355660000Y-250080000D01*
X355660000Y-253730000D02*
G75*
G02X355660000Y-251730000I0J1000000D01*
G01*
X357100000Y-237490000D02*
X356330000Y-237490000D01*
X349020000Y-237490000D02*
X349790000Y-237490000D01*
X356330000Y-236120000D02*
X349790000Y-236120000D01*
X356330000Y-238860000D02*
X356330000Y-236120000D01*
X349790000Y-238860000D02*
X356330000Y-238860000D01*
X349790000Y-236120000D02*
X349790000Y-238860000D01*
X349020000Y-233680000D02*
X349790000Y-233680000D01*
X357100000Y-233680000D02*
X356330000Y-233680000D01*
X349790000Y-235050000D02*
X356330000Y-235050000D01*
X349790000Y-232310000D02*
X349790000Y-235050000D01*
X356330000Y-232310000D02*
X349790000Y-232310000D01*
X356330000Y-235050000D02*
X356330000Y-232310000D01*
X319740000Y-240570000D02*
X320240000Y-240570000D01*
X319740000Y-239830000D02*
X319740000Y-240570000D01*
X344150000Y-231820000D02*
X344150000Y-232820000D01*
X341650000Y-231820000D02*
X341650000Y-232820000D01*
X341650000Y-232820000D02*
X344150000Y-232820000D01*
X341650000Y-231820000D02*
X344150000Y-231820000D01*
X341876000Y-237070000D02*
X341816000Y-237130000D01*
X343811000Y-235135000D02*
X343771000Y-235175000D01*
X342030000Y-237265000D02*
X341990000Y-237305000D01*
X343985000Y-235310000D02*
X343925000Y-235369000D01*
X339070000Y-231820000D02*
X339070000Y-232820000D01*
X336570000Y-231820000D02*
X336570000Y-232820000D01*
X336570000Y-232820000D02*
X339070000Y-232820000D01*
X336570000Y-231820000D02*
X339070000Y-231820000D01*
X336796000Y-237070000D02*
X336736000Y-237130000D01*
X338731000Y-235135000D02*
X338691000Y-235175000D01*
X336950000Y-237265000D02*
X336910000Y-237305000D01*
X338905000Y-235310000D02*
X338845000Y-235369000D01*
X333990000Y-231820000D02*
X333990000Y-232820000D01*
X331490000Y-231820000D02*
X331490000Y-232820000D01*
X331490000Y-232820000D02*
X333990000Y-232820000D01*
X331490000Y-231820000D02*
X333990000Y-231820000D01*
X331716000Y-237070000D02*
X331656000Y-237130000D01*
X333651000Y-235135000D02*
X333611000Y-235175000D01*
X331870000Y-237265000D02*
X331830000Y-237305000D01*
X333825000Y-235310000D02*
X333765000Y-235369000D01*
X328910000Y-231820000D02*
X328910000Y-232820000D01*
X326410000Y-231820000D02*
X326410000Y-232820000D01*
X326410000Y-232820000D02*
X328910000Y-232820000D01*
X326410000Y-231820000D02*
X328910000Y-231820000D01*
X326636000Y-237070000D02*
X326576000Y-237130000D01*
X328571000Y-235135000D02*
X328531000Y-235175000D01*
X326790000Y-237265000D02*
X326750000Y-237305000D01*
X328745000Y-235310000D02*
X328685000Y-235369000D01*
X323830000Y-231820000D02*
X323830000Y-232820000D01*
X321330000Y-231820000D02*
X321330000Y-232820000D01*
X321330000Y-232820000D02*
X323830000Y-232820000D01*
X321330000Y-231820000D02*
X323830000Y-231820000D01*
X345500000Y-231760000D02*
X345500000Y-240330000D01*
X319980000Y-231760000D02*
X319980000Y-240330000D01*
X319980000Y-240330000D02*
X345500000Y-240330000D01*
X319980000Y-231760000D02*
X345500000Y-231760000D01*
X319980000Y-233670000D02*
X345500000Y-233670000D01*
X319980000Y-238670000D02*
X345500000Y-238670000D01*
X319980000Y-239770000D02*
X345500000Y-239770000D01*
X344330000Y-236220000D02*
G75*
G03X344330000Y-236220000I-1430000J0D01*
G01*
X339250000Y-236220000D02*
G75*
G03X339250000Y-236220000I-1430000J0D01*
G01*
X334170000Y-236220000D02*
G75*
G03X334170000Y-236220000I-1430000J0D01*
G01*
X329090000Y-236220000D02*
G75*
G03X329090000Y-236220000I-1430000J0D01*
G01*
X322604280Y-237650940D02*
G75*
G02X321952000Y-237506000I-24280J1430940D01*
G01*
X321293389Y-236846746D02*
G75*
G02X321294000Y-235592000I1286611J626746D01*
G01*
X321952638Y-234934176D02*
G75*
G02X323207000Y-234934000I627362J-1285824D01*
G01*
X323865824Y-235592638D02*
G75*
G02X323866000Y-236847000I-1285824J-627362D01*
G01*
X323206871Y-237505275D02*
G75*
G02X322580000Y-237650000I-626871J1285275D01*
G01*
X327390000Y-243140000D02*
X327390000Y-244540000D01*
X326690000Y-245240000D02*
X326090000Y-245240000D01*
X325390000Y-244540000D02*
X325390000Y-243140000D01*
X326090000Y-242440000D02*
X326690000Y-242440000D01*
X326690000Y-242440000D02*
G75*
G02X327390000Y-243140000I0J-700000D01*
G01*
X325390000Y-243140000D02*
G75*
G02X326090000Y-242440000I700000J0D01*
G01*
X326090000Y-245240000D02*
G75*
G02X325390000Y-244540000I0J700000D01*
G01*
X327390000Y-244540000D02*
G75*
G02X326690000Y-245240000I-700000J0D01*
G01*
X331200000Y-243140000D02*
X331200000Y-244540000D01*
X330500000Y-245240000D02*
X329900000Y-245240000D01*
X329200000Y-244540000D02*
X329200000Y-243140000D01*
X329900000Y-242440000D02*
X330500000Y-242440000D01*
X330500000Y-242440000D02*
G75*
G02X331200000Y-243140000I0J-700000D01*
G01*
X329200000Y-243140000D02*
G75*
G02X329900000Y-242440000I700000J0D01*
G01*
X329900000Y-245240000D02*
G75*
G02X329200000Y-244540000I0J700000D01*
G01*
X331200000Y-244540000D02*
G75*
G02X330500000Y-245240000I-700000J0D01*
G01*
X335010000Y-243140000D02*
X335010000Y-244540000D01*
X334310000Y-245240000D02*
X333710000Y-245240000D01*
X333010000Y-244540000D02*
X333010000Y-243140000D01*
X333710000Y-242440000D02*
X334310000Y-242440000D01*
X334310000Y-242440000D02*
G75*
G02X335010000Y-243140000I0J-700000D01*
G01*
X333010000Y-243140000D02*
G75*
G02X333710000Y-242440000I700000J0D01*
G01*
X333710000Y-245240000D02*
G75*
G02X333010000Y-244540000I0J700000D01*
G01*
X335010000Y-244540000D02*
G75*
G02X334310000Y-245240000I-700000J0D01*
G01*
X338820000Y-243140000D02*
X338820000Y-244540000D01*
X338120000Y-245240000D02*
X337520000Y-245240000D01*
X336820000Y-244540000D02*
X336820000Y-243140000D01*
X337520000Y-242440000D02*
X338120000Y-242440000D01*
X338120000Y-242440000D02*
G75*
G02X338820000Y-243140000I0J-700000D01*
G01*
X336820000Y-243140000D02*
G75*
G02X337520000Y-242440000I700000J0D01*
G01*
X337520000Y-245240000D02*
G75*
G02X336820000Y-244540000I0J700000D01*
G01*
X338820000Y-244540000D02*
G75*
G02X338120000Y-245240000I-700000J0D01*
G01*
X342630000Y-243140000D02*
X342630000Y-244540000D01*
X341930000Y-245240000D02*
X341330000Y-245240000D01*
X340630000Y-244540000D02*
X340630000Y-243140000D01*
X341330000Y-242440000D02*
X341930000Y-242440000D01*
X341930000Y-242440000D02*
G75*
G02X342630000Y-243140000I0J-700000D01*
G01*
X340630000Y-243140000D02*
G75*
G02X341330000Y-242440000I700000J0D01*
G01*
X341330000Y-245240000D02*
G75*
G02X340630000Y-244540000I0J700000D01*
G01*
X342630000Y-244540000D02*
G75*
G02X341930000Y-245240000I-700000J0D01*
G01*
X346440000Y-243140000D02*
X346440000Y-244540000D01*
X345740000Y-245240000D02*
X345140000Y-245240000D01*
X344440000Y-244540000D02*
X344440000Y-243140000D01*
X345140000Y-242440000D02*
X345740000Y-242440000D01*
X345740000Y-242440000D02*
G75*
G02X346440000Y-243140000I0J-700000D01*
G01*
X344440000Y-243140000D02*
G75*
G02X345140000Y-242440000I700000J0D01*
G01*
X345140000Y-245240000D02*
G75*
G02X344440000Y-244540000I0J700000D01*
G01*
X346440000Y-244540000D02*
G75*
G02X345740000Y-245240000I-700000J0D01*
G01*
X350250000Y-243140000D02*
X350250000Y-244540000D01*
X349550000Y-245240000D02*
X348950000Y-245240000D01*
X348250000Y-244540000D02*
X348250000Y-243140000D01*
X348950000Y-242440000D02*
X349550000Y-242440000D01*
X349550000Y-242440000D02*
G75*
G02X350250000Y-243140000I0J-700000D01*
G01*
X348250000Y-243140000D02*
G75*
G02X348950000Y-242440000I700000J0D01*
G01*
X348950000Y-245240000D02*
G75*
G02X348250000Y-244540000I0J700000D01*
G01*
X350250000Y-244540000D02*
G75*
G02X349550000Y-245240000I-700000J0D01*
G01*
X354060000Y-243140000D02*
X354060000Y-244540000D01*
X353360000Y-245240000D02*
X352760000Y-245240000D01*
X352060000Y-244540000D02*
X352060000Y-243140000D01*
X352760000Y-242440000D02*
X353360000Y-242440000D01*
X353360000Y-242440000D02*
G75*
G02X354060000Y-243140000I0J-700000D01*
G01*
X352060000Y-243140000D02*
G75*
G02X352760000Y-242440000I700000J0D01*
G01*
X352760000Y-245240000D02*
G75*
G02X352060000Y-244540000I0J700000D01*
G01*
X354060000Y-244540000D02*
G75*
G02X353360000Y-245240000I-700000J0D01*
G01*
X322580000Y-259080000D02*
X322580000Y-260350000D01*
X321310000Y-259080000D02*
X322580000Y-259080000D01*
X320930000Y-261460000D02*
X320930000Y-261847071D01*
X321690000Y-261460000D02*
X321690000Y-261847071D01*
X320930000Y-263932929D02*
X320930000Y-264330000D01*
X321690000Y-263932929D02*
X321690000Y-264330000D01*
X321030000Y-266990000D02*
X321030000Y-272990000D01*
X321150000Y-266990000D02*
X321150000Y-272990000D01*
X321270000Y-266990000D02*
X321270000Y-272990000D01*
X321390000Y-266990000D02*
X321390000Y-272990000D01*
X321510000Y-266990000D02*
X321510000Y-272990000D01*
X321630000Y-266990000D02*
X321630000Y-272990000D01*
X320930000Y-272990000D02*
X320930000Y-266990000D01*
X321690000Y-272990000D02*
X320930000Y-272990000D01*
X321690000Y-266990000D02*
X321690000Y-272990000D01*
X322640000Y-266990000D02*
X322640000Y-264330000D01*
X319980000Y-266990000D02*
X322640000Y-266990000D01*
X319980000Y-264330000D02*
X319980000Y-266990000D01*
X322640000Y-264330000D02*
X319980000Y-264330000D01*
D10*
X361783333Y-239382380D02*
X361450000Y-238906190D01*
X361211904Y-239382380D02*
X361211904Y-238382380D01*
X361592857Y-238382380D01*
X361688095Y-238430000D01*
X361735714Y-238477619D01*
X361783333Y-238572857D01*
X361783333Y-238715714D01*
X361735714Y-238810952D01*
X361688095Y-238858571D01*
X361592857Y-238906190D01*
X361211904Y-238906190D01*
X362116666Y-238382380D02*
X362735714Y-238382380D01*
X362402380Y-238763333D01*
X362545238Y-238763333D01*
X362640476Y-238810952D01*
X362688095Y-238858571D01*
X362735714Y-238953809D01*
X362735714Y-239191904D01*
X362688095Y-239287142D01*
X362640476Y-239334761D01*
X362545238Y-239382380D01*
X362259523Y-239382380D01*
X362164285Y-239334761D01*
X362116666Y-239287142D01*
X360862380Y-266612380D02*
X359862380Y-266612380D01*
X359862380Y-266231428D01*
X359910000Y-266136190D01*
X359957619Y-266088571D01*
X360052857Y-266040952D01*
X360195714Y-266040952D01*
X360290952Y-266088571D01*
X360338571Y-266136190D01*
X360386190Y-266231428D01*
X360386190Y-266612380D01*
X360862380Y-265469523D02*
X360814761Y-265564761D01*
X360767142Y-265612380D01*
X360671904Y-265660000D01*
X360386190Y-265660000D01*
X360290952Y-265612380D01*
X360243333Y-265564761D01*
X360195714Y-265469523D01*
X360195714Y-265326666D01*
X360243333Y-265231428D01*
X360290952Y-265183809D01*
X360386190Y-265136190D01*
X360671904Y-265136190D01*
X360767142Y-265183809D01*
X360814761Y-265231428D01*
X360862380Y-265326666D01*
X360862380Y-265469523D01*
X360195714Y-264802857D02*
X360862380Y-264612380D01*
X360386190Y-264421904D01*
X360862380Y-264231428D01*
X360195714Y-264040952D01*
X360814761Y-263279047D02*
X360862380Y-263374285D01*
X360862380Y-263564761D01*
X360814761Y-263660000D01*
X360719523Y-263707619D01*
X360338571Y-263707619D01*
X360243333Y-263660000D01*
X360195714Y-263564761D01*
X360195714Y-263374285D01*
X360243333Y-263279047D01*
X360338571Y-263231428D01*
X360433809Y-263231428D01*
X360529047Y-263707619D01*
X360862380Y-262802857D02*
X360195714Y-262802857D01*
X360386190Y-262802857D02*
X360290952Y-262755238D01*
X360243333Y-262707619D01*
X360195714Y-262612380D01*
X360195714Y-262517142D01*
X360862380Y-261660000D02*
X360862380Y-262231428D01*
X360862380Y-261945714D02*
X359862380Y-261945714D01*
X360005238Y-262040952D01*
X360100476Y-262136190D01*
X360148095Y-262231428D01*
X338963333Y-265727142D02*
X338915714Y-265774761D01*
X338772857Y-265822380D01*
X338677619Y-265822380D01*
X338534761Y-265774761D01*
X338439523Y-265679523D01*
X338391904Y-265584285D01*
X338344285Y-265393809D01*
X338344285Y-265250952D01*
X338391904Y-265060476D01*
X338439523Y-264965238D01*
X338534761Y-264870000D01*
X338677619Y-264822380D01*
X338772857Y-264822380D01*
X338915714Y-264870000D01*
X338963333Y-264917619D01*
X339915714Y-265822380D02*
X339344285Y-265822380D01*
X339630000Y-265822380D02*
X339630000Y-264822380D01*
X339534761Y-264965238D01*
X339439523Y-265060476D01*
X339344285Y-265108095D01*
X328168095Y-258842380D02*
X328168095Y-257842380D01*
X328168095Y-258318571D02*
X328739523Y-258318571D01*
X328739523Y-258842380D02*
X328739523Y-257842380D01*
X329120476Y-257842380D02*
X329739523Y-257842380D01*
X329406190Y-258223333D01*
X329549047Y-258223333D01*
X329644285Y-258270952D01*
X329691904Y-258318571D01*
X329739523Y-258413809D01*
X329739523Y-258651904D01*
X329691904Y-258747142D01*
X329644285Y-258794761D01*
X329549047Y-258842380D01*
X329263333Y-258842380D01*
X329168095Y-258794761D01*
X329120476Y-258747142D01*
X363728095Y-258842380D02*
X363728095Y-257842380D01*
X363728095Y-258318571D02*
X364299523Y-258318571D01*
X364299523Y-258842380D02*
X364299523Y-257842380D01*
X364728095Y-257937619D02*
X364775714Y-257890000D01*
X364870952Y-257842380D01*
X365109047Y-257842380D01*
X365204285Y-257890000D01*
X365251904Y-257937619D01*
X365299523Y-258032857D01*
X365299523Y-258128095D01*
X365251904Y-258270952D01*
X364680476Y-258842380D01*
X365299523Y-258842380D01*
X363728095Y-239902380D02*
X363728095Y-238902380D01*
X363728095Y-239378571D02*
X364299523Y-239378571D01*
X364299523Y-239902380D02*
X364299523Y-238902380D01*
X365299523Y-239902380D02*
X364728095Y-239902380D01*
X365013809Y-239902380D02*
X365013809Y-238902380D01*
X364918571Y-239045238D01*
X364823333Y-239140476D01*
X364728095Y-239188095D01*
X361188095Y-242232380D02*
X361188095Y-243041904D01*
X361235714Y-243137142D01*
X361283333Y-243184761D01*
X361378571Y-243232380D01*
X361569047Y-243232380D01*
X361664285Y-243184761D01*
X361711904Y-243137142D01*
X361759523Y-243041904D01*
X361759523Y-242232380D01*
X362188095Y-242327619D02*
X362235714Y-242280000D01*
X362330952Y-242232380D01*
X362569047Y-242232380D01*
X362664285Y-242280000D01*
X362711904Y-242327619D01*
X362759523Y-242422857D01*
X362759523Y-242518095D01*
X362711904Y-242660952D01*
X362140476Y-243232380D01*
X362759523Y-243232380D01*
X356112380Y-253491904D02*
X356921904Y-253491904D01*
X357017142Y-253444285D01*
X357064761Y-253396666D01*
X357112380Y-253301428D01*
X357112380Y-253110952D01*
X357064761Y-253015714D01*
X357017142Y-252968095D01*
X356921904Y-252920476D01*
X356112380Y-252920476D01*
X357112380Y-251920476D02*
X357112380Y-252491904D01*
X357112380Y-252206190D02*
X356112380Y-252206190D01*
X356255238Y-252301428D01*
X356350476Y-252396666D01*
X356398095Y-252491904D01*
X352893333Y-235572380D02*
X352560000Y-235096190D01*
X352321904Y-235572380D02*
X352321904Y-234572380D01*
X352702857Y-234572380D01*
X352798095Y-234620000D01*
X352845714Y-234667619D01*
X352893333Y-234762857D01*
X352893333Y-234905714D01*
X352845714Y-235000952D01*
X352798095Y-235048571D01*
X352702857Y-235096190D01*
X352321904Y-235096190D01*
X353274285Y-234667619D02*
X353321904Y-234620000D01*
X353417142Y-234572380D01*
X353655238Y-234572380D01*
X353750476Y-234620000D01*
X353798095Y-234667619D01*
X353845714Y-234762857D01*
X353845714Y-234858095D01*
X353798095Y-235000952D01*
X353226666Y-235572380D01*
X353845714Y-235572380D01*
X352893333Y-239212380D02*
X352560000Y-238736190D01*
X352321904Y-239212380D02*
X352321904Y-238212380D01*
X352702857Y-238212380D01*
X352798095Y-238260000D01*
X352845714Y-238307619D01*
X352893333Y-238402857D01*
X352893333Y-238545714D01*
X352845714Y-238640952D01*
X352798095Y-238688571D01*
X352702857Y-238736190D01*
X352321904Y-238736190D01*
X353845714Y-239212380D02*
X353274285Y-239212380D01*
X353560000Y-239212380D02*
X353560000Y-238212380D01*
X353464761Y-238355238D01*
X353369523Y-238450476D01*
X353274285Y-238498095D01*
X319341904Y-241657142D02*
X319294285Y-241704761D01*
X319151428Y-241752380D01*
X319056190Y-241752380D01*
X318913333Y-241704761D01*
X318818095Y-241609523D01*
X318770476Y-241514285D01*
X318722857Y-241323809D01*
X318722857Y-241180952D01*
X318770476Y-240990476D01*
X318818095Y-240895238D01*
X318913333Y-240800000D01*
X319056190Y-240752380D01*
X319151428Y-240752380D01*
X319294285Y-240800000D01*
X319341904Y-240847619D01*
X319722857Y-241466666D02*
X320199047Y-241466666D01*
X319627619Y-241752380D02*
X319960952Y-240752380D01*
X320294285Y-241752380D01*
X320627619Y-241752380D02*
X320627619Y-240752380D01*
X321199047Y-241752380D01*
X321199047Y-240752380D01*
X321675238Y-241371428D02*
X322437142Y-241371428D01*
X323246666Y-241228571D02*
X323389523Y-241276190D01*
X323437142Y-241323809D01*
X323484761Y-241419047D01*
X323484761Y-241561904D01*
X323437142Y-241657142D01*
X323389523Y-241704761D01*
X323294285Y-241752380D01*
X322913333Y-241752380D01*
X322913333Y-240752380D01*
X323246666Y-240752380D01*
X323341904Y-240800000D01*
X323389523Y-240847619D01*
X323437142Y-240942857D01*
X323437142Y-241038095D01*
X323389523Y-241133333D01*
X323341904Y-241180952D01*
X323246666Y-241228571D01*
X322913333Y-241228571D01*
X323913333Y-240752380D02*
X323913333Y-241561904D01*
X323960952Y-241657142D01*
X324008571Y-241704761D01*
X324103809Y-241752380D01*
X324294285Y-241752380D01*
X324389523Y-241704761D01*
X324437142Y-241657142D01*
X324484761Y-241561904D01*
X324484761Y-240752380D01*
X324913333Y-241704761D02*
X325056190Y-241752380D01*
X325294285Y-241752380D01*
X325389523Y-241704761D01*
X325437142Y-241657142D01*
X325484761Y-241561904D01*
X325484761Y-241466666D01*
X325437142Y-241371428D01*
X325389523Y-241323809D01*
X325294285Y-241276190D01*
X325103809Y-241228571D01*
X325008571Y-241180952D01*
X324960952Y-241133333D01*
X324913333Y-241038095D01*
X324913333Y-240942857D01*
X324960952Y-240847619D01*
X325008571Y-240800000D01*
X325103809Y-240752380D01*
X325341904Y-240752380D01*
X325484761Y-240800000D01*
X326437142Y-241752380D02*
X325865714Y-241752380D01*
X326151428Y-241752380D02*
X326151428Y-240752380D01*
X326056190Y-240895238D01*
X325960952Y-240990476D01*
X325865714Y-241038095D01*
X328547142Y-246387619D02*
X328594761Y-246435238D01*
X328642380Y-246578095D01*
X328642380Y-246673333D01*
X328594761Y-246816190D01*
X328499523Y-246911428D01*
X328404285Y-246959047D01*
X328213809Y-247006666D01*
X328070952Y-247006666D01*
X327880476Y-246959047D01*
X327785238Y-246911428D01*
X327690000Y-246816190D01*
X327642380Y-246673333D01*
X327642380Y-246578095D01*
X327690000Y-246435238D01*
X327737619Y-246387619D01*
X328356666Y-246006666D02*
X328356666Y-245530476D01*
X328642380Y-246101904D02*
X327642380Y-245768571D01*
X328642380Y-245435238D01*
X328642380Y-245101904D02*
X327642380Y-245101904D01*
X328642380Y-244530476D01*
X327642380Y-244530476D01*
X328356666Y-244101904D02*
X328356666Y-243625714D01*
X328642380Y-244197142D02*
X327642380Y-243863809D01*
X328642380Y-243530476D01*
X328642380Y-243197142D02*
X327642380Y-243197142D01*
X327642380Y-242959047D01*
X327690000Y-242816190D01*
X327785238Y-242720952D01*
X327880476Y-242673333D01*
X328070952Y-242625714D01*
X328213809Y-242625714D01*
X328404285Y-242673333D01*
X328499523Y-242720952D01*
X328594761Y-242816190D01*
X328642380Y-242959047D01*
X328642380Y-243197142D01*
X328642380Y-241625714D02*
X328166190Y-241959047D01*
X328642380Y-242197142D02*
X327642380Y-242197142D01*
X327642380Y-241816190D01*
X327690000Y-241720952D01*
X327737619Y-241673333D01*
X327832857Y-241625714D01*
X327975714Y-241625714D01*
X328070952Y-241673333D01*
X328118571Y-241720952D01*
X328166190Y-241816190D01*
X328166190Y-242197142D01*
X327642380Y-241292380D02*
X327642380Y-240625714D01*
X328642380Y-241054285D01*
X332357142Y-246387619D02*
X332404761Y-246435238D01*
X332452380Y-246578095D01*
X332452380Y-246673333D01*
X332404761Y-246816190D01*
X332309523Y-246911428D01*
X332214285Y-246959047D01*
X332023809Y-247006666D01*
X331880952Y-247006666D01*
X331690476Y-246959047D01*
X331595238Y-246911428D01*
X331500000Y-246816190D01*
X331452380Y-246673333D01*
X331452380Y-246578095D01*
X331500000Y-246435238D01*
X331547619Y-246387619D01*
X332166666Y-246006666D02*
X332166666Y-245530476D01*
X332452380Y-246101904D02*
X331452380Y-245768571D01*
X332452380Y-245435238D01*
X332452380Y-245101904D02*
X331452380Y-245101904D01*
X332452380Y-244530476D01*
X331452380Y-244530476D01*
X332166666Y-244101904D02*
X332166666Y-243625714D01*
X332452380Y-244197142D02*
X331452380Y-243863809D01*
X332452380Y-243530476D01*
X332452380Y-243197142D02*
X331452380Y-243197142D01*
X331452380Y-242959047D01*
X331500000Y-242816190D01*
X331595238Y-242720952D01*
X331690476Y-242673333D01*
X331880952Y-242625714D01*
X332023809Y-242625714D01*
X332214285Y-242673333D01*
X332309523Y-242720952D01*
X332404761Y-242816190D01*
X332452380Y-242959047D01*
X332452380Y-243197142D01*
X332452380Y-241625714D02*
X331976190Y-241959047D01*
X332452380Y-242197142D02*
X331452380Y-242197142D01*
X331452380Y-241816190D01*
X331500000Y-241720952D01*
X331547619Y-241673333D01*
X331642857Y-241625714D01*
X331785714Y-241625714D01*
X331880952Y-241673333D01*
X331928571Y-241720952D01*
X331976190Y-241816190D01*
X331976190Y-242197142D01*
X331452380Y-240768571D02*
X331452380Y-240959047D01*
X331500000Y-241054285D01*
X331547619Y-241101904D01*
X331690476Y-241197142D01*
X331880952Y-241244761D01*
X332261904Y-241244761D01*
X332357142Y-241197142D01*
X332404761Y-241149523D01*
X332452380Y-241054285D01*
X332452380Y-240863809D01*
X332404761Y-240768571D01*
X332357142Y-240720952D01*
X332261904Y-240673333D01*
X332023809Y-240673333D01*
X331928571Y-240720952D01*
X331880952Y-240768571D01*
X331833333Y-240863809D01*
X331833333Y-241054285D01*
X331880952Y-241149523D01*
X331928571Y-241197142D01*
X332023809Y-241244761D01*
X336167142Y-246387619D02*
X336214761Y-246435238D01*
X336262380Y-246578095D01*
X336262380Y-246673333D01*
X336214761Y-246816190D01*
X336119523Y-246911428D01*
X336024285Y-246959047D01*
X335833809Y-247006666D01*
X335690952Y-247006666D01*
X335500476Y-246959047D01*
X335405238Y-246911428D01*
X335310000Y-246816190D01*
X335262380Y-246673333D01*
X335262380Y-246578095D01*
X335310000Y-246435238D01*
X335357619Y-246387619D01*
X335976666Y-246006666D02*
X335976666Y-245530476D01*
X336262380Y-246101904D02*
X335262380Y-245768571D01*
X336262380Y-245435238D01*
X336262380Y-245101904D02*
X335262380Y-245101904D01*
X336262380Y-244530476D01*
X335262380Y-244530476D01*
X335976666Y-244101904D02*
X335976666Y-243625714D01*
X336262380Y-244197142D02*
X335262380Y-243863809D01*
X336262380Y-243530476D01*
X336262380Y-243197142D02*
X335262380Y-243197142D01*
X335262380Y-242959047D01*
X335310000Y-242816190D01*
X335405238Y-242720952D01*
X335500476Y-242673333D01*
X335690952Y-242625714D01*
X335833809Y-242625714D01*
X336024285Y-242673333D01*
X336119523Y-242720952D01*
X336214761Y-242816190D01*
X336262380Y-242959047D01*
X336262380Y-243197142D01*
X336262380Y-241625714D02*
X335786190Y-241959047D01*
X336262380Y-242197142D02*
X335262380Y-242197142D01*
X335262380Y-241816190D01*
X335310000Y-241720952D01*
X335357619Y-241673333D01*
X335452857Y-241625714D01*
X335595714Y-241625714D01*
X335690952Y-241673333D01*
X335738571Y-241720952D01*
X335786190Y-241816190D01*
X335786190Y-242197142D01*
X335262380Y-240720952D02*
X335262380Y-241197142D01*
X335738571Y-241244761D01*
X335690952Y-241197142D01*
X335643333Y-241101904D01*
X335643333Y-240863809D01*
X335690952Y-240768571D01*
X335738571Y-240720952D01*
X335833809Y-240673333D01*
X336071904Y-240673333D01*
X336167142Y-240720952D01*
X336214761Y-240768571D01*
X336262380Y-240863809D01*
X336262380Y-241101904D01*
X336214761Y-241197142D01*
X336167142Y-241244761D01*
X339977142Y-246387619D02*
X340024761Y-246435238D01*
X340072380Y-246578095D01*
X340072380Y-246673333D01*
X340024761Y-246816190D01*
X339929523Y-246911428D01*
X339834285Y-246959047D01*
X339643809Y-247006666D01*
X339500952Y-247006666D01*
X339310476Y-246959047D01*
X339215238Y-246911428D01*
X339120000Y-246816190D01*
X339072380Y-246673333D01*
X339072380Y-246578095D01*
X339120000Y-246435238D01*
X339167619Y-246387619D01*
X339786666Y-246006666D02*
X339786666Y-245530476D01*
X340072380Y-246101904D02*
X339072380Y-245768571D01*
X340072380Y-245435238D01*
X340072380Y-245101904D02*
X339072380Y-245101904D01*
X340072380Y-244530476D01*
X339072380Y-244530476D01*
X339786666Y-244101904D02*
X339786666Y-243625714D01*
X340072380Y-244197142D02*
X339072380Y-243863809D01*
X340072380Y-243530476D01*
X340072380Y-243197142D02*
X339072380Y-243197142D01*
X339072380Y-242959047D01*
X339120000Y-242816190D01*
X339215238Y-242720952D01*
X339310476Y-242673333D01*
X339500952Y-242625714D01*
X339643809Y-242625714D01*
X339834285Y-242673333D01*
X339929523Y-242720952D01*
X340024761Y-242816190D01*
X340072380Y-242959047D01*
X340072380Y-243197142D01*
X340072380Y-241625714D02*
X339596190Y-241959047D01*
X340072380Y-242197142D02*
X339072380Y-242197142D01*
X339072380Y-241816190D01*
X339120000Y-241720952D01*
X339167619Y-241673333D01*
X339262857Y-241625714D01*
X339405714Y-241625714D01*
X339500952Y-241673333D01*
X339548571Y-241720952D01*
X339596190Y-241816190D01*
X339596190Y-242197142D01*
X339405714Y-240768571D02*
X340072380Y-240768571D01*
X339024761Y-241006666D02*
X339739047Y-241244761D01*
X339739047Y-240625714D01*
X343787142Y-246387619D02*
X343834761Y-246435238D01*
X343882380Y-246578095D01*
X343882380Y-246673333D01*
X343834761Y-246816190D01*
X343739523Y-246911428D01*
X343644285Y-246959047D01*
X343453809Y-247006666D01*
X343310952Y-247006666D01*
X343120476Y-246959047D01*
X343025238Y-246911428D01*
X342930000Y-246816190D01*
X342882380Y-246673333D01*
X342882380Y-246578095D01*
X342930000Y-246435238D01*
X342977619Y-246387619D01*
X343596666Y-246006666D02*
X343596666Y-245530476D01*
X343882380Y-246101904D02*
X342882380Y-245768571D01*
X343882380Y-245435238D01*
X343882380Y-245101904D02*
X342882380Y-245101904D01*
X343882380Y-244530476D01*
X342882380Y-244530476D01*
X343596666Y-244101904D02*
X343596666Y-243625714D01*
X343882380Y-244197142D02*
X342882380Y-243863809D01*
X343882380Y-243530476D01*
X343882380Y-243197142D02*
X342882380Y-243197142D01*
X342882380Y-242959047D01*
X342930000Y-242816190D01*
X343025238Y-242720952D01*
X343120476Y-242673333D01*
X343310952Y-242625714D01*
X343453809Y-242625714D01*
X343644285Y-242673333D01*
X343739523Y-242720952D01*
X343834761Y-242816190D01*
X343882380Y-242959047D01*
X343882380Y-243197142D01*
X343882380Y-241625714D02*
X343406190Y-241959047D01*
X343882380Y-242197142D02*
X342882380Y-242197142D01*
X342882380Y-241816190D01*
X342930000Y-241720952D01*
X342977619Y-241673333D01*
X343072857Y-241625714D01*
X343215714Y-241625714D01*
X343310952Y-241673333D01*
X343358571Y-241720952D01*
X343406190Y-241816190D01*
X343406190Y-242197142D01*
X342882380Y-241292380D02*
X342882380Y-240673333D01*
X343263333Y-241006666D01*
X343263333Y-240863809D01*
X343310952Y-240768571D01*
X343358571Y-240720952D01*
X343453809Y-240673333D01*
X343691904Y-240673333D01*
X343787142Y-240720952D01*
X343834761Y-240768571D01*
X343882380Y-240863809D01*
X343882380Y-241149523D01*
X343834761Y-241244761D01*
X343787142Y-241292380D01*
X347597142Y-246387619D02*
X347644761Y-246435238D01*
X347692380Y-246578095D01*
X347692380Y-246673333D01*
X347644761Y-246816190D01*
X347549523Y-246911428D01*
X347454285Y-246959047D01*
X347263809Y-247006666D01*
X347120952Y-247006666D01*
X346930476Y-246959047D01*
X346835238Y-246911428D01*
X346740000Y-246816190D01*
X346692380Y-246673333D01*
X346692380Y-246578095D01*
X346740000Y-246435238D01*
X346787619Y-246387619D01*
X347406666Y-246006666D02*
X347406666Y-245530476D01*
X347692380Y-246101904D02*
X346692380Y-245768571D01*
X347692380Y-245435238D01*
X347692380Y-245101904D02*
X346692380Y-245101904D01*
X347692380Y-244530476D01*
X346692380Y-244530476D01*
X347406666Y-244101904D02*
X347406666Y-243625714D01*
X347692380Y-244197142D02*
X346692380Y-243863809D01*
X347692380Y-243530476D01*
X347692380Y-243197142D02*
X346692380Y-243197142D01*
X346692380Y-242959047D01*
X346740000Y-242816190D01*
X346835238Y-242720952D01*
X346930476Y-242673333D01*
X347120952Y-242625714D01*
X347263809Y-242625714D01*
X347454285Y-242673333D01*
X347549523Y-242720952D01*
X347644761Y-242816190D01*
X347692380Y-242959047D01*
X347692380Y-243197142D01*
X347692380Y-241625714D02*
X347216190Y-241959047D01*
X347692380Y-242197142D02*
X346692380Y-242197142D01*
X346692380Y-241816190D01*
X346740000Y-241720952D01*
X346787619Y-241673333D01*
X346882857Y-241625714D01*
X347025714Y-241625714D01*
X347120952Y-241673333D01*
X347168571Y-241720952D01*
X347216190Y-241816190D01*
X347216190Y-242197142D01*
X346787619Y-241244761D02*
X346740000Y-241197142D01*
X346692380Y-241101904D01*
X346692380Y-240863809D01*
X346740000Y-240768571D01*
X346787619Y-240720952D01*
X346882857Y-240673333D01*
X346978095Y-240673333D01*
X347120952Y-240720952D01*
X347692380Y-241292380D01*
X347692380Y-240673333D01*
X351407142Y-246387619D02*
X351454761Y-246435238D01*
X351502380Y-246578095D01*
X351502380Y-246673333D01*
X351454761Y-246816190D01*
X351359523Y-246911428D01*
X351264285Y-246959047D01*
X351073809Y-247006666D01*
X350930952Y-247006666D01*
X350740476Y-246959047D01*
X350645238Y-246911428D01*
X350550000Y-246816190D01*
X350502380Y-246673333D01*
X350502380Y-246578095D01*
X350550000Y-246435238D01*
X350597619Y-246387619D01*
X351216666Y-246006666D02*
X351216666Y-245530476D01*
X351502380Y-246101904D02*
X350502380Y-245768571D01*
X351502380Y-245435238D01*
X351502380Y-245101904D02*
X350502380Y-245101904D01*
X351502380Y-244530476D01*
X350502380Y-244530476D01*
X351216666Y-244101904D02*
X351216666Y-243625714D01*
X351502380Y-244197142D02*
X350502380Y-243863809D01*
X351502380Y-243530476D01*
X351502380Y-243197142D02*
X350502380Y-243197142D01*
X350502380Y-242959047D01*
X350550000Y-242816190D01*
X350645238Y-242720952D01*
X350740476Y-242673333D01*
X350930952Y-242625714D01*
X351073809Y-242625714D01*
X351264285Y-242673333D01*
X351359523Y-242720952D01*
X351454761Y-242816190D01*
X351502380Y-242959047D01*
X351502380Y-243197142D01*
X351502380Y-241625714D02*
X351026190Y-241959047D01*
X351502380Y-242197142D02*
X350502380Y-242197142D01*
X350502380Y-241816190D01*
X350550000Y-241720952D01*
X350597619Y-241673333D01*
X350692857Y-241625714D01*
X350835714Y-241625714D01*
X350930952Y-241673333D01*
X350978571Y-241720952D01*
X351026190Y-241816190D01*
X351026190Y-242197142D01*
X351502380Y-240673333D02*
X351502380Y-241244761D01*
X351502380Y-240959047D02*
X350502380Y-240959047D01*
X350645238Y-241054285D01*
X350740476Y-241149523D01*
X350788095Y-241244761D01*
X355217142Y-246387619D02*
X355264761Y-246435238D01*
X355312380Y-246578095D01*
X355312380Y-246673333D01*
X355264761Y-246816190D01*
X355169523Y-246911428D01*
X355074285Y-246959047D01*
X354883809Y-247006666D01*
X354740952Y-247006666D01*
X354550476Y-246959047D01*
X354455238Y-246911428D01*
X354360000Y-246816190D01*
X354312380Y-246673333D01*
X354312380Y-246578095D01*
X354360000Y-246435238D01*
X354407619Y-246387619D01*
X355026666Y-246006666D02*
X355026666Y-245530476D01*
X355312380Y-246101904D02*
X354312380Y-245768571D01*
X355312380Y-245435238D01*
X355312380Y-245101904D02*
X354312380Y-245101904D01*
X355312380Y-244530476D01*
X354312380Y-244530476D01*
X355026666Y-244101904D02*
X355026666Y-243625714D01*
X355312380Y-244197142D02*
X354312380Y-243863809D01*
X355312380Y-243530476D01*
X355312380Y-243197142D02*
X354312380Y-243197142D01*
X354312380Y-242959047D01*
X354360000Y-242816190D01*
X354455238Y-242720952D01*
X354550476Y-242673333D01*
X354740952Y-242625714D01*
X354883809Y-242625714D01*
X355074285Y-242673333D01*
X355169523Y-242720952D01*
X355264761Y-242816190D01*
X355312380Y-242959047D01*
X355312380Y-243197142D01*
X355312380Y-241625714D02*
X354836190Y-241959047D01*
X355312380Y-242197142D02*
X354312380Y-242197142D01*
X354312380Y-241816190D01*
X354360000Y-241720952D01*
X354407619Y-241673333D01*
X354502857Y-241625714D01*
X354645714Y-241625714D01*
X354740952Y-241673333D01*
X354788571Y-241720952D01*
X354836190Y-241816190D01*
X354836190Y-242197142D01*
X354312380Y-241006666D02*
X354312380Y-240911428D01*
X354360000Y-240816190D01*
X354407619Y-240768571D01*
X354502857Y-240720952D01*
X354693333Y-240673333D01*
X354931428Y-240673333D01*
X355121904Y-240720952D01*
X355217142Y-240768571D01*
X355264761Y-240816190D01*
X355312380Y-240911428D01*
X355312380Y-241006666D01*
X355264761Y-241101904D01*
X355217142Y-241149523D01*
X355121904Y-241197142D01*
X354931428Y-241244761D01*
X354693333Y-241244761D01*
X354502857Y-241197142D01*
X354407619Y-241149523D01*
X354360000Y-241101904D01*
X354312380Y-241006666D01*
X324032380Y-265612380D02*
X323032380Y-265612380D01*
X323127619Y-265183809D02*
X323080000Y-265136190D01*
X323032380Y-265040952D01*
X323032380Y-264802857D01*
X323080000Y-264707619D01*
X323127619Y-264660000D01*
X323222857Y-264612380D01*
X323318095Y-264612380D01*
X323460952Y-264660000D01*
X324032380Y-265231428D01*
X324032380Y-264612380D01*
X323937142Y-263612380D02*
X323984761Y-263660000D01*
X324032380Y-263802857D01*
X324032380Y-263898095D01*
X323984761Y-264040952D01*
X323889523Y-264136190D01*
X323794285Y-264183809D01*
X323603809Y-264231428D01*
X323460952Y-264231428D01*
X323270476Y-264183809D01*
X323175238Y-264136190D01*
X323080000Y-264040952D01*
X323032380Y-263898095D01*
X323032380Y-263802857D01*
X323080000Y-263660000D01*
X323127619Y-263612380D01*
X324032380Y-262660000D02*
X324032380Y-263231428D01*
X324032380Y-262945714D02*
X323032380Y-262945714D01*
X323175238Y-263040952D01*
X323270476Y-263136190D01*
X323318095Y-263231428D01*
M02*
