G04 #@! TF.GenerationSoftware,KiCad,Pcbnew,(5.1.5)-3*
G04 #@! TF.CreationDate,2020-06-02T00:14:17+02:00*
G04 #@! TF.ProjectId,I2CMaster,4932434d-6173-4746-9572-2e6b69636164,rev?*
G04 #@! TF.SameCoordinates,Original*
G04 #@! TF.FileFunction,Copper,L2,Bot*
G04 #@! TF.FilePolarity,Positive*
%FSLAX46Y46*%
G04 Gerber Fmt 4.6, Leading zero omitted, Abs format (unit mm)*
G04 Created by KiCad (PCBNEW (5.1.5)-3) date 2020-06-02 00:14:17*
%MOMM*%
%LPD*%
G04 APERTURE LIST*
%ADD10O,1.600000X1.600000*%
%ADD11C,1.600000*%
%ADD12O,1.700000X1.700000*%
%ADD13R,1.700000X1.700000*%
%ADD14C,2.000000*%
%ADD15C,7.000000*%
%ADD16R,1.600000X1.600000*%
%ADD17C,2.100000*%
%ADD18R,2.100000X2.100000*%
%ADD19C,0.250000*%
G04 APERTURE END LIST*
D10*
X367030000Y-241300000D03*
D11*
X356870000Y-241300000D03*
D12*
X358140000Y-262890000D03*
D13*
X358140000Y-260350000D03*
D14*
X336630000Y-261620000D03*
X341630000Y-261620000D03*
D15*
X328930000Y-262890000D03*
X364490000Y-262890000D03*
X364490000Y-234950000D03*
D10*
X365760000Y-245110000D03*
X358140000Y-252730000D03*
X365760000Y-247650000D03*
X358140000Y-250190000D03*
X365760000Y-250190000D03*
X358140000Y-247650000D03*
X365760000Y-252730000D03*
D16*
X358140000Y-245110000D03*
D10*
X354330000Y-256540000D03*
X321310000Y-248920000D03*
X351790000Y-256540000D03*
X323850000Y-248920000D03*
X349250000Y-256540000D03*
X326390000Y-248920000D03*
X346710000Y-256540000D03*
X328930000Y-248920000D03*
X344170000Y-256540000D03*
X331470000Y-248920000D03*
X341630000Y-256540000D03*
X334010000Y-248920000D03*
X339090000Y-256540000D03*
X336550000Y-248920000D03*
X336550000Y-256540000D03*
X339090000Y-248920000D03*
X334010000Y-256540000D03*
X341630000Y-248920000D03*
X331470000Y-256540000D03*
X344170000Y-248920000D03*
X328930000Y-256540000D03*
X346710000Y-248920000D03*
X326390000Y-256540000D03*
X349250000Y-248920000D03*
X323850000Y-256540000D03*
X351790000Y-248920000D03*
X321310000Y-256540000D03*
D16*
X354330000Y-248920000D03*
D10*
X358140000Y-237490000D03*
D11*
X347980000Y-237490000D03*
D10*
X347980000Y-233680000D03*
D11*
X358140000Y-233680000D03*
D17*
X342900000Y-236220000D03*
X337820000Y-236220000D03*
X332740000Y-236220000D03*
X327660000Y-236220000D03*
D18*
X322580000Y-236220000D03*
D12*
X321310000Y-262890000D03*
D13*
X321310000Y-260350000D03*
D19*
X364960001Y-245909999D02*
X365760000Y-245110000D01*
X364634999Y-247900003D02*
X364634999Y-246235001D01*
X358680001Y-253855001D02*
X364634999Y-247900003D01*
X364634999Y-246235001D02*
X364960001Y-245909999D01*
X354474999Y-253855001D02*
X358680001Y-253855001D01*
X351790000Y-256540000D02*
X354474999Y-253855001D01*
X357090000Y-245110000D02*
X358140000Y-245110000D01*
X345584999Y-248379999D02*
X348854998Y-245110000D01*
X348854998Y-245110000D02*
X357090000Y-245110000D01*
X345584999Y-252585001D02*
X345584999Y-248379999D01*
X341630000Y-256540000D02*
X345584999Y-252585001D01*
M02*
