M48
; DRILL file {KiCad (5.1.5)-3} date 02.06.2020 00:14:19
; FORMAT={-:-/ absolute / inch / decimal}
; #@! TF.CreationDate,2020-06-02T00:14:19+02:00
; #@! TF.GenerationSoftware,Kicad,Pcbnew,(5.1.5)-3
; #@! TF.FileFunction,Plated,1,2,PTH
FMAT,2
INCH
T1C0.0315
T2C0.0394
T3C0.0433
T4C0.1378
%
G90
G05
T1
X12.65Y-9.8
X12.65Y-10.1
X12.75Y-9.8
X12.75Y-10.1
X12.85Y-9.8
X12.85Y-10.1
X12.95Y-9.8
X12.95Y-10.1
X13.05Y-9.8
X13.05Y-10.1
X13.15Y-9.8
X13.15Y-10.1
X13.25Y-9.8
X13.25Y-10.1
X13.35Y-9.8
X13.35Y-10.1
X13.45Y-9.8
X13.45Y-10.1
X13.55Y-9.8
X13.55Y-10.1
X13.65Y-9.8
X13.65Y-10.1
X13.75Y-9.8
X13.75Y-10.1
X13.85Y-9.8
X13.85Y-10.1
X13.95Y-9.8
X13.95Y-10.1
X14.05Y-9.5
X14.45Y-9.5
X13.7Y-9.2
X14.1Y-9.2
X13.7Y-9.35
X14.1Y-9.35
X14.1Y-9.65
X14.1Y-9.75
X14.1Y-9.85
X14.1Y-9.95
X14.4Y-9.65
X14.4Y-9.75
X14.4Y-9.85
X14.4Y-9.95
T2
X13.2531Y-10.3
X13.45Y-10.3
X12.65Y-10.25
X12.65Y-10.35
X14.1Y-10.25
X14.1Y-10.35
T3
X12.7Y-9.3
X12.9Y-9.3
X13.1Y-9.3
X13.3Y-9.3
X13.5Y-9.3
T4
X14.35Y-10.35
X14.35Y-9.25
X12.95Y-10.35
T0
M30
