G04 #@! TF.GenerationSoftware,KiCad,Pcbnew,(5.1.5)-3*
G04 #@! TF.CreationDate,2021-06-02T23:58:00+02:00*
G04 #@! TF.ProjectId,OptokopplerOutput,4f70746f-6b6f-4707-906c-65724f757470,rev?*
G04 #@! TF.SameCoordinates,Original*
G04 #@! TF.FileFunction,Copper,L2,Bot*
G04 #@! TF.FilePolarity,Positive*
%FSLAX46Y46*%
G04 Gerber Fmt 4.6, Leading zero omitted, Abs format (unit mm)*
G04 Created by KiCad (PCBNEW (5.1.5)-3) date 2021-06-02 23:58:00*
%MOMM*%
%LPD*%
G04 APERTURE LIST*
%ADD10R,2.100000X2.100000*%
%ADD11C,2.100000*%
%ADD12O,1.600000X1.600000*%
%ADD13R,1.600000X1.600000*%
%ADD14O,1.700000X1.700000*%
%ADD15R,1.700000X1.700000*%
%ADD16R,1.800000X1.800000*%
%ADD17O,1.800000X1.800000*%
%ADD18C,0.250000*%
G04 APERTURE END LIST*
D10*
X158750000Y-127000000D03*
D11*
X153670000Y-127000000D03*
X148590000Y-127000000D03*
X143510000Y-127000000D03*
X138430000Y-127000000D03*
X133350000Y-127000000D03*
D10*
X190500000Y-127000000D03*
D11*
X185420000Y-127000000D03*
X180340000Y-127000000D03*
X175260000Y-127000000D03*
X170180000Y-127000000D03*
X165100000Y-127000000D03*
D12*
X149860000Y-99060000D03*
X165100000Y-106680000D03*
X152400000Y-99060000D03*
X162560000Y-106680000D03*
X154940000Y-99060000D03*
X160020000Y-106680000D03*
X157480000Y-99060000D03*
X157480000Y-106680000D03*
X160020000Y-99060000D03*
X154940000Y-106680000D03*
X162560000Y-99060000D03*
X152400000Y-106680000D03*
X165100000Y-99060000D03*
D13*
X149860000Y-106680000D03*
D14*
X177800000Y-101600000D03*
D15*
X177800000Y-99060000D03*
D14*
X181610000Y-101600000D03*
D15*
X181610000Y-99060000D03*
D13*
X149860000Y-111760000D03*
D12*
X132080000Y-119380000D03*
X147320000Y-111760000D03*
X134620000Y-119380000D03*
X144780000Y-111760000D03*
X137160000Y-119380000D03*
X142240000Y-111760000D03*
X139700000Y-119380000D03*
X139700000Y-111760000D03*
X142240000Y-119380000D03*
X137160000Y-111760000D03*
X144780000Y-119380000D03*
X134620000Y-111760000D03*
X147320000Y-119380000D03*
X132080000Y-111760000D03*
X149860000Y-119380000D03*
D13*
X161290000Y-111760000D03*
D12*
X153670000Y-119380000D03*
X158750000Y-111760000D03*
X156210000Y-119380000D03*
X156210000Y-111760000D03*
X158750000Y-119380000D03*
X153670000Y-111760000D03*
X161290000Y-119380000D03*
D16*
X190500000Y-114300000D03*
D17*
X190500000Y-116840000D03*
X190500000Y-119380000D03*
D16*
X190500000Y-105410000D03*
D17*
X190500000Y-107950000D03*
X190500000Y-110490000D03*
D16*
X186690000Y-119380000D03*
D17*
X186690000Y-116840000D03*
X186690000Y-114300000D03*
D16*
X181610000Y-119380000D03*
D17*
X181610000Y-116840000D03*
X181610000Y-114300000D03*
D16*
X186690000Y-110490000D03*
D17*
X186690000Y-107950000D03*
X186690000Y-105410000D03*
D16*
X181610000Y-110490000D03*
D17*
X181610000Y-107950000D03*
X181610000Y-105410000D03*
D14*
X140970000Y-99060000D03*
D15*
X140970000Y-101600000D03*
D14*
X144780000Y-99060000D03*
D15*
X144780000Y-101600000D03*
D18*
X150659999Y-120179999D02*
X149860000Y-119380000D01*
X170180000Y-127000000D02*
X168804999Y-125624999D01*
X168804999Y-125624999D02*
X161395001Y-125624999D01*
X161395001Y-125624999D02*
X157690002Y-121920000D01*
X152400000Y-121920000D02*
X149860000Y-119380000D01*
X157690002Y-121920000D02*
X152400000Y-121920000D01*
X152004998Y-119380000D02*
X154544998Y-116840000D01*
X149860000Y-119380000D02*
X152004998Y-119380000D01*
X172720000Y-116840000D02*
X181610000Y-107950000D01*
X154544998Y-116840000D02*
X172720000Y-116840000D01*
X180340000Y-127000000D02*
X177800000Y-124460000D01*
X161290000Y-124460000D02*
X156210000Y-119380000D01*
X177800000Y-124460000D02*
X161290000Y-124460000D01*
X186101999Y-115614999D02*
X189274999Y-115614999D01*
X185464999Y-120540001D02*
X185464999Y-116251999D01*
X188129411Y-123204413D02*
X185464999Y-120540001D01*
X191875001Y-123204413D02*
X188129411Y-123204413D01*
X185464999Y-116251999D02*
X186101999Y-115614999D01*
X191810001Y-128375001D02*
X191875001Y-128310001D01*
X189274999Y-115614999D02*
X189600001Y-115940001D01*
X191875001Y-128310001D02*
X191875001Y-123204413D01*
X181715001Y-128375001D02*
X191810001Y-128375001D01*
X189600001Y-115940001D02*
X190500000Y-116840000D01*
X180340000Y-127000000D02*
X181715001Y-128375001D01*
X189200000Y-127000000D02*
X185390000Y-123190000D01*
X165100000Y-123190000D02*
X161290000Y-119380000D01*
X185390000Y-123190000D02*
X165100000Y-123190000D01*
X189274999Y-109175001D02*
X189600001Y-108849999D01*
X189274999Y-110490000D02*
X189274999Y-109175001D01*
X187461997Y-111715001D02*
X188049998Y-111715001D01*
X185014989Y-114162009D02*
X187461997Y-111715001D01*
X189600001Y-108849999D02*
X190500000Y-107950000D01*
X185014989Y-122814989D02*
X185014989Y-114162009D01*
X189200000Y-127000000D02*
X185014989Y-122814989D01*
X188049998Y-111715001D02*
X189274999Y-110490000D01*
X190500000Y-127000000D02*
X189200000Y-127000000D01*
X134620000Y-123190000D02*
X138430000Y-127000000D01*
X134620000Y-119380000D02*
X134620000Y-123190000D01*
X187589999Y-117739999D02*
X186690000Y-116840000D01*
X187915001Y-118065001D02*
X187589999Y-117739999D01*
X187915001Y-118608003D02*
X187915001Y-118065001D01*
X138430000Y-127000000D02*
X143134990Y-131704990D01*
X193040000Y-123733002D02*
X187915001Y-118608003D01*
X143134990Y-131704990D02*
X192145010Y-131704990D01*
X192145010Y-131704990D02*
X193040000Y-130810000D01*
X193040000Y-130810000D02*
X193040000Y-123733002D01*
X139700000Y-119594924D02*
X139700000Y-119380000D01*
X147105076Y-127000000D02*
X139700000Y-119594924D01*
X148590000Y-127000000D02*
X147105076Y-127000000D01*
X140499999Y-118580001D02*
X139700000Y-119380000D01*
X140825001Y-118254999D02*
X140499999Y-118580001D01*
X145320001Y-118254999D02*
X140825001Y-118254999D01*
X145905001Y-118839999D02*
X145320001Y-118254999D01*
X146924998Y-120650000D02*
X145905001Y-119630003D01*
X148005000Y-120650000D02*
X146924998Y-120650000D01*
X148734999Y-119920001D02*
X148005000Y-120650000D01*
X148734999Y-118839999D02*
X148734999Y-119920001D01*
X151185007Y-116389991D02*
X148734999Y-118839999D01*
X171357007Y-116389991D02*
X151185007Y-116389991D01*
X181021999Y-106724999D02*
X171357007Y-116389991D01*
X145905001Y-119630003D02*
X145905001Y-118839999D01*
X185464999Y-106724999D02*
X181021999Y-106724999D01*
X186690000Y-107950000D02*
X185464999Y-106724999D01*
X144780000Y-119380000D02*
X149860000Y-124460000D01*
X155705002Y-127000000D02*
X157450000Y-127000000D01*
X153165002Y-124460000D02*
X155705002Y-127000000D01*
X157450000Y-127000000D02*
X158750000Y-127000000D01*
X149860000Y-124460000D02*
X153165002Y-124460000D01*
X147320000Y-101600000D02*
X147320000Y-111760000D01*
X149860000Y-99060000D02*
X147320000Y-101600000D01*
X143039999Y-110960001D02*
X142240000Y-111760000D01*
X143365001Y-110634999D02*
X143039999Y-110960001D01*
X146194999Y-110634999D02*
X143365001Y-110634999D01*
X147320000Y-111760000D02*
X146194999Y-110634999D01*
X133205001Y-110634999D02*
X132879999Y-110960001D01*
X132879999Y-110960001D02*
X132080000Y-111760000D01*
X136034999Y-110634999D02*
X133205001Y-110634999D01*
X137160000Y-111760000D02*
X136034999Y-110634999D01*
X141440001Y-112559999D02*
X142240000Y-111760000D01*
X141114999Y-112885001D02*
X141440001Y-112559999D01*
X138285001Y-112885001D02*
X141114999Y-112885001D01*
X137160000Y-111760000D02*
X138285001Y-112885001D01*
X152870001Y-112559999D02*
X153670000Y-111760000D01*
X148445001Y-112885001D02*
X152544999Y-112885001D01*
X152544999Y-112885001D02*
X152870001Y-112559999D01*
X147320000Y-111760000D02*
X148445001Y-112885001D01*
X157950001Y-112559999D02*
X158750000Y-111760000D01*
X157624999Y-112885001D02*
X157950001Y-112559999D01*
X154795001Y-112885001D02*
X157624999Y-112885001D01*
X153670000Y-111760000D02*
X154795001Y-112885001D01*
X181610000Y-105410000D02*
X171450000Y-115570000D01*
X151130000Y-115570000D02*
X147320000Y-119380000D01*
X171450000Y-115570000D02*
X151130000Y-115570000D01*
X186690000Y-105410000D02*
X184150000Y-102870000D01*
X184150000Y-102870000D02*
X180340000Y-102870000D01*
X180340000Y-102870000D02*
X168910000Y-114300000D01*
X142240000Y-114300000D02*
X137160000Y-119380000D01*
X168910000Y-114300000D02*
X142240000Y-114300000D01*
X185462207Y-109175001D02*
X181610000Y-113027208D01*
X181610000Y-113027208D02*
X181610000Y-114300000D01*
X187915001Y-108538001D02*
X187278001Y-109175001D01*
X187278001Y-109175001D02*
X185462207Y-109175001D01*
X186101999Y-106724999D02*
X187278001Y-106724999D01*
X181021999Y-104184999D02*
X183561999Y-104184999D01*
X170087008Y-115119990D02*
X181021999Y-104184999D01*
X142295008Y-115119990D02*
X170087008Y-115119990D01*
X138574999Y-118839999D02*
X142295008Y-115119990D01*
X138574999Y-119920001D02*
X138574999Y-118839999D01*
X183561999Y-104184999D02*
X186101999Y-106724999D01*
X147029999Y-128375001D02*
X138574999Y-119920001D01*
X187278001Y-106724999D02*
X187915001Y-107361999D01*
X149250001Y-128375001D02*
X147029999Y-128375001D01*
X149965001Y-127660001D02*
X149250001Y-128375001D01*
X149965001Y-126339999D02*
X149965001Y-127660001D01*
X143805001Y-120179999D02*
X149965001Y-126339999D01*
X143039999Y-120179999D02*
X143805001Y-120179999D01*
X187915001Y-107361999D02*
X187915001Y-108538001D01*
X142240000Y-119380000D02*
X143039999Y-120179999D01*
X137610009Y-113849991D02*
X132879999Y-118580001D01*
X183518001Y-100424999D02*
X181045999Y-100424999D01*
X187915001Y-104821999D02*
X183518001Y-100424999D01*
X187915001Y-105998001D02*
X187915001Y-104821999D01*
X132879999Y-118580001D02*
X132080000Y-119380000D01*
X188641999Y-106724999D02*
X187915001Y-105998001D01*
X167621007Y-113849991D02*
X137610009Y-113849991D01*
X191088001Y-106724999D02*
X188641999Y-106724999D01*
X191725001Y-107361999D02*
X191088001Y-106724999D01*
X191725001Y-111078001D02*
X191725001Y-107361999D01*
X191088001Y-111715001D02*
X191725001Y-111078001D01*
X189274999Y-111715001D02*
X191088001Y-111715001D01*
X181045999Y-100424999D02*
X167621007Y-113849991D01*
X186690000Y-114300000D02*
X189274999Y-111715001D01*
M02*
