G04 #@! TF.GenerationSoftware,KiCad,Pcbnew,(5.1.5)-3*
G04 #@! TF.CreationDate,2021-06-02T23:58:00+02:00*
G04 #@! TF.ProjectId,OptokopplerOutput,4f70746f-6b6f-4707-906c-65724f757470,rev?*
G04 #@! TF.SameCoordinates,Original*
G04 #@! TF.FileFunction,Soldermask,Top*
G04 #@! TF.FilePolarity,Negative*
%FSLAX46Y46*%
G04 Gerber Fmt 4.6, Leading zero omitted, Abs format (unit mm)*
G04 Created by KiCad (PCBNEW (5.1.5)-3) date 2021-06-02 23:58:00*
%MOMM*%
%LPD*%
G04 APERTURE LIST*
%ADD10C,0.100000*%
G04 APERTURE END LIST*
D10*
G36*
X165314794Y-125920155D02*
G01*
X165421150Y-125941311D01*
X165521334Y-125982809D01*
X165621520Y-126024307D01*
X165801844Y-126144795D01*
X165955205Y-126298156D01*
X166075693Y-126478480D01*
X166158689Y-126678851D01*
X166201000Y-126891560D01*
X166201000Y-127108440D01*
X166158689Y-127321149D01*
X166075693Y-127521520D01*
X165955205Y-127701844D01*
X165801844Y-127855205D01*
X165621520Y-127975693D01*
X165421150Y-128058689D01*
X165314795Y-128079844D01*
X165208440Y-128101000D01*
X164991560Y-128101000D01*
X164885205Y-128079844D01*
X164778850Y-128058689D01*
X164578480Y-127975693D01*
X164398156Y-127855205D01*
X164244795Y-127701844D01*
X164124307Y-127521520D01*
X164041311Y-127321149D01*
X163999000Y-127108440D01*
X163999000Y-126891560D01*
X164041311Y-126678851D01*
X164124307Y-126478480D01*
X164244795Y-126298156D01*
X164398156Y-126144795D01*
X164578480Y-126024307D01*
X164678666Y-125982809D01*
X164778850Y-125941311D01*
X164885206Y-125920155D01*
X164991560Y-125899000D01*
X165208440Y-125899000D01*
X165314794Y-125920155D01*
G37*
G36*
X170394794Y-125920155D02*
G01*
X170501150Y-125941311D01*
X170601334Y-125982809D01*
X170701520Y-126024307D01*
X170881844Y-126144795D01*
X171035205Y-126298156D01*
X171155693Y-126478480D01*
X171238689Y-126678851D01*
X171281000Y-126891560D01*
X171281000Y-127108440D01*
X171238689Y-127321149D01*
X171155693Y-127521520D01*
X171035205Y-127701844D01*
X170881844Y-127855205D01*
X170701520Y-127975693D01*
X170501150Y-128058689D01*
X170394795Y-128079844D01*
X170288440Y-128101000D01*
X170071560Y-128101000D01*
X169965205Y-128079844D01*
X169858850Y-128058689D01*
X169658480Y-127975693D01*
X169478156Y-127855205D01*
X169324795Y-127701844D01*
X169204307Y-127521520D01*
X169121311Y-127321149D01*
X169079000Y-127108440D01*
X169079000Y-126891560D01*
X169121311Y-126678851D01*
X169204307Y-126478480D01*
X169324795Y-126298156D01*
X169478156Y-126144795D01*
X169658480Y-126024307D01*
X169758666Y-125982809D01*
X169858850Y-125941311D01*
X169965206Y-125920155D01*
X170071560Y-125899000D01*
X170288440Y-125899000D01*
X170394794Y-125920155D01*
G37*
G36*
X175474794Y-125920155D02*
G01*
X175581150Y-125941311D01*
X175681334Y-125982809D01*
X175781520Y-126024307D01*
X175961844Y-126144795D01*
X176115205Y-126298156D01*
X176235693Y-126478480D01*
X176318689Y-126678851D01*
X176361000Y-126891560D01*
X176361000Y-127108440D01*
X176318689Y-127321149D01*
X176235693Y-127521520D01*
X176115205Y-127701844D01*
X175961844Y-127855205D01*
X175781520Y-127975693D01*
X175581150Y-128058689D01*
X175474795Y-128079844D01*
X175368440Y-128101000D01*
X175151560Y-128101000D01*
X175045205Y-128079844D01*
X174938850Y-128058689D01*
X174738480Y-127975693D01*
X174558156Y-127855205D01*
X174404795Y-127701844D01*
X174284307Y-127521520D01*
X174201311Y-127321149D01*
X174159000Y-127108440D01*
X174159000Y-126891560D01*
X174201311Y-126678851D01*
X174284307Y-126478480D01*
X174404795Y-126298156D01*
X174558156Y-126144795D01*
X174738480Y-126024307D01*
X174838666Y-125982809D01*
X174938850Y-125941311D01*
X175045206Y-125920155D01*
X175151560Y-125899000D01*
X175368440Y-125899000D01*
X175474794Y-125920155D01*
G37*
G36*
X180554794Y-125920155D02*
G01*
X180661150Y-125941311D01*
X180761334Y-125982809D01*
X180861520Y-126024307D01*
X181041844Y-126144795D01*
X181195205Y-126298156D01*
X181315693Y-126478480D01*
X181398689Y-126678851D01*
X181441000Y-126891560D01*
X181441000Y-127108440D01*
X181398689Y-127321149D01*
X181315693Y-127521520D01*
X181195205Y-127701844D01*
X181041844Y-127855205D01*
X180861520Y-127975693D01*
X180661150Y-128058689D01*
X180554795Y-128079844D01*
X180448440Y-128101000D01*
X180231560Y-128101000D01*
X180125205Y-128079844D01*
X180018850Y-128058689D01*
X179818480Y-127975693D01*
X179638156Y-127855205D01*
X179484795Y-127701844D01*
X179364307Y-127521520D01*
X179281311Y-127321149D01*
X179239000Y-127108440D01*
X179239000Y-126891560D01*
X179281311Y-126678851D01*
X179364307Y-126478480D01*
X179484795Y-126298156D01*
X179638156Y-126144795D01*
X179818480Y-126024307D01*
X179918666Y-125982809D01*
X180018850Y-125941311D01*
X180125206Y-125920155D01*
X180231560Y-125899000D01*
X180448440Y-125899000D01*
X180554794Y-125920155D01*
G37*
G36*
X191601000Y-128101000D02*
G01*
X189399000Y-128101000D01*
X189399000Y-125899000D01*
X191601000Y-125899000D01*
X191601000Y-128101000D01*
G37*
G36*
X133564794Y-125920155D02*
G01*
X133671150Y-125941311D01*
X133771334Y-125982809D01*
X133871520Y-126024307D01*
X134051844Y-126144795D01*
X134205205Y-126298156D01*
X134325693Y-126478480D01*
X134408689Y-126678851D01*
X134451000Y-126891560D01*
X134451000Y-127108440D01*
X134408689Y-127321149D01*
X134325693Y-127521520D01*
X134205205Y-127701844D01*
X134051844Y-127855205D01*
X133871520Y-127975693D01*
X133671150Y-128058689D01*
X133564795Y-128079844D01*
X133458440Y-128101000D01*
X133241560Y-128101000D01*
X133135205Y-128079844D01*
X133028850Y-128058689D01*
X132828480Y-127975693D01*
X132648156Y-127855205D01*
X132494795Y-127701844D01*
X132374307Y-127521520D01*
X132291311Y-127321149D01*
X132249000Y-127108440D01*
X132249000Y-126891560D01*
X132291311Y-126678851D01*
X132374307Y-126478480D01*
X132494795Y-126298156D01*
X132648156Y-126144795D01*
X132828480Y-126024307D01*
X132928666Y-125982809D01*
X133028850Y-125941311D01*
X133135206Y-125920155D01*
X133241560Y-125899000D01*
X133458440Y-125899000D01*
X133564794Y-125920155D01*
G37*
G36*
X138644794Y-125920155D02*
G01*
X138751150Y-125941311D01*
X138851334Y-125982809D01*
X138951520Y-126024307D01*
X139131844Y-126144795D01*
X139285205Y-126298156D01*
X139405693Y-126478480D01*
X139488689Y-126678851D01*
X139531000Y-126891560D01*
X139531000Y-127108440D01*
X139488689Y-127321149D01*
X139405693Y-127521520D01*
X139285205Y-127701844D01*
X139131844Y-127855205D01*
X138951520Y-127975693D01*
X138751150Y-128058689D01*
X138644795Y-128079844D01*
X138538440Y-128101000D01*
X138321560Y-128101000D01*
X138215205Y-128079844D01*
X138108850Y-128058689D01*
X137908480Y-127975693D01*
X137728156Y-127855205D01*
X137574795Y-127701844D01*
X137454307Y-127521520D01*
X137371311Y-127321149D01*
X137329000Y-127108440D01*
X137329000Y-126891560D01*
X137371311Y-126678851D01*
X137454307Y-126478480D01*
X137574795Y-126298156D01*
X137728156Y-126144795D01*
X137908480Y-126024307D01*
X138008666Y-125982809D01*
X138108850Y-125941311D01*
X138215206Y-125920155D01*
X138321560Y-125899000D01*
X138538440Y-125899000D01*
X138644794Y-125920155D01*
G37*
G36*
X143724794Y-125920155D02*
G01*
X143831150Y-125941311D01*
X143931334Y-125982809D01*
X144031520Y-126024307D01*
X144211844Y-126144795D01*
X144365205Y-126298156D01*
X144485693Y-126478480D01*
X144568689Y-126678851D01*
X144611000Y-126891560D01*
X144611000Y-127108440D01*
X144568689Y-127321149D01*
X144485693Y-127521520D01*
X144365205Y-127701844D01*
X144211844Y-127855205D01*
X144031520Y-127975693D01*
X143831150Y-128058689D01*
X143724795Y-128079844D01*
X143618440Y-128101000D01*
X143401560Y-128101000D01*
X143295205Y-128079844D01*
X143188850Y-128058689D01*
X142988480Y-127975693D01*
X142808156Y-127855205D01*
X142654795Y-127701844D01*
X142534307Y-127521520D01*
X142451311Y-127321149D01*
X142409000Y-127108440D01*
X142409000Y-126891560D01*
X142451311Y-126678851D01*
X142534307Y-126478480D01*
X142654795Y-126298156D01*
X142808156Y-126144795D01*
X142988480Y-126024307D01*
X143088666Y-125982809D01*
X143188850Y-125941311D01*
X143295206Y-125920155D01*
X143401560Y-125899000D01*
X143618440Y-125899000D01*
X143724794Y-125920155D01*
G37*
G36*
X148804794Y-125920155D02*
G01*
X148911150Y-125941311D01*
X149011334Y-125982809D01*
X149111520Y-126024307D01*
X149291844Y-126144795D01*
X149445205Y-126298156D01*
X149565693Y-126478480D01*
X149648689Y-126678851D01*
X149691000Y-126891560D01*
X149691000Y-127108440D01*
X149648689Y-127321149D01*
X149565693Y-127521520D01*
X149445205Y-127701844D01*
X149291844Y-127855205D01*
X149111520Y-127975693D01*
X148911150Y-128058689D01*
X148804795Y-128079844D01*
X148698440Y-128101000D01*
X148481560Y-128101000D01*
X148375205Y-128079844D01*
X148268850Y-128058689D01*
X148068480Y-127975693D01*
X147888156Y-127855205D01*
X147734795Y-127701844D01*
X147614307Y-127521520D01*
X147531311Y-127321149D01*
X147489000Y-127108440D01*
X147489000Y-126891560D01*
X147531311Y-126678851D01*
X147614307Y-126478480D01*
X147734795Y-126298156D01*
X147888156Y-126144795D01*
X148068480Y-126024307D01*
X148168666Y-125982809D01*
X148268850Y-125941311D01*
X148375206Y-125920155D01*
X148481560Y-125899000D01*
X148698440Y-125899000D01*
X148804794Y-125920155D01*
G37*
G36*
X153884794Y-125920155D02*
G01*
X153991150Y-125941311D01*
X154091334Y-125982809D01*
X154191520Y-126024307D01*
X154371844Y-126144795D01*
X154525205Y-126298156D01*
X154645693Y-126478480D01*
X154728689Y-126678851D01*
X154771000Y-126891560D01*
X154771000Y-127108440D01*
X154728689Y-127321149D01*
X154645693Y-127521520D01*
X154525205Y-127701844D01*
X154371844Y-127855205D01*
X154191520Y-127975693D01*
X153991150Y-128058689D01*
X153884795Y-128079844D01*
X153778440Y-128101000D01*
X153561560Y-128101000D01*
X153455205Y-128079844D01*
X153348850Y-128058689D01*
X153148480Y-127975693D01*
X152968156Y-127855205D01*
X152814795Y-127701844D01*
X152694307Y-127521520D01*
X152611311Y-127321149D01*
X152569000Y-127108440D01*
X152569000Y-126891560D01*
X152611311Y-126678851D01*
X152694307Y-126478480D01*
X152814795Y-126298156D01*
X152968156Y-126144795D01*
X153148480Y-126024307D01*
X153248666Y-125982809D01*
X153348850Y-125941311D01*
X153455206Y-125920155D01*
X153561560Y-125899000D01*
X153778440Y-125899000D01*
X153884794Y-125920155D01*
G37*
G36*
X159851000Y-128101000D02*
G01*
X157649000Y-128101000D01*
X157649000Y-125899000D01*
X159851000Y-125899000D01*
X159851000Y-128101000D01*
G37*
G36*
X185634794Y-125920155D02*
G01*
X185741150Y-125941311D01*
X185841334Y-125982809D01*
X185941520Y-126024307D01*
X186121844Y-126144795D01*
X186275205Y-126298156D01*
X186395693Y-126478480D01*
X186478689Y-126678851D01*
X186521000Y-126891560D01*
X186521000Y-127108440D01*
X186478689Y-127321149D01*
X186395693Y-127521520D01*
X186275205Y-127701844D01*
X186121844Y-127855205D01*
X185941520Y-127975693D01*
X185741150Y-128058689D01*
X185634795Y-128079844D01*
X185528440Y-128101000D01*
X185311560Y-128101000D01*
X185205205Y-128079844D01*
X185098850Y-128058689D01*
X184898480Y-127975693D01*
X184718156Y-127855205D01*
X184564795Y-127701844D01*
X184444307Y-127521520D01*
X184361311Y-127321149D01*
X184319000Y-127108440D01*
X184319000Y-126891560D01*
X184361311Y-126678851D01*
X184444307Y-126478480D01*
X184564795Y-126298156D01*
X184718156Y-126144795D01*
X184898480Y-126024307D01*
X184998666Y-125982809D01*
X185098850Y-125941311D01*
X185205206Y-125920155D01*
X185311560Y-125899000D01*
X185528440Y-125899000D01*
X185634794Y-125920155D01*
G37*
G36*
X167571000Y-121181000D02*
G01*
X165169000Y-121181000D01*
X165169000Y-117579000D01*
X167571000Y-117579000D01*
X167571000Y-121181000D01*
G37*
G36*
X173091000Y-120581000D02*
G01*
X169489000Y-120581000D01*
X169489000Y-118179000D01*
X173091000Y-118179000D01*
X173091000Y-120581000D01*
G37*
G36*
X178491000Y-120581000D02*
G01*
X174889000Y-120581000D01*
X174889000Y-118179000D01*
X178491000Y-118179000D01*
X178491000Y-120581000D01*
G37*
G36*
X182561000Y-120331000D02*
G01*
X180659000Y-120331000D01*
X180659000Y-118429000D01*
X182561000Y-118429000D01*
X182561000Y-120331000D01*
G37*
G36*
X187641000Y-120331000D02*
G01*
X185739000Y-120331000D01*
X185739000Y-118429000D01*
X187641000Y-118429000D01*
X187641000Y-120331000D01*
G37*
G36*
X190777395Y-118465546D02*
G01*
X190950466Y-118537234D01*
X190950467Y-118537235D01*
X191106227Y-118641310D01*
X191238690Y-118773773D01*
X191281284Y-118837520D01*
X191342766Y-118929534D01*
X191414454Y-119102605D01*
X191451000Y-119286333D01*
X191451000Y-119473667D01*
X191414454Y-119657395D01*
X191342766Y-119830466D01*
X191342765Y-119830467D01*
X191238690Y-119986227D01*
X191106227Y-120118690D01*
X191083092Y-120134148D01*
X190950466Y-120222766D01*
X190777395Y-120294454D01*
X190593667Y-120331000D01*
X190406333Y-120331000D01*
X190222605Y-120294454D01*
X190049534Y-120222766D01*
X189916908Y-120134148D01*
X189893773Y-120118690D01*
X189761310Y-119986227D01*
X189657235Y-119830467D01*
X189657234Y-119830466D01*
X189585546Y-119657395D01*
X189549000Y-119473667D01*
X189549000Y-119286333D01*
X189585546Y-119102605D01*
X189657234Y-118929534D01*
X189718716Y-118837520D01*
X189761310Y-118773773D01*
X189893773Y-118641310D01*
X190049533Y-118537235D01*
X190049534Y-118537234D01*
X190222605Y-118465546D01*
X190406333Y-118429000D01*
X190593667Y-118429000D01*
X190777395Y-118465546D01*
G37*
G36*
X139948228Y-118561703D02*
G01*
X140103100Y-118625853D01*
X140242481Y-118718985D01*
X140361015Y-118837519D01*
X140454147Y-118976900D01*
X140518297Y-119131772D01*
X140551000Y-119296184D01*
X140551000Y-119463816D01*
X140518297Y-119628228D01*
X140454147Y-119783100D01*
X140361015Y-119922481D01*
X140242481Y-120041015D01*
X140103100Y-120134147D01*
X139948228Y-120198297D01*
X139783816Y-120231000D01*
X139616184Y-120231000D01*
X139451772Y-120198297D01*
X139296900Y-120134147D01*
X139157519Y-120041015D01*
X139038985Y-119922481D01*
X138945853Y-119783100D01*
X138881703Y-119628228D01*
X138849000Y-119463816D01*
X138849000Y-119296184D01*
X138881703Y-119131772D01*
X138945853Y-118976900D01*
X139038985Y-118837519D01*
X139157519Y-118718985D01*
X139296900Y-118625853D01*
X139451772Y-118561703D01*
X139616184Y-118529000D01*
X139783816Y-118529000D01*
X139948228Y-118561703D01*
G37*
G36*
X145028228Y-118561703D02*
G01*
X145183100Y-118625853D01*
X145322481Y-118718985D01*
X145441015Y-118837519D01*
X145534147Y-118976900D01*
X145598297Y-119131772D01*
X145631000Y-119296184D01*
X145631000Y-119463816D01*
X145598297Y-119628228D01*
X145534147Y-119783100D01*
X145441015Y-119922481D01*
X145322481Y-120041015D01*
X145183100Y-120134147D01*
X145028228Y-120198297D01*
X144863816Y-120231000D01*
X144696184Y-120231000D01*
X144531772Y-120198297D01*
X144376900Y-120134147D01*
X144237519Y-120041015D01*
X144118985Y-119922481D01*
X144025853Y-119783100D01*
X143961703Y-119628228D01*
X143929000Y-119463816D01*
X143929000Y-119296184D01*
X143961703Y-119131772D01*
X144025853Y-118976900D01*
X144118985Y-118837519D01*
X144237519Y-118718985D01*
X144376900Y-118625853D01*
X144531772Y-118561703D01*
X144696184Y-118529000D01*
X144863816Y-118529000D01*
X145028228Y-118561703D01*
G37*
G36*
X142488228Y-118561703D02*
G01*
X142643100Y-118625853D01*
X142782481Y-118718985D01*
X142901015Y-118837519D01*
X142994147Y-118976900D01*
X143058297Y-119131772D01*
X143091000Y-119296184D01*
X143091000Y-119463816D01*
X143058297Y-119628228D01*
X142994147Y-119783100D01*
X142901015Y-119922481D01*
X142782481Y-120041015D01*
X142643100Y-120134147D01*
X142488228Y-120198297D01*
X142323816Y-120231000D01*
X142156184Y-120231000D01*
X141991772Y-120198297D01*
X141836900Y-120134147D01*
X141697519Y-120041015D01*
X141578985Y-119922481D01*
X141485853Y-119783100D01*
X141421703Y-119628228D01*
X141389000Y-119463816D01*
X141389000Y-119296184D01*
X141421703Y-119131772D01*
X141485853Y-118976900D01*
X141578985Y-118837519D01*
X141697519Y-118718985D01*
X141836900Y-118625853D01*
X141991772Y-118561703D01*
X142156184Y-118529000D01*
X142323816Y-118529000D01*
X142488228Y-118561703D01*
G37*
G36*
X147568228Y-118561703D02*
G01*
X147723100Y-118625853D01*
X147862481Y-118718985D01*
X147981015Y-118837519D01*
X148074147Y-118976900D01*
X148138297Y-119131772D01*
X148171000Y-119296184D01*
X148171000Y-119463816D01*
X148138297Y-119628228D01*
X148074147Y-119783100D01*
X147981015Y-119922481D01*
X147862481Y-120041015D01*
X147723100Y-120134147D01*
X147568228Y-120198297D01*
X147403816Y-120231000D01*
X147236184Y-120231000D01*
X147071772Y-120198297D01*
X146916900Y-120134147D01*
X146777519Y-120041015D01*
X146658985Y-119922481D01*
X146565853Y-119783100D01*
X146501703Y-119628228D01*
X146469000Y-119463816D01*
X146469000Y-119296184D01*
X146501703Y-119131772D01*
X146565853Y-118976900D01*
X146658985Y-118837519D01*
X146777519Y-118718985D01*
X146916900Y-118625853D01*
X147071772Y-118561703D01*
X147236184Y-118529000D01*
X147403816Y-118529000D01*
X147568228Y-118561703D01*
G37*
G36*
X150108228Y-118561703D02*
G01*
X150263100Y-118625853D01*
X150402481Y-118718985D01*
X150521015Y-118837519D01*
X150614147Y-118976900D01*
X150678297Y-119131772D01*
X150711000Y-119296184D01*
X150711000Y-119463816D01*
X150678297Y-119628228D01*
X150614147Y-119783100D01*
X150521015Y-119922481D01*
X150402481Y-120041015D01*
X150263100Y-120134147D01*
X150108228Y-120198297D01*
X149943816Y-120231000D01*
X149776184Y-120231000D01*
X149611772Y-120198297D01*
X149456900Y-120134147D01*
X149317519Y-120041015D01*
X149198985Y-119922481D01*
X149105853Y-119783100D01*
X149041703Y-119628228D01*
X149009000Y-119463816D01*
X149009000Y-119296184D01*
X149041703Y-119131772D01*
X149105853Y-118976900D01*
X149198985Y-118837519D01*
X149317519Y-118718985D01*
X149456900Y-118625853D01*
X149611772Y-118561703D01*
X149776184Y-118529000D01*
X149943816Y-118529000D01*
X150108228Y-118561703D01*
G37*
G36*
X137408228Y-118561703D02*
G01*
X137563100Y-118625853D01*
X137702481Y-118718985D01*
X137821015Y-118837519D01*
X137914147Y-118976900D01*
X137978297Y-119131772D01*
X138011000Y-119296184D01*
X138011000Y-119463816D01*
X137978297Y-119628228D01*
X137914147Y-119783100D01*
X137821015Y-119922481D01*
X137702481Y-120041015D01*
X137563100Y-120134147D01*
X137408228Y-120198297D01*
X137243816Y-120231000D01*
X137076184Y-120231000D01*
X136911772Y-120198297D01*
X136756900Y-120134147D01*
X136617519Y-120041015D01*
X136498985Y-119922481D01*
X136405853Y-119783100D01*
X136341703Y-119628228D01*
X136309000Y-119463816D01*
X136309000Y-119296184D01*
X136341703Y-119131772D01*
X136405853Y-118976900D01*
X136498985Y-118837519D01*
X136617519Y-118718985D01*
X136756900Y-118625853D01*
X136911772Y-118561703D01*
X137076184Y-118529000D01*
X137243816Y-118529000D01*
X137408228Y-118561703D01*
G37*
G36*
X156458228Y-118561703D02*
G01*
X156613100Y-118625853D01*
X156752481Y-118718985D01*
X156871015Y-118837519D01*
X156964147Y-118976900D01*
X157028297Y-119131772D01*
X157061000Y-119296184D01*
X157061000Y-119463816D01*
X157028297Y-119628228D01*
X156964147Y-119783100D01*
X156871015Y-119922481D01*
X156752481Y-120041015D01*
X156613100Y-120134147D01*
X156458228Y-120198297D01*
X156293816Y-120231000D01*
X156126184Y-120231000D01*
X155961772Y-120198297D01*
X155806900Y-120134147D01*
X155667519Y-120041015D01*
X155548985Y-119922481D01*
X155455853Y-119783100D01*
X155391703Y-119628228D01*
X155359000Y-119463816D01*
X155359000Y-119296184D01*
X155391703Y-119131772D01*
X155455853Y-118976900D01*
X155548985Y-118837519D01*
X155667519Y-118718985D01*
X155806900Y-118625853D01*
X155961772Y-118561703D01*
X156126184Y-118529000D01*
X156293816Y-118529000D01*
X156458228Y-118561703D01*
G37*
G36*
X134868228Y-118561703D02*
G01*
X135023100Y-118625853D01*
X135162481Y-118718985D01*
X135281015Y-118837519D01*
X135374147Y-118976900D01*
X135438297Y-119131772D01*
X135471000Y-119296184D01*
X135471000Y-119463816D01*
X135438297Y-119628228D01*
X135374147Y-119783100D01*
X135281015Y-119922481D01*
X135162481Y-120041015D01*
X135023100Y-120134147D01*
X134868228Y-120198297D01*
X134703816Y-120231000D01*
X134536184Y-120231000D01*
X134371772Y-120198297D01*
X134216900Y-120134147D01*
X134077519Y-120041015D01*
X133958985Y-119922481D01*
X133865853Y-119783100D01*
X133801703Y-119628228D01*
X133769000Y-119463816D01*
X133769000Y-119296184D01*
X133801703Y-119131772D01*
X133865853Y-118976900D01*
X133958985Y-118837519D01*
X134077519Y-118718985D01*
X134216900Y-118625853D01*
X134371772Y-118561703D01*
X134536184Y-118529000D01*
X134703816Y-118529000D01*
X134868228Y-118561703D01*
G37*
G36*
X132328228Y-118561703D02*
G01*
X132483100Y-118625853D01*
X132622481Y-118718985D01*
X132741015Y-118837519D01*
X132834147Y-118976900D01*
X132898297Y-119131772D01*
X132931000Y-119296184D01*
X132931000Y-119463816D01*
X132898297Y-119628228D01*
X132834147Y-119783100D01*
X132741015Y-119922481D01*
X132622481Y-120041015D01*
X132483100Y-120134147D01*
X132328228Y-120198297D01*
X132163816Y-120231000D01*
X131996184Y-120231000D01*
X131831772Y-120198297D01*
X131676900Y-120134147D01*
X131537519Y-120041015D01*
X131418985Y-119922481D01*
X131325853Y-119783100D01*
X131261703Y-119628228D01*
X131229000Y-119463816D01*
X131229000Y-119296184D01*
X131261703Y-119131772D01*
X131325853Y-118976900D01*
X131418985Y-118837519D01*
X131537519Y-118718985D01*
X131676900Y-118625853D01*
X131831772Y-118561703D01*
X131996184Y-118529000D01*
X132163816Y-118529000D01*
X132328228Y-118561703D01*
G37*
G36*
X158998228Y-118561703D02*
G01*
X159153100Y-118625853D01*
X159292481Y-118718985D01*
X159411015Y-118837519D01*
X159504147Y-118976900D01*
X159568297Y-119131772D01*
X159601000Y-119296184D01*
X159601000Y-119463816D01*
X159568297Y-119628228D01*
X159504147Y-119783100D01*
X159411015Y-119922481D01*
X159292481Y-120041015D01*
X159153100Y-120134147D01*
X158998228Y-120198297D01*
X158833816Y-120231000D01*
X158666184Y-120231000D01*
X158501772Y-120198297D01*
X158346900Y-120134147D01*
X158207519Y-120041015D01*
X158088985Y-119922481D01*
X157995853Y-119783100D01*
X157931703Y-119628228D01*
X157899000Y-119463816D01*
X157899000Y-119296184D01*
X157931703Y-119131772D01*
X157995853Y-118976900D01*
X158088985Y-118837519D01*
X158207519Y-118718985D01*
X158346900Y-118625853D01*
X158501772Y-118561703D01*
X158666184Y-118529000D01*
X158833816Y-118529000D01*
X158998228Y-118561703D01*
G37*
G36*
X161538228Y-118561703D02*
G01*
X161693100Y-118625853D01*
X161832481Y-118718985D01*
X161951015Y-118837519D01*
X162044147Y-118976900D01*
X162108297Y-119131772D01*
X162141000Y-119296184D01*
X162141000Y-119463816D01*
X162108297Y-119628228D01*
X162044147Y-119783100D01*
X161951015Y-119922481D01*
X161832481Y-120041015D01*
X161693100Y-120134147D01*
X161538228Y-120198297D01*
X161373816Y-120231000D01*
X161206184Y-120231000D01*
X161041772Y-120198297D01*
X160886900Y-120134147D01*
X160747519Y-120041015D01*
X160628985Y-119922481D01*
X160535853Y-119783100D01*
X160471703Y-119628228D01*
X160439000Y-119463816D01*
X160439000Y-119296184D01*
X160471703Y-119131772D01*
X160535853Y-118976900D01*
X160628985Y-118837519D01*
X160747519Y-118718985D01*
X160886900Y-118625853D01*
X161041772Y-118561703D01*
X161206184Y-118529000D01*
X161373816Y-118529000D01*
X161538228Y-118561703D01*
G37*
G36*
X153918228Y-118561703D02*
G01*
X154073100Y-118625853D01*
X154212481Y-118718985D01*
X154331015Y-118837519D01*
X154424147Y-118976900D01*
X154488297Y-119131772D01*
X154521000Y-119296184D01*
X154521000Y-119463816D01*
X154488297Y-119628228D01*
X154424147Y-119783100D01*
X154331015Y-119922481D01*
X154212481Y-120041015D01*
X154073100Y-120134147D01*
X153918228Y-120198297D01*
X153753816Y-120231000D01*
X153586184Y-120231000D01*
X153421772Y-120198297D01*
X153266900Y-120134147D01*
X153127519Y-120041015D01*
X153008985Y-119922481D01*
X152915853Y-119783100D01*
X152851703Y-119628228D01*
X152819000Y-119463816D01*
X152819000Y-119296184D01*
X152851703Y-119131772D01*
X152915853Y-118976900D01*
X153008985Y-118837519D01*
X153127519Y-118718985D01*
X153266900Y-118625853D01*
X153421772Y-118561703D01*
X153586184Y-118529000D01*
X153753816Y-118529000D01*
X153918228Y-118561703D01*
G37*
G36*
X190777395Y-115925546D02*
G01*
X190950466Y-115997234D01*
X190950467Y-115997235D01*
X191106227Y-116101310D01*
X191238690Y-116233773D01*
X191238691Y-116233775D01*
X191342766Y-116389534D01*
X191414454Y-116562605D01*
X191451000Y-116746333D01*
X191451000Y-116933667D01*
X191414454Y-117117395D01*
X191342766Y-117290466D01*
X191342765Y-117290467D01*
X191238690Y-117446227D01*
X191106227Y-117578690D01*
X191105763Y-117579000D01*
X190950466Y-117682766D01*
X190777395Y-117754454D01*
X190593667Y-117791000D01*
X190406333Y-117791000D01*
X190222605Y-117754454D01*
X190049534Y-117682766D01*
X189894237Y-117579000D01*
X189893773Y-117578690D01*
X189761310Y-117446227D01*
X189657235Y-117290467D01*
X189657234Y-117290466D01*
X189585546Y-117117395D01*
X189549000Y-116933667D01*
X189549000Y-116746333D01*
X189585546Y-116562605D01*
X189657234Y-116389534D01*
X189761309Y-116233775D01*
X189761310Y-116233773D01*
X189893773Y-116101310D01*
X190049533Y-115997235D01*
X190049534Y-115997234D01*
X190222605Y-115925546D01*
X190406333Y-115889000D01*
X190593667Y-115889000D01*
X190777395Y-115925546D01*
G37*
G36*
X181887395Y-115925546D02*
G01*
X182060466Y-115997234D01*
X182060467Y-115997235D01*
X182216227Y-116101310D01*
X182348690Y-116233773D01*
X182348691Y-116233775D01*
X182452766Y-116389534D01*
X182524454Y-116562605D01*
X182561000Y-116746333D01*
X182561000Y-116933667D01*
X182524454Y-117117395D01*
X182452766Y-117290466D01*
X182452765Y-117290467D01*
X182348690Y-117446227D01*
X182216227Y-117578690D01*
X182215763Y-117579000D01*
X182060466Y-117682766D01*
X181887395Y-117754454D01*
X181703667Y-117791000D01*
X181516333Y-117791000D01*
X181332605Y-117754454D01*
X181159534Y-117682766D01*
X181004237Y-117579000D01*
X181003773Y-117578690D01*
X180871310Y-117446227D01*
X180767235Y-117290467D01*
X180767234Y-117290466D01*
X180695546Y-117117395D01*
X180659000Y-116933667D01*
X180659000Y-116746333D01*
X180695546Y-116562605D01*
X180767234Y-116389534D01*
X180871309Y-116233775D01*
X180871310Y-116233773D01*
X181003773Y-116101310D01*
X181159533Y-115997235D01*
X181159534Y-115997234D01*
X181332605Y-115925546D01*
X181516333Y-115889000D01*
X181703667Y-115889000D01*
X181887395Y-115925546D01*
G37*
G36*
X186967395Y-115925546D02*
G01*
X187140466Y-115997234D01*
X187140467Y-115997235D01*
X187296227Y-116101310D01*
X187428690Y-116233773D01*
X187428691Y-116233775D01*
X187532766Y-116389534D01*
X187604454Y-116562605D01*
X187641000Y-116746333D01*
X187641000Y-116933667D01*
X187604454Y-117117395D01*
X187532766Y-117290466D01*
X187532765Y-117290467D01*
X187428690Y-117446227D01*
X187296227Y-117578690D01*
X187295763Y-117579000D01*
X187140466Y-117682766D01*
X186967395Y-117754454D01*
X186783667Y-117791000D01*
X186596333Y-117791000D01*
X186412605Y-117754454D01*
X186239534Y-117682766D01*
X186084237Y-117579000D01*
X186083773Y-117578690D01*
X185951310Y-117446227D01*
X185847235Y-117290467D01*
X185847234Y-117290466D01*
X185775546Y-117117395D01*
X185739000Y-116933667D01*
X185739000Y-116746333D01*
X185775546Y-116562605D01*
X185847234Y-116389534D01*
X185951309Y-116233775D01*
X185951310Y-116233773D01*
X186083773Y-116101310D01*
X186239533Y-115997235D01*
X186239534Y-115997234D01*
X186412605Y-115925546D01*
X186596333Y-115889000D01*
X186783667Y-115889000D01*
X186967395Y-115925546D01*
G37*
G36*
X167571000Y-115781000D02*
G01*
X165169000Y-115781000D01*
X165169000Y-112179000D01*
X167571000Y-112179000D01*
X167571000Y-115781000D01*
G37*
G36*
X186967395Y-113385546D02*
G01*
X187140466Y-113457234D01*
X187140467Y-113457235D01*
X187296227Y-113561310D01*
X187428690Y-113693773D01*
X187428691Y-113693775D01*
X187532766Y-113849534D01*
X187604454Y-114022605D01*
X187641000Y-114206333D01*
X187641000Y-114393667D01*
X187604454Y-114577395D01*
X187532766Y-114750466D01*
X187532765Y-114750467D01*
X187428690Y-114906227D01*
X187296227Y-115038690D01*
X187217818Y-115091081D01*
X187140466Y-115142766D01*
X186967395Y-115214454D01*
X186783667Y-115251000D01*
X186596333Y-115251000D01*
X186412605Y-115214454D01*
X186239534Y-115142766D01*
X186162182Y-115091081D01*
X186083773Y-115038690D01*
X185951310Y-114906227D01*
X185847235Y-114750467D01*
X185847234Y-114750466D01*
X185775546Y-114577395D01*
X185739000Y-114393667D01*
X185739000Y-114206333D01*
X185775546Y-114022605D01*
X185847234Y-113849534D01*
X185951309Y-113693775D01*
X185951310Y-113693773D01*
X186083773Y-113561310D01*
X186239533Y-113457235D01*
X186239534Y-113457234D01*
X186412605Y-113385546D01*
X186596333Y-113349000D01*
X186783667Y-113349000D01*
X186967395Y-113385546D01*
G37*
G36*
X181887395Y-113385546D02*
G01*
X182060466Y-113457234D01*
X182060467Y-113457235D01*
X182216227Y-113561310D01*
X182348690Y-113693773D01*
X182348691Y-113693775D01*
X182452766Y-113849534D01*
X182524454Y-114022605D01*
X182561000Y-114206333D01*
X182561000Y-114393667D01*
X182524454Y-114577395D01*
X182452766Y-114750466D01*
X182452765Y-114750467D01*
X182348690Y-114906227D01*
X182216227Y-115038690D01*
X182137818Y-115091081D01*
X182060466Y-115142766D01*
X181887395Y-115214454D01*
X181703667Y-115251000D01*
X181516333Y-115251000D01*
X181332605Y-115214454D01*
X181159534Y-115142766D01*
X181082182Y-115091081D01*
X181003773Y-115038690D01*
X180871310Y-114906227D01*
X180767235Y-114750467D01*
X180767234Y-114750466D01*
X180695546Y-114577395D01*
X180659000Y-114393667D01*
X180659000Y-114206333D01*
X180695546Y-114022605D01*
X180767234Y-113849534D01*
X180871309Y-113693775D01*
X180871310Y-113693773D01*
X181003773Y-113561310D01*
X181159533Y-113457235D01*
X181159534Y-113457234D01*
X181332605Y-113385546D01*
X181516333Y-113349000D01*
X181703667Y-113349000D01*
X181887395Y-113385546D01*
G37*
G36*
X191451000Y-115251000D02*
G01*
X189549000Y-115251000D01*
X189549000Y-113349000D01*
X191451000Y-113349000D01*
X191451000Y-115251000D01*
G37*
G36*
X145028228Y-110941703D02*
G01*
X145183100Y-111005853D01*
X145322481Y-111098985D01*
X145441015Y-111217519D01*
X145534147Y-111356900D01*
X145598297Y-111511772D01*
X145631000Y-111676184D01*
X145631000Y-111843816D01*
X145598297Y-112008228D01*
X145534147Y-112163100D01*
X145441015Y-112302481D01*
X145322481Y-112421015D01*
X145183100Y-112514147D01*
X145028228Y-112578297D01*
X144863816Y-112611000D01*
X144696184Y-112611000D01*
X144531772Y-112578297D01*
X144376900Y-112514147D01*
X144237519Y-112421015D01*
X144118985Y-112302481D01*
X144025853Y-112163100D01*
X143961703Y-112008228D01*
X143929000Y-111843816D01*
X143929000Y-111676184D01*
X143961703Y-111511772D01*
X144025853Y-111356900D01*
X144118985Y-111217519D01*
X144237519Y-111098985D01*
X144376900Y-111005853D01*
X144531772Y-110941703D01*
X144696184Y-110909000D01*
X144863816Y-110909000D01*
X145028228Y-110941703D01*
G37*
G36*
X134868228Y-110941703D02*
G01*
X135023100Y-111005853D01*
X135162481Y-111098985D01*
X135281015Y-111217519D01*
X135374147Y-111356900D01*
X135438297Y-111511772D01*
X135471000Y-111676184D01*
X135471000Y-111843816D01*
X135438297Y-112008228D01*
X135374147Y-112163100D01*
X135281015Y-112302481D01*
X135162481Y-112421015D01*
X135023100Y-112514147D01*
X134868228Y-112578297D01*
X134703816Y-112611000D01*
X134536184Y-112611000D01*
X134371772Y-112578297D01*
X134216900Y-112514147D01*
X134077519Y-112421015D01*
X133958985Y-112302481D01*
X133865853Y-112163100D01*
X133801703Y-112008228D01*
X133769000Y-111843816D01*
X133769000Y-111676184D01*
X133801703Y-111511772D01*
X133865853Y-111356900D01*
X133958985Y-111217519D01*
X134077519Y-111098985D01*
X134216900Y-111005853D01*
X134371772Y-110941703D01*
X134536184Y-110909000D01*
X134703816Y-110909000D01*
X134868228Y-110941703D01*
G37*
G36*
X132328228Y-110941703D02*
G01*
X132483100Y-111005853D01*
X132622481Y-111098985D01*
X132741015Y-111217519D01*
X132834147Y-111356900D01*
X132898297Y-111511772D01*
X132931000Y-111676184D01*
X132931000Y-111843816D01*
X132898297Y-112008228D01*
X132834147Y-112163100D01*
X132741015Y-112302481D01*
X132622481Y-112421015D01*
X132483100Y-112514147D01*
X132328228Y-112578297D01*
X132163816Y-112611000D01*
X131996184Y-112611000D01*
X131831772Y-112578297D01*
X131676900Y-112514147D01*
X131537519Y-112421015D01*
X131418985Y-112302481D01*
X131325853Y-112163100D01*
X131261703Y-112008228D01*
X131229000Y-111843816D01*
X131229000Y-111676184D01*
X131261703Y-111511772D01*
X131325853Y-111356900D01*
X131418985Y-111217519D01*
X131537519Y-111098985D01*
X131676900Y-111005853D01*
X131831772Y-110941703D01*
X131996184Y-110909000D01*
X132163816Y-110909000D01*
X132328228Y-110941703D01*
G37*
G36*
X139948228Y-110941703D02*
G01*
X140103100Y-111005853D01*
X140242481Y-111098985D01*
X140361015Y-111217519D01*
X140454147Y-111356900D01*
X140518297Y-111511772D01*
X140551000Y-111676184D01*
X140551000Y-111843816D01*
X140518297Y-112008228D01*
X140454147Y-112163100D01*
X140361015Y-112302481D01*
X140242481Y-112421015D01*
X140103100Y-112514147D01*
X139948228Y-112578297D01*
X139783816Y-112611000D01*
X139616184Y-112611000D01*
X139451772Y-112578297D01*
X139296900Y-112514147D01*
X139157519Y-112421015D01*
X139038985Y-112302481D01*
X138945853Y-112163100D01*
X138881703Y-112008228D01*
X138849000Y-111843816D01*
X138849000Y-111676184D01*
X138881703Y-111511772D01*
X138945853Y-111356900D01*
X139038985Y-111217519D01*
X139157519Y-111098985D01*
X139296900Y-111005853D01*
X139451772Y-110941703D01*
X139616184Y-110909000D01*
X139783816Y-110909000D01*
X139948228Y-110941703D01*
G37*
G36*
X137408228Y-110941703D02*
G01*
X137563100Y-111005853D01*
X137702481Y-111098985D01*
X137821015Y-111217519D01*
X137914147Y-111356900D01*
X137978297Y-111511772D01*
X138011000Y-111676184D01*
X138011000Y-111843816D01*
X137978297Y-112008228D01*
X137914147Y-112163100D01*
X137821015Y-112302481D01*
X137702481Y-112421015D01*
X137563100Y-112514147D01*
X137408228Y-112578297D01*
X137243816Y-112611000D01*
X137076184Y-112611000D01*
X136911772Y-112578297D01*
X136756900Y-112514147D01*
X136617519Y-112421015D01*
X136498985Y-112302481D01*
X136405853Y-112163100D01*
X136341703Y-112008228D01*
X136309000Y-111843816D01*
X136309000Y-111676184D01*
X136341703Y-111511772D01*
X136405853Y-111356900D01*
X136498985Y-111217519D01*
X136617519Y-111098985D01*
X136756900Y-111005853D01*
X136911772Y-110941703D01*
X137076184Y-110909000D01*
X137243816Y-110909000D01*
X137408228Y-110941703D01*
G37*
G36*
X142488228Y-110941703D02*
G01*
X142643100Y-111005853D01*
X142782481Y-111098985D01*
X142901015Y-111217519D01*
X142994147Y-111356900D01*
X143058297Y-111511772D01*
X143091000Y-111676184D01*
X143091000Y-111843816D01*
X143058297Y-112008228D01*
X142994147Y-112163100D01*
X142901015Y-112302481D01*
X142782481Y-112421015D01*
X142643100Y-112514147D01*
X142488228Y-112578297D01*
X142323816Y-112611000D01*
X142156184Y-112611000D01*
X141991772Y-112578297D01*
X141836900Y-112514147D01*
X141697519Y-112421015D01*
X141578985Y-112302481D01*
X141485853Y-112163100D01*
X141421703Y-112008228D01*
X141389000Y-111843816D01*
X141389000Y-111676184D01*
X141421703Y-111511772D01*
X141485853Y-111356900D01*
X141578985Y-111217519D01*
X141697519Y-111098985D01*
X141836900Y-111005853D01*
X141991772Y-110941703D01*
X142156184Y-110909000D01*
X142323816Y-110909000D01*
X142488228Y-110941703D01*
G37*
G36*
X162141000Y-112611000D02*
G01*
X160439000Y-112611000D01*
X160439000Y-110909000D01*
X162141000Y-110909000D01*
X162141000Y-112611000D01*
G37*
G36*
X158998228Y-110941703D02*
G01*
X159153100Y-111005853D01*
X159292481Y-111098985D01*
X159411015Y-111217519D01*
X159504147Y-111356900D01*
X159568297Y-111511772D01*
X159601000Y-111676184D01*
X159601000Y-111843816D01*
X159568297Y-112008228D01*
X159504147Y-112163100D01*
X159411015Y-112302481D01*
X159292481Y-112421015D01*
X159153100Y-112514147D01*
X158998228Y-112578297D01*
X158833816Y-112611000D01*
X158666184Y-112611000D01*
X158501772Y-112578297D01*
X158346900Y-112514147D01*
X158207519Y-112421015D01*
X158088985Y-112302481D01*
X157995853Y-112163100D01*
X157931703Y-112008228D01*
X157899000Y-111843816D01*
X157899000Y-111676184D01*
X157931703Y-111511772D01*
X157995853Y-111356900D01*
X158088985Y-111217519D01*
X158207519Y-111098985D01*
X158346900Y-111005853D01*
X158501772Y-110941703D01*
X158666184Y-110909000D01*
X158833816Y-110909000D01*
X158998228Y-110941703D01*
G37*
G36*
X172651000Y-112611000D02*
G01*
X170249000Y-112611000D01*
X170249000Y-109009000D01*
X172651000Y-109009000D01*
X172651000Y-112611000D01*
G37*
G36*
X156458228Y-110941703D02*
G01*
X156613100Y-111005853D01*
X156752481Y-111098985D01*
X156871015Y-111217519D01*
X156964147Y-111356900D01*
X157028297Y-111511772D01*
X157061000Y-111676184D01*
X157061000Y-111843816D01*
X157028297Y-112008228D01*
X156964147Y-112163100D01*
X156871015Y-112302481D01*
X156752481Y-112421015D01*
X156613100Y-112514147D01*
X156458228Y-112578297D01*
X156293816Y-112611000D01*
X156126184Y-112611000D01*
X155961772Y-112578297D01*
X155806900Y-112514147D01*
X155667519Y-112421015D01*
X155548985Y-112302481D01*
X155455853Y-112163100D01*
X155391703Y-112008228D01*
X155359000Y-111843816D01*
X155359000Y-111676184D01*
X155391703Y-111511772D01*
X155455853Y-111356900D01*
X155548985Y-111217519D01*
X155667519Y-111098985D01*
X155806900Y-111005853D01*
X155961772Y-110941703D01*
X156126184Y-110909000D01*
X156293816Y-110909000D01*
X156458228Y-110941703D01*
G37*
G36*
X177731000Y-112611000D02*
G01*
X175329000Y-112611000D01*
X175329000Y-109009000D01*
X177731000Y-109009000D01*
X177731000Y-112611000D01*
G37*
G36*
X153918228Y-110941703D02*
G01*
X154073100Y-111005853D01*
X154212481Y-111098985D01*
X154331015Y-111217519D01*
X154424147Y-111356900D01*
X154488297Y-111511772D01*
X154521000Y-111676184D01*
X154521000Y-111843816D01*
X154488297Y-112008228D01*
X154424147Y-112163100D01*
X154331015Y-112302481D01*
X154212481Y-112421015D01*
X154073100Y-112514147D01*
X153918228Y-112578297D01*
X153753816Y-112611000D01*
X153586184Y-112611000D01*
X153421772Y-112578297D01*
X153266900Y-112514147D01*
X153127519Y-112421015D01*
X153008985Y-112302481D01*
X152915853Y-112163100D01*
X152851703Y-112008228D01*
X152819000Y-111843816D01*
X152819000Y-111676184D01*
X152851703Y-111511772D01*
X152915853Y-111356900D01*
X153008985Y-111217519D01*
X153127519Y-111098985D01*
X153266900Y-111005853D01*
X153421772Y-110941703D01*
X153586184Y-110909000D01*
X153753816Y-110909000D01*
X153918228Y-110941703D01*
G37*
G36*
X150711000Y-112611000D02*
G01*
X149009000Y-112611000D01*
X149009000Y-110909000D01*
X150711000Y-110909000D01*
X150711000Y-112611000D01*
G37*
G36*
X147568228Y-110941703D02*
G01*
X147723100Y-111005853D01*
X147862481Y-111098985D01*
X147981015Y-111217519D01*
X148074147Y-111356900D01*
X148138297Y-111511772D01*
X148171000Y-111676184D01*
X148171000Y-111843816D01*
X148138297Y-112008228D01*
X148074147Y-112163100D01*
X147981015Y-112302481D01*
X147862481Y-112421015D01*
X147723100Y-112514147D01*
X147568228Y-112578297D01*
X147403816Y-112611000D01*
X147236184Y-112611000D01*
X147071772Y-112578297D01*
X146916900Y-112514147D01*
X146777519Y-112421015D01*
X146658985Y-112302481D01*
X146565853Y-112163100D01*
X146501703Y-112008228D01*
X146469000Y-111843816D01*
X146469000Y-111676184D01*
X146501703Y-111511772D01*
X146565853Y-111356900D01*
X146658985Y-111217519D01*
X146777519Y-111098985D01*
X146916900Y-111005853D01*
X147071772Y-110941703D01*
X147236184Y-110909000D01*
X147403816Y-110909000D01*
X147568228Y-110941703D01*
G37*
G36*
X190777395Y-109575546D02*
G01*
X190950466Y-109647234D01*
X191009751Y-109686847D01*
X191106227Y-109751310D01*
X191238690Y-109883773D01*
X191238691Y-109883775D01*
X191342766Y-110039534D01*
X191414454Y-110212605D01*
X191451000Y-110396333D01*
X191451000Y-110583667D01*
X191414454Y-110767395D01*
X191342766Y-110940466D01*
X191342765Y-110940467D01*
X191238690Y-111096227D01*
X191106227Y-111228690D01*
X191027818Y-111281081D01*
X190950466Y-111332766D01*
X190777395Y-111404454D01*
X190593667Y-111441000D01*
X190406333Y-111441000D01*
X190222605Y-111404454D01*
X190049534Y-111332766D01*
X189972182Y-111281081D01*
X189893773Y-111228690D01*
X189761310Y-111096227D01*
X189657235Y-110940467D01*
X189657234Y-110940466D01*
X189585546Y-110767395D01*
X189549000Y-110583667D01*
X189549000Y-110396333D01*
X189585546Y-110212605D01*
X189657234Y-110039534D01*
X189761309Y-109883775D01*
X189761310Y-109883773D01*
X189893773Y-109751310D01*
X189990249Y-109686847D01*
X190049534Y-109647234D01*
X190222605Y-109575546D01*
X190406333Y-109539000D01*
X190593667Y-109539000D01*
X190777395Y-109575546D01*
G37*
G36*
X182561000Y-111441000D02*
G01*
X180659000Y-111441000D01*
X180659000Y-109539000D01*
X182561000Y-109539000D01*
X182561000Y-111441000D01*
G37*
G36*
X187641000Y-111441000D02*
G01*
X185739000Y-111441000D01*
X185739000Y-109539000D01*
X187641000Y-109539000D01*
X187641000Y-111441000D01*
G37*
G36*
X154874499Y-108698445D02*
G01*
X154911995Y-108709820D01*
X154946554Y-108728292D01*
X154976847Y-108753153D01*
X155001708Y-108783446D01*
X155020180Y-108818005D01*
X155031555Y-108855501D01*
X155036000Y-108900638D01*
X155036000Y-109539362D01*
X155031555Y-109584499D01*
X155020180Y-109621995D01*
X155001708Y-109656554D01*
X154976847Y-109686847D01*
X154946554Y-109711708D01*
X154911995Y-109730180D01*
X154874499Y-109741555D01*
X154829362Y-109746000D01*
X154090638Y-109746000D01*
X154045501Y-109741555D01*
X154008005Y-109730180D01*
X153973446Y-109711708D01*
X153943153Y-109686847D01*
X153918292Y-109656554D01*
X153899820Y-109621995D01*
X153888445Y-109584499D01*
X153884000Y-109539362D01*
X153884000Y-108900638D01*
X153888445Y-108855501D01*
X153899820Y-108818005D01*
X153918292Y-108783446D01*
X153943153Y-108753153D01*
X153973446Y-108728292D01*
X154008005Y-108709820D01*
X154045501Y-108698445D01*
X154090638Y-108694000D01*
X154829362Y-108694000D01*
X154874499Y-108698445D01*
G37*
G36*
X146944499Y-108698445D02*
G01*
X146981995Y-108709820D01*
X147016554Y-108728292D01*
X147046847Y-108753153D01*
X147071708Y-108783446D01*
X147090180Y-108818005D01*
X147101555Y-108855501D01*
X147106000Y-108900638D01*
X147106000Y-109539362D01*
X147101555Y-109584499D01*
X147090180Y-109621995D01*
X147071708Y-109656554D01*
X147046847Y-109686847D01*
X147016554Y-109711708D01*
X146981995Y-109730180D01*
X146944499Y-109741555D01*
X146899362Y-109746000D01*
X146160638Y-109746000D01*
X146115501Y-109741555D01*
X146078005Y-109730180D01*
X146043446Y-109711708D01*
X146013153Y-109686847D01*
X145988292Y-109656554D01*
X145969820Y-109621995D01*
X145958445Y-109584499D01*
X145954000Y-109539362D01*
X145954000Y-108900638D01*
X145958445Y-108855501D01*
X145969820Y-108818005D01*
X145988292Y-108783446D01*
X146013153Y-108753153D01*
X146043446Y-108728292D01*
X146078005Y-108709820D01*
X146115501Y-108698445D01*
X146160638Y-108694000D01*
X146899362Y-108694000D01*
X146944499Y-108698445D01*
G37*
G36*
X145194499Y-108698445D02*
G01*
X145231995Y-108709820D01*
X145266554Y-108728292D01*
X145296847Y-108753153D01*
X145321708Y-108783446D01*
X145340180Y-108818005D01*
X145351555Y-108855501D01*
X145356000Y-108900638D01*
X145356000Y-109539362D01*
X145351555Y-109584499D01*
X145340180Y-109621995D01*
X145321708Y-109656554D01*
X145296847Y-109686847D01*
X145266554Y-109711708D01*
X145231995Y-109730180D01*
X145194499Y-109741555D01*
X145149362Y-109746000D01*
X144410638Y-109746000D01*
X144365501Y-109741555D01*
X144328005Y-109730180D01*
X144293446Y-109711708D01*
X144263153Y-109686847D01*
X144238292Y-109656554D01*
X144219820Y-109621995D01*
X144208445Y-109584499D01*
X144204000Y-109539362D01*
X144204000Y-108900638D01*
X144208445Y-108855501D01*
X144219820Y-108818005D01*
X144238292Y-108783446D01*
X144263153Y-108753153D01*
X144293446Y-108728292D01*
X144328005Y-108709820D01*
X144365501Y-108698445D01*
X144410638Y-108694000D01*
X145149362Y-108694000D01*
X145194499Y-108698445D01*
G37*
G36*
X142259499Y-108698445D02*
G01*
X142296995Y-108709820D01*
X142331554Y-108728292D01*
X142361847Y-108753153D01*
X142386708Y-108783446D01*
X142405180Y-108818005D01*
X142416555Y-108855501D01*
X142421000Y-108900638D01*
X142421000Y-109539362D01*
X142416555Y-109584499D01*
X142405180Y-109621995D01*
X142386708Y-109656554D01*
X142361847Y-109686847D01*
X142331554Y-109711708D01*
X142296995Y-109730180D01*
X142259499Y-109741555D01*
X142214362Y-109746000D01*
X141475638Y-109746000D01*
X141430501Y-109741555D01*
X141393005Y-109730180D01*
X141358446Y-109711708D01*
X141328153Y-109686847D01*
X141303292Y-109656554D01*
X141284820Y-109621995D01*
X141273445Y-109584499D01*
X141269000Y-109539362D01*
X141269000Y-108900638D01*
X141273445Y-108855501D01*
X141284820Y-108818005D01*
X141303292Y-108783446D01*
X141328153Y-108753153D01*
X141358446Y-108728292D01*
X141393005Y-108709820D01*
X141430501Y-108698445D01*
X141475638Y-108694000D01*
X142214362Y-108694000D01*
X142259499Y-108698445D01*
G37*
G36*
X140509499Y-108698445D02*
G01*
X140546995Y-108709820D01*
X140581554Y-108728292D01*
X140611847Y-108753153D01*
X140636708Y-108783446D01*
X140655180Y-108818005D01*
X140666555Y-108855501D01*
X140671000Y-108900638D01*
X140671000Y-109539362D01*
X140666555Y-109584499D01*
X140655180Y-109621995D01*
X140636708Y-109656554D01*
X140611847Y-109686847D01*
X140581554Y-109711708D01*
X140546995Y-109730180D01*
X140509499Y-109741555D01*
X140464362Y-109746000D01*
X139725638Y-109746000D01*
X139680501Y-109741555D01*
X139643005Y-109730180D01*
X139608446Y-109711708D01*
X139578153Y-109686847D01*
X139553292Y-109656554D01*
X139534820Y-109621995D01*
X139523445Y-109584499D01*
X139519000Y-109539362D01*
X139519000Y-108900638D01*
X139523445Y-108855501D01*
X139534820Y-108818005D01*
X139553292Y-108783446D01*
X139578153Y-108753153D01*
X139608446Y-108728292D01*
X139643005Y-108709820D01*
X139680501Y-108698445D01*
X139725638Y-108694000D01*
X140464362Y-108694000D01*
X140509499Y-108698445D01*
G37*
G36*
X135824499Y-108698445D02*
G01*
X135861995Y-108709820D01*
X135896554Y-108728292D01*
X135926847Y-108753153D01*
X135951708Y-108783446D01*
X135970180Y-108818005D01*
X135981555Y-108855501D01*
X135986000Y-108900638D01*
X135986000Y-109539362D01*
X135981555Y-109584499D01*
X135970180Y-109621995D01*
X135951708Y-109656554D01*
X135926847Y-109686847D01*
X135896554Y-109711708D01*
X135861995Y-109730180D01*
X135824499Y-109741555D01*
X135779362Y-109746000D01*
X135040638Y-109746000D01*
X134995501Y-109741555D01*
X134958005Y-109730180D01*
X134923446Y-109711708D01*
X134893153Y-109686847D01*
X134868292Y-109656554D01*
X134849820Y-109621995D01*
X134838445Y-109584499D01*
X134834000Y-109539362D01*
X134834000Y-108900638D01*
X134838445Y-108855501D01*
X134849820Y-108818005D01*
X134868292Y-108783446D01*
X134893153Y-108753153D01*
X134923446Y-108728292D01*
X134958005Y-108709820D01*
X134995501Y-108698445D01*
X135040638Y-108694000D01*
X135779362Y-108694000D01*
X135824499Y-108698445D01*
G37*
G36*
X137574499Y-108698445D02*
G01*
X137611995Y-108709820D01*
X137646554Y-108728292D01*
X137676847Y-108753153D01*
X137701708Y-108783446D01*
X137720180Y-108818005D01*
X137731555Y-108855501D01*
X137736000Y-108900638D01*
X137736000Y-109539362D01*
X137731555Y-109584499D01*
X137720180Y-109621995D01*
X137701708Y-109656554D01*
X137676847Y-109686847D01*
X137646554Y-109711708D01*
X137611995Y-109730180D01*
X137574499Y-109741555D01*
X137529362Y-109746000D01*
X136790638Y-109746000D01*
X136745501Y-109741555D01*
X136708005Y-109730180D01*
X136673446Y-109711708D01*
X136643153Y-109686847D01*
X136618292Y-109656554D01*
X136599820Y-109621995D01*
X136588445Y-109584499D01*
X136584000Y-109539362D01*
X136584000Y-108900638D01*
X136588445Y-108855501D01*
X136599820Y-108818005D01*
X136618292Y-108783446D01*
X136643153Y-108753153D01*
X136673446Y-108728292D01*
X136708005Y-108709820D01*
X136745501Y-108698445D01*
X136790638Y-108694000D01*
X137529362Y-108694000D01*
X137574499Y-108698445D01*
G37*
G36*
X150274499Y-108698445D02*
G01*
X150311995Y-108709820D01*
X150346554Y-108728292D01*
X150376847Y-108753153D01*
X150401708Y-108783446D01*
X150420180Y-108818005D01*
X150431555Y-108855501D01*
X150436000Y-108900638D01*
X150436000Y-109539362D01*
X150431555Y-109584499D01*
X150420180Y-109621995D01*
X150401708Y-109656554D01*
X150376847Y-109686847D01*
X150346554Y-109711708D01*
X150311995Y-109730180D01*
X150274499Y-109741555D01*
X150229362Y-109746000D01*
X149490638Y-109746000D01*
X149445501Y-109741555D01*
X149408005Y-109730180D01*
X149373446Y-109711708D01*
X149343153Y-109686847D01*
X149318292Y-109656554D01*
X149299820Y-109621995D01*
X149288445Y-109584499D01*
X149284000Y-109539362D01*
X149284000Y-108900638D01*
X149288445Y-108855501D01*
X149299820Y-108818005D01*
X149318292Y-108783446D01*
X149343153Y-108753153D01*
X149373446Y-108728292D01*
X149408005Y-108709820D01*
X149445501Y-108698445D01*
X149490638Y-108694000D01*
X150229362Y-108694000D01*
X150274499Y-108698445D01*
G37*
G36*
X152024499Y-108698445D02*
G01*
X152061995Y-108709820D01*
X152096554Y-108728292D01*
X152126847Y-108753153D01*
X152151708Y-108783446D01*
X152170180Y-108818005D01*
X152181555Y-108855501D01*
X152186000Y-108900638D01*
X152186000Y-109539362D01*
X152181555Y-109584499D01*
X152170180Y-109621995D01*
X152151708Y-109656554D01*
X152126847Y-109686847D01*
X152096554Y-109711708D01*
X152061995Y-109730180D01*
X152024499Y-109741555D01*
X151979362Y-109746000D01*
X151240638Y-109746000D01*
X151195501Y-109741555D01*
X151158005Y-109730180D01*
X151123446Y-109711708D01*
X151093153Y-109686847D01*
X151068292Y-109656554D01*
X151049820Y-109621995D01*
X151038445Y-109584499D01*
X151034000Y-109539362D01*
X151034000Y-108900638D01*
X151038445Y-108855501D01*
X151049820Y-108818005D01*
X151068292Y-108783446D01*
X151093153Y-108753153D01*
X151123446Y-108728292D01*
X151158005Y-108709820D01*
X151195501Y-108698445D01*
X151240638Y-108694000D01*
X151979362Y-108694000D01*
X152024499Y-108698445D01*
G37*
G36*
X156624499Y-108698445D02*
G01*
X156661995Y-108709820D01*
X156696554Y-108728292D01*
X156726847Y-108753153D01*
X156751708Y-108783446D01*
X156770180Y-108818005D01*
X156781555Y-108855501D01*
X156786000Y-108900638D01*
X156786000Y-109539362D01*
X156781555Y-109584499D01*
X156770180Y-109621995D01*
X156751708Y-109656554D01*
X156726847Y-109686847D01*
X156696554Y-109711708D01*
X156661995Y-109730180D01*
X156624499Y-109741555D01*
X156579362Y-109746000D01*
X155840638Y-109746000D01*
X155795501Y-109741555D01*
X155758005Y-109730180D01*
X155723446Y-109711708D01*
X155693153Y-109686847D01*
X155668292Y-109656554D01*
X155649820Y-109621995D01*
X155638445Y-109584499D01*
X155634000Y-109539362D01*
X155634000Y-108900638D01*
X155638445Y-108855501D01*
X155649820Y-108818005D01*
X155668292Y-108783446D01*
X155693153Y-108753153D01*
X155723446Y-108728292D01*
X155758005Y-108709820D01*
X155795501Y-108698445D01*
X155840638Y-108694000D01*
X156579362Y-108694000D01*
X156624499Y-108698445D01*
G37*
G36*
X159164499Y-108698445D02*
G01*
X159201995Y-108709820D01*
X159236554Y-108728292D01*
X159266847Y-108753153D01*
X159291708Y-108783446D01*
X159310180Y-108818005D01*
X159321555Y-108855501D01*
X159326000Y-108900638D01*
X159326000Y-109539362D01*
X159321555Y-109584499D01*
X159310180Y-109621995D01*
X159291708Y-109656554D01*
X159266847Y-109686847D01*
X159236554Y-109711708D01*
X159201995Y-109730180D01*
X159164499Y-109741555D01*
X159119362Y-109746000D01*
X158380638Y-109746000D01*
X158335501Y-109741555D01*
X158298005Y-109730180D01*
X158263446Y-109711708D01*
X158233153Y-109686847D01*
X158208292Y-109656554D01*
X158189820Y-109621995D01*
X158178445Y-109584499D01*
X158174000Y-109539362D01*
X158174000Y-108900638D01*
X158178445Y-108855501D01*
X158189820Y-108818005D01*
X158208292Y-108783446D01*
X158233153Y-108753153D01*
X158263446Y-108728292D01*
X158298005Y-108709820D01*
X158335501Y-108698445D01*
X158380638Y-108694000D01*
X159119362Y-108694000D01*
X159164499Y-108698445D01*
G37*
G36*
X160914499Y-108698445D02*
G01*
X160951995Y-108709820D01*
X160986554Y-108728292D01*
X161016847Y-108753153D01*
X161041708Y-108783446D01*
X161060180Y-108818005D01*
X161071555Y-108855501D01*
X161076000Y-108900638D01*
X161076000Y-109539362D01*
X161071555Y-109584499D01*
X161060180Y-109621995D01*
X161041708Y-109656554D01*
X161016847Y-109686847D01*
X160986554Y-109711708D01*
X160951995Y-109730180D01*
X160914499Y-109741555D01*
X160869362Y-109746000D01*
X160130638Y-109746000D01*
X160085501Y-109741555D01*
X160048005Y-109730180D01*
X160013446Y-109711708D01*
X159983153Y-109686847D01*
X159958292Y-109656554D01*
X159939820Y-109621995D01*
X159928445Y-109584499D01*
X159924000Y-109539362D01*
X159924000Y-108900638D01*
X159928445Y-108855501D01*
X159939820Y-108818005D01*
X159958292Y-108783446D01*
X159983153Y-108753153D01*
X160013446Y-108728292D01*
X160048005Y-108709820D01*
X160085501Y-108698445D01*
X160130638Y-108694000D01*
X160869362Y-108694000D01*
X160914499Y-108698445D01*
G37*
G36*
X186967395Y-107035546D02*
G01*
X187140466Y-107107234D01*
X187140467Y-107107235D01*
X187296227Y-107211310D01*
X187428690Y-107343773D01*
X187428691Y-107343775D01*
X187532766Y-107499534D01*
X187604454Y-107672605D01*
X187641000Y-107856333D01*
X187641000Y-108043667D01*
X187604454Y-108227395D01*
X187532766Y-108400466D01*
X187532765Y-108400467D01*
X187428690Y-108556227D01*
X187296227Y-108688690D01*
X187258318Y-108714020D01*
X187140466Y-108792766D01*
X186967395Y-108864454D01*
X186783667Y-108901000D01*
X186596333Y-108901000D01*
X186412605Y-108864454D01*
X186239534Y-108792766D01*
X186121682Y-108714020D01*
X186083773Y-108688690D01*
X185951310Y-108556227D01*
X185847235Y-108400467D01*
X185847234Y-108400466D01*
X185775546Y-108227395D01*
X185739000Y-108043667D01*
X185739000Y-107856333D01*
X185775546Y-107672605D01*
X185847234Y-107499534D01*
X185951309Y-107343775D01*
X185951310Y-107343773D01*
X186083773Y-107211310D01*
X186239533Y-107107235D01*
X186239534Y-107107234D01*
X186412605Y-107035546D01*
X186596333Y-106999000D01*
X186783667Y-106999000D01*
X186967395Y-107035546D01*
G37*
G36*
X190777395Y-107035546D02*
G01*
X190950466Y-107107234D01*
X190950467Y-107107235D01*
X191106227Y-107211310D01*
X191238690Y-107343773D01*
X191238691Y-107343775D01*
X191342766Y-107499534D01*
X191414454Y-107672605D01*
X191451000Y-107856333D01*
X191451000Y-108043667D01*
X191414454Y-108227395D01*
X191342766Y-108400466D01*
X191342765Y-108400467D01*
X191238690Y-108556227D01*
X191106227Y-108688690D01*
X191068318Y-108714020D01*
X190950466Y-108792766D01*
X190777395Y-108864454D01*
X190593667Y-108901000D01*
X190406333Y-108901000D01*
X190222605Y-108864454D01*
X190049534Y-108792766D01*
X189931682Y-108714020D01*
X189893773Y-108688690D01*
X189761310Y-108556227D01*
X189657235Y-108400467D01*
X189657234Y-108400466D01*
X189585546Y-108227395D01*
X189549000Y-108043667D01*
X189549000Y-107856333D01*
X189585546Y-107672605D01*
X189657234Y-107499534D01*
X189761309Y-107343775D01*
X189761310Y-107343773D01*
X189893773Y-107211310D01*
X190049533Y-107107235D01*
X190049534Y-107107234D01*
X190222605Y-107035546D01*
X190406333Y-106999000D01*
X190593667Y-106999000D01*
X190777395Y-107035546D01*
G37*
G36*
X181887395Y-107035546D02*
G01*
X182060466Y-107107234D01*
X182060467Y-107107235D01*
X182216227Y-107211310D01*
X182348690Y-107343773D01*
X182348691Y-107343775D01*
X182452766Y-107499534D01*
X182524454Y-107672605D01*
X182561000Y-107856333D01*
X182561000Y-108043667D01*
X182524454Y-108227395D01*
X182452766Y-108400466D01*
X182452765Y-108400467D01*
X182348690Y-108556227D01*
X182216227Y-108688690D01*
X182178318Y-108714020D01*
X182060466Y-108792766D01*
X181887395Y-108864454D01*
X181703667Y-108901000D01*
X181516333Y-108901000D01*
X181332605Y-108864454D01*
X181159534Y-108792766D01*
X181041682Y-108714020D01*
X181003773Y-108688690D01*
X180871310Y-108556227D01*
X180767235Y-108400467D01*
X180767234Y-108400466D01*
X180695546Y-108227395D01*
X180659000Y-108043667D01*
X180659000Y-107856333D01*
X180695546Y-107672605D01*
X180767234Y-107499534D01*
X180871309Y-107343775D01*
X180871310Y-107343773D01*
X181003773Y-107211310D01*
X181159533Y-107107235D01*
X181159534Y-107107234D01*
X181332605Y-107035546D01*
X181516333Y-106999000D01*
X181703667Y-106999000D01*
X181887395Y-107035546D01*
G37*
G36*
X157728228Y-105861703D02*
G01*
X157883100Y-105925853D01*
X158022481Y-106018985D01*
X158141015Y-106137519D01*
X158234147Y-106276900D01*
X158298297Y-106431772D01*
X158331000Y-106596184D01*
X158331000Y-106763816D01*
X158298297Y-106928228D01*
X158234147Y-107083100D01*
X158141015Y-107222481D01*
X158022481Y-107341015D01*
X157883100Y-107434147D01*
X157728228Y-107498297D01*
X157563816Y-107531000D01*
X157396184Y-107531000D01*
X157231772Y-107498297D01*
X157076900Y-107434147D01*
X156937519Y-107341015D01*
X156818985Y-107222481D01*
X156725853Y-107083100D01*
X156661703Y-106928228D01*
X156629000Y-106763816D01*
X156629000Y-106596184D01*
X156661703Y-106431772D01*
X156725853Y-106276900D01*
X156818985Y-106137519D01*
X156937519Y-106018985D01*
X157076900Y-105925853D01*
X157231772Y-105861703D01*
X157396184Y-105829000D01*
X157563816Y-105829000D01*
X157728228Y-105861703D01*
G37*
G36*
X165348228Y-105861703D02*
G01*
X165503100Y-105925853D01*
X165642481Y-106018985D01*
X165761015Y-106137519D01*
X165854147Y-106276900D01*
X165918297Y-106431772D01*
X165951000Y-106596184D01*
X165951000Y-106763816D01*
X165918297Y-106928228D01*
X165854147Y-107083100D01*
X165761015Y-107222481D01*
X165642481Y-107341015D01*
X165503100Y-107434147D01*
X165348228Y-107498297D01*
X165183816Y-107531000D01*
X165016184Y-107531000D01*
X164851772Y-107498297D01*
X164696900Y-107434147D01*
X164557519Y-107341015D01*
X164438985Y-107222481D01*
X164345853Y-107083100D01*
X164281703Y-106928228D01*
X164249000Y-106763816D01*
X164249000Y-106596184D01*
X164281703Y-106431772D01*
X164345853Y-106276900D01*
X164438985Y-106137519D01*
X164557519Y-106018985D01*
X164696900Y-105925853D01*
X164851772Y-105861703D01*
X165016184Y-105829000D01*
X165183816Y-105829000D01*
X165348228Y-105861703D01*
G37*
G36*
X162808228Y-105861703D02*
G01*
X162963100Y-105925853D01*
X163102481Y-106018985D01*
X163221015Y-106137519D01*
X163314147Y-106276900D01*
X163378297Y-106431772D01*
X163411000Y-106596184D01*
X163411000Y-106763816D01*
X163378297Y-106928228D01*
X163314147Y-107083100D01*
X163221015Y-107222481D01*
X163102481Y-107341015D01*
X162963100Y-107434147D01*
X162808228Y-107498297D01*
X162643816Y-107531000D01*
X162476184Y-107531000D01*
X162311772Y-107498297D01*
X162156900Y-107434147D01*
X162017519Y-107341015D01*
X161898985Y-107222481D01*
X161805853Y-107083100D01*
X161741703Y-106928228D01*
X161709000Y-106763816D01*
X161709000Y-106596184D01*
X161741703Y-106431772D01*
X161805853Y-106276900D01*
X161898985Y-106137519D01*
X162017519Y-106018985D01*
X162156900Y-105925853D01*
X162311772Y-105861703D01*
X162476184Y-105829000D01*
X162643816Y-105829000D01*
X162808228Y-105861703D01*
G37*
G36*
X160268228Y-105861703D02*
G01*
X160423100Y-105925853D01*
X160562481Y-106018985D01*
X160681015Y-106137519D01*
X160774147Y-106276900D01*
X160838297Y-106431772D01*
X160871000Y-106596184D01*
X160871000Y-106763816D01*
X160838297Y-106928228D01*
X160774147Y-107083100D01*
X160681015Y-107222481D01*
X160562481Y-107341015D01*
X160423100Y-107434147D01*
X160268228Y-107498297D01*
X160103816Y-107531000D01*
X159936184Y-107531000D01*
X159771772Y-107498297D01*
X159616900Y-107434147D01*
X159477519Y-107341015D01*
X159358985Y-107222481D01*
X159265853Y-107083100D01*
X159201703Y-106928228D01*
X159169000Y-106763816D01*
X159169000Y-106596184D01*
X159201703Y-106431772D01*
X159265853Y-106276900D01*
X159358985Y-106137519D01*
X159477519Y-106018985D01*
X159616900Y-105925853D01*
X159771772Y-105861703D01*
X159936184Y-105829000D01*
X160103816Y-105829000D01*
X160268228Y-105861703D01*
G37*
G36*
X155188228Y-105861703D02*
G01*
X155343100Y-105925853D01*
X155482481Y-106018985D01*
X155601015Y-106137519D01*
X155694147Y-106276900D01*
X155758297Y-106431772D01*
X155791000Y-106596184D01*
X155791000Y-106763816D01*
X155758297Y-106928228D01*
X155694147Y-107083100D01*
X155601015Y-107222481D01*
X155482481Y-107341015D01*
X155343100Y-107434147D01*
X155188228Y-107498297D01*
X155023816Y-107531000D01*
X154856184Y-107531000D01*
X154691772Y-107498297D01*
X154536900Y-107434147D01*
X154397519Y-107341015D01*
X154278985Y-107222481D01*
X154185853Y-107083100D01*
X154121703Y-106928228D01*
X154089000Y-106763816D01*
X154089000Y-106596184D01*
X154121703Y-106431772D01*
X154185853Y-106276900D01*
X154278985Y-106137519D01*
X154397519Y-106018985D01*
X154536900Y-105925853D01*
X154691772Y-105861703D01*
X154856184Y-105829000D01*
X155023816Y-105829000D01*
X155188228Y-105861703D01*
G37*
G36*
X150711000Y-107531000D02*
G01*
X149009000Y-107531000D01*
X149009000Y-105829000D01*
X150711000Y-105829000D01*
X150711000Y-107531000D01*
G37*
G36*
X152648228Y-105861703D02*
G01*
X152803100Y-105925853D01*
X152942481Y-106018985D01*
X153061015Y-106137519D01*
X153154147Y-106276900D01*
X153218297Y-106431772D01*
X153251000Y-106596184D01*
X153251000Y-106763816D01*
X153218297Y-106928228D01*
X153154147Y-107083100D01*
X153061015Y-107222481D01*
X152942481Y-107341015D01*
X152803100Y-107434147D01*
X152648228Y-107498297D01*
X152483816Y-107531000D01*
X152316184Y-107531000D01*
X152151772Y-107498297D01*
X151996900Y-107434147D01*
X151857519Y-107341015D01*
X151738985Y-107222481D01*
X151645853Y-107083100D01*
X151581703Y-106928228D01*
X151549000Y-106763816D01*
X151549000Y-106596184D01*
X151581703Y-106431772D01*
X151645853Y-106276900D01*
X151738985Y-106137519D01*
X151857519Y-106018985D01*
X151996900Y-105925853D01*
X152151772Y-105861703D01*
X152316184Y-105829000D01*
X152483816Y-105829000D01*
X152648228Y-105861703D01*
G37*
G36*
X172651000Y-107211000D02*
G01*
X170249000Y-107211000D01*
X170249000Y-103609000D01*
X172651000Y-103609000D01*
X172651000Y-107211000D01*
G37*
G36*
X177731000Y-107211000D02*
G01*
X175329000Y-107211000D01*
X175329000Y-103609000D01*
X177731000Y-103609000D01*
X177731000Y-107211000D01*
G37*
G36*
X191451000Y-106361000D02*
G01*
X189549000Y-106361000D01*
X189549000Y-104459000D01*
X191451000Y-104459000D01*
X191451000Y-106361000D01*
G37*
G36*
X181887395Y-104495546D02*
G01*
X182060466Y-104567234D01*
X182060467Y-104567235D01*
X182216227Y-104671310D01*
X182348690Y-104803773D01*
X182348691Y-104803775D01*
X182452766Y-104959534D01*
X182524454Y-105132605D01*
X182561000Y-105316333D01*
X182561000Y-105503667D01*
X182524454Y-105687395D01*
X182452766Y-105860466D01*
X182452765Y-105860467D01*
X182348690Y-106016227D01*
X182216227Y-106148690D01*
X182137818Y-106201081D01*
X182060466Y-106252766D01*
X181887395Y-106324454D01*
X181703667Y-106361000D01*
X181516333Y-106361000D01*
X181332605Y-106324454D01*
X181159534Y-106252766D01*
X181082182Y-106201081D01*
X181003773Y-106148690D01*
X180871310Y-106016227D01*
X180767235Y-105860467D01*
X180767234Y-105860466D01*
X180695546Y-105687395D01*
X180659000Y-105503667D01*
X180659000Y-105316333D01*
X180695546Y-105132605D01*
X180767234Y-104959534D01*
X180871309Y-104803775D01*
X180871310Y-104803773D01*
X181003773Y-104671310D01*
X181159533Y-104567235D01*
X181159534Y-104567234D01*
X181332605Y-104495546D01*
X181516333Y-104459000D01*
X181703667Y-104459000D01*
X181887395Y-104495546D01*
G37*
G36*
X186967395Y-104495546D02*
G01*
X187140466Y-104567234D01*
X187140467Y-104567235D01*
X187296227Y-104671310D01*
X187428690Y-104803773D01*
X187428691Y-104803775D01*
X187532766Y-104959534D01*
X187604454Y-105132605D01*
X187641000Y-105316333D01*
X187641000Y-105503667D01*
X187604454Y-105687395D01*
X187532766Y-105860466D01*
X187532765Y-105860467D01*
X187428690Y-106016227D01*
X187296227Y-106148690D01*
X187217818Y-106201081D01*
X187140466Y-106252766D01*
X186967395Y-106324454D01*
X186783667Y-106361000D01*
X186596333Y-106361000D01*
X186412605Y-106324454D01*
X186239534Y-106252766D01*
X186162182Y-106201081D01*
X186083773Y-106148690D01*
X185951310Y-106016227D01*
X185847235Y-105860467D01*
X185847234Y-105860466D01*
X185775546Y-105687395D01*
X185739000Y-105503667D01*
X185739000Y-105316333D01*
X185775546Y-105132605D01*
X185847234Y-104959534D01*
X185951309Y-104803775D01*
X185951310Y-104803773D01*
X186083773Y-104671310D01*
X186239533Y-104567235D01*
X186239534Y-104567234D01*
X186412605Y-104495546D01*
X186596333Y-104459000D01*
X186783667Y-104459000D01*
X186967395Y-104495546D01*
G37*
G36*
X145681000Y-102501000D02*
G01*
X143879000Y-102501000D01*
X143879000Y-100699000D01*
X145681000Y-100699000D01*
X145681000Y-102501000D01*
G37*
G36*
X141871000Y-102501000D02*
G01*
X140069000Y-102501000D01*
X140069000Y-100699000D01*
X141871000Y-100699000D01*
X141871000Y-102501000D01*
G37*
G36*
X181723512Y-100703927D02*
G01*
X181872812Y-100733624D01*
X182036784Y-100801544D01*
X182184354Y-100900147D01*
X182309853Y-101025646D01*
X182408456Y-101173216D01*
X182476376Y-101337188D01*
X182511000Y-101511259D01*
X182511000Y-101688741D01*
X182476376Y-101862812D01*
X182408456Y-102026784D01*
X182309853Y-102174354D01*
X182184354Y-102299853D01*
X182036784Y-102398456D01*
X181872812Y-102466376D01*
X181723512Y-102496073D01*
X181698742Y-102501000D01*
X181521258Y-102501000D01*
X181496488Y-102496073D01*
X181347188Y-102466376D01*
X181183216Y-102398456D01*
X181035646Y-102299853D01*
X180910147Y-102174354D01*
X180811544Y-102026784D01*
X180743624Y-101862812D01*
X180709000Y-101688741D01*
X180709000Y-101511259D01*
X180743624Y-101337188D01*
X180811544Y-101173216D01*
X180910147Y-101025646D01*
X181035646Y-100900147D01*
X181183216Y-100801544D01*
X181347188Y-100733624D01*
X181496488Y-100703927D01*
X181521258Y-100699000D01*
X181698742Y-100699000D01*
X181723512Y-100703927D01*
G37*
G36*
X177913512Y-100703927D02*
G01*
X178062812Y-100733624D01*
X178226784Y-100801544D01*
X178374354Y-100900147D01*
X178499853Y-101025646D01*
X178598456Y-101173216D01*
X178666376Y-101337188D01*
X178701000Y-101511259D01*
X178701000Y-101688741D01*
X178666376Y-101862812D01*
X178598456Y-102026784D01*
X178499853Y-102174354D01*
X178374354Y-102299853D01*
X178226784Y-102398456D01*
X178062812Y-102466376D01*
X177913512Y-102496073D01*
X177888742Y-102501000D01*
X177711258Y-102501000D01*
X177686488Y-102496073D01*
X177537188Y-102466376D01*
X177373216Y-102398456D01*
X177225646Y-102299853D01*
X177100147Y-102174354D01*
X177001544Y-102026784D01*
X176933624Y-101862812D01*
X176899000Y-101688741D01*
X176899000Y-101511259D01*
X176933624Y-101337188D01*
X177001544Y-101173216D01*
X177100147Y-101025646D01*
X177225646Y-100900147D01*
X177373216Y-100801544D01*
X177537188Y-100733624D01*
X177686488Y-100703927D01*
X177711258Y-100699000D01*
X177888742Y-100699000D01*
X177913512Y-100703927D01*
G37*
G36*
X187891000Y-102131000D02*
G01*
X185489000Y-102131000D01*
X185489000Y-98529000D01*
X187891000Y-98529000D01*
X187891000Y-102131000D01*
G37*
G36*
X192971000Y-102131000D02*
G01*
X190569000Y-102131000D01*
X190569000Y-98529000D01*
X192971000Y-98529000D01*
X192971000Y-102131000D01*
G37*
G36*
X182511000Y-99961000D02*
G01*
X180709000Y-99961000D01*
X180709000Y-98159000D01*
X182511000Y-98159000D01*
X182511000Y-99961000D01*
G37*
G36*
X141083512Y-98163927D02*
G01*
X141232812Y-98193624D01*
X141396784Y-98261544D01*
X141544354Y-98360147D01*
X141669853Y-98485646D01*
X141768456Y-98633216D01*
X141836376Y-98797188D01*
X141871000Y-98971259D01*
X141871000Y-99148741D01*
X141836376Y-99322812D01*
X141768456Y-99486784D01*
X141669853Y-99634354D01*
X141544354Y-99759853D01*
X141396784Y-99858456D01*
X141232812Y-99926376D01*
X141083512Y-99956073D01*
X141058742Y-99961000D01*
X140881258Y-99961000D01*
X140856488Y-99956073D01*
X140707188Y-99926376D01*
X140543216Y-99858456D01*
X140395646Y-99759853D01*
X140270147Y-99634354D01*
X140171544Y-99486784D01*
X140103624Y-99322812D01*
X140069000Y-99148741D01*
X140069000Y-98971259D01*
X140103624Y-98797188D01*
X140171544Y-98633216D01*
X140270147Y-98485646D01*
X140395646Y-98360147D01*
X140543216Y-98261544D01*
X140707188Y-98193624D01*
X140856488Y-98163927D01*
X140881258Y-98159000D01*
X141058742Y-98159000D01*
X141083512Y-98163927D01*
G37*
G36*
X144893512Y-98163927D02*
G01*
X145042812Y-98193624D01*
X145206784Y-98261544D01*
X145354354Y-98360147D01*
X145479853Y-98485646D01*
X145578456Y-98633216D01*
X145646376Y-98797188D01*
X145681000Y-98971259D01*
X145681000Y-99148741D01*
X145646376Y-99322812D01*
X145578456Y-99486784D01*
X145479853Y-99634354D01*
X145354354Y-99759853D01*
X145206784Y-99858456D01*
X145042812Y-99926376D01*
X144893512Y-99956073D01*
X144868742Y-99961000D01*
X144691258Y-99961000D01*
X144666488Y-99956073D01*
X144517188Y-99926376D01*
X144353216Y-99858456D01*
X144205646Y-99759853D01*
X144080147Y-99634354D01*
X143981544Y-99486784D01*
X143913624Y-99322812D01*
X143879000Y-99148741D01*
X143879000Y-98971259D01*
X143913624Y-98797188D01*
X143981544Y-98633216D01*
X144080147Y-98485646D01*
X144205646Y-98360147D01*
X144353216Y-98261544D01*
X144517188Y-98193624D01*
X144666488Y-98163927D01*
X144691258Y-98159000D01*
X144868742Y-98159000D01*
X144893512Y-98163927D01*
G37*
G36*
X178701000Y-99961000D02*
G01*
X176899000Y-99961000D01*
X176899000Y-98159000D01*
X178701000Y-98159000D01*
X178701000Y-99961000D01*
G37*
G36*
X165348228Y-98241703D02*
G01*
X165503100Y-98305853D01*
X165642481Y-98398985D01*
X165761015Y-98517519D01*
X165854147Y-98656900D01*
X165918297Y-98811772D01*
X165951000Y-98976184D01*
X165951000Y-99143816D01*
X165918297Y-99308228D01*
X165854147Y-99463100D01*
X165761015Y-99602481D01*
X165642481Y-99721015D01*
X165503100Y-99814147D01*
X165348228Y-99878297D01*
X165183816Y-99911000D01*
X165016184Y-99911000D01*
X164851772Y-99878297D01*
X164696900Y-99814147D01*
X164557519Y-99721015D01*
X164438985Y-99602481D01*
X164345853Y-99463100D01*
X164281703Y-99308228D01*
X164249000Y-99143816D01*
X164249000Y-98976184D01*
X164281703Y-98811772D01*
X164345853Y-98656900D01*
X164438985Y-98517519D01*
X164557519Y-98398985D01*
X164696900Y-98305853D01*
X164851772Y-98241703D01*
X165016184Y-98209000D01*
X165183816Y-98209000D01*
X165348228Y-98241703D01*
G37*
G36*
X150108228Y-98241703D02*
G01*
X150263100Y-98305853D01*
X150402481Y-98398985D01*
X150521015Y-98517519D01*
X150614147Y-98656900D01*
X150678297Y-98811772D01*
X150711000Y-98976184D01*
X150711000Y-99143816D01*
X150678297Y-99308228D01*
X150614147Y-99463100D01*
X150521015Y-99602481D01*
X150402481Y-99721015D01*
X150263100Y-99814147D01*
X150108228Y-99878297D01*
X149943816Y-99911000D01*
X149776184Y-99911000D01*
X149611772Y-99878297D01*
X149456900Y-99814147D01*
X149317519Y-99721015D01*
X149198985Y-99602481D01*
X149105853Y-99463100D01*
X149041703Y-99308228D01*
X149009000Y-99143816D01*
X149009000Y-98976184D01*
X149041703Y-98811772D01*
X149105853Y-98656900D01*
X149198985Y-98517519D01*
X149317519Y-98398985D01*
X149456900Y-98305853D01*
X149611772Y-98241703D01*
X149776184Y-98209000D01*
X149943816Y-98209000D01*
X150108228Y-98241703D01*
G37*
G36*
X152648228Y-98241703D02*
G01*
X152803100Y-98305853D01*
X152942481Y-98398985D01*
X153061015Y-98517519D01*
X153154147Y-98656900D01*
X153218297Y-98811772D01*
X153251000Y-98976184D01*
X153251000Y-99143816D01*
X153218297Y-99308228D01*
X153154147Y-99463100D01*
X153061015Y-99602481D01*
X152942481Y-99721015D01*
X152803100Y-99814147D01*
X152648228Y-99878297D01*
X152483816Y-99911000D01*
X152316184Y-99911000D01*
X152151772Y-99878297D01*
X151996900Y-99814147D01*
X151857519Y-99721015D01*
X151738985Y-99602481D01*
X151645853Y-99463100D01*
X151581703Y-99308228D01*
X151549000Y-99143816D01*
X151549000Y-98976184D01*
X151581703Y-98811772D01*
X151645853Y-98656900D01*
X151738985Y-98517519D01*
X151857519Y-98398985D01*
X151996900Y-98305853D01*
X152151772Y-98241703D01*
X152316184Y-98209000D01*
X152483816Y-98209000D01*
X152648228Y-98241703D01*
G37*
G36*
X157728228Y-98241703D02*
G01*
X157883100Y-98305853D01*
X158022481Y-98398985D01*
X158141015Y-98517519D01*
X158234147Y-98656900D01*
X158298297Y-98811772D01*
X158331000Y-98976184D01*
X158331000Y-99143816D01*
X158298297Y-99308228D01*
X158234147Y-99463100D01*
X158141015Y-99602481D01*
X158022481Y-99721015D01*
X157883100Y-99814147D01*
X157728228Y-99878297D01*
X157563816Y-99911000D01*
X157396184Y-99911000D01*
X157231772Y-99878297D01*
X157076900Y-99814147D01*
X156937519Y-99721015D01*
X156818985Y-99602481D01*
X156725853Y-99463100D01*
X156661703Y-99308228D01*
X156629000Y-99143816D01*
X156629000Y-98976184D01*
X156661703Y-98811772D01*
X156725853Y-98656900D01*
X156818985Y-98517519D01*
X156937519Y-98398985D01*
X157076900Y-98305853D01*
X157231772Y-98241703D01*
X157396184Y-98209000D01*
X157563816Y-98209000D01*
X157728228Y-98241703D01*
G37*
G36*
X155188228Y-98241703D02*
G01*
X155343100Y-98305853D01*
X155482481Y-98398985D01*
X155601015Y-98517519D01*
X155694147Y-98656900D01*
X155758297Y-98811772D01*
X155791000Y-98976184D01*
X155791000Y-99143816D01*
X155758297Y-99308228D01*
X155694147Y-99463100D01*
X155601015Y-99602481D01*
X155482481Y-99721015D01*
X155343100Y-99814147D01*
X155188228Y-99878297D01*
X155023816Y-99911000D01*
X154856184Y-99911000D01*
X154691772Y-99878297D01*
X154536900Y-99814147D01*
X154397519Y-99721015D01*
X154278985Y-99602481D01*
X154185853Y-99463100D01*
X154121703Y-99308228D01*
X154089000Y-99143816D01*
X154089000Y-98976184D01*
X154121703Y-98811772D01*
X154185853Y-98656900D01*
X154278985Y-98517519D01*
X154397519Y-98398985D01*
X154536900Y-98305853D01*
X154691772Y-98241703D01*
X154856184Y-98209000D01*
X155023816Y-98209000D01*
X155188228Y-98241703D01*
G37*
G36*
X160268228Y-98241703D02*
G01*
X160423100Y-98305853D01*
X160562481Y-98398985D01*
X160681015Y-98517519D01*
X160774147Y-98656900D01*
X160838297Y-98811772D01*
X160871000Y-98976184D01*
X160871000Y-99143816D01*
X160838297Y-99308228D01*
X160774147Y-99463100D01*
X160681015Y-99602481D01*
X160562481Y-99721015D01*
X160423100Y-99814147D01*
X160268228Y-99878297D01*
X160103816Y-99911000D01*
X159936184Y-99911000D01*
X159771772Y-99878297D01*
X159616900Y-99814147D01*
X159477519Y-99721015D01*
X159358985Y-99602481D01*
X159265853Y-99463100D01*
X159201703Y-99308228D01*
X159169000Y-99143816D01*
X159169000Y-98976184D01*
X159201703Y-98811772D01*
X159265853Y-98656900D01*
X159358985Y-98517519D01*
X159477519Y-98398985D01*
X159616900Y-98305853D01*
X159771772Y-98241703D01*
X159936184Y-98209000D01*
X160103816Y-98209000D01*
X160268228Y-98241703D01*
G37*
G36*
X162808228Y-98241703D02*
G01*
X162963100Y-98305853D01*
X163102481Y-98398985D01*
X163221015Y-98517519D01*
X163314147Y-98656900D01*
X163378297Y-98811772D01*
X163411000Y-98976184D01*
X163411000Y-99143816D01*
X163378297Y-99308228D01*
X163314147Y-99463100D01*
X163221015Y-99602481D01*
X163102481Y-99721015D01*
X162963100Y-99814147D01*
X162808228Y-99878297D01*
X162643816Y-99911000D01*
X162476184Y-99911000D01*
X162311772Y-99878297D01*
X162156900Y-99814147D01*
X162017519Y-99721015D01*
X161898985Y-99602481D01*
X161805853Y-99463100D01*
X161741703Y-99308228D01*
X161709000Y-99143816D01*
X161709000Y-98976184D01*
X161741703Y-98811772D01*
X161805853Y-98656900D01*
X161898985Y-98517519D01*
X162017519Y-98398985D01*
X162156900Y-98305853D01*
X162311772Y-98241703D01*
X162476184Y-98209000D01*
X162643816Y-98209000D01*
X162808228Y-98241703D01*
G37*
G36*
X187891000Y-96731000D02*
G01*
X185489000Y-96731000D01*
X185489000Y-93129000D01*
X187891000Y-93129000D01*
X187891000Y-96731000D01*
G37*
G36*
X192971000Y-96731000D02*
G01*
X190569000Y-96731000D01*
X190569000Y-93129000D01*
X192971000Y-93129000D01*
X192971000Y-96731000D01*
G37*
G36*
X159012199Y-93399954D02*
G01*
X159024450Y-93400556D01*
X159042869Y-93400556D01*
X159065149Y-93402750D01*
X159149233Y-93419476D01*
X159170660Y-93425976D01*
X159249858Y-93458780D01*
X159255303Y-93461691D01*
X159255309Y-93461693D01*
X159264169Y-93466429D01*
X159264173Y-93466432D01*
X159269614Y-93469340D01*
X159340899Y-93516971D01*
X159358204Y-93531172D01*
X159418828Y-93591796D01*
X159433029Y-93609101D01*
X159480660Y-93680386D01*
X159483568Y-93685827D01*
X159483571Y-93685831D01*
X159488307Y-93694691D01*
X159488309Y-93694697D01*
X159491220Y-93700142D01*
X159524024Y-93779340D01*
X159530524Y-93800767D01*
X159547250Y-93884851D01*
X159549444Y-93907131D01*
X159549444Y-93925550D01*
X159550046Y-93937801D01*
X159551852Y-93956139D01*
X159551852Y-94443860D01*
X159550263Y-94459999D01*
X159547348Y-94469608D01*
X159542610Y-94478472D01*
X159536237Y-94486237D01*
X159523794Y-94496448D01*
X159513425Y-94503378D01*
X159496098Y-94520705D01*
X159482485Y-94541080D01*
X159473109Y-94563720D01*
X159468329Y-94587753D01*
X159468330Y-94612257D01*
X159473112Y-94636290D01*
X159482490Y-94658929D01*
X159496105Y-94679302D01*
X159513432Y-94696629D01*
X159523802Y-94703558D01*
X159536237Y-94713763D01*
X159542610Y-94721528D01*
X159547348Y-94730392D01*
X159550263Y-94740001D01*
X159551852Y-94756140D01*
X159551852Y-95243862D01*
X159550046Y-95262199D01*
X159549444Y-95274450D01*
X159549444Y-95292869D01*
X159547250Y-95315149D01*
X159530524Y-95399233D01*
X159524024Y-95420660D01*
X159491220Y-95499858D01*
X159488309Y-95505303D01*
X159488307Y-95505309D01*
X159483571Y-95514169D01*
X159483568Y-95514173D01*
X159480660Y-95519614D01*
X159433029Y-95590899D01*
X159418828Y-95608204D01*
X159358204Y-95668828D01*
X159340899Y-95683029D01*
X159269614Y-95730660D01*
X159264173Y-95733568D01*
X159264169Y-95733571D01*
X159255309Y-95738307D01*
X159255303Y-95738309D01*
X159249858Y-95741220D01*
X159170660Y-95774024D01*
X159149233Y-95780524D01*
X159065149Y-95797250D01*
X159042869Y-95799444D01*
X159024450Y-95799444D01*
X159012199Y-95800046D01*
X158993862Y-95801852D01*
X158506138Y-95801852D01*
X158487801Y-95800046D01*
X158475550Y-95799444D01*
X158457131Y-95799444D01*
X158434851Y-95797250D01*
X158350767Y-95780524D01*
X158329340Y-95774024D01*
X158250142Y-95741220D01*
X158244697Y-95738309D01*
X158244691Y-95738307D01*
X158235831Y-95733571D01*
X158235827Y-95733568D01*
X158230386Y-95730660D01*
X158159101Y-95683029D01*
X158141796Y-95668828D01*
X158081172Y-95608204D01*
X158066971Y-95590899D01*
X158019340Y-95519614D01*
X158016432Y-95514173D01*
X158016429Y-95514169D01*
X158011693Y-95505309D01*
X158011691Y-95505303D01*
X158008780Y-95499858D01*
X157975976Y-95420660D01*
X157969476Y-95399233D01*
X157952750Y-95315149D01*
X157950556Y-95292869D01*
X157950556Y-95274450D01*
X157949954Y-95262199D01*
X157948148Y-95243862D01*
X157948148Y-94756140D01*
X157949737Y-94740001D01*
X157952652Y-94730392D01*
X157957390Y-94721528D01*
X157963763Y-94713763D01*
X157976206Y-94703552D01*
X157986575Y-94696622D01*
X158003902Y-94679295D01*
X158017515Y-94658920D01*
X158026891Y-94636280D01*
X158031671Y-94612247D01*
X158031670Y-94587743D01*
X158026888Y-94563710D01*
X158017510Y-94541071D01*
X158003895Y-94520698D01*
X157986568Y-94503371D01*
X157976198Y-94496442D01*
X157963763Y-94486237D01*
X157957390Y-94478472D01*
X157952652Y-94469608D01*
X157949737Y-94459999D01*
X157948148Y-94443860D01*
X157948148Y-93956139D01*
X157949954Y-93937801D01*
X157950556Y-93925550D01*
X157950556Y-93907131D01*
X157952750Y-93884851D01*
X157969476Y-93800767D01*
X157975976Y-93779340D01*
X158008780Y-93700142D01*
X158011691Y-93694697D01*
X158011693Y-93694691D01*
X158016429Y-93685831D01*
X158016432Y-93685827D01*
X158019340Y-93680386D01*
X158066971Y-93609101D01*
X158081172Y-93591796D01*
X158141796Y-93531172D01*
X158159101Y-93516971D01*
X158230386Y-93469340D01*
X158235827Y-93466432D01*
X158235831Y-93466429D01*
X158244691Y-93461693D01*
X158244697Y-93461691D01*
X158250142Y-93458780D01*
X158329340Y-93425976D01*
X158350767Y-93419476D01*
X158434851Y-93402750D01*
X158457131Y-93400556D01*
X158475550Y-93400556D01*
X158487801Y-93399954D01*
X158506139Y-93398148D01*
X158993861Y-93398148D01*
X159012199Y-93399954D01*
G37*
G36*
X155202199Y-93399954D02*
G01*
X155214450Y-93400556D01*
X155232869Y-93400556D01*
X155255149Y-93402750D01*
X155339233Y-93419476D01*
X155360660Y-93425976D01*
X155439858Y-93458780D01*
X155445303Y-93461691D01*
X155445309Y-93461693D01*
X155454169Y-93466429D01*
X155454173Y-93466432D01*
X155459614Y-93469340D01*
X155530899Y-93516971D01*
X155548204Y-93531172D01*
X155608828Y-93591796D01*
X155623029Y-93609101D01*
X155670660Y-93680386D01*
X155673568Y-93685827D01*
X155673571Y-93685831D01*
X155678307Y-93694691D01*
X155678309Y-93694697D01*
X155681220Y-93700142D01*
X155714024Y-93779340D01*
X155720524Y-93800767D01*
X155737250Y-93884851D01*
X155739444Y-93907131D01*
X155739444Y-93925550D01*
X155740046Y-93937801D01*
X155741852Y-93956139D01*
X155741852Y-94443860D01*
X155740263Y-94459999D01*
X155737348Y-94469608D01*
X155732610Y-94478472D01*
X155726237Y-94486237D01*
X155713794Y-94496448D01*
X155703425Y-94503378D01*
X155686098Y-94520705D01*
X155672485Y-94541080D01*
X155663109Y-94563720D01*
X155658329Y-94587753D01*
X155658330Y-94612257D01*
X155663112Y-94636290D01*
X155672490Y-94658929D01*
X155686105Y-94679302D01*
X155703432Y-94696629D01*
X155713802Y-94703558D01*
X155726237Y-94713763D01*
X155732610Y-94721528D01*
X155737348Y-94730392D01*
X155740263Y-94740001D01*
X155741852Y-94756140D01*
X155741852Y-95243862D01*
X155740046Y-95262199D01*
X155739444Y-95274450D01*
X155739444Y-95292869D01*
X155737250Y-95315149D01*
X155720524Y-95399233D01*
X155714024Y-95420660D01*
X155681220Y-95499858D01*
X155678309Y-95505303D01*
X155678307Y-95505309D01*
X155673571Y-95514169D01*
X155673568Y-95514173D01*
X155670660Y-95519614D01*
X155623029Y-95590899D01*
X155608828Y-95608204D01*
X155548204Y-95668828D01*
X155530899Y-95683029D01*
X155459614Y-95730660D01*
X155454173Y-95733568D01*
X155454169Y-95733571D01*
X155445309Y-95738307D01*
X155445303Y-95738309D01*
X155439858Y-95741220D01*
X155360660Y-95774024D01*
X155339233Y-95780524D01*
X155255149Y-95797250D01*
X155232869Y-95799444D01*
X155214450Y-95799444D01*
X155202199Y-95800046D01*
X155183862Y-95801852D01*
X154696138Y-95801852D01*
X154677801Y-95800046D01*
X154665550Y-95799444D01*
X154647131Y-95799444D01*
X154624851Y-95797250D01*
X154540767Y-95780524D01*
X154519340Y-95774024D01*
X154440142Y-95741220D01*
X154434697Y-95738309D01*
X154434691Y-95738307D01*
X154425831Y-95733571D01*
X154425827Y-95733568D01*
X154420386Y-95730660D01*
X154349101Y-95683029D01*
X154331796Y-95668828D01*
X154271172Y-95608204D01*
X154256971Y-95590899D01*
X154209340Y-95519614D01*
X154206432Y-95514173D01*
X154206429Y-95514169D01*
X154201693Y-95505309D01*
X154201691Y-95505303D01*
X154198780Y-95499858D01*
X154165976Y-95420660D01*
X154159476Y-95399233D01*
X154142750Y-95315149D01*
X154140556Y-95292869D01*
X154140556Y-95274450D01*
X154139954Y-95262199D01*
X154138148Y-95243862D01*
X154138148Y-94756140D01*
X154139737Y-94740001D01*
X154142652Y-94730392D01*
X154147390Y-94721528D01*
X154153763Y-94713763D01*
X154166206Y-94703552D01*
X154176575Y-94696622D01*
X154193902Y-94679295D01*
X154207515Y-94658920D01*
X154216891Y-94636280D01*
X154221671Y-94612247D01*
X154221670Y-94587743D01*
X154216888Y-94563710D01*
X154207510Y-94541071D01*
X154193895Y-94520698D01*
X154176568Y-94503371D01*
X154166198Y-94496442D01*
X154153763Y-94486237D01*
X154147390Y-94478472D01*
X154142652Y-94469608D01*
X154139737Y-94459999D01*
X154138148Y-94443860D01*
X154138148Y-93956139D01*
X154139954Y-93937801D01*
X154140556Y-93925550D01*
X154140556Y-93907131D01*
X154142750Y-93884851D01*
X154159476Y-93800767D01*
X154165976Y-93779340D01*
X154198780Y-93700142D01*
X154201691Y-93694697D01*
X154201693Y-93694691D01*
X154206429Y-93685831D01*
X154206432Y-93685827D01*
X154209340Y-93680386D01*
X154256971Y-93609101D01*
X154271172Y-93591796D01*
X154331796Y-93531172D01*
X154349101Y-93516971D01*
X154420386Y-93469340D01*
X154425827Y-93466432D01*
X154425831Y-93466429D01*
X154434691Y-93461693D01*
X154434697Y-93461691D01*
X154440142Y-93458780D01*
X154519340Y-93425976D01*
X154540767Y-93419476D01*
X154624851Y-93402750D01*
X154647131Y-93400556D01*
X154665550Y-93400556D01*
X154677801Y-93399954D01*
X154696139Y-93398148D01*
X155183861Y-93398148D01*
X155202199Y-93399954D01*
G37*
G36*
X151392199Y-93399954D02*
G01*
X151404450Y-93400556D01*
X151422869Y-93400556D01*
X151445149Y-93402750D01*
X151529233Y-93419476D01*
X151550660Y-93425976D01*
X151629858Y-93458780D01*
X151635303Y-93461691D01*
X151635309Y-93461693D01*
X151644169Y-93466429D01*
X151644173Y-93466432D01*
X151649614Y-93469340D01*
X151720899Y-93516971D01*
X151738204Y-93531172D01*
X151798828Y-93591796D01*
X151813029Y-93609101D01*
X151860660Y-93680386D01*
X151863568Y-93685827D01*
X151863571Y-93685831D01*
X151868307Y-93694691D01*
X151868309Y-93694697D01*
X151871220Y-93700142D01*
X151904024Y-93779340D01*
X151910524Y-93800767D01*
X151927250Y-93884851D01*
X151929444Y-93907131D01*
X151929444Y-93925550D01*
X151930046Y-93937801D01*
X151931852Y-93956139D01*
X151931852Y-94443860D01*
X151930263Y-94459999D01*
X151927348Y-94469608D01*
X151922610Y-94478472D01*
X151916237Y-94486237D01*
X151903794Y-94496448D01*
X151893425Y-94503378D01*
X151876098Y-94520705D01*
X151862485Y-94541080D01*
X151853109Y-94563720D01*
X151848329Y-94587753D01*
X151848330Y-94612257D01*
X151853112Y-94636290D01*
X151862490Y-94658929D01*
X151876105Y-94679302D01*
X151893432Y-94696629D01*
X151903802Y-94703558D01*
X151916237Y-94713763D01*
X151922610Y-94721528D01*
X151927348Y-94730392D01*
X151930263Y-94740001D01*
X151931852Y-94756140D01*
X151931852Y-95243862D01*
X151930046Y-95262199D01*
X151929444Y-95274450D01*
X151929444Y-95292869D01*
X151927250Y-95315149D01*
X151910524Y-95399233D01*
X151904024Y-95420660D01*
X151871220Y-95499858D01*
X151868309Y-95505303D01*
X151868307Y-95505309D01*
X151863571Y-95514169D01*
X151863568Y-95514173D01*
X151860660Y-95519614D01*
X151813029Y-95590899D01*
X151798828Y-95608204D01*
X151738204Y-95668828D01*
X151720899Y-95683029D01*
X151649614Y-95730660D01*
X151644173Y-95733568D01*
X151644169Y-95733571D01*
X151635309Y-95738307D01*
X151635303Y-95738309D01*
X151629858Y-95741220D01*
X151550660Y-95774024D01*
X151529233Y-95780524D01*
X151445149Y-95797250D01*
X151422869Y-95799444D01*
X151404450Y-95799444D01*
X151392199Y-95800046D01*
X151373862Y-95801852D01*
X150886138Y-95801852D01*
X150867801Y-95800046D01*
X150855550Y-95799444D01*
X150837131Y-95799444D01*
X150814851Y-95797250D01*
X150730767Y-95780524D01*
X150709340Y-95774024D01*
X150630142Y-95741220D01*
X150624697Y-95738309D01*
X150624691Y-95738307D01*
X150615831Y-95733571D01*
X150615827Y-95733568D01*
X150610386Y-95730660D01*
X150539101Y-95683029D01*
X150521796Y-95668828D01*
X150461172Y-95608204D01*
X150446971Y-95590899D01*
X150399340Y-95519614D01*
X150396432Y-95514173D01*
X150396429Y-95514169D01*
X150391693Y-95505309D01*
X150391691Y-95505303D01*
X150388780Y-95499858D01*
X150355976Y-95420660D01*
X150349476Y-95399233D01*
X150332750Y-95315149D01*
X150330556Y-95292869D01*
X150330556Y-95274450D01*
X150329954Y-95262199D01*
X150328148Y-95243862D01*
X150328148Y-94756140D01*
X150329737Y-94740001D01*
X150332652Y-94730392D01*
X150337390Y-94721528D01*
X150343763Y-94713763D01*
X150356206Y-94703552D01*
X150366575Y-94696622D01*
X150383902Y-94679295D01*
X150397515Y-94658920D01*
X150406891Y-94636280D01*
X150411671Y-94612247D01*
X150411670Y-94587743D01*
X150406888Y-94563710D01*
X150397510Y-94541071D01*
X150383895Y-94520698D01*
X150366568Y-94503371D01*
X150356198Y-94496442D01*
X150343763Y-94486237D01*
X150337390Y-94478472D01*
X150332652Y-94469608D01*
X150329737Y-94459999D01*
X150328148Y-94443860D01*
X150328148Y-93956139D01*
X150329954Y-93937801D01*
X150330556Y-93925550D01*
X150330556Y-93907131D01*
X150332750Y-93884851D01*
X150349476Y-93800767D01*
X150355976Y-93779340D01*
X150388780Y-93700142D01*
X150391691Y-93694697D01*
X150391693Y-93694691D01*
X150396429Y-93685831D01*
X150396432Y-93685827D01*
X150399340Y-93680386D01*
X150446971Y-93609101D01*
X150461172Y-93591796D01*
X150521796Y-93531172D01*
X150539101Y-93516971D01*
X150610386Y-93469340D01*
X150615827Y-93466432D01*
X150615831Y-93466429D01*
X150624691Y-93461693D01*
X150624697Y-93461691D01*
X150630142Y-93458780D01*
X150709340Y-93425976D01*
X150730767Y-93419476D01*
X150814851Y-93402750D01*
X150837131Y-93400556D01*
X150855550Y-93400556D01*
X150867801Y-93399954D01*
X150886139Y-93398148D01*
X151373861Y-93398148D01*
X151392199Y-93399954D01*
G37*
M02*
