M48
; DRILL file {KiCad (5.1.5)-3} date 02.06.2021 23:59:03
; FORMAT={-:-/ absolute / inch / decimal}
; #@! TF.CreationDate,2021-06-02T23:59:03+02:00
; #@! TF.GenerationSoftware,Kicad,Pcbnew,(5.1.5)-3
FMAT,2
INCH
T1C0.0315
T2C0.0394
T3C0.0433
%
G90
G05
T1
X5.9Y-3.9
X5.9Y-4.2
X6.0Y-3.9
X6.0Y-4.2
X6.1Y-3.9
X6.1Y-4.2
X6.2Y-3.9
X6.2Y-4.2
X6.3Y-3.9
X6.3Y-4.2
X6.4Y-3.9
X6.4Y-4.2
X6.5Y-3.9
X6.5Y-4.2
X5.2Y-4.4
X5.2Y-4.7
X5.3Y-4.4
X5.3Y-4.7
X5.4Y-4.4
X5.4Y-4.7
X5.5Y-4.4
X5.5Y-4.7
X5.6Y-4.4
X5.6Y-4.7
X5.7Y-4.4
X5.7Y-4.7
X5.8Y-4.4
X5.8Y-4.7
X5.9Y-4.4
X5.9Y-4.7
X6.05Y-4.4
X6.05Y-4.7
X6.15Y-4.4
X6.15Y-4.7
X6.25Y-4.4
X6.25Y-4.7
X6.35Y-4.4
X6.35Y-4.7
T2
X7.35Y-4.15
X7.35Y-4.25
X7.35Y-4.35
X7.0Y-3.9
X7.0Y-4.0
X7.35Y-4.5
X7.35Y-4.6
X7.35Y-4.7
X7.15Y-4.15
X7.15Y-4.25
X7.15Y-4.35
X5.55Y-3.9
X5.55Y-4.0
X7.5Y-4.15
X7.5Y-4.25
X7.5Y-4.35
X7.5Y-4.5
X7.5Y-4.6
X7.5Y-4.7
X5.7Y-3.9
X5.7Y-4.0
X7.15Y-3.9
X7.15Y-4.0
X7.15Y-4.5
X7.15Y-4.6
X7.15Y-4.7
T3
X5.25Y-5.0
X5.45Y-5.0
X5.65Y-5.0
X5.85Y-5.0
X6.05Y-5.0
X6.25Y-5.0
X6.5Y-5.0
X6.7Y-5.0
X6.9Y-5.0
X7.1Y-5.0
X7.3Y-5.0
X7.5Y-5.0
T0
M30
